<svg version="1.1" width="480" height="240" xmlns="http://www.w3.org/2000/svg">
<rect x="0" y="0" width="480" height="240" fill="#b3a7ad" />
<g transform="scale(1.875, 1.875)">
<path d="M 261.513 140.663 L 21.6597 132.287 L 24.4865 51.3367 L 264.34 59.7126 Z" fill="#622e36" fill-opacity="0.501961" />
<path d="M 330.312 -1.2132 C 429.896 10.5025, 429.896 29.4975, 330.312 41.2132 C 230.729 52.9289, 69.2715 52.9289, -30.3122 41.2132 C -129.896 29.4975, -129.896 10.5025, -30.3122 -1.2132 C 69.2715 -12.9289, 230.729 -12.9289, 330.312 -1.2132" fill="#ffffff" fill-opacity="0.501961" />
<path d="M 67 143 L -16 118 L 77 32 Z" fill="#001fc0" fill-opacity="0.501961" />
<path d="M 215.507 99.489 C 217.99 126.489, 198.16 150.838, 171.216 153.873 C 144.272 156.908, 120.418 137.48, 117.935 110.48 C 115.453 83.4796, 135.283 59.1312, 162.226 56.0962 C 189.17 53.0612, 213.025 72.4888, 215.507 99.489" fill="#faa10a" fill-opacity="0.501961" />
<path d="M 214.331 148.834 C 194.775 128.314, 191.601 92.5136, 207.241 68.8726 C 222.881 45.2315, 251.413 42.7018, 270.968 63.2223 C 290.523 83.7428, 293.698 119.543, 278.058 143.184 C 262.418 166.825, 233.886 169.355, 214.331 148.834" fill="#00bb78" fill-opacity="0.501961" />
<path d="M 71 71 L 271 17 L 87 -16 Z" fill="#ffffff" fill-opacity="0.501961" />
<path d="M 144.113 62.8873 C 161.296 80.0704, 161.296 107.93, 144.113 125.113 C 126.93 142.296, 99.0704 142.296, 81.8873 125.113 C 64.7042 107.93, 64.7042 80.0704, 81.8873 62.8873 C 99.0704 45.7042, 126.93 45.7042, 144.113 62.8873" fill="#e21387" fill-opacity="0.501961" />
<path d="M 29.7117 142.333 L -9.28239 141.653 L -7.71167 51.6665 L 31.2824 52.3472 Z" fill="#2eb8f8" fill-opacity="0.501961" />
<path d="M 271 -3.23997 L -16 3.5515 L 171.379 51.7402 L 175.401 77.5816 Z" fill="#ffffff" fill-opacity="0.501961" />
<path d="M 174.035 143 L 222.127 88.6215 L 199.216 50.5943 L 174.648 40.9877 Z" fill="#c4e54d" fill-opacity="0.501961" />
<path d="M 45.3345 -2.33452 C 58.2218 10.5528, 58.2218 31.4472, 45.3345 44.3345 C 32.4472 57.2218, 11.5528 57.2218, -1.33452 44.3345 C -14.2218 31.4472, -14.2218 10.5528, -1.33452 -2.33452 C 11.5528 -15.2218, 32.4472 -15.2218, 45.3345 -2.33452" fill="#ffffff" fill-opacity="0.501961" />
<path d="M 119.394 126.335 L 121.628 62.3739 L 158.606 63.6651 L 156.372 127.626 Z" fill="#c22700" fill-opacity="0.501961" />
<path d="M 70 58 L 74 137 L 95 41 Z" fill="#ab4df8" fill-opacity="0.501961" />
<path d="M 355.442 -1.09188 C 440.186 9.45227, 440.186 26.5477, 355.442 37.0919 C 270.698 47.636, 133.302 47.636, 48.5578 37.0919 C -36.1859 26.5477, -36.1859 9.45227, 48.5578 -1.09188 C 133.302 -11.636, 270.698 -11.636, 355.442 -1.09188" fill="#ffffff" fill-opacity="0.501961" />
<path d="M 115.953 114.924 C 113.319 137.608, 109.604 137.552, 107.655 114.799 C 105.706 92.0463, 106.262 55.2129, 108.896 32.5292 C 111.53 9.84563, 115.245 9.90167, 117.194 32.6544 C 119.142 55.4072, 118.587 92.2406, 115.953 114.924" fill="#ffbbeb" fill-opacity="0.501961" />
<path d="M 231 89 L 218 37 L 216 134 Z" fill="#1a5816" fill-opacity="0.501961" />
<path d="M 72 143 L 53 88 L 70 39 Z" fill="#220041" fill-opacity="0.501961" />
<path d="M 0 49 L 8 49 L 8 111 L 0 111 Z" fill="#008b7e" fill-opacity="0.501961" />
<path d="M 18.5355 44.967 C 20.4882 74.2563, 20.4882 121.744, 18.5355 151.033 C 16.5829 180.322, 13.4171 180.322, 11.4645 151.033 C 9.51184 121.744, 9.51184 74.2563, 11.4645 44.967 C 13.4171 15.6777, 16.5829 15.6777, 18.5355 44.967" fill="#c8ebff" fill-opacity="0.501961" />
<path d="M 183 -16 L 271 15 L 231 63 Z" fill="#ffffff" fill-opacity="0.501961" />
<path d="M 179.548 48.636 C 204.151 52.1508, 204.151 57.8492, 179.548 61.364 C 154.945 64.8787, 115.055 64.8787, 90.4523 61.364 C 65.8492 57.8492, 65.8492 52.1508, 90.4523 48.636 C 115.055 45.1213, 154.945 45.1213, 179.548 48.636" fill="#b5aa9e" fill-opacity="0.501961" />
<path d="M 257.021 65.5025 C 263.66 92.8392, 263.66 137.161, 257.021 164.497 C 250.382 191.834, 239.618 191.834, 232.979 164.497 C 226.34 137.161, 226.34 92.8392, 232.979 65.5025 C 239.618 38.1658, 250.382 38.1658, 257.021 65.5025" fill="#1499b4" fill-opacity="0.501961" />
<path d="M 12.3983 71.5812 L 56.081 143 L 37.1045 65.3934 L 37.8261 43.0044 Z" fill="#1836ab" fill-opacity="0.501961" />
<path d="M 184.913 46.011 L 203.337 67.1773 L 203.961 143 L 196.672 125.244 Z" fill="#718300" fill-opacity="0.501961" />
<path d="M 70 36 L 76 36 L 76 54 L 70 54 Z" fill="#16001e" fill-opacity="0.501961" />
<path d="M 60.1256 30.436 L 49.6164 44.5725 L 1.02207 93.8239 L 53.2278 60.3269 Z" fill="#848eda" fill-opacity="0.501961" />
<path d="M 245 58 L 255 58 L 255 73 L 245 73 Z" fill="#090017" fill-opacity="0.501961" />
<path d="M 87 59 L 85 59 L 85 127 L 87 127 Z" fill="#000016" fill-opacity="0.501961" />
<path d="M 186.657 66.1802 C 189.781 83.7538, 189.781 112.246, 186.657 129.82 C 183.533 147.393, 178.467 147.393, 175.343 129.82 C 172.219 112.246, 172.219 83.7538, 175.343 66.1802 C 178.467 48.6066, 183.533 48.6066, 186.657 66.1802" fill="#fffc7c" fill-opacity="0.501961" />
<path d="M 205 71 L 215 71 L 215 127 L 205 127 Z" fill="#cdef72" fill-opacity="0.501961" />
<path d="M 82.1149 61.6992 L 86.8583 129.534 L 75.8851 130.301 L 71.1417 62.4665 Z" fill="#c24aff" fill-opacity="0.501961" />
<path d="M 10 55 L -16 88 L -16 52 Z" fill="#170d00" fill-opacity="0.501961" />
<path d="M 236.536 72.0589 C 238.488 90.804, 238.488 121.196, 236.536 139.941 C 234.583 158.686, 231.417 158.686, 229.464 139.941 C 227.512 121.196, 227.512 90.804, 229.464 72.0589 C 231.417 53.3137, 234.583 53.3137, 236.536 72.0589" fill="#45ecc5" fill-opacity="0.501961" />
<path d="M 213.227 68.6614 C 210.871 66.1319, 208.881 61.2801, 208.782 57.8245 C 208.683 54.369, 210.513 53.6183, 212.87 56.1478 C 215.226 58.6773, 217.216 63.5291, 217.315 66.9847 C 217.414 70.4402, 215.583 71.1909, 213.227 68.6614" fill="#000000" fill-opacity="0.501961" />
<path d="M 229.143 96.1759 L 226.739 143 L 220.506 126.953 L 228.817 54.6611 Z" fill="#004008" fill-opacity="0.501961" />
<path d="M 162.828 75.1299 C 164.391 89.9699, 164.391 114.03, 162.828 128.87 C 161.266 143.71, 158.734 143.71, 157.172 128.87 C 155.609 114.03, 155.609 89.9699, 157.172 75.1299 C 158.734 60.29, 161.266 60.29, 162.828 75.1299" fill="#ffce28" fill-opacity="0.501961" />
<path d="M 47 48 L 65 48 L 65 127 L 47 127 Z" fill="#4b1b88" fill-opacity="0.501961" />
<path d="M 221.146 66.8328 L 210.481 47.5912 L 214.854 45.1672 L 225.519 64.4088 Z" fill="#eae8f3" fill-opacity="0.501961" />
<path d="M 133 55 L 134 55 L 134 127 L 133 127 Z" fill="#ffc8bc" fill-opacity="0.501961" />
<path d="M 255.597 -16 L 143.965 -16 L 237.465 62.5037 L 241.398 56.7504 Z" fill="#ffffff" fill-opacity="0.501961" />
<path d="M 120 99 L 121 99 L 121 45 L 120 45 Z" fill="#4c0000" fill-opacity="0.501961" />
<path d="M 81.6185 73.4716 L 89.5126 47.6513 L 92.3815 48.5284 L 84.4874 74.3487 Z" fill="#490049" fill-opacity="0.501961" />
<path d="M -16 4 L 271 -16 L 161 54 Z" fill="#ffffff" fill-opacity="0.501961" />
<path d="M 49 43 L 52 43 L 52 111 L 49 111 Z" fill="#a072d6" fill-opacity="0.501961" />
<path d="M 142 51 L 150 68 L 147 44 Z" fill="#932a1d" fill-opacity="0.501961" />
<path d="M 135 47 L 143 47 L 143 64 L 135 64 Z" fill="#e9f8f3" fill-opacity="0.501961" />
<path d="M 123 59 L 131 59 L 131 109 L 123 109 Z" fill="#ab0000" fill-opacity="0.501961" />
<path d="M 40.2692 45.8733 L 41.688 61.9875 L 76.65 -15.8986 L -15.6434 52.0999 Z" fill="#ffffff" fill-opacity="0.501961" />
<path d="M 48.2426 79.3015 C 50.5858 95.7035, 50.5858 122.296, 48.2426 138.698 C 45.8995 155.101, 42.1005 155.101, 39.7574 138.698 C 37.4142 122.296, 37.4142 95.7035, 39.7574 79.3015 C 42.1005 62.8995, 45.8995 62.8995, 48.2426 79.3015" fill="#00196a" fill-opacity="0.501961" />
<path d="M 232.833 62.917 C 235.103 67.3064, 233.555 68.7272, 229.376 66.0903 C 225.196 63.4535, 219.968 57.7576, 217.698 53.3682 C 215.428 48.9788, 216.976 47.558, 221.155 50.1949 C 225.334 52.8317, 230.563 58.5276, 232.833 62.917" fill="#006555" fill-opacity="0.501961" />
<path d="M 148.707 71.3015 C 149.098 87.7035, 149.098 114.296, 148.707 130.698 C 148.317 147.101, 147.683 147.101, 147.293 130.698 C 146.902 114.296, 146.902 87.7035, 147.293 71.3015 C 147.683 54.8995, 148.317 54.8995, 148.707 71.3015" fill="#000000" fill-opacity="0.501961" />
<path d="M 157 62 L 169 62 L 169 68 L 157 68 Z" fill="#aed3f2" fill-opacity="0.501961" />
<path d="M 9.26211 86.1981 C 11.8709 104.838, 11.253 134.961, 7.88189 153.478 C 4.5108 171.996, -0.33687 171.896, -2.94569 153.256 C -5.55451 134.616, -4.93656 104.494, -1.56547 85.976 C 1.80562 67.4585, 6.65329 67.558, 9.26211 86.1981" fill="#06b9cc" fill-opacity="0.501961" />
<path d="M 30 40 L -16 81 L 23 63 Z" fill="#bdc2e1" fill-opacity="0.501961" />
<path d="M 89 143 L 107 107 L 87 55 Z" fill="#c11ca0" fill-opacity="0.501961" />
<path d="M 172 41 L 182 41 L 182 61 L 172 61 Z" fill="#f2f3ff" fill-opacity="0.501961" />
<path d="M 76 -10 L 121 12 L 97 65 Z" fill="#ffffff" fill-opacity="0.501961" />
<path d="M 169.243 82.6447 C 171.586 102.171, 171.586 133.829, 169.243 153.355 C 166.899 172.882, 163.101 172.882, 160.757 153.355 C 158.414 133.829, 158.414 102.171, 160.757 82.6447 C 163.101 63.1184, 166.899 63.1184, 169.243 82.6447" fill="#ef8e00" fill-opacity="0.501961" />
<path d="M 18.5646 143 L 12.2752 62.6105 L 23.1604 60.3858 L 22.1794 123.967 Z" fill="#5facff" fill-opacity="0.501961" />
<path d="M 172.227 68.716 C 172.744 73.6199, 171.905 73.8009, 170.353 69.1204 C 168.801 64.4399, 167.125 56.6702, 166.608 51.7664 C 166.091 46.8625, 166.93 46.6815, 168.482 51.362 C 170.033 56.0425, 171.71 63.8122, 172.227 68.716" fill="#744500" fill-opacity="0.501961" />
<path d="M 134.956 129.93 C 133.237 114.119, 133.393 88.5024, 135.303 72.7134 C 137.214 56.9245, 140.157 56.9423, 141.876 72.7533 C 143.595 88.5643, 143.439 114.181, 141.529 129.97 C 139.618 145.759, 136.675 145.741, 134.956 129.93" fill="#ff4e46" fill-opacity="0.501961" />
<path d="M -16 59.33 L 88.0736 16.4021 L 64.77 48.7856 L 38.6908 -16 Z" fill="#ffffff" fill-opacity="0.501961" />
<path d="M 47.0112 55.8307 C 51.6712 56.5841, 52.9687 60.109, 49.9092 63.7038 C 46.8496 67.2987, 40.5916 69.6021, 35.9316 68.8488 C 31.2715 68.0954, 29.9741 64.5705, 33.0336 60.9757 C 36.0932 57.3808, 42.3511 55.0774, 47.0112 55.8307" fill="#bfb3bf" fill-opacity="0.501961" />
<path d="M 18.5239 63.0089 L 40.1605 49.3129 L 21.5715 75.0921 L 24.341 60.2214 Z" fill="#000874" fill-opacity="0.501961" />
<path d="M 172.652 132.473 C 172.216 146.732, 171.583 146.73, 171.237 132.468 C 170.892 118.207, 170.965 95.0869, 171.4 80.8281 C 171.836 66.5692, 172.469 66.5712, 172.814 80.8325 C 173.16 95.0938, 173.087 118.214, 172.652 132.473" fill="#612f00" fill-opacity="0.501961" />
<path d="M 45.8337 49.3603 L 59.3783 32.0241 L 60.1663 32.6397 L 46.6217 49.9759 Z" fill="#300384" fill-opacity="0.501961" />
<path d="M 188 78 L 191 78 L 191 127 L 188 127 Z" fill="#808700" fill-opacity="0.501961" />
<path d="M 69 46 L 68 46 L 68 127 L 69 127 Z" fill="#06000d" fill-opacity="0.501961" />
<path d="M 202.414 67.8873 C 203.195 85.0704, 203.195 112.93, 202.414 130.113 C 201.633 147.296, 200.367 147.296, 199.586 130.113 C 198.805 112.93, 198.805 85.0704, 199.586 67.8873 C 200.367 50.7042, 201.633 50.7042, 202.414 67.8873" fill="#424f0a" fill-opacity="0.501961" />
<path d="M 130 46 L 132 46 L 132 115 L 130 115 Z" fill="#a00906" fill-opacity="0.501961" />
<path d="M 230.715 45.8332 C 233.911 48.5154, 238.643 53.309, 241.284 56.5399 C 243.925 59.7708, 243.474 60.2157, 240.278 57.5334 C 237.081 54.8512, 232.349 50.0576, 229.708 46.8267 C 227.067 43.5958, 227.518 43.151, 230.715 45.8332" fill="#39a491" fill-opacity="0.501961" />
<path d="M 271 97 L 245 78 L 241 143 Z" fill="#13617c" fill-opacity="0.501961" />
<path d="M 151 127 L 155 127 L 155 59 L 151 59 Z" fill="#803603" fill-opacity="0.501961" />
<path d="M 215.985 47.454 L 203.728 57.7386 L 196.015 48.546 L 208.272 38.2614 Z" fill="#ffffff" fill-opacity="0.501961" />
<path d="M 92 65 L 106 65 L 106 127 L 92 127 Z" fill="#bc0b80" fill-opacity="0.501961" />
<path d="M 195.289 136.554 L 192.187 38.7313 L 198.99 47.9142 L 192.588 81.2339 Z" fill="#d3de7f" fill-opacity="0.501961" />
<path d="M 71 67 L 84 67 L 84 127 L 71 127 Z" fill="#ba52e5" fill-opacity="0.501961" />
<path d="M 185 44 L 184 44 L 184 52 L 185 52 Z" fill="#403d00" fill-opacity="0.501961" />
<path d="M 9.74839 51.2604 C 8.866 55.8193, 5.79528 62.4512, 2.88975 66.0733 C -0.0157945 69.6954, -1.65589 68.936, -0.773501 64.3771 C 0.108884 59.8183, 3.1796 53.1863, 6.08514 49.5643 C 8.99068 45.9422, 10.6308 46.7016, 9.74839 51.2604" fill="#20512b" fill-opacity="0.501961" />
<path d="M 109.414 58.6238 C 110.195 84.789, 110.195 127.211, 109.414 153.376 C 108.633 179.541, 107.367 179.541, 106.586 153.376 C 105.805 127.211, 105.805 84.789, 106.586 58.6238 C 107.367 32.4587, 108.633 32.4587, 109.414 58.6238" fill="#ffbbf2" fill-opacity="0.501961" />
<path d="M 23.1681 71.6037 C 22.9545 56.7373, 23.5871 56.7115, 24.5812 71.5462 C 25.5752 86.381, 26.5542 110.458, 26.7678 125.325 C 26.9815 140.191, 26.3488 140.217, 25.3548 125.382 C 24.3608 110.548, 23.3818 86.4701, 23.1681 71.6037" fill="#060bca" fill-opacity="0.501961" />
<path d="M 14.1213 52.4228 C 15.2929 67.6533, 15.2929 92.3467, 14.1213 107.577 C 12.9497 122.808, 11.0503 122.808, 9.87868 107.577 C 8.70711 92.3467, 8.70711 67.6533, 9.87868 52.4228 C 11.0503 37.1924, 12.9497 37.1924, 14.1213 52.4228" fill="#c4ecff" fill-opacity="0.501961" />
<path d="M 117.536 67.0589 C 119.488 85.804, 119.488 116.196, 117.536 134.941 C 115.583 153.686, 112.417 153.686, 110.464 134.941 C 108.512 116.196, 108.512 85.804, 110.464 67.0589 C 112.417 48.3137, 115.583 48.3137, 117.536 67.0589" fill="#e15eaf" fill-opacity="0.501961" />
<path d="M 256.352 54.4474 C 250.101 51.916, 244.428 44.4305, 243.682 37.7279 C 242.935 31.0254, 247.397 27.644, 253.648 30.1754 C 259.899 32.7067, 265.572 40.1923, 266.318 46.8948 C 267.065 53.5973, 262.603 56.9787, 256.352 54.4474" fill="#ffffff" fill-opacity="0.501961" />
<path d="M 76 46 L 85 46 L 85 54 L 76 54 Z" fill="#9eab9d" fill-opacity="0.501961" />
<path d="M 93.5075 50.1503 L 106.121 53.2953 L 102.493 67.8497 L 89.8787 64.7047 Z" fill="#a3b6b1" fill-opacity="0.501961" />
<path d="M 218.652 63.004 L 219.651 63.0563 L 217.348 106.996 L 216.349 106.944 Z" fill="#000f00" fill-opacity="0.501961" />
<path d="M 41.449 81.9573 C 46.8974 102.763, 50.4272 137.043, 49.3331 158.522 C 48.2391 180.002, 42.9355 180.548, 37.4872 159.742 C 32.0389 138.936, 28.509 104.657, 29.6031 83.1771 C 30.6971 61.6974, 36.0007 61.1513, 41.449 81.9573" fill="#1b35a0" fill-opacity="0.501961" />
<path d="M 120.707 72.331 C 121.098 98.1056, 121.098 139.894, 120.707 165.669 C 120.317 191.444, 119.683 191.444, 119.293 165.669 C 118.902 139.894, 118.902 98.1056, 119.293 72.331 C 119.683 46.5563, 120.317 46.5563, 120.707 72.331" fill="#300003" fill-opacity="0.501961" />
<path d="M 122 66 L 123 66 L 123 105 L 122 105 Z" fill="#ff7a79" fill-opacity="0.501961" />
<path d="M 30 76 L 30 100 L 26 100 L 26 76 Z" fill="#8991e6" fill-opacity="0.501961" />
<path d="M 54 48 L 67 48 L 67 71 L 54 71 Z" fill="#2e106e" fill-opacity="0.501961" />
<path d="M 243.745 49.9636 L 268.599 60.5134 L 266.255 66.0364 L 241.401 55.4866 Z" fill="#005fb1" fill-opacity="0.501961" />
<path d="M -13.2239 -1.93064 L 124.383 -3.53434 L 11.359 59.06 L 30.3687 56.8464 Z" fill="#ffffff" fill-opacity="0.501961" />
<path d="M 153.121 48.3431 C 154.293 51.4673, 154.293 56.5327, 153.121 59.6569 C 151.95 62.781, 150.05 62.781, 148.879 59.6569 C 147.707 56.5327, 147.707 51.4673, 148.879 48.3431 C 150.05 45.219, 151.95 45.219, 153.121 48.3431" fill="#dad3cd" fill-opacity="0.501961" />
<path d="M 89.0264 60.9597 C 87.1104 62.6495, 85.4697 61.9503, 85.3618 59.3978 C 85.254 56.8454, 86.7198 53.4064, 88.6358 51.7166 C 90.5518 50.0267, 92.1924 50.726, 92.3003 53.2785 C 92.4081 55.8309, 90.9423 59.2699, 89.0264 60.9597" fill="#530554" fill-opacity="0.501961" />
<path d="M 205.177 75.0552 L 202.792 80.3064 L 203.772 57.4329 L 215.255 70.1085 Z" fill="#7c7e8f" fill-opacity="0.501961" />
<path d="M 72.7627 49.5478 L 72.2392 34.5569 L 75.2373 34.4522 L 75.7608 49.4431 Z" fill="#0e003c" fill-opacity="0.501961" />
<path d="M 153.121 75.9167 C 154.293 102.472, 154.293 145.528, 153.121 172.083 C 151.95 198.639, 150.05 198.639, 148.879 172.083 C 147.707 145.528, 147.707 102.472, 148.879 75.9167 C 150.05 49.3611, 151.95 49.3611, 153.121 75.9167" fill="#b67a36" fill-opacity="0.501961" />
<path d="M 158.509 70.0077 L 157.539 70.2497 L 151.491 45.9923 L 152.461 45.7503 Z" fill="#8f5325" fill-opacity="0.501961" />
<path d="M 194.414 66.7365 C 195.195 75.7186, 195.195 90.2814, 194.414 99.2635 C 193.633 108.246, 192.367 108.246, 191.586 99.2635 C 190.805 90.2814, 190.805 75.7186, 191.586 66.7365 C 192.367 57.7545, 193.633 57.7545, 194.414 66.7365" fill="#dce854" fill-opacity="0.501961" />
<path d="M 193 88 L 200 88 L 200 127 L 193 127 Z" fill="#94a915" fill-opacity="0.501961" />
<path d="M 241 127 L 231 127 L 231 63 L 241 63 Z" fill="#31c7a7" fill-opacity="0.501961" />
<path d="M 216.341 72.2355 L 214.076 130.773 L 199.242 143 L 205.034 100.713 Z" fill="#a6d467" fill-opacity="0.501961" />
<path d="M 69.364 97.201 C 72.8787 108.136, 72.8787 125.864, 69.364 136.799 C 65.8492 147.734, 60.1508 147.734, 56.636 136.799 C 53.1213 125.864, 53.1213 108.136, 56.636 97.201 C 60.1508 86.2663, 65.8492 86.2663, 69.364 97.201" fill="#30166e" fill-opacity="0.501961" />
<path d="M 164.536 54.3431 C 166.488 57.4673, 166.488 62.5327, 164.536 65.6569 C 162.583 68.781, 159.417 68.781, 157.464 65.6569 C 155.512 62.5327, 155.512 57.4673, 157.464 54.3431 C 159.417 51.219, 162.583 51.219, 164.536 54.3431" fill="#a3b5ca" fill-opacity="0.501961" />
<path d="M 38 43 L 36 59 L 26 58 Z" fill="#0c2075" fill-opacity="0.501961" />
<path d="M 146.701 63.7253 L 147.032 143 L 134.19 143 L 135.308 66.8366 Z" fill="#ff3c35" fill-opacity="0.501961" />
<path d="M 131 66 L 131 66 L 131 127 L 131 127 Z" fill="#3a0000" fill-opacity="0.501961" />
<path d="M 228.731 82.0081 L 227.734 81.9383 L 229.269 59.9919 L 230.266 60.0617 Z" fill="#00290a" fill-opacity="0.501961" />
<path d="M 209.396 51.5127 L 211.574 60.2454 L 210.604 60.4873 L 208.426 51.7546 Z" fill="#000500" fill-opacity="0.501961" />
<path d="M 173 90 L 176 90 L 176 127 L 173 127 Z" fill="#efec84" fill-opacity="0.501961" />
<path d="M 22.7017 -4.88583 L 72.4435 14.6267 L 43.9446 52.4559 L 38.9567 50.7462 Z" fill="#ffffff" fill-opacity="0.501961" />
<path d="M 190 55 L 193 44 L 197 54 Z" fill="#ded9ff" fill-opacity="0.501961" />
<path d="M 71 59 L 73 59 L 73 105 L 71 105 Z" fill="#d588e2" fill-opacity="0.501961" />
<path d="M 109 41 L 122 41 L 122 47 L 109 47 Z" fill="#c0b0b7" fill-opacity="0.501961" />
<path d="M 48.7071 68.8873 C 49.0976 86.0704, 49.0976 113.93, 48.7071 131.113 C 48.3166 148.296, 47.6834 148.296, 47.2929 131.113 C 46.9024 113.93, 46.9024 86.0704, 47.2929 68.8873 C 47.6834 51.7042, 48.3166 51.7042, 48.7071 68.8873" fill="#07002e" fill-opacity="0.501961" />
<path d="M 138.742 49.9908 L 158.47 43.2004 L 271 0.793454 L -4.20858 -1.3533 Z" fill="#ffffff" fill-opacity="0.501961" />
<path d="M 176 62 L 189 62 L 189 97 L 176 97 Z" fill="#eedc54" fill-opacity="0.501961" />
<path d="M 157 68 L 159 68 L 159 127 L 157 127 Z" fill="#ffd65a" fill-opacity="0.501961" />
<path d="M 11.636 58.0711 L 10.9289 57.364 L 24.364 43.9289 L 25.0711 44.636 Z" fill="#447ec5" fill-opacity="0.501961" />
<path d="M 50.6826 62.6489 C 52.4738 89.5178, 54.7455 133.114, 55.7567 160.023 C 56.7679 186.933, 56.1356 186.966, 54.3444 160.097 C 52.5532 133.228, 50.2815 89.632, 49.2703 62.7225 C 48.2591 35.813, 48.8914 35.7801, 50.6826 62.6489" fill="#986ed6" fill-opacity="0.501961" />
<path d="M 129.828 112.515 C 131.391 117.201, 131.391 124.799, 129.828 129.485 C 128.266 134.172, 125.734 134.172, 124.172 129.485 C 122.609 124.799, 122.609 117.201, 124.172 112.515 C 125.734 107.828, 128.266 107.828, 129.828 112.515" fill="#ae0004" fill-opacity="0.501961" />
<path d="M 147.085 136.758 C 148.942 85.2601, 148.367 55.1509, 145.359 46.4298" fill="none" stroke="#610000" stroke-opacity="0.501961" stroke-width="0.533333" stroke-linecap="round" />
<path d="M 244 84 L 243 84 L 243 127 L 244 127 Z" fill="#204436" fill-opacity="0.501961" />
<path d="M 179.922 19.9665 L 203.534 58.0003 L 268.619 -6.02645 L 271 50.5281 Z" fill="#ffffff" fill-opacity="0.501961" />
<path d="M 190.707 65.5944 C 191.098 82.387, 191.098 109.613, 190.707 126.406 C 190.317 143.198, 189.683 143.198, 189.293 126.406 C 188.902 109.613, 188.902 82.387, 189.293 65.5944 C 189.683 48.8019, 190.317 48.8019, 190.707 65.5944" fill="#585800" fill-opacity="0.501961" />
<path d="M 188.828 60.3446 C 185.715 57.9683, 182.399 52.9682, 181.42 49.1765 C 180.442 45.3849, 182.172 44.2375, 185.284 46.6138 C 188.397 48.9901, 191.713 53.9902, 192.692 57.7819 C 193.67 61.5735, 191.94 62.7209, 188.828 60.3446" fill="#979322" fill-opacity="0.501961" />
<path d="M 86.7071 80.1299 C 87.0976 94.9699, 87.0976 119.03, 86.7071 133.87 C 86.3166 148.71, 85.6834 148.71, 85.2929 133.87 C 84.9024 119.03, 84.9024 94.9699, 85.2929 80.1299 C 85.6834 65.29, 86.3166 65.29, 86.7071 80.1299" fill="#030000" fill-opacity="0.501961" />
<path d="M 69 90 L 70 90 L 70 127 L 69 127 Z" fill="#040006" fill-opacity="0.501961" />
<path d="M 117.536 45.4645 C 119.488 47.4171, 119.488 50.5829, 117.536 52.5355 C 115.583 54.4882, 112.417 54.4882, 110.464 52.5355 C 108.512 50.5829, 108.512 47.4171, 110.464 45.4645 C 112.417 43.5118, 115.583 43.5118, 117.536 45.4645" fill="#e6fff6" fill-opacity="0.501961" />
<path d="M 210.65 53.6319 L 218.257 69.9455 L 217.35 70.3681 L 209.743 54.0545 Z" fill="#000000" fill-opacity="0.501961" />
<path d="M 245.414 46.5147 C 246.195 51.201, 246.195 58.799, 245.414 63.4853 C 244.633 68.1716, 243.367 68.1716, 242.586 63.4853 C 241.805 58.799, 241.805 51.201, 242.586 46.5147 C 243.367 41.8284, 244.633 41.8284, 245.414 46.5147" fill="#067a8f" fill-opacity="0.501961" />
<path d="M 105 51 L 117 -3 L 78 37 Z" fill="#ffffff" fill-opacity="0.501961" />
<path d="M 216 109 L 217 109 L 217 127 L 216 127 Z" fill="#001500" fill-opacity="0.501961" />
<path d="M 253.064 45.2127 L 185.652 -16 L 165.34 54.1991 L 142.935 40.547 Z" fill="#ffffff" fill-opacity="0.501961" />
<path d="M 29 69 L 42 69 L 42 127 L 29 127 Z" fill="#1f379f" fill-opacity="0.501961" />
<path d="M 226.214 56.6584 L 223.288 59.3864 L 215.786 51.3416 L 218.712 48.6136 Z" fill="#023020" fill-opacity="0.501961" />
<path d="M 222.094 63.5844 L 221.362 64.2664 L 215.906 58.4156 L 216.638 57.7336 Z" fill="#fff3ff" fill-opacity="0.501961" />
<path d="M 220.707 69.6863 C 221.098 75.9347, 221.098 86.0653, 220.707 92.3137 C 220.317 98.5621, 219.683 98.5621, 219.293 92.3137 C 218.902 86.0653, 218.902 75.9347, 219.293 69.6863 C 219.683 63.4379, 220.317 63.4379, 220.707 69.6863" fill="#7de09a" fill-opacity="0.501961" />
<path d="M 198.3 53.0359 L 190.912 43.5798 L 191.7 42.9641 L 199.088 52.4202 Z" fill="#898d4f" fill-opacity="0.501961" />
<path d="M 87 63 L 90 63 L 90 95 L 87 95 Z" fill="#ce63b2" fill-opacity="0.501961" />
<path d="M 75 -16 L -16 14 L 15 52 Z" fill="#ffffff" fill-opacity="0.501961" />
<path d="M 28 66 L 43 66 L 43 67 L 28 67 Z" fill="#e1d3cb" fill-opacity="0.501961" />
<path d="M 121.744 49.2162 L 129.733 48.7975 L 130.256 58.7838 L 122.267 59.2025 Z" fill="#b8d2c4" fill-opacity="0.501961" />
<path d="M 13 60 L 21 60 L 21 101 L 13 101 Z" fill="#66adf3" fill-opacity="0.501961" />
<path d="M 210 60 L 209 51 L 220 64 Z" fill="#002d07" fill-opacity="0.501961" />
<path d="M 230 61 L 243 61 L 243 92 L 230 92 Z" fill="#3ac4ac" fill-opacity="0.501961" />
<path d="M 253.274 57.247 L 244.642 48.9111 L 246.726 46.753 L 255.358 55.0889 Z" fill="#00c8fb" fill-opacity="0.501961" />
<path d="M 106.414 69.5442 C 107.195 83.603, 107.195 106.397, 106.414 120.456 C 105.633 134.515, 104.367 134.515, 103.586 120.456 C 102.805 106.397, 102.805 83.603, 103.586 69.5442 C 104.367 55.4853, 105.633 55.4853, 106.414 69.5442" fill="#d3005c" fill-opacity="0.501961" />
<path d="M 70.4841 55.9966 L 65.6923 52.3857 L 73.5159 42.0034 L 78.3077 45.6143 Z" fill="#220042" fill-opacity="0.501961" />
<path d="M 111 54 L 119 54 L 119 64 L 111 64 Z" fill="#d9429b" fill-opacity="0.501961" />
<path d="M 64.2316 47.7377 L 54.4669 48.3918 L 56.3363 45.112 L 76.0678 29.2579 Z" fill="#e1dedc" fill-opacity="0.501961" />
<path d="M 166 54 L 170 54 L 170 62 L 166 62 Z" fill="#5c4311" fill-opacity="0.501961" />
<path d="M 219.707 91.9792 C 220.098 98.6181, 220.098 109.382, 219.707 116.021 C 219.317 122.66, 218.683 122.66, 218.293 116.021 C 217.902 109.382, 217.902 98.6181, 218.293 91.9792 C 218.683 85.3403, 219.317 85.3403, 219.707 91.9792" fill="#70d98e" fill-opacity="0.501961" />
<path d="M 55.362 40.0481 L 54.6929 39.305 L 60.638 33.9519 L 61.3071 34.695 Z" fill="#3c2958" fill-opacity="0.501961" />
<path d="M 188.625 6.85602 L 242.442 55.3995 L 241.809 38.8157 L 271 -1.84816 Z" fill="#ffffff" fill-opacity="0.501961" />
<path d="M 202.66 56.0879 L 197.754 143 L 195.861 56.7706 L 200.826 58.1341 Z" fill="#929e19" fill-opacity="0.501961" />
<path d="M 150.606 49.6293 L 154.989 58.6172 L 151.394 60.3707 L 147.011 51.3828 Z" fill="#e6eef3" fill-opacity="0.501961" />
<path d="M 240.261 62.0288 L 242.335 60.512 L 244.687 60.3637 L 199.537 31.2465 Z" fill="#e0e6e4" fill-opacity="0.501961" />
<path d="M 190.597 66.1097 L 181.538 45.9297 L 170.156 55.3884 L 165.138 42.5227 Z" fill="#dbd8b3" fill-opacity="0.501961" />
<path d="M 247.062 68.6391 L 246.94 61.6402 L 262.938 61.3609 L 263.06 68.3598 Z" fill="#000a2a" fill-opacity="0.501961" />
<path d="M 81.859 49.3602 C 84.9688 49.5977, 86.7139 52.1966, 85.7567 55.165 C 84.7995 58.1334, 81.5025 60.3472, 78.3926 60.1097 C 75.2828 59.8721, 73.5377 57.2732, 74.4949 54.3049 C 75.4521 51.3365, 78.7491 49.1227, 81.859 49.3602" fill="#bfc5bd" fill-opacity="0.501961" />
<path d="M 7.65685 80.7868 C 10.781 92.5025, 10.781 111.497, 7.65685 123.213 C 4.53266 134.929, -0.53266 134.929, -3.65685 123.213 C -6.78105 111.497, -6.78105 92.5025, -3.65685 80.7868 C -0.53266 69.0711, 4.53266 69.0711, 7.65685 80.7868" fill="#1bacc1" fill-opacity="0.501961" />
<path d="M 230.351 53.7968 L 229.094 43.165 L 256.303 73.9607 L 229.878 47.2492 Z" fill="#468b81" fill-opacity="0.501961" />
<path d="M 221 68 L 227 68 L 227 127 L 221 127 Z" fill="#176424" fill-opacity="0.501961" />
<path d="M 76 67 L 82 71 L 87 53 Z" fill="#ad32d4" fill-opacity="0.501961" />
<path d="M 182.778 86.5853 L 166.295 45.7893 L 167.222 45.4147 L 183.705 86.2107 Z" fill="#f3ec64" fill-opacity="0.501961" />
<path d="M 132 48 L 132 48 L 132 127 L 132 127 Z" fill="#ff443c" fill-opacity="0.501961" />
<path d="M 156.992 67.4066 C 156.877 80.2222, 156.059 100.975, 155.164 113.76 C 154.269 126.545, 153.636 126.52, 153.751 113.704 C 153.865 100.889, 154.684 80.1357, 155.579 67.3508 C 156.474 54.566, 157.107 54.591, 156.992 67.4066" fill="#871e00" fill-opacity="0.501961" />
<path d="M 257.25 125.137 C 254.262 135.954, 250.149 135.784, 248.065 124.757 C 245.98 113.731, 246.712 96.0227, 249.7 85.2056 C 252.688 74.3886, 256.8 74.5587, 258.885 85.5855 C 260.97 96.6123, 260.238 114.32, 257.25 125.137" fill="#1b899e" fill-opacity="0.501961" />
<path d="M 159 103 L 171 102 L 172 66 Z" fill="#e08b14" fill-opacity="0.501961" />
<path d="M 246.878 75.4705 L 243.497 68.22 L 247.122 66.5295 L 250.503 73.78 Z" fill="#787371" fill-opacity="0.501961" />
<path d="M 120 99 L 121 99 L 121 127 L 120 127 Z" fill="#660415" fill-opacity="0.501961" />
<path d="M 17 97 L 23 97 L 23 127 L 17 127 Z" fill="#67a3f5" fill-opacity="0.501961" />
<path d="M 104.741 142.464 L 104.008 78.4856 L 110.134 37.8338 L 90.3394 115.087 Z" fill="#b92c8d" fill-opacity="0.501961" />
<path d="M 75.2335 125.518 L 70.3928 72.7995 L 76.8857 45.545 L 69.5452 60.3422 Z" fill="#af61c2" fill-opacity="0.501961" />
<path d="M 231.387 105.345 L 233.208 37.345 L 227.522 134.809 L 228.815 143 Z" fill="#74dacc" fill-opacity="0.501961" />
<path d="M 149 64 L 150 64 L 150 109 L 149 109 Z" fill="#c69a59" fill-opacity="0.501961" />
<path d="M 125.781 54.6289 L 124.861 55.0197 L 118.219 39.3711 L 119.139 38.9803 Z" fill="#ad6987" fill-opacity="0.501961" />
<path d="M 0.79298 65.0518 L 8.45383 70.9714 L 7.07117 59.6944 L -16 91.6742 Z" fill="#776c80" fill-opacity="0.501961" />
<path d="M 133 56 L 145 56 L 145 63 L 133 63 Z" fill="#c2cbc8" fill-opacity="0.501961" />
<path d="M 219.022 49.7566 L 213.927 39.7578 L 230.463 59.1607 L 240.288 70.2341 Z" fill="#51cebf" fill-opacity="0.501961" />
<path d="M 202 95 L 203 95 L 203 68 L 202 68 Z" fill="#2d4f26" fill-opacity="0.501961" />
<path d="M 31.1213 91.3726 C 32.2929 103.869, 32.2929 124.131, 31.1213 136.627 C 29.9497 149.124, 28.0503 149.124, 26.8787 136.627 C 25.7071 124.131, 25.7071 103.869, 26.8787 91.3726 C 28.0503 78.8758, 29.9497 78.8758, 31.1213 91.3726" fill="#5666ce" fill-opacity="0.501961" />
<path d="M 146 47 L 145 47 L 145 57 L 146 57 Z" fill="#900700" fill-opacity="0.501961" />
<path d="M 88 64 L 104 64 L 104 63 L 88 63 Z" fill="#dcd8d7" fill-opacity="0.501961" />
<path d="M 74.4142 73.6447 C 75.1953 93.1709, 75.1953 124.829, 74.4142 144.355 C 73.6332 163.882, 72.3668 163.882, 71.5858 144.355 C 70.8047 124.829, 70.8047 93.1709, 71.5858 73.6447 C 72.3668 54.1184, 73.6332 54.1184, 74.4142 73.6447" fill="#d26cef" fill-opacity="0.501961" />
<path d="M 47.7071 60.2721 C 48.0976 67.3015, 48.0976 78.6985, 47.7071 85.7279 C 47.3166 92.7574, 46.6834 92.7574, 46.2929 85.7279 C 45.9024 78.6985, 45.9024 67.3015, 46.2929 60.2721 C 46.6834 53.2426, 47.3166 53.2426, 47.7071 60.2721" fill="#0b1641" fill-opacity="0.501961" />
<path d="M 51 17 L 10 56 L 11 31 Z" fill="#ffffff" fill-opacity="0.501961" />
<path d="M 34.8968 59.2121 L 43.1986 51.9955 L 49.1032 58.7879 L 40.8014 66.0045 Z" fill="#aea8b6" fill-opacity="0.501961" />
<path d="M 185.655 52.7922 L 183.492 46.1348 L 186.345 45.2078 L 188.508 51.8652 Z" fill="#455200" fill-opacity="0.501961" />
<path d="M 51.7071 64.7954 C 52.0976 92.5226, 52.0976 137.477, 51.7071 165.205 C 51.3166 192.932, 50.6834 192.932, 50.2929 165.205 C 49.9024 137.477, 49.9024 92.5226, 50.2929 64.7954 C 50.6834 37.0682, 51.3166 37.0682, 51.7071 64.7954" fill="#9167ce" fill-opacity="0.501961" />
<path d="M 26.5825 65.6854 L 38.6188 49.7127 L 39.4175 50.3146 L 27.3812 66.2873 Z" fill="#000336" fill-opacity="0.501961" />
<path d="M 52 49 L 55 49 L 55 107 L 52 107 Z" fill="#50299e" fill-opacity="0.501961" />
<path d="M 183 46 L 195 -16 L 17 24 Z" fill="#ffffff" fill-opacity="0.501961" />
<path d="M 130.799 44.1263 L 133.179 63.2946 L 122.829 59.7586 L 124.589 113.881 Z" fill="#ca2723" fill-opacity="0.501961" />
<path d="M 91 0 L 107 0 L 107 50 L 91 50 Z" fill="#ffffff" fill-opacity="0.501961" />
<path d="M 191.707 59.2218 C 192.098 63.5176, 192.098 70.4824, 191.707 74.7782 C 191.317 79.0739, 190.683 79.0739, 190.293 74.7782 C 189.902 70.4824, 189.902 63.5176, 190.293 59.2218 C 190.683 54.9261, 191.317 54.9261, 191.707 59.2218" fill="#454b00" fill-opacity="0.501961" />
<path d="M 46.5018 10.4411 L 47.275 57.1181 L 33.7736 38.9986 L 151.363 11.9365 Z" fill="#ffffff" fill-opacity="0.501961" />
<path d="M 9.41421 81.7868 C 10.1953 93.5025, 10.1953 112.497, 9.41421 124.213 C 8.63316 135.929, 7.36684 135.929, 6.58579 124.213 C 5.80474 112.497, 5.80474 93.5025, 6.58579 81.7868 C 7.36684 70.0711, 8.63316 70.0711, 9.41421 81.7868" fill="#1680c4" fill-opacity="0.501961" />
<path d="M 68.1247 25.3496 L 63.4381 44.2741 L 68.8896 46.5817 L 51.8025 46.2595 Z" fill="#e4e5de" fill-opacity="0.501961" />
<path d="M 208.733 78.4673 L 204.154 68.8015 L 203.17 89.5798 L 203.007 138.437 Z" fill="#8cb764" fill-opacity="0.501961" />
<path d="M 165.95 28.3934 C 168.683 34.2513, 168.683 43.7487, 165.95 49.6066 C 163.216 55.4645, 158.784 55.4645, 156.05 49.6066 C 153.317 43.7487, 153.317 34.2513, 156.05 28.3934 C 158.784 22.5355, 163.216 22.5355, 165.95 28.3934" fill="#ffffff" fill-opacity="0.501961" />
<path d="M 172.707 82.3518 C 173.098 101.487, 173.098 132.513, 172.707 151.648 C 172.317 170.784, 171.683 170.784, 171.293 151.648 C 170.902 132.513, 170.902 101.487, 171.293 82.3518 C 171.683 63.2161, 172.317 63.2161, 172.707 82.3518" fill="#352400" fill-opacity="0.501961" />
<path d="M 193.112 56.0839 C 191.091 54.4726, 189.363 51.0722, 189.253 48.4891 C 189.143 45.9059, 190.694 45.1181, 192.716 46.7295 C 194.737 48.3409, 196.465 51.7413, 196.575 54.3244 C 196.685 56.9076, 195.134 57.6953, 193.112 56.0839" fill="#e3e1f2" fill-opacity="0.501961" />
<path d="M 71.7071 99.2513 C 72.0976 112.92, 72.0976 135.08, 71.7071 148.749 C 71.3166 162.417, 70.6834 162.417, 70.2929 148.749 C 69.9024 135.08, 69.9024 112.92, 70.2929 99.2513 C 70.6834 85.5829, 71.3166 85.5829, 71.7071 99.2513" fill="#561c84" fill-opacity="0.501961" />
<path d="M 23.7255 67.0465 L 29.2731 172.901 L 28.2745 172.954 L 22.7269 67.0988 Z" fill="#0a1ec1" fill-opacity="0.501961" />
<path d="M 147.707 72.967 C 148.098 102.256, 148.098 149.744, 147.707 179.033 C 147.317 208.322, 146.683 208.322, 146.293 179.033 C 145.902 149.744, 145.902 102.256, 146.293 72.967 C 146.683 43.6777, 147.317 43.6777, 147.707 72.967" fill="#8b0000" fill-opacity="0.501961" />
<path d="M 191 106 L 192 106 L 192 127 L 191 127 Z" fill="#d1f04e" fill-opacity="0.501961" />
<path d="M 76 41 L 213 28 L 81 -16 Z" fill="#ffffff" fill-opacity="0.501961" />
<path d="M 225.415 66.1842 L 215.467 59.4739 L 216.585 57.8158 L 226.533 64.5261 Z" fill="#cbd3d2" fill-opacity="0.501961" />
<path d="M 183.243 52.7574 C 185.586 55.1005, 185.586 58.8995, 183.243 61.2426 C 180.899 63.5858, 177.101 63.5858, 174.757 61.2426 C 172.414 58.8995, 172.414 55.1005, 174.757 52.7574 C 177.101 50.4142, 180.899 50.4142, 183.243 52.7574" fill="#d4d8e3" fill-opacity="0.501961" />
<path d="M 209.467 52.1959 L 202.613 58.1945 L 219.21 -16 L 215.602 55.4864 Z" fill="#fdfffd" fill-opacity="0.501961" />
<path d="M 69.8956 60.9946 L 79.5619 45.7192 L 76.387 59.0844 L 83.5247 57.0253 Z" fill="#9b9a97" fill-opacity="0.501961" />
<path d="M 96.1592 65.2577 L 88.3449 143 L 88.1721 78.8486 L 108.31 64.2383 Z" fill="#c13aa3" fill-opacity="0.501961" />
<path d="M 121 46 L 121 46 L 121 89 L 121 89 Z" fill="#b42b26" fill-opacity="0.501961" />
<path d="M 89.8146 52.0463 L 89.4239 51.1258 L 92.1854 49.9537 L 92.5761 50.8742 Z" fill="#510030" fill-opacity="0.501961" />
<path d="M 51.7597 53.2056 L 69.3146 113.941 L 49.7964 45.3637 L 54.546 39.948 Z" fill="#462d85" fill-opacity="0.501961" />
<path d="M 218.889 46.0682 L 220.936 52.7623 L 217.111 53.9318 L 215.064 47.2377 Z" fill="#0d6551" fill-opacity="0.501961" />
<path d="M 265.546 84.37 L 264.792 85.026 L 244.454 61.63 L 245.208 60.974 Z" fill="#000919" fill-opacity="0.501961" />
<path d="M 42.1958 -8.28833 L 36.266 -16 L -16 3.32375 L -5.18264 63.1478 Z" fill="#ffffff" fill-opacity="0.501961" />
<path d="M 76.6253 35.2682 L 75.8373 35.8839 L 73.3747 32.7318 L 74.1627 32.1161 Z" fill="#230070" fill-opacity="0.501961" />
<path d="M 49.5 101 L 49.5 137 L 48.5 137 L 48.5 101 Z" fill="#04000e" fill-opacity="0.501961" />
<path d="M 9.00958 59.6524 L 17.9866 162.26 L 16.9904 162.348 L 8.01338 59.7396 Z" fill="#c9f3ff" fill-opacity="0.501961" />
<path d="M 173 69 L 173 69 L 173 90 L 173 90 Z" fill="#6b7b2a" fill-opacity="0.501961" />
<path d="M 156 70 L 151 70 L 151 127 L 156 127 Z" fill="#9f340a" fill-opacity="0.501961" />
<path d="M 24 57 L 11 59 L 35 46 Z" fill="#e3e7e1" fill-opacity="0.501961" />
<path d="M 174.453 100.999 L 173.454 100.946 L 175.547 61.0012 L 176.546 61.0536 Z" fill="#f5ea99" fill-opacity="0.501961" />
<path d="M 243.127 57.0462 L 271 75.7667 L 271 77.5195 L 242.779 44.0858 Z" fill="#166a97" fill-opacity="0.501961" />
<path d="M 90.8421 49.7126 L 91.7932 50.0216 L 87.1579 64.2874 L 86.2068 63.9784 Z" fill="#44032a" fill-opacity="0.501961" />
<path d="M 135.414 67.4437 C 136.195 76.0352, 136.195 89.9648, 135.414 98.5563 C 134.633 107.148, 133.367 107.148, 132.586 98.5563 C 131.805 89.9648, 131.805 76.0352, 132.586 67.4437 C 133.367 58.8521, 134.633 58.8521, 135.414 67.4437" fill="#ff8a81" fill-opacity="0.501961" />
<path d="M 122.707 69.5944 C 123.098 86.387, 123.098 113.613, 122.707 130.406 C 122.317 147.198, 121.683 147.198, 121.293 130.406 C 120.902 113.613, 120.902 86.387, 121.293 69.5944 C 121.683 52.8019, 122.317 52.8019, 122.707 69.5944" fill="#fa7474" fill-opacity="0.501961" />
<path d="M 130.624 44.4996 C 131.867 71.0923, 131.854 101.704, 130.585 136.334" fill="none" stroke="#841110" stroke-opacity="0.501961" stroke-width="0.533333" stroke-linecap="round" />
<path d="M 135 64 L 146 64 L 146 127 L 135 127 Z" fill="#ed3a32" fill-opacity="0.501961" />
<path d="M -4.03947 74.2528 L -4.73413 73.5335 L 24.0395 45.7472 L 24.7341 46.4665 Z" fill="#6a7d9d" fill-opacity="0.501961" />
<path d="M 218.374 71.2952 L 215.596 87.0521 L 213.626 86.7048 L 216.404 70.9479 Z" fill="#86c245" fill-opacity="0.501961" />
<path d="M 108.707 58.0294 C 109.098 67.402, 109.098 82.598, 108.707 91.9706 C 108.317 101.343, 107.683 101.343, 107.293 91.9706 C 106.902 82.598, 106.902 67.402, 107.293 58.0294 C 107.683 48.6569, 108.317 48.6569, 108.707 58.0294" fill="#ffe4f6" fill-opacity="0.501961" />
<path d="M 190.294 60.1023 L 184.8 48.3203 L 185.706 47.8977 L 191.2 59.6797 Z" fill="#444c00" fill-opacity="0.501961" />
<path d="M 244 73 L 254 73 L 254 76 L 244 76 Z" fill="#7189a3" fill-opacity="0.501961" />
<path d="M 215 113 L 215 113 L 215 127 L 215 127 Z" fill="#3f920b" fill-opacity="0.501961" />
<path d="M 244 76 L 245 76 L 245 103 L 244 103 Z" fill="#234744" fill-opacity="0.501961" />
<path d="M 85.0256 61.8566 L 83.2738 60.0752 L 72.9134 62.1715 L 84.6469 120.278 Z" fill="#ac3dd1" fill-opacity="0.501961" />
<path d="M 29.3125 119.902 L 28.3149 119.972 L 24.6875 68.0982 L 25.6851 68.0285 Z" fill="#748bdf" fill-opacity="0.501961" />
<path d="M 224 65 L 229 65 L 229 74 L 224 74 Z" fill="#125621" fill-opacity="0.501961" />
<path d="M 118.121 73.2096 C 119.293 100.156, 119.293 143.844, 118.121 170.79 C 116.95 197.737, 115.05 197.737, 113.879 170.79 C 112.707 143.844, 112.707 100.156, 113.879 73.2096 C 115.05 46.2635, 116.95 46.2635, 118.121 73.2096" fill="#d363a2" fill-opacity="0.501961" />
<path d="M 229.864 67.8338 C 228.025 107.776, 226.977 132.831, 226.717 143" fill="none" stroke="#003228" stroke-opacity="0.501961" stroke-width="0.533333" stroke-linecap="round" />
<path d="M 55 48 L 65 48 L 65 127 L 55 127 Z" fill="#3a2081" fill-opacity="0.501961" />
<path d="M 188.707 69.4731 C 189.098 87.4372, 189.098 116.563, 188.707 134.527 C 188.317 152.491, 187.683 152.491, 187.293 134.527 C 186.902 116.563, 186.902 87.4372, 187.293 69.4731 C 187.683 51.509, 188.317 51.509, 188.707 69.4731" fill="#ecd82e" fill-opacity="0.501961" />
<path d="M 168.414 51.5858 C 169.195 52.3668, 169.195 53.6332, 168.414 54.4142 C 167.633 55.1953, 166.367 55.1953, 165.586 54.4142 C 164.805 53.6332, 164.805 52.3668, 165.586 51.5858 C 166.367 50.8047, 167.633 50.8047, 168.414 51.5858" fill="#754500" fill-opacity="0.501961" />
<path d="M 34 68 L 46 68 L 46 127 L 34 127 Z" fill="#1d3191" fill-opacity="0.501961" />
<path d="M 9 143 L 7 71 L -16 71 Z" fill="#1fb4c1" fill-opacity="0.501961" />
<path d="M 193.814 45.3506 C 203.038 60.0988, 214.519 70.4454, 228.256 76.3903" fill="none" stroke="#637e40" stroke-opacity="0.501961" stroke-width="0.533333" stroke-linecap="round" />
<path d="M 152 72 L 151 59 L 158 62 Z" fill="#99431b" fill-opacity="0.501961" />
<path d="M 0 53 L 9 53 L 9 56 L 0 56 Z" fill="#44834b" fill-opacity="0.501961" />
<path d="M 167 59 L 159 59 L 159 67 L 167 67 Z" fill="#babbba" fill-opacity="0.501961" />
<path d="M 154.227 39.2663 C 159.904 39.1908, 160.447 41.2975, 155.438 43.9718 C 150.429 46.6461, 141.766 48.8753, 136.089 48.9508 C 130.411 49.0263, 129.869 46.9196, 134.878 44.2453 C 139.887 41.5711, 148.55 39.3419, 154.227 39.2663" fill="#fffdfb" fill-opacity="0.501961" />
<path d="M 82.7791 142.064 L 85.1206 76.588 L 82.7477 70.3353 L 86.2398 108.373 Z" fill="#8a29af" fill-opacity="0.501961" />
<path d="M 79 49 L 86 45 L 83 59 Z" fill="#c2c8bf" fill-opacity="0.501961" />
<path d="M 107.784 119.912 L 105.84 94.5756 L 106.283 46.9756 L 108.102 104.229 Z" fill="#db4897" fill-opacity="0.501961" />
<path d="M 235 60 L 242 60 L 242 114 L 235 114 Z" fill="#2ab39a" fill-opacity="0.501961" />
<path d="M 226.615 62.6215 L 223.747 58.5257 L 225.385 57.3785 L 228.253 61.4743 Z" fill="#00431f" fill-opacity="0.501961" />
<path d="M 240 25 L 242 55 L 222 31 Z" fill="#ffffff" fill-opacity="0.501961" />
<path d="M 100 59 L 105 59 L 105 51 L 100 51 Z" fill="#8c9994" fill-opacity="0.501961" />
<path d="M 218.707 67.1005 C 219.098 72.5678, 219.098 81.4322, 218.707 86.8995 C 218.317 92.3668, 217.683 92.3668, 217.293 86.8995 C 216.902 81.4322, 216.902 72.5678, 217.293 67.1005 C 217.683 61.6332, 218.317 61.6332, 218.707 67.1005" fill="#001800" fill-opacity="0.501961" />
<path d="M 131.707 54.6863 C 132.098 60.9347, 132.098 71.0653, 131.707 77.3137 C 131.317 83.5621, 130.683 83.5621, 130.293 77.3137 C 129.902 71.0653, 129.902 60.9347, 130.293 54.6863 C 130.683 48.4379, 131.317 48.4379, 131.707 54.6863" fill="#660b08" fill-opacity="0.501961" />
<path d="M 129 44 L 129 58 L 124 55 Z" fill="#c7cdcc" fill-opacity="0.501961" />
<path d="M 231.707 63.1005 C 232.098 68.5678, 232.098 77.4322, 231.707 82.8995 C 231.317 88.3668, 230.683 88.3668, 230.293 82.8995 C 229.902 77.4322, 229.902 68.5678, 230.293 63.1005 C 230.683 57.6332, 231.317 57.6332, 231.707 63.1005" fill="#7de9dd" fill-opacity="0.501961" />
<path d="M 90 65 L 103 65 L 103 127 L 90 127 Z" fill="#b6248b" fill-opacity="0.501961" />
<path d="M 202.175 95.0177 L 203.174 95.07 L 199.825 158.982 L 198.826 158.93 Z" fill="#314817" fill-opacity="0.501961" />
<path d="M 158.707 72.6863 C 159.098 78.9347, 159.098 89.0653, 158.707 95.3137 C 158.317 101.562, 157.683 101.562, 157.293 95.3137 C 156.902 89.0653, 156.902 78.9347, 157.293 72.6863 C 157.683 66.4379, 158.317 66.4379, 158.707 72.6863" fill="#ffe989" fill-opacity="0.501961" />
<path d="M 70.9314 41.4599 L 70.1433 40.8442 L 75.0686 34.5401 L 75.8567 35.1558 Z" fill="#30009d" fill-opacity="0.501961" />
<path d="M 203 67 L 212 67 L 212 71 L 203 71 Z" fill="#988ea0" fill-opacity="0.501961" />
<path d="M 50.7071 52.2721 C 51.0976 59.3015, 51.0976 70.6985, 50.7071 77.7279 C 50.3166 84.7574, 49.6834 84.7574, 49.2929 77.7279 C 48.9024 70.6985, 48.9024 59.3015, 49.2929 52.2721 C 49.6834 45.2426, 50.3166 45.2426, 50.7071 52.2721" fill="#bb97ea" fill-opacity="0.501961" />
<path d="M 105.461 60.9746 L 94.9341 50.6532 L 87.016 64.2647 L 103.149 64.9879 Z" fill="#bcafb5" fill-opacity="0.501961" />
<path d="M 49.2507 50.8262 L 48.5193 50.1442 L 58.7493 39.1738 L 59.4807 39.8558 Z" fill="#e0dbdd" fill-opacity="0.501961" />
<path d="M 193.707 60.8579 C 194.098 68.6684, 194.098 81.3316, 193.707 89.1421 C 193.317 96.9526, 192.683 96.9526, 192.293 89.1421 C 191.902 81.3316, 191.902 68.6684, 192.293 60.8579 C 192.683 53.0474, 193.317 53.0474, 193.707 60.8579" fill="#eaec7f" fill-opacity="0.501961" />
<path d="M 88 76 L 89 76 L 89 126 L 88 126 Z" fill="#ce5ab7" fill-opacity="0.501961" />
<path d="M 38.893 -15.3419 L 37.9333 51.4707 L 52.5476 40.8212 L -16 49.1843 Z" fill="#ffffff" fill-opacity="0.501961" />
<path d="M 46.5705 67.2052 L 33.7642 68.2642 L 33.5076 62.9417 L 43.7393 61.8166 Z" fill="#b3aac6" fill-opacity="0.501961" />
<path d="M 263.841 17.6863 C 288.053 23.9347, 288.053 34.0653, 263.841 40.3137 C 239.628 46.5621, 200.372 46.5621, 176.159 40.3137 C 151.947 34.0653, 151.947 23.9347, 176.159 17.6863 C 200.372 11.4379, 239.628 11.4379, 263.841 17.6863" fill="#ffffff" fill-opacity="0.501961" />
<path d="M 155.707 78.3518 C 156.098 97.4875, 156.098 128.513, 155.707 147.648 C 155.317 166.784, 154.683 166.784, 154.293 147.648 C 153.902 128.513, 153.902 97.4875, 154.293 78.3518 C 154.683 59.2161, 155.317 59.2161, 155.707 78.3518" fill="#810000" fill-opacity="0.501961" />
<path d="M 160 70 L 168 70 L 168 127 L 160 127 Z" fill="#e2941d" fill-opacity="0.501961" />
<path d="M 221 66 L 225 66 L 225 119 L 221 119 Z" fill="#217535" fill-opacity="0.501961" />
<path d="M 47 54 L 48 54 L 48 63 L 47 63 Z" fill="#613daf" fill-opacity="0.501961" />
<path d="M 189.707 64.7365 C 190.098 73.7186, 190.098 88.2814, 189.707 97.2635 C 189.317 106.246, 188.683 106.246, 188.293 97.2635 C 187.902 88.2814, 187.902 73.7186, 188.293 64.7365 C 188.683 55.7545, 189.317 55.7545, 189.707 64.7365" fill="#cbbb00" fill-opacity="0.501961" />
<path d="M 133.448 56.9917 L 133.552 62.9908 L 132.552 63.0083 L 132.448 57.0092 Z" fill="#a15d54" fill-opacity="0.501961" />
<path d="M 123 59 L 130 59 L 130 64 L 123 64 Z" fill="#c4140e" fill-opacity="0.501961" />
<path d="M 75 60 L 83 60 L 83 127 L 75 127 Z" fill="#b848de" fill-opacity="0.501961" />
<path d="M 149.438 59.1439 L 155.199 60.3071 L 146.543 48.3873 L 151.382 34.8966 Z" fill="#e4e3e0" fill-opacity="0.501961" />
<path d="M 149.707 86.3518 C 150.098 105.487, 150.098 136.513, 149.707 155.648 C 149.317 174.784, 148.683 174.784, 148.293 155.648 C 147.902 136.513, 147.902 105.487, 148.293 86.3518 C 148.683 67.2161, 149.317 67.2161, 149.707 86.3518" fill="#cf925c" fill-opacity="0.501961" />
<path d="M 227 96 L 227 96 L 227 127 L 227 127 Z" fill="#001d0c" fill-opacity="0.501961" />
<path d="M 110 54 L 110 54 L 110 127 L 110 127 Z" fill="#f18bd0" fill-opacity="0.501961" />
<path d="M 194 58 L 200 58 L 200 127 L 194 127 Z" fill="#95a21c" fill-opacity="0.501961" />
<path d="M 124 21 L 61 35 L 56 -16 Z" fill="#ffffff" fill-opacity="0.501961" />
<path d="M 6 47 L 9 47 L 9 52 L 6 52 Z" fill="#3d9861" fill-opacity="0.501961" />
<path d="M 189 112 L 190 112 L 190 127 L 189 127 Z" fill="#6d7300" fill-opacity="0.501961" />
<path d="M 234.121 51.4645 C 235.293 53.4171, 235.293 56.5829, 234.121 58.5355 C 232.95 60.4882, 231.05 60.4882, 229.879 58.5355 C 228.707 56.5829, 228.707 53.4171, 229.879 51.4645 C 231.05 49.5118, 232.95 49.5118, 234.121 51.4645" fill="#f4dae3" fill-opacity="0.501961" />
<path d="M 161.536 42.7574 C 163.488 45.1005, 163.488 48.8995, 161.536 51.2426 C 159.583 53.5858, 156.417 53.5858, 154.464 51.2426 C 152.512 48.8995, 152.512 45.1005, 154.464 42.7574 C 156.417 40.4142, 159.583 40.4142, 161.536 42.7574" fill="#ffffff" fill-opacity="0.501961" />
<path d="M 135 53 L 144 53 L 144 63 L 135 63 Z" fill="#cac9c9" fill-opacity="0.501961" />
<path d="M 164.549 52.9465 L 168.058 64.4222 L 159.451 67.0535 L 155.942 55.5778 Z" fill="#a7aaab" fill-opacity="0.501961" />
<path d="M 79.2075 45.1761 C 80.7743 46.4763, 82.0067 49.1803, 81.96 51.2157 C 81.9134 53.2512, 80.6055 53.8472, 79.0387 52.5471 C 77.4719 51.247, 76.2396 48.543, 76.2862 46.5075 C 76.3328 44.4721, 77.6407 43.876, 79.2075 45.1761" fill="#9f8ea8" fill-opacity="0.501961" />
<path d="M 23 68 L 22 68 L 22 102 L 23 102 Z" fill="#3263f3" fill-opacity="0.501961" />
<path d="M 261.217 60.155 C 265.105 64.2578, 264.677 64.724, 260.26 61.1964 C 255.843 57.6688, 249.11 51.4832, 245.222 47.3805 C 241.333 43.2777, 241.761 42.8114, 246.178 46.339 C 250.595 49.8666, 257.328 56.0522, 261.217 60.155" fill="#32d8f7" fill-opacity="0.501961" />
<path d="M 6.69529 71.1929 L -6.20781 72.7772 L -6.69529 68.8071 L 6.20781 67.2228 Z" fill="#bdaebd" fill-opacity="0.501961" />
<path d="M 207 78 L 214 78 L 214 127 L 207 127 Z" fill="#a9d86c" fill-opacity="0.501961" />
<path d="M 55.2151 39.389 L 55.9698 40.0451 L 46.7849 50.611 L 46.0302 49.9549 Z" fill="#301766" fill-opacity="0.501961" />
<path d="M 244 113 L 255 113 L 255 127 L 244 127 Z" fill="#208394" fill-opacity="0.501961" />
<path d="M 217.971 138.509 L 217.029 111.526 L 218.029 111.491 L 218.971 138.474 Z" fill="#56c06a" fill-opacity="0.501961" />
<path d="M 12 73 L 13 73 L 13 127 L 12 127 Z" fill="#afe0ff" fill-opacity="0.501961" />
<path d="M 266.731 74.143 L 242.64 54.6341 L 243.269 53.857 L 267.36 73.3659 Z" fill="#0d3d5d" fill-opacity="0.501961" />
<path d="M 217 96 L 217 96 L 217 113 L 217 113 Z" fill="#001200" fill-opacity="0.501961" />
<path d="M 176.031 55.1848 L 202.386 -16 L 208.243 58.487 L 172.184 20.7037 Z" fill="#fffffe" fill-opacity="0.501961" />
<path d="M 96.8929 -0.652907 L 107.715 59.2083 L 106.395 45.746 L 75.7673 43.6755 Z" fill="#fffeff" fill-opacity="0.501961" />
<path d="M 123.564 109.773 C 118.41 78.3936, 117.868 54.5328, 121.937 38.1909" fill="none" stroke="#c14866" stroke-opacity="0.501961" stroke-width="0.533333" stroke-linecap="round" />
<path d="M 159 90 L 160 90 L 160 127 L 159 127 Z" fill="#eca522" fill-opacity="0.501961" />
<path d="M 173 102 L 173 102 L 173 80 L 173 80 Z" fill="#a1913d" fill-opacity="0.501961" />
<path d="M 146 58 L 147 58 L 147 76 L 146 76 Z" fill="#d8251e" fill-opacity="0.501961" />
<path d="M 5.56785 57.2583 C 8.01851 56.2039, 8.72951 57.0956, 7.15593 59.2499 C 5.58234 61.4043, 2.32005 64.0055, -0.130611 65.0599 C -2.58127 66.1143, -3.29227 65.2226, -1.71868 63.0682 C -0.145097 60.9138, 3.1172 58.3126, 5.56785 57.2583" fill="#032b2e" fill-opacity="0.501961" />
<path d="M 181 69 L 174 69 L 174 127 L 181 127 Z" fill="#ece06a" fill-opacity="0.501961" />
<path d="M 87.3641 59.2908 C 85.82 62.4379, 85.3901 76.0658, 86.0745 100.175" fill="none" stroke="#370233" stroke-opacity="0.501961" stroke-width="0.533333" stroke-linecap="round" />
<path d="M 29.9832 52.2765 L 29.3539 51.4994 L 34.0168 47.7235 L 34.6461 48.5006 Z" fill="#76b6fa" fill-opacity="0.501961" />
<path d="M -16 76.9556 L -13.3788 63.5199 L 9.40887 45.5415 L 0.484376 55.4992 Z" fill="#87d5a7" fill-opacity="0.501961" />
<path d="M 171.963 64.8848 L 170.975 65.0413 L 170.037 59.1152 L 171.025 58.9587 Z" fill="#796500" fill-opacity="0.501961" />
<path d="M 229.61 63.2941 L 223.592 55.3077 L 224.39 54.7059 L 230.408 62.6923 Z" fill="#029074" fill-opacity="0.501961" />
<path d="M 214.422 66.0284 L 209.28 59.9 L 211.578 57.9716 L 216.72 64.1 Z" fill="#040600" fill-opacity="0.501961" />
<path d="M 32.4142 85.2807 C 33.1953 108.322, 33.1953 145.678, 32.4142 168.719 C 31.6332 191.76, 30.3668 191.76, 29.5858 168.719 C 28.8047 145.678, 28.8047 108.322, 29.5858 85.2807 C 30.3668 62.2398, 31.6332 62.2398, 32.4142 85.2807" fill="#2a46ae" fill-opacity="0.501961" />
<path d="M 29.5484 45.7638 C 34.9146 42.2599, 35.2925 42.7679, 30.3923 46.8986 C 25.4921 51.0293, 17.1696 57.2184, 11.8033 60.7223 C 6.43708 64.2262, 6.05925 63.7182, 10.9594 59.5875 C 15.8596 55.4568, 24.1821 49.2677, 29.5484 45.7638" fill="#d9dada" fill-opacity="0.501961" />
<path d="M 11.5868 113.781 L 11.1002 137.759 L 10.2506 128.836 L 8.21452 74.6807 Z" fill="#2d82da" fill-opacity="0.501961" />
<path d="M 89.6192 46.4893 L 90.518 46.9276 L 84.3808 59.5107 L 83.482 59.0724 Z" fill="#b034d2" fill-opacity="0.501961" />
<path d="M 199.87 54.7985 C 199.683 52.8824, 200.287 52.6944, 201.22 54.3784 C 202.153 56.0625, 203.061 58.981, 203.248 60.8971 C 203.435 62.8132, 202.831 63.0012, 201.898 61.3172 C 200.965 59.6331, 200.057 56.7146, 199.87 54.7985" fill="#7f8931" fill-opacity="0.501961" />
<path d="M 203 58 L 206 58 L 206 70 L 203 70 Z" fill="#888e9b" fill-opacity="0.501961" />
<path d="M 185.318 160.189 C 186.005 137.244, 187.75 100.071, 189.216 77.1624 C 190.683 54.2535, 191.315 54.2832, 190.629 77.2288 C 189.943 100.174, 188.197 137.347, 186.731 160.256 C 185.264 183.165, 184.632 183.135, 185.318 160.189" fill="#c1b31b" fill-opacity="0.501961" />
<path d="M 213 66 L 207 59 L 213 63 Z" fill="#345617" fill-opacity="0.501961" />
<path d="M 191 39 L 199 56 L 187 46 Z" fill="#e2e1e8" fill-opacity="0.501961" />
<path d="M 216.16 120.694 C 215.497 127.028, 214.864 127.001, 214.747 120.634 C 214.63 114.267, 215.073 103.971, 215.736 97.6377 C 216.4 91.3043, 217.032 91.3315, 217.149 97.6985 C 217.266 104.065, 216.823 114.361, 216.16 120.694" fill="#5a992d" fill-opacity="0.501961" />
<path d="M 193.939 45.2721 L 192.988 45.5811 L 192.061 42.7279 L 193.012 42.4189 Z" fill="#818a04" fill-opacity="0.501961" />
<path d="M 123.309 72.3457 C 123.818 55.1449, 124.451 55.1492, 124.723 72.3554 C 124.995 89.5617, 124.803 117.454, 124.294 134.655 C 123.785 151.856, 123.151 151.851, 122.88 134.645 C 122.608 117.439, 122.8 89.5465, 123.309 72.3457" fill="#dc3535" fill-opacity="0.501961" />
<path d="M 99.2654 64.6191 C 97.5109 65.9142, 94.5283 66.1334, 92.6034 65.1087 C 90.6785 64.0841, 90.5403 62.2036, 92.2947 60.9086 C 94.0491 59.6135, 97.0318 59.3943, 98.9567 60.419 C 100.882 61.4436, 101.02 63.3241, 99.2654 64.6191" fill="#dabbd1" fill-opacity="0.501961" />
<path d="M 150 91 L 153 91 L 153 127 L 150 127 Z" fill="#ae5321" fill-opacity="0.501961" />
<path d="M 106.414 70.201 C 107.195 81.1357, 107.195 98.8643, 106.414 109.799 C 105.633 120.734, 104.367 120.734, 103.586 109.799 C 102.805 98.8643, 102.805 81.1357, 103.586 70.201 C 104.367 59.2663, 105.633 59.2663, 106.414 70.201" fill="#c60a67" fill-opacity="0.501961" />
<path d="M 22.5 129.5 L 17.5 129.5 L 17.5 80.5 L 22.5 80.5 Z" fill="#62a2ec" fill-opacity="0.501961" />
<path d="M 170.906 61.6495 L 166.211 52.82 L 167.094 52.3505 L 171.789 61.18 Z" fill="#4b3300" fill-opacity="0.501961" />
<path d="M 87.7071 89.3934 C 88.0976 95.2513, 88.0976 104.749, 87.7071 110.607 C 87.3166 116.464, 86.6834 116.464, 86.2929 110.607 C 85.9024 104.749, 85.9024 95.2513, 86.2929 89.3934 C 86.6834 83.5355, 87.3166 83.5355, 87.7071 89.3934" fill="#6e2255" fill-opacity="0.501961" />
<path d="M 111 40 L 116 40 L 116 51 L 111 51 Z" fill="#e3ece6" fill-opacity="0.501961" />
<path d="M 47 47 L 51 47 L 51 50 L 47 50 Z" fill="#8561c9" fill-opacity="0.501961" />
<path d="M 120.966 40.0573 L 121.937 40.2992 L 119.034 51.9427 L 118.063 51.7008 Z" fill="#df77c7" fill-opacity="0.501961" />
<path d="M 67.5355 80.2807 C 69.4882 103.322, 69.4882 140.678, 67.5355 163.719 C 65.5829 186.76, 62.4171 186.76, 60.4645 163.719 C 58.5118 140.678, 58.5118 103.322, 60.4645 80.2807 C 62.4171 57.2398, 65.5829 57.2398, 67.5355 80.2807" fill="#391f77" fill-opacity="0.501961" />
<path d="M 161 66 L 169 66 L 169 68 L 161 68 Z" fill="#e9dfb9" fill-opacity="0.501961" />
<path d="M 242.5 130 L 242.5 108 L 243.5 108 L 243.5 130 Z" fill="#172c2b" fill-opacity="0.501961" />
<path d="M 133.707 67.1005 C 134.098 72.5678, 134.098 81.4322, 133.707 86.8995 C 133.317 92.3668, 132.683 92.3668, 132.293 86.8995 C 131.902 81.4322, 131.902 72.5678, 132.293 67.1005 C 132.683 61.6332, 133.317 61.6332, 133.707 67.1005" fill="#ffa7a1" fill-opacity="0.501961" />
<path d="M 239.828 58.2929 C 241.391 58.6834, 241.391 59.3166, 239.828 59.7071 C 238.266 60.0976, 235.734 60.0976, 234.172 59.7071 C 232.609 59.3166, 232.609 58.6834, 234.172 58.2929 C 235.734 57.9024, 238.266 57.9024, 239.828 58.2929" fill="#ffedee" fill-opacity="0.501961" />
<path d="M 58.1213 46.2929 C 59.2929 46.6834, 59.2929 47.3166, 58.1213 47.7071 C 56.9497 48.0976, 55.0503 48.0976, 53.8787 47.7071 C 52.7071 47.3166, 52.7071 46.6834, 53.8787 46.2929 C 55.0503 45.9024, 56.9497 45.9024, 58.1213 46.2929" fill="#947dc1" fill-opacity="0.501961" />
<path d="M 26.0338 70.5326 L 28.9565 91.3282 L 27.9662 91.4674 L 25.0435 70.6718 Z" fill="#81a2e7" fill-opacity="0.501961" />
<path d="M 126.337 44.0908 L 180.181 47.9817 L 193.264 31.3971 L 1.54385 -2.14913 Z" fill="#ffffff" fill-opacity="0.501961" />
</g>
</svg>
