<svg version="1.1" width="128" height="128" xmlns="http://www.w3.org/2000/svg">
<rect x="0" y="0" width="128" height="128" fill="#899d74" />
<g transform="scale(1, 1)">
<path d="M 100.456 34.5442 C 114.515 48.603, 114.515 71.397, 100.456 85.4558 C 86.397 99.5147, 63.603 99.5147, 49.5442 85.4558 C 35.4853 71.397, 35.4853 48.603, 49.5442 34.5442 C 63.603 20.4853, 86.397 20.4853, 100.456 34.5442" fill="#00ffff" fill-opacity="0.501961" />
<path d="M 122 85 L 4 95 L 82 126 Z" fill="#ffffff" fill-opacity="0.501961" />
<path d="M -7.56771 46.5468 L -29.1021 24.2473 L 25.5677 -28.5468 L 47.1021 -6.24725 Z" fill="#000000" fill-opacity="0.501961" />
<path d="M 25.2479 162.823 C -0.255015 146.563, -32.2331 111.625, -46.1772 84.7854 C -60.1212 57.9461, -50.7509 49.3698, -25.2479 65.6297 C 0.255015 81.8896, 32.2331 116.828, 46.1772 143.668 C 60.1212 170.507, 50.7509 179.083, 25.2479 162.823" fill="#000000" fill-opacity="0.501961" />
<path d="M 163.597 65.2802 C 131.816 45.6794, 88.5883 5.06537, 67.0464 -25.4339 C 45.5044 -55.9331, 53.8053 -64.7681, 85.5869 -45.1674 C 117.369 -25.5666, 160.596 15.0474, 182.138 45.5467 C 203.68 76.046, 195.379 84.8809, 163.597 65.2802" fill="#000000" fill-opacity="0.501961" />
<path d="M 95 128 L 132 79 L 143 143 Z" fill="#000000" fill-opacity="0.501961" />
<path d="M 34 123 L 47 -11 L -16 64 Z" fill="#ffa246" fill-opacity="0.501961" />
<path d="M 119 28 L 14 20 L 77 -10 Z" fill="#ffe830" fill-opacity="0.501961" />
<path d="M 24 95 L 111 95 L 111 114 L 24 114 Z" fill="#ffffff" fill-opacity="0.501961" />
<path d="M 118 98 L 99 16 L 133 46 Z" fill="#ffe022" fill-opacity="0.501961" />
<path d="M 96.7814 -13.2314 C 88.842 -37.4915, 95.9352 -41.5007, 112.625 -22.1861 C 129.314 -2.87146, 149.279 32.4528, 157.219 56.7129 C 165.158 80.973, 158.065 84.9822, 141.375 65.6676 C 124.686 46.353, 104.721 11.0287, 96.7814 -13.2314" fill="#000000" fill-opacity="0.501961" />
<path d="M -20.6056 20.4187 C -5.57577 6.26119, 22.414 -10.7252, 41.9113 -17.5214 C 61.4086 -24.3176, 65.0302 -18.3501, 50.0003 -4.19254 C 34.9705 9.96503, 6.98069 26.9514, -12.5166 33.7476 C -32.0139 40.5439, -35.6355 34.5763, -20.6056 20.4187" fill="#000000" fill-opacity="0.501961" />
<path d="M 78 127 L 142 100 L 130 143 Z" fill="#000000" fill-opacity="0.501961" />
<path d="M 74.1219 157.734 L 59.6886 174.337 L -30.1219 96.2663 L -15.6886 79.6627 Z" fill="#000000" fill-opacity="0.501961" />
<path d="M 44.9497 105.101 C 47.6834 110.568, 47.6834 119.432, 44.9497 124.899 C 42.2161 130.367, 37.7839 130.367, 35.0503 124.899 C 32.3166 119.432, 32.3166 110.568, 35.0503 105.101 C 37.7839 99.6332, 42.2161 99.6332, 44.9497 105.101" fill="#ff0019" fill-opacity="0.501961" />
<path d="M 32.1714 93.8185 C 24.32 110.695, 12.9812 110.13, 6.8454 92.5573 C 0.709602 74.9847, 2.10035 47.0587, 9.95171 30.1827 C 17.8031 13.3067, 29.1419 13.8714, 35.2777 31.444 C 41.4135 49.0165, 40.0228 76.9426, 32.1714 93.8185" fill="#ffa454" fill-opacity="0.501961" />
<path d="M 134.201 10.4274 L 129.121 22.394 L 51.799 -10.4274 L 56.8785 -22.394 Z" fill="#000000" fill-opacity="0.501961" />
<path d="M 117.229 11.7836 L 143 123.812 L 100.564 141.319 L 143 37.8427 Z" fill="#000000" fill-opacity="0.501961" />
<path d="M -14 -13 L 32 -16 L -15 77 Z" fill="#000000" fill-opacity="0.501961" />
<path d="M 106.528 92.3895 C 98.3099 93.6017, 87.4222 89.3404, 82.21 82.8717 C 76.9978 76.4029, 79.4348 70.1761, 87.6533 68.9639 C 95.8717 67.7517, 106.759 72.0129, 111.972 78.4817 C 117.184 84.9505, 114.747 91.1773, 106.528 92.3895" fill="#01dcd6" fill-opacity="0.501961" />
<path d="M 37.6569 34.9584 C 40.781 48.2362, 40.781 69.7638, 37.6569 83.0416 C 34.5327 96.3195, 29.4673 96.3195, 26.3431 83.0416 C 23.219 69.7638, 23.219 48.2362, 26.3431 34.9584 C 29.4673 21.6805, 34.5327 21.6805, 37.6569 34.9584" fill="#ff1e6c" fill-opacity="0.501961" />
<path d="M 43 25 L 102 25 L 102 86 L 43 86 Z" fill="#02d6d0" fill-opacity="0.501961" />
<path d="M 113.489 95.2295 L 19.215 89.9936 L 50.7064 110.713 L 112.828 118.424 Z" fill="#ffffff" fill-opacity="0.501961" />
<path d="M 91 118 L 69 129 L 27 117 Z" fill="#ffcb20" fill-opacity="0.501961" />
<path d="M 108.284 114.586 C 123.905 115.367, 123.905 116.633, 108.284 117.414 C 92.6633 118.195, 67.3367 118.195, 51.7157 117.414 C 36.0948 116.633, 36.0948 115.367, 51.7157 114.586 C 67.3367 113.805, 92.6633 113.805, 108.284 114.586" fill="#00ded8" fill-opacity="0.501961" />
<path d="M 11.0885 125.403 C 11.0908 140.558, 6.12817 141.606, 0.00414462 127.743 C -6.11988 113.881, -11.0862 90.357, -11.0885 75.2019 C -11.0908 60.0468, -6.12817 58.9991, -0.00414462 72.8617 C 6.11988 86.7244, 11.0862 110.248, 11.0885 125.403" fill="#000000" fill-opacity="0.501961" />
<path d="M 24.7985 35.7083 C 27.8069 48.0301, 25.0557 66.8952, 18.6536 77.8447 C 12.2514 88.7942, 4.62267 87.6816, 1.61428 75.3598 C -1.39412 63.0379, 1.35707 44.1728, 7.75922 33.2233 C 14.1614 22.2739, 21.7901 23.3864, 24.7985 35.7083" fill="#ffec44" fill-opacity="0.501961" />
<path d="M 133 60 L 118 99 L 97 8 Z" fill="#ffcc4c" fill-opacity="0.501961" />
<path d="M 89.8701 6.22183 C 104.71 10.5176, 104.71 17.4824, 89.8701 21.7782 C 75.0301 26.0739, 50.9699 26.0739, 36.1299 21.7782 C 21.29 17.4824, 21.29 10.5176, 36.1299 6.22183 C 50.9699 1.92606, 75.0301 1.92606, 89.8701 6.22183" fill="#ffd34e" fill-opacity="0.501961" />
<path d="M 28.757 117.242 L -13.0955 126.039 L 78.8889 133.68 L 36.9412 122.855 Z" fill="#000000" fill-opacity="0.501961" />
<path d="M 51.6569 68.1005 C 54.781 73.5678, 54.781 82.4322, 51.6569 87.8995 C 48.5327 93.3668, 43.4673 93.3668, 40.3431 87.8995 C 37.219 82.4322, 37.219 73.5678, 40.3431 68.1005 C 43.4673 62.6332, 48.5327 62.6332, 51.6569 68.1005" fill="#07ddd9" fill-opacity="0.501961" />
<path d="M 36 90 L 103 40 L 115 90 Z" fill="#24d1c3" fill-opacity="0.501961" />
<path d="M -16 24 L -5 -2 L 70 -8 Z" fill="#000000" fill-opacity="0.501961" />
<path d="M 64 77 L 89 77 L 89 81 L 64 81 Z" fill="#f0eeee" fill-opacity="0.501961" />
<path d="M 124.671 23.7229 L 60.0667 -9.8258 L 102.966 -3.0407 L 143 -0.312143 Z" fill="#000000" fill-opacity="0.501961" />
<path d="M 77.3305 135.49 L 74.7083 128.999 L 100.669 118.51 L 103.292 125.001 Z" fill="#000000" fill-opacity="0.501961" />
<path d="M 0 86 L -16 143 L 45 143 Z" fill="#000000" fill-opacity="0.501961" />
<path d="M 35.1199 18.375 L 17.5584 104.498 L 40.183 77.0623 L 42.505 24.6821 Z" fill="#ff5865" fill-opacity="0.501961" />
<path d="M 134.417 73.7969 L 110.934 108.159 L 119.393 130.683 L 128.404 62.7639 Z" fill="#000000" fill-opacity="0.501961" />
<path d="M 129 68 L 112 106 L 115 24 Z" fill="#ffce4c" fill-opacity="0.501961" />
<path d="M 63.4038 134.615 L 7.58919 94.604 L 26.0256 118.019 L 88.6166 119.943 Z" fill="#ffb361" fill-opacity="0.501961" />
<path d="M 101 41 L 40 87 L 42 27 Z" fill="#19d0c2" fill-opacity="0.501961" />
<path d="M 46.6143 104.336 L 45.0548 120.262 L 32.8681 124.6 L 34.9884 103.354 Z" fill="#ff455d" fill-opacity="0.501961" />
<path d="M 74.4089 -13.9148 L 13.0511 25.0546 L 101.394 24.1314 L 54.136 -16 Z" fill="#ffcb4c" fill-opacity="0.501961" />
<path d="M 23 94 L 32 94 L 32 114 L 23 114 Z" fill="#f0f5ff" fill-opacity="0.501961" />
<path d="M 5.59684 34.0182 L 6.54236 34.3438 L -1.59684 57.9818 L -2.54236 57.6562 Z" fill="#000000" fill-opacity="0.501961" />
<path d="M 120.264 21.4681 L 136.27 99.5084 L 143 1.44443 L 50.7057 -16 Z" fill="#000000" fill-opacity="0.501961" />
<path d="M 1 75 L 16 102 L 29 25 Z" fill="#ffd74d" fill-opacity="0.501961" />
<path d="M 49 -16 L -16 -15 L -6 43 Z" fill="#000000" fill-opacity="0.501961" />
<path d="M 51 91 L 108 91 L 108 113 L 51 113 Z" fill="#fffcff" fill-opacity="0.501961" />
<path d="M 13.8783 23.8176 L 51.55 -16 L 56.0226 0.670824 L -9.40453 13.354 Z" fill="#000000" fill-opacity="0.501961" />
<path d="M 116.43 31.4567 L 143 92.1718 L 84.8233 2.84044 L 110.621 19.2778 Z" fill="#ffc851" fill-opacity="0.501961" />
<path d="M 143 74 L 111 106 L 124 132 Z" fill="#000000" fill-opacity="0.501961" />
<path d="M -4.89079 119.091 L 67.2734 128.823 L 31.7431 139.564 L -10.936 57.8437 Z" fill="#000000" fill-opacity="0.501961" />
<path d="M 12.2838 26.6886 L -12.8592 87.9077 L 48.0927 1.39235 L 24.0822 13.4427 Z" fill="#ffcc4c" fill-opacity="0.501961" />
<path d="M 123.556 120.343 C 132.148 123.467, 132.148 128.533, 123.556 131.657 C 114.965 134.781, 101.035 134.781, 92.4437 131.657 C 83.8521 128.533, 83.8521 123.467, 92.4437 120.343 C 101.035 117.219, 114.965 117.219, 123.556 120.343" fill="#000000" fill-opacity="0.501961" />
<path d="M 25.5408 51.6797 L 20.7419 109.643 L 62.277 130.412 L 22.9473 116.203 Z" fill="#ff5666" fill-opacity="0.501961" />
<path d="M 113.191 87.2841 L 41.9741 26.1778 L 76.5503 24.8404 L 101.022 27.2245 Z" fill="#1dd0c2" fill-opacity="0.501961" />
<path d="M 136.89 -1.41366 L 85.4573 -0.873647 L 125.115 31.5604 L 134.866 143 Z" fill="#000000" fill-opacity="0.501961" />
<path d="M -12 81 L -16 21 L 12 17 Z" fill="#000000" fill-opacity="0.501961" />
<path d="M 116.91 25.7511 L 130.755 63.3844 L 114.817 88.1936 L 101.284 26.4758 Z" fill="#ffc94f" fill-opacity="0.501961" />
<path d="M 104.335 114.586 C 117.222 115.367, 117.222 116.633, 104.335 117.414 C 91.4472 118.195, 70.5528 118.195, 57.6655 117.414 C 44.7782 116.633, 44.7782 115.367, 57.6655 114.586 C 70.5528 113.805, 91.4472 113.805, 104.335 114.586" fill="#00d3c4" fill-opacity="0.501961" />
<path d="M 143 112 L 62 129 L 122 143 Z" fill="#000000" fill-opacity="0.501961" />
<path d="M 101.299 67.5097 L 110.737 56.7588 L 72.3951 91.2074 L 114.164 90.91 Z" fill="#20cec0" fill-opacity="0.501961" />
<path d="M 36.6757 124.269 C 33.9643 128.66, 32.5734 128.115, 33.5691 123.051 C 34.5648 117.987, 37.57 110.323, 40.2814 105.931 C 42.9929 101.54, 44.3837 102.085, 43.388 107.149 C 42.3923 112.213, 39.3871 119.878, 36.6757 124.269" fill="#ff5b60" fill-opacity="0.501961" />
<path d="M 102.406 90.8787 C 119.198 92.0503, 119.198 93.9497, 102.406 95.1213 C 85.613 96.2929, 58.387 96.2929, 41.5944 95.1213 C 24.8019 93.9497, 24.8019 92.0503, 41.5944 90.8787 C 58.387 89.7071, 85.613 89.7071, 102.406 90.8787" fill="#e0d6df" fill-opacity="0.501961" />
<path d="M 118.47 91.4796 L 114.336 105.899 L 109.53 104.52 L 113.664 90.1014 Z" fill="#ffc62b" fill-opacity="0.501961" />
<path d="M 149.085 51.6954 C 156.402 67.3991, 152.446 70.1552, 140.249 57.8514 C 128.052 45.5476, 112.233 22.8431, 104.915 7.13947 C 97.598 -8.56417, 101.554 -11.3203, 113.751 0.983495 C 125.948 13.2873, 141.767 35.9918, 149.085 51.6954" fill="#000000" fill-opacity="0.501961" />
<path d="M 67 128 L 48 119 L 95 118 Z" fill="#ffd73d" fill-opacity="0.501961" />
<path d="M 59.6321 79.8892 C 75.4446 79.4991, 88.3671 79.5815, 98.3995 80.1363" fill="none" stroke="#00cbba" stroke-opacity="0.501961" stroke-width="1" stroke-linecap="round" />
<path d="M 91.1923 6.0529 L 105.122 14.7849 L 29.5056 26.5309 L 49.1614 2.83456 Z" fill="#ffc94f" fill-opacity="0.501961" />
<path d="M 38.1213 85.8787 C 39.2929 87.0503, 39.2929 88.9497, 38.1213 90.1213 C 36.9497 91.2929, 35.0503 91.2929, 33.8787 90.1213 C 32.7071 88.9497, 32.7071 87.0503, 33.8787 85.8787 C 35.0503 84.7071, 36.9497 84.7071, 38.1213 85.8787" fill="#ff3b58" fill-opacity="0.501961" />
<path d="M 143 55.2095 L 110.6 110.521 L 112.73 108.793 L 126.891 140.63 Z" fill="#000000" fill-opacity="0.501961" />
<path d="M 27 91 L 58 91 L 58 102 L 27 102 Z" fill="#eef7ff" fill-opacity="0.501961" />
<path d="M 42 25 L 100 25 L 100 73 L 42 73 Z" fill="#20d0c2" fill-opacity="0.501961" />
<path d="M 20 109 L 23 36 L 6 90 Z" fill="#ffcf4d" fill-opacity="0.501961" />
<path d="M 6.58288 104.271 L -8.2649 69.2919 L -4.58288 67.7289 L 10.2649 102.708 Z" fill="#000000" fill-opacity="0.501961" />
<path d="M 48.8804 -16 L 97.3921 21.0119 L 16.7156 27.4131 L 66.7834 -5.5575 Z" fill="#ffca50" fill-opacity="0.501961" />
<path d="M 46 101 L 110 101 L 110 113 L 46 113 Z" fill="#ffffff" fill-opacity="0.501961" />
<path d="M 43.7104 124.265 L 42.1358 131.085 L 36.2896 129.735 L 37.8642 122.915 Z" fill="#000000" fill-opacity="0.501961" />
<path d="M 40 55 L 30 30 L 42 22 Z" fill="#ff5361" fill-opacity="0.501961" />
<path d="M 67.4643 -0.382652 L 90.3149 4.30494 L 143 40.9882 L 116.53 -16 Z" fill="#020000" fill-opacity="0.501961" />
<path d="M 86.6066 4.51472 C 92.4645 9.20101, 92.4645 16.799, 86.6066 21.4853 C 80.7487 26.1716, 71.2513 26.1716, 65.3934 21.4853 C 59.5355 16.799, 59.5355 9.20101, 65.3934 4.51472 C 71.2513 -0.171573, 80.7487 -0.171573, 86.6066 4.51472" fill="#ffca4f" fill-opacity="0.501961" />
<path d="M 44.6453 102.532 L 45.6447 102.497 L 47.3547 151.468 L 46.3553 151.503 Z" fill="#ff5c65" fill-opacity="0.501961" />
<path d="M 40 86 L 76 86 L 76 90 L 40 90 Z" fill="#09d3c8" fill-opacity="0.501961" />
<path d="M 110.778 113.293 C 115.074 113.683, 115.074 114.317, 110.778 114.707 C 106.482 115.098, 99.5176 115.098, 95.2218 114.707 C 90.9261 114.317, 90.9261 113.683, 95.2218 113.293 C 99.5176 112.902, 106.482 112.902, 110.778 113.293" fill="#8afffe" fill-opacity="0.501961" />
<path d="M 25.6048 93.8076 L 22.694 106.47 L 28.6872 114.75 L 35.0988 112.743 Z" fill="#edeeff" fill-opacity="0.501961" />
<path d="M 113 79 L 119 34 L 101 15 Z" fill="#ffcb4f" fill-opacity="0.501961" />
<path d="M 8.82843 73.636 C 10.3905 77.1508, 10.3905 82.8492, 8.82843 86.364 C 7.26633 89.8787, 4.73367 89.8787, 3.17157 86.364 C 1.60948 82.8492, 1.60948 77.1508, 3.17157 73.636 C 4.73367 70.1213, 7.26633 70.1213, 8.82843 73.636" fill="#ffcc4f" fill-opacity="0.501961" />
<path d="M 39 89 L 43 31 L 64 83 Z" fill="#1fd0c2" fill-opacity="0.501961" />
<path d="M 33 103 L 45 103 L 45 116 L 33 116 Z" fill="#ff595e" fill-opacity="0.501961" />
<path d="M 24 24 L 100 24 L 100 13 L 24 13 Z" fill="#ffcb4f" fill-opacity="0.501961" />
<path d="M 23.9275 82.4672 C 23.8854 78.1101, 27.3447 75.1011, 31.654 75.7465 C 35.9633 76.3918, 39.4907 80.4471, 39.5327 84.8042 C 39.5747 89.1614, 36.1154 92.1703, 31.8062 91.525 C 27.4969 90.8796, 23.9695 86.8243, 23.9275 82.4672" fill="#ff5966" fill-opacity="0.501961" />
<path d="M 43 87 L 114 87 L 114 90 L 43 90 Z" fill="#15cfc1" fill-opacity="0.501961" />
<path d="M 71 77 L 86 77 L 86 78 L 71 78 Z" fill="#fff6fa" fill-opacity="0.501961" />
<path d="M 51 -3 L -4 -3 L -16 31 Z" fill="#000000" fill-opacity="0.501961" />
<path d="M 119.377 60.8485 C 116.66 54.6135, 114.978 44.0701, 115.62 37.2992 C 116.262 30.5283, 118.985 30.0939, 121.702 36.329 C 124.419 42.564, 126.101 53.1074, 125.459 59.8783 C 124.816 66.6492, 122.094 67.0836, 119.377 60.8485" fill="#ffc94e" fill-opacity="0.501961" />
<path d="M 116.15 107.149 C 123.775 94.1625, 128.022 79.2844, 128.893 62.5151" fill="none" stroke="#0a0100" stroke-opacity="0.501961" stroke-width="1" stroke-linecap="round" />
<path d="M 77.364 76.2929 C 80.8787 76.6834, 80.8787 77.3166, 77.364 77.7071 C 73.8492 78.0976, 68.1508 78.0976, 64.636 77.7071 C 61.1213 77.3166, 61.1213 76.6834, 64.636 76.2929 C 68.1508 75.9024, 73.8492 75.9024, 77.364 76.2929" fill="#fffaff" fill-opacity="0.501961" />
<path d="M 20.8594 105.909 L 26.0236 115.621 L 25.1406 116.091 L 19.9764 106.379 Z" fill="#ff3652" fill-opacity="0.501961" />
<path d="M 34.2872 83.943 L 18.1659 100.989 L 39.9982 23.9968 L 39.8072 81.8937 Z" fill="#ff5b5f" fill-opacity="0.501961" />
<path d="M -16 65.7776 L 23.0595 79.607 L 26.1501 25.5406 L -16 84.3472 Z" fill="#ffc751" fill-opacity="0.501961" />
<path d="M 0 127 L 55 127 L 55 127 L 0 127 Z" fill="#000000" fill-opacity="0.501961" />
<path d="M 114.521 96.8059 C 114.793 93.4745, 116.791 88.7287, 118.983 86.2059 C 121.176 83.6831, 122.733 84.3386, 122.461 87.67 C 122.19 91.0014, 120.192 95.7472, 117.999 98.27 C 115.806 100.793, 114.249 100.137, 114.521 96.8059" fill="#fcbc4b" fill-opacity="0.501961" />
<path d="M -2.33197 -8.67487 L 52.5649 -16 L 10.7771 27.1696 L -2.48739 52.9567 Z" fill="#000000" fill-opacity="0.501961" />
<path d="M 2.59138 47.3358 C 7.55006 32.6782, 15.8516 21.8282, 27.4959 14.7856" fill="none" stroke="#ffc34a" stroke-opacity="0.501961" stroke-width="1" stroke-linecap="round" />
<path d="M 98.9203 113.293 C 111.027 113.683, 111.027 114.317, 98.9203 114.707 C 86.8141 115.098, 67.1859 115.098, 55.0797 114.707 C 42.9734 114.317, 42.9734 113.683, 55.0797 113.293 C 67.1859 112.902, 86.8141 112.902, 98.9203 113.293" fill="#90f3f1" fill-opacity="0.501961" />
<path d="M 100.555 118.289 C 105.676 118.971, 113.256 121.928, 117.485 124.895 C 121.715 127.862, 120.992 129.715, 115.871 129.034 C 110.75 128.353, 103.17 125.395, 98.9406 122.428 C 94.7114 119.461, 95.4344 117.608, 100.555 118.289" fill="#000000" fill-opacity="0.501961" />
<path d="M 82 120 L 47 120 L 47 125 L 82 125 Z" fill="#ffd04e" fill-opacity="0.501961" />
<path d="M 28.0208 117.636 C 34.6597 121.151, 34.6597 126.849, 28.0208 130.364 C 21.3819 133.879, 10.6181 133.879, 3.97918 130.364 C -2.65973 126.849, -2.65973 121.151, 3.97918 117.636 C 10.6181 114.121, 21.3819 114.121, 28.0208 117.636" fill="#000000" fill-opacity="0.501961" />
<path d="M 69 127 L 127 127 L 127 127 L 69 127 Z" fill="#000000" fill-opacity="0.501961" />
<path d="M 39.1878 6.61367 L 64.559 -0.452294 L 92.656 6.49959 L 116.67 26.3435 Z" fill="#ffc84e" fill-opacity="0.501961" />
<path d="M 31 96 L 65 96 L 65 102 L 31 102 Z" fill="#ffffff" fill-opacity="0.501961" />
<path d="M 94.7837 119.764 C 79.4165 125.925, 64.3918 129.21, 49.7095 129.62" fill="none" stroke="#f7b43a" stroke-opacity="0.501961" stroke-width="1" stroke-linecap="round" />
<path d="M 48.4935 112.935 C 73.3147 94.4514, 95.4256 95.5988, 114.826 116.377" fill="none" stroke="#edf7f8" stroke-opacity="0.501961" stroke-width="1" stroke-linecap="round" />
<path d="M 127 72 L 117 117 L 143 76 Z" fill="#000000" fill-opacity="0.501961" />
<path d="M 125.283 81.4114 L 116.716 100.117 L 103.425 34.4874 L 126.755 70.4145 Z" fill="#ffca51" fill-opacity="0.501961" />
<path d="M 47 79 L 111 79 L 111 80 L 47 80 Z" fill="#19cfc0" fill-opacity="0.501961" />
<path d="M 134.084 52.5942 L 114.257 24.6915 L 83.8544 -16 L 143 2.10427 Z" fill="#010000" fill-opacity="0.501961" />
<path d="M 115.156 88.3403 L 97.0153 9.42267 L 112.872 21.8082 L 126.27 48.1716 Z" fill="#ffc850" fill-opacity="0.501961" />
<path d="M -0.673802 64.1615 L 18.7904 17.7146 L 42.0159 5.65239 L 49.2697 1.79396 Z" fill="#ffca4f" fill-opacity="0.501961" />
<path d="M 82.0711 80.2929 C 85.9763 80.6834, 85.9763 81.3166, 82.0711 81.7071 C 78.1658 82.0976, 71.8342 82.0976, 67.9289 81.7071 C 64.0237 81.3166, 64.0237 80.6834, 67.9289 80.2929 C 71.8342 79.9024, 78.1658 79.9024, 82.0711 80.2929" fill="#ffffff" fill-opacity="0.501961" />
<path d="M 47 115 L 96 115 L 96 117 L 47 117 Z" fill="#0fcec1" fill-opacity="0.501961" />
<path d="M -9.69244 143 L 47.6317 143 L 7.10396 97.0951 L -12.7132 30.8351 Z" fill="#000000" fill-opacity="0.501961" />
<path d="M 27.6066 -10.6066 C 33.4645 -4.74874, 33.4645 4.74874, 27.6066 10.6066 C 21.7487 16.4645, 12.2513 16.4645, 6.3934 10.6066 C 0.535534 4.74874, 0.535534 -4.74874, 6.3934 -10.6066 C 12.2513 -16.4645, 21.7487 -16.4645, 27.6066 -10.6066" fill="#000000" fill-opacity="0.501961" />
<path d="M 77 90 L 108 63 L 114 89 Z" fill="#1dd1c3" fill-opacity="0.501961" />
<path d="M 61.8492 92.5858 C 70.0503 93.3668, 70.0503 94.6332, 61.8492 95.4142 C 53.6482 96.1953, 40.3518 96.1953, 32.1508 95.4142 C 23.9497 94.6332, 23.9497 93.3668, 32.1508 92.5858 C 40.3518 91.8047, 53.6482 91.8047, 61.8492 92.5858" fill="#d4d8d9" fill-opacity="0.501961" />
<path d="M 39.0517 35.9783 C 22.1675 77.4595, 16.8667 103.784, 23.1496 114.952" fill="none" stroke="#fe565e" stroke-opacity="0.501961" stroke-width="1" stroke-linecap="round" />
<path d="M 55.426 0.148608 L 127.376 -5.65067 L -16 0.84706 L 18.9606 9.10198 Z" fill="#000000" fill-opacity="0.501961" />
<path d="M 45.5233 126.67 L 45.4295 101.516 L 34.7406 120.913 L 31.5831 114.589 Z" fill="#ff6366" fill-opacity="0.501961" />
<path d="M 121 33 L 143 47 L 134 60 Z" fill="#000000" fill-opacity="0.501961" />
<path d="M 23.6357 143 C 34.3909 127.867, 39.8493 116.297, 40.0108 108.289" fill="none" stroke="#fb585f" stroke-opacity="0.501961" stroke-width="1" stroke-linecap="round" />
<path d="M 23.4829 65.1721 L 13.0219 33.1338 L 5.11642 89.7618 L 19.1349 105.597 Z" fill="#ffcb4e" fill-opacity="0.501961" />
<path d="M 48.427 2.51931 C 53.071 1.10591, 53.3035 1.69485, 48.9463 3.83474 C 44.5891 5.97463, 37.2921 8.85513, 32.6481 10.2685 C 28.0041 11.6819, 27.7716 11.093, 32.1288 8.9531 C 36.486 6.81321, 43.783 3.93271, 48.427 2.51931" fill="#ffc947" fill-opacity="0.501961" />
<path d="M 137 64 L 143 140 L 112 110 Z" fill="#000000" fill-opacity="0.501961" />
<path d="M 113.212 100.677 L 110.563 99.2691 L 114.788 91.3225 L 117.437 92.7309 Z" fill="#ffcd47" fill-opacity="0.501961" />
<path d="M 33.8721 96.8601 L 32.0951 113.767 L 26.1279 113.14 L 27.9049 96.233 Z" fill="#fdffff" fill-opacity="0.501961" />
<path d="M 127 12 L 126 35 L 89 -6 Z" fill="#000000" fill-opacity="0.501961" />
<path d="M 34.534 36.0173 C 26.298 46.3038, 22.1938 70.7639, 22.2212 109.398" fill="none" stroke="#ff5662" stroke-opacity="0.501961" stroke-width="1" stroke-linecap="round" />
<path d="M 23 98 L 28 98 L 28 105 L 23 105 Z" fill="#d8e5ea" fill-opacity="0.501961" />
<path d="M 15 104 L 15 87 L 21 109 Z" fill="#ffd04c" fill-opacity="0.501961" />
<path d="M 14.6243 117.468 L 31.4976 119.54 L 31.3757 120.532 L 14.5024 118.46 Z" fill="#000103" fill-opacity="0.501961" />
<path d="M 44.0759 124.741 L 77.8577 119.03 L 91.9339 123.241 L 54.1988 126.89 Z" fill="#ffc44b" fill-opacity="0.501961" />
<path d="M 26 92 L 111 92 L 111 95 L 26 95 Z" fill="#dcdfe2" fill-opacity="0.501961" />
<path d="M 102 7 L 125 -2 L 75 -1 Z" fill="#000000" fill-opacity="0.501961" />
<path d="M 26 12 L 100 12 L 100 24 L 26 24 Z" fill="#ffca4f" fill-opacity="0.501961" />
</g>
</svg>
