<svg version="1.1" width="233" height="340" xmlns="http://www.w3.org/2000/svg">
<rect x="0" y="0" width="233" height="340" fill="#ecddd4" />
<g transform="scale(1.33143, 1.32812)">
<path d="M 20 172 L 131 80 L 98 271 Z" fill="#bf7c53" fill-opacity="0.501961" />
<path d="M 138 144 L 150 183 L 120 205 Z" fill="#d91000" fill-opacity="0.501961" />
<path d="M 49 99 L 44 132 L 120 130 Z" fill="#e73504" fill-opacity="0.501961" />
<path d="M 106 -16 L 167 271 L 190 -12 Z" fill="#ffffff" fill-opacity="0.501961" />
<path d="M 90 21 L 99 68 L 79 69 Z" fill="#cf0000" fill-opacity="0.501961" />
<path d="M -2 -16 L 0 271 L 82 -16 Z" fill="#ffffff" fill-opacity="0.501961" />
<path d="M 82 188 L 61 251 L 121 238 Z" fill="#7b4f1e" fill-opacity="0.501961" />
<path d="M 35 113 L 141 160 L 52 194 Z" fill="#cfe8e1" fill-opacity="0.501961" />
<path d="M 39 148 L 52 192 L 24 192 Z" fill="#ee0e00" fill-opacity="0.501961" />
<path d="M 50 200 L 99 186 L 133 199 Z" fill="#f81f00" fill-opacity="0.501961" />
<path d="M 130 116 L 120 80 L 108 118 Z" fill="#eb0f00" fill-opacity="0.501961" />
<path d="M 66 119 L 53 68 L 51 114 Z" fill="#cd2900" fill-opacity="0.501961" />
<path d="M 123 186 L 163 82 L 81 191 Z" fill="#f4fef6" fill-opacity="0.501961" />
<path d="M 115 115 L 54 74 L 64 114 Z" fill="#f5ffff" fill-opacity="0.501961" />
<path d="M 166 -16 L 93 27 L 105 113 Z" fill="#ffffff" fill-opacity="0.501961" />
<path d="M 137 157 L 156 193 L 128 190 Z" fill="#ff3e00" fill-opacity="0.501961" />
<path d="M 80 139 L 33 133 L 79 154 Z" fill="#675368" fill-opacity="0.501961" />
<path d="M 146 222 L 129 218 L 148 197 Z" fill="#435c56" fill-opacity="0.501961" />
<path d="M -16 223 L 23 56 L 30 271 Z" fill="#ffffff" fill-opacity="0.501961" />
<path d="M -16 1 L 88 -4 L 77 81 Z" fill="#ffffff" fill-opacity="0.501961" />
<path d="M 170 146 L 124 123 L 116 138 Z" fill="#927792" fill-opacity="0.501961" />
<path d="M 35 204 L 44 220 L 27 219 Z" fill="#1a4144" fill-opacity="0.501961" />
<path d="M 82 84 L 96 94 L 82 106 Z" fill="#324944" fill-opacity="0.501961" />
<path d="M 116 79 L 151 76 L 116 63 Z" fill="#92577d" fill-opacity="0.501961" />
<path d="M 28 202 L 90 201 L 59 220 Z" fill="#f6fffd" fill-opacity="0.501961" />
<path d="M 142 249 L -11 249 L 69 271 Z" fill="#ffffff" fill-opacity="0.501961" />
<path d="M 94 184 L 60 169 L 92 170 Z" fill="#4c5e4a" fill-opacity="0.501961" />
<path d="M 59 189 L 93 191 L 45 201 Z" fill="#f82800" fill-opacity="0.501961" />
<path d="M 138 270 L 174 77 L 190 256 Z" fill="#ffffff" fill-opacity="0.501961" />
<path d="M -16 0 L 86 -11 L 17 181 Z" fill="#ffffff" fill-opacity="0.501961" />
<path d="M 87 79 L 53 65 L 55 76 Z" fill="#89376d" fill-opacity="0.501961" />
<path d="M 118 75 L 137 130 L 190 85 Z" fill="#ffffff" fill-opacity="0.501961" />
<path d="M 41 134 L 115 127 L 93 114 Z" fill="#f44212" fill-opacity="0.501961" />
<path d="M 89 21 L 87 7 L 120 17 Z" fill="#955585" fill-opacity="0.501961" />
<path d="M 101 136 L 114 155 L 92 152 Z" fill="#3b6372" fill-opacity="0.501961" />
<path d="M 66 132 L 120 132 L 86 144 Z" fill="#ffffff" fill-opacity="0.501961" />
<path d="M 37 143 L 80 189 L 53 189 Z" fill="#fcffff" fill-opacity="0.501961" />
<path d="M 90 -11 L 190 132 L 190 -5 Z" fill="#ffffff" fill-opacity="0.501961" />
<path d="M 90 149 L 112 171 L 61 163 Z" fill="#fffff3" fill-opacity="0.501961" />
<path d="M 54 90 L 41 120 L 65 113 Z" fill="#f5420e" fill-opacity="0.501961" />
<path d="M 127 227 L 112 249 L 72 249 Z" fill="#828872" fill-opacity="0.501961" />
<path d="M 109 231 L 97 200 L 137 205 Z" fill="#f0fee4" fill-opacity="0.501961" />
<path d="M 36 146 L 66 126 L 39 132 Z" fill="#84718d" fill-opacity="0.501961" />
<path d="M 48 126 L 77 113 L 57 130 Z" fill="#e2ffff" fill-opacity="0.501961" />
<path d="M 127 192 L 189 193 L 138 206 Z" fill="#fdfffc" fill-opacity="0.501961" />
<path d="M 138 127 L 128 119 L 130 154 Z" fill="#ffffff" fill-opacity="0.501961" />
<path d="M 102 73 L 90 17 L 170 34 Z" fill="#ffffff" fill-opacity="0.501961" />
<path d="M 85 85 L 69 120 L 54 74 Z" fill="#ffffff" fill-opacity="0.501961" />
<path d="M 70 244 L 68 204 L 114 245 Z" fill="#9f6936" fill-opacity="0.501961" />
<path d="M 89 38 L 80 70 L 100 68 Z" fill="#ff4700" fill-opacity="0.501961" />
<path d="M 106 118 L 115 94 L 96 79 Z" fill="#ffffff" fill-opacity="0.501961" />
<path d="M 111 189 L 124 194 L 112 201 Z" fill="#d92e00" fill-opacity="0.501961" />
<path d="M 34 269 L 3 81 L -16 262 Z" fill="#ffffff" fill-opacity="0.501961" />
<path d="M 51 204 L 70 202 L 49 263 Z" fill="#ffffea" fill-opacity="0.501961" />
<path d="M 70 130 L 53 171 L 39 146 Z" fill="#ebdbce" fill-opacity="0.501961" />
<path d="M 127 265 L 106 236 L 176 259 Z" fill="#f9ffff" fill-opacity="0.501961" />
<path d="M 29 207 L 29 231 L 43 209 Z" fill="#657673" fill-opacity="0.501961" />
<path d="M 141 271 L 113 202 L 133 200 Z" fill="#f0f0d2" fill-opacity="0.501961" />
<path d="M 190 120 L 103 118 L 190 148 Z" fill="#ffffff" fill-opacity="0.501961" />
<path d="M 121 84 L 119 76 L 116 94 Z" fill="#331000" fill-opacity="0.501961" />
<path d="M 142 145 L 169 143 L 136 134 Z" fill="#b6658f" fill-opacity="0.501961" />
<path d="M 119 122 L 118 188 L 92 189 Z" fill="#f3f5d9" fill-opacity="0.501961" />
<path d="M -16 41 L 30 177 L 60 -16 Z" fill="#ffffff" fill-opacity="0.501961" />
<path d="M 119 130 L 126 139 L 126 126 Z" fill="#19534e" fill-opacity="0.501961" />
<path d="M 39 152 L 50 190 L 23 192 Z" fill="#fa5715" fill-opacity="0.501961" />
<path d="M 112 162 L 127 160 L 112 178 Z" fill="#9d9386" fill-opacity="0.501961" />
<path d="M 0 247 L 116 251 L 76 271 Z" fill="#ffffff" fill-opacity="0.501961" />
<path d="M 90 99 L 97 106 L 95 82 Z" fill="#6f7163" fill-opacity="0.501961" />
<path d="M 107 115 L 118 98 L 132 114 Z" fill="#ff5410" fill-opacity="0.501961" />
<path d="M 190 109 L 149 179 L 179 253 Z" fill="#ffffff" fill-opacity="0.501961" />
<path d="M 77 184 L 62 189 L 81 167 Z" fill="#ffffee" fill-opacity="0.501961" />
<path d="M 38 140 L 59 145 L 51 128 Z" fill="#8d587d" fill-opacity="0.501961" />
<path d="M 190 122 L 131 113 L 120 80 Z" fill="#ffffff" fill-opacity="0.501961" />
<path d="M 56 189 L 43 201 L 92 199 Z" fill="#d94b1d" fill-opacity="0.501961" />
<path d="M 92 142 L 100 138 L 106 140 Z" fill="#522100" fill-opacity="0.501961" />
<path d="M 33 193 L 34 207 L 48 192 Z" fill="#fffff5" fill-opacity="0.501961" />
<path d="M 90 -10 L 77 68 L -16 54 Z" fill="#ffffff" fill-opacity="0.501961" />
<path d="M 77 182 L 96 184 L 93 170 Z" fill="#5c7789" fill-opacity="0.501961" />
<path d="M 103 206 L 110 226 L 102 249 Z" fill="#738395" fill-opacity="0.501961" />
<path d="M 107 16 L 120 17 L 112 21 Z" fill="#713e59" fill-opacity="0.501961" />
<path d="M 64 223 L 81 201 L 64 248 Z" fill="#727e82" fill-opacity="0.501961" />
<path d="M 184 82 L 163 -16 L 131 70 Z" fill="#ffffff" fill-opacity="0.501961" />
<path d="M 101 115 L 61 129 L 120 131 Z" fill="#f95123" fill-opacity="0.501961" />
<path d="M 61 152 L 61 136 L 76 154 Z" fill="#6b6f6e" fill-opacity="0.501961" />
<path d="M 147 208 L 135 204 L 149 225 Z" fill="#556869" fill-opacity="0.501961" />
<path d="M 3 152 L 58 121 L -10 115 Z" fill="#ffffff" fill-opacity="0.501961" />
<path d="M 152 189 L 138 154 L 123 190 Z" fill="#ed5421" fill-opacity="0.501961" />
<path d="M 78 102 L 114 121 L 97 101 Z" fill="#f6fcf0" fill-opacity="0.501961" />
<path d="M 53 74 L 55 84 L 56 73 Z" fill="#001b27" fill-opacity="0.501961" />
<path d="M 120 214 L 82 201 L 143 202 Z" fill="#faf8e2" fill-opacity="0.501961" />
<path d="M 157 146 L 190 271 L 146 271 Z" fill="#ffffff" fill-opacity="0.501961" />
<path d="M 140 142 L 151 187 L 190 154 Z" fill="#ffffff" fill-opacity="0.501961" />
<path d="M 38 152 L 41 154 L 39 142 Z" fill="#000000" fill-opacity="0.501961" />
<path d="M 137 137 L 136 155 L 140 147 Z" fill="#324650" fill-opacity="0.501961" />
<path d="M 51 156 L 101 172 L 104 153 Z" fill="#ffffdf" fill-opacity="0.501961" />
<path d="M 68 165 L 67 177 L 77 167 Z" fill="#987f20" fill-opacity="0.501961" />
<path d="M 94 200 L 115 189 L 132 201 Z" fill="#c24f23" fill-opacity="0.501961" />
<path d="M -8 182 L 29 192 L 26 271 Z" fill="#ffffff" fill-opacity="0.501961" />
<path d="M 94 131 L 76 132 L 92 165 Z" fill="#ffffe3" fill-opacity="0.501961" />
<path d="M 177 9 L 107 14 L 54 -16 Z" fill="#ffffff" fill-opacity="0.501961" />
<path d="M 129 240 L 113 245 L 130 245 Z" fill="#8a8977" fill-opacity="0.501961" />
<path d="M 95 115 L 59 129 L 74 116 Z" fill="#d73f10" fill-opacity="0.501961" />
<path d="M 132 20 L 98 116 L 100 19 Z" fill="#ffffff" fill-opacity="0.501961" />
<path d="M 71 246 L 35 247 L 53 241 Z" fill="#a2adaa" fill-opacity="0.501961" />
<path d="M 85 76 L 75 74 L 77 77 Z" fill="#58244a" fill-opacity="0.501961" />
<path d="M 61 153 L 66 172 L 60 188 Z" fill="#a29e8b" fill-opacity="0.501961" />
<path d="M 55 142 L 55 131 L 80 135 Z" fill="#fbfada" fill-opacity="0.501961" />
<path d="M 66 114 L 87 115 L 57 88 Z" fill="#ffffff" fill-opacity="0.501961" />
<path d="M 72 189 L 54 178 L 97 188 Z" fill="#ffffeb" fill-opacity="0.501961" />
<path d="M 147 244 L 115 242 L 146 220 Z" fill="#fffeda" fill-opacity="0.501961" />
<path d="M 137 147 L 130 170 L 130 122 Z" fill="#ffffff" fill-opacity="0.501961" />
<path d="M 84 190 L 104 199 L 53 198 Z" fill="#ff6a32" fill-opacity="0.501961" />
<path d="M 127 203 L 131 215 L 128 228 Z" fill="#9e9b92" fill-opacity="0.501961" />
<path d="M 146 207 L 120 190 L 147 197 Z" fill="#faffde" fill-opacity="0.501961" />
<path d="M 118 238 L 125 233 L 115 228 Z" fill="#8a7b20" fill-opacity="0.501961" />
<path d="M 37 151 L 16 209 L -16 45 Z" fill="#ffffff" fill-opacity="0.501961" />
<path d="M 141 24 L 91 18 L 95 47 Z" fill="#ffffff" fill-opacity="0.501961" />
<path d="M 32 245 L 30 220 L 69 239 Z" fill="#fbfbd7" fill-opacity="0.501961" />
<path d="M 83 171 L 90 174 L 86 183 Z" fill="#5ecfff" fill-opacity="0.501961" />
<path d="M 21 35 L 87 22 L 81 62 Z" fill="#ffffff" fill-opacity="0.501961" />
<path d="M 110 150 L 106 138 L 106 154 Z" fill="#744723" fill-opacity="0.501961" />
<path d="M 81 203 L 102 220 L 103 242 Z" fill="#ae6929" fill-opacity="0.501961" />
<path d="M 102 214 L 94 202 L 83 205 Z" fill="#6587a3" fill-opacity="0.501961" />
<path d="M 81 64 L 89 21 L 93 42 Z" fill="#b44716" fill-opacity="0.501961" />
<path d="M 37 223 L 44 219 L 27 222 Z" fill="#5d6268" fill-opacity="0.501961" />
<path d="M 73 140 L 68 148 L 79 154 Z" fill="#46b7e3" fill-opacity="0.501961" />
<path d="M 36 141 L 36 134 L 62 141 Z" fill="#ca729b" fill-opacity="0.501961" />
<path d="M 97 77 L 64 107 L 58 81 Z" fill="#ffffff" fill-opacity="0.501961" />
<path d="M 131 168 L 124 187 L 114 163 Z" fill="#fcffff" fill-opacity="0.501961" />
<path d="M 64 67 L 51 76 L 53 64 Z" fill="#ab7193" fill-opacity="0.501961" />
<path d="M 147 245 L 147 223 L 140 248 Z" fill="#b8b59d" fill-opacity="0.501961" />
<path d="M 47 148 L 47 123 L 53 130 Z" fill="#5c7476" fill-opacity="0.501961" />
<path d="M 138 215 L 145 215 L 140 208 Z" fill="#57ddff" fill-opacity="0.501961" />
<path d="M 62 120 L 52 94 L 44 118 Z" fill="#e65227" fill-opacity="0.501961" />
<path d="M 48 243 L 49 203 L 40 224 Z" fill="#c8c8af" fill-opacity="0.501961" />
<path d="M 47 164 L 47 153 L 52 169 Z" fill="#646963" fill-opacity="0.501961" />
<path d="M 117 149 L 103 134 L 118 133 Z" fill="#f4ffe5" fill-opacity="0.501961" />
<path d="M 50 92 L 41 58 L 54 77 Z" fill="#ffffff" fill-opacity="0.501961" />
<path d="M 41 221 L 32 215 L 35 211 Z" fill="#61d9ff" fill-opacity="0.501961" />
<path d="M 38 233 L 46 244 L 47 206 Z" fill="#ffffe8" fill-opacity="0.501961" />
<path d="M 97 70 L 107 117 L 117 76 Z" fill="#ffffff" fill-opacity="0.501961" />
<path d="M 121 74 L 187 107 L 152 138 Z" fill="#ffffff" fill-opacity="0.501961" />
<path d="M 23 42 L -16 132 L 45 131 Z" fill="#ffffff" fill-opacity="0.501961" />
<path d="M 88 168 L 83 168 L 94 174 Z" fill="#7b3500" fill-opacity="0.501961" />
<path d="M 87 9 L 97 7 L 96 11 Z" fill="#904771" fill-opacity="0.501961" />
<path d="M 64 146 L 51 163 L 49 145 Z" fill="#ffffe9" fill-opacity="0.501961" />
<path d="M 111 233 L 117 220 L 108 227 Z" fill="#fffff2" fill-opacity="0.501961" />
<path d="M 109 146 L 113 133 L 114 160 Z" fill="#a8a899" fill-opacity="0.501961" />
<path d="M 130 199 L 85 197 L 108 190 Z" fill="#ff6129" fill-opacity="0.501961" />
<path d="M 56 250 L 177 248 L 112 271 Z" fill="#ffffff" fill-opacity="0.501961" />
<path d="M 102 209 L 72 243 L 71 215 Z" fill="#b87537" fill-opacity="0.501961" />
<path d="M 79 68 L 90 34 L 96 61 Z" fill="#ff5e2a" fill-opacity="0.501961" />
<path d="M 41 154 L 59 179 L 55 193 Z" fill="#fbffff" fill-opacity="0.501961" />
<path d="M 119 74 L 142 78 L 125 65 Z" fill="#b46c91" fill-opacity="0.501961" />
<path d="M 128 229 L 123 230 L 131 246 Z" fill="#afaca7" fill-opacity="0.501961" />
<path d="M 108 116 L 119 87 L 131 118 Z" fill="#f15826" fill-opacity="0.501961" />
<path d="M 82 76 L 82 90 L 89 102 Z" fill="#766d5b" fill-opacity="0.501961" />
<path d="M 113 125 L 128 118 L 117 129 Z" fill="#f4fff3" fill-opacity="0.501961" />
<path d="M 64 168 L 63 156 L 83 161 Z" fill="#ffffe4" fill-opacity="0.501961" />
<path d="M 145 139 L 137 133 L 147 134 Z" fill="#9a4b72" fill-opacity="0.501961" />
<path d="M 181 141 L 140 152 L 180 271 Z" fill="#ffffff" fill-opacity="0.501961" />
<path d="M 42 143 L 63 143 L 38 135 Z" fill="#f893c7" fill-opacity="0.501961" />
<path d="M 53 244 L 66 227 L 50 212 Z" fill="#fffddc" fill-opacity="0.501961" />
<path d="M 128 137 L 189 100 L 167 27 Z" fill="#ffffff" fill-opacity="0.501961" />
<path d="M 135 217 L 136 207 L 144 204 Z" fill="#6d5136" fill-opacity="0.501961" />
<path d="M 106 150 L 103 142 L 97 142 Z" fill="#4acfff" fill-opacity="0.501961" />
<path d="M 139 233 L 129 207 L 130 230 Z" fill="#ffffea" fill-opacity="0.501961" />
<path d="M 93 154 L 99 152 L 96 140 Z" fill="#7b5e46" fill-opacity="0.501961" />
<path d="M 54 86 L 50 119 L 65 115 Z" fill="#fe5b2c" fill-opacity="0.501961" />
<path d="M 123 190 L 139 158 L 151 192 Z" fill="#f95c2f" fill-opacity="0.501961" />
<path d="M 96 116 L 97 99 L 91 116 Z" fill="#a9bab2" fill-opacity="0.501961" />
<path d="M 96 102 L 93 90 L 88 88 Z" fill="#5c5242" fill-opacity="0.501961" />
<path d="M 190 208 L 150 191 L 148 224 Z" fill="#ffffff" fill-opacity="0.501961" />
<path d="M 29 208 L 32 203 L 29 194 Z" fill="#7f8375" fill-opacity="0.501961" />
<path d="M 146 195 L 146 206 L 118 190 Z" fill="#f3f8e1" fill-opacity="0.501961" />
<path d="M 81 246 L 44 242 L 64 250 Z" fill="#9faab6" fill-opacity="0.501961" />
<path d="M 76 144 L 76 154 L 80 152 Z" fill="#624d2e" fill-opacity="0.501961" />
<path d="M 64 142 L 61 133 L 60 150 Z" fill="#7f6b6e" fill-opacity="0.501961" />
<path d="M 147 243 L 146 222 L 135 246 Z" fill="#ffffe9" fill-opacity="0.501961" />
<path d="M 153 191 L 139 176 L 139 153 Z" fill="#ca5430" fill-opacity="0.501961" />
<path d="M 7 211 L 53 87 L -2 -7 Z" fill="#ffffff" fill-opacity="0.501961" />
<path d="M 144 74 L 149 14 L 128 68 Z" fill="#ffffff" fill-opacity="0.501961" />
<path d="M 37 156 L 53 191 L 24 191 Z" fill="#f0592d" fill-opacity="0.501961" />
<path d="M 94 83 L 84 87 L 95 88 Z" fill="#fffff1" fill-opacity="0.501961" />
<path d="M 173 86 L 127 104 L 121 75 Z" fill="#ffffff" fill-opacity="0.501961" />
<path d="M 9 255 L 87 271 L 55 245 Z" fill="#ffffff" fill-opacity="0.501961" />
<path d="M 93 189 L 111 188 L 111 151 Z" fill="#ffffe2" fill-opacity="0.501961" />
<path d="M 128 139 L 126 161 L 114 177 Z" fill="#c5bda7" fill-opacity="0.501961" />
<path d="M 116 185 L 124 194 L 115 167 Z" fill="#ffffff" fill-opacity="0.501961" />
<path d="M 82 193 L 70 189 L 96 189 Z" fill="#965437" fill-opacity="0.501961" />
<path d="M 106 15 L 106 20 L 119 17 Z" fill="#97607d" fill-opacity="0.501961" />
<path d="M 170 142 L 159 141 L 159 145 Z" fill="#705365" fill-opacity="0.501961" />
<path d="M 34 205 L 56 190 L 30 199 Z" fill="#faffe0" fill-opacity="0.501961" />
<path d="M 147 211 L 148 218 L 142 206 Z" fill="#68350c" fill-opacity="0.501961" />
<path d="M 40 152 L 47 152 L 41 141 Z" fill="#ffffff" fill-opacity="0.501961" />
<path d="M 56 190 L 43 201 L 89 193 Z" fill="#ff592a" fill-opacity="0.501961" />
<path d="M 96 59 L 100 66 L 95 78 Z" fill="#8b6d63" fill-opacity="0.501961" />
<path d="M 52 169 L 63 181 L 63 176 Z" fill="#9d9c95" fill-opacity="0.501961" />
<path d="M 121 166 L 115 134 L 126 156 Z" fill="#fffedd" fill-opacity="0.501961" />
<path d="M 42 222 L 41 210 L 35 207 Z" fill="#7a5836" fill-opacity="0.501961" />
<path d="M 57 131 L 76 118 L 115 127 Z" fill="#ff6132" fill-opacity="0.501961" />
<path d="M 96 68 L 116 88 L 102 114 Z" fill="#ffffff" fill-opacity="0.501961" />
<path d="M 82 178 L 78 181 L 83 170 Z" fill="#682700" fill-opacity="0.501961" />
<path d="M 90 189 L 60 181 L 65 174 Z" fill="#fff9d9" fill-opacity="0.501961" />
<path d="M 123 98 L 133 116 L 123 114 Z" fill="#cb5330" fill-opacity="0.501961" />
<path d="M 183 31 L 38 -10 L 185 -8 Z" fill="#ffffff" fill-opacity="0.501961" />
<path d="M 133 247 L 140 247 L 131 244 Z" fill="#8e8b81" fill-opacity="0.501961" />
<path d="M 65 142 L 69 139 L 66 150 Z" fill="#603210" fill-opacity="0.501961" />
<path d="M 86 115 L 82 116 L 82 103 Z" fill="#808a7b" fill-opacity="0.501961" />
<path d="M 84 234 L 85 221 L 106 213 Z" fill="#a26d3b" fill-opacity="0.501961" />
<path d="M 65 141 L 63 140 L 65 134 Z" fill="#ffffff" fill-opacity="0.501961" />
<path d="M 74 201 L 73 208 L 52 201 Z" fill="#fffff0" fill-opacity="0.501961" />
<path d="M 84 101 L 85 115 L 95 115 Z" fill="#ffffdc" fill-opacity="0.501961" />
<path d="M 150 190 L 127 192 L 136 155 Z" fill="#fe5d2e" fill-opacity="0.501961" />
<path d="M 59 132 L 62 119 L 63 127 Z" fill="#6f594b" fill-opacity="0.501961" />
<path d="M 97 132 L 83 169 L 80 135 Z" fill="#fffdde" fill-opacity="0.501961" />
<path d="M 74 215 L 86 205 L 64 213 Z" fill="#788792" fill-opacity="0.501961" />
<path d="M 126 231 L 106 216 L 123 202 Z" fill="#fffddd" fill-opacity="0.501961" />
<path d="M 83 -9 L 58 66 L 88 30 Z" fill="#ffffff" fill-opacity="0.501961" />
<path d="M 53 125 L 55 131 L 70 118 Z" fill="#fffff4" fill-opacity="0.501961" />
<path d="M 147 208 L 138 208 L 138 216 Z" fill="#62bdf1" fill-opacity="0.501961" />
<path d="M 81 87 L 81 110 L 66 119 Z" fill="#ffffff" fill-opacity="0.501961" />
<path d="M 47 117 L 66 119 L 55 88 Z" fill="#fd5d2e" fill-opacity="0.501961" />
<path d="M 82 82 L 58 91 L 56 75 Z" fill="#ffffff" fill-opacity="0.501961" />
<path d="M 44 201 L 50 200 L 43 198 Z" fill="#544e47" fill-opacity="0.501961" />
<path d="M -16 178 L 3 229 L 31 170 Z" fill="#ffffff" fill-opacity="0.501961" />
<path d="M 113 156 L 111 164 L 114 163 Z" fill="#706c63" fill-opacity="0.501961" />
<path d="M 98 61 L 91 16 L 190 50 Z" fill="#ffffff" fill-opacity="0.501961" />
<path d="M 45 131 L 47 119 L 10 114 Z" fill="#ffffff" fill-opacity="0.501961" />
<path d="M 45 203 L 45 216 L 34 196 Z" fill="#fffbd4" fill-opacity="0.501961" />
<path d="M 128 195 L 126 199 L 131 208 Z" fill="#787267" fill-opacity="0.501961" />
<path d="M 128 137 L 117 138 L 122 128 Z" fill="#557e89" fill-opacity="0.501961" />
<path d="M 136 96 L 175 98 L 127 142 Z" fill="#ffffff" fill-opacity="0.501961" />
<path d="M 103 243 L 88 243 L 88 207 Z" fill="#c58041" fill-opacity="0.501961" />
<path d="M 140 141 L 166 154 L 140 154 Z" fill="#ffffff" fill-opacity="0.501961" />
<path d="M 84 69 L 87 67 L 93 70 Z" fill="#9b3e1e" fill-opacity="0.501961" />
<path d="M 57 131 L 63 125 L 64 130 Z" fill="#9c4020" fill-opacity="0.501961" />
<path d="M 119 65 L 128 65 L 126 71 Z" fill="#8e5a74" fill-opacity="0.501961" />
<path d="M 110 17 L 88 6 L 98 18 Z" fill="#c975a1" fill-opacity="0.501961" />
<path d="M 118 77 L 96 43 L 109 110 Z" fill="#ffffff" fill-opacity="0.501961" />
<path d="M 127 178 L 135 156 L 127 139 Z" fill="#ffffff" fill-opacity="0.501961" />
<path d="M 95 184 L 93 179 L 78 184 Z" fill="#83766d" fill-opacity="0.501961" />
<path d="M 71 210 L 73 213 L 68 214 Z" fill="#d1dae2" fill-opacity="0.501961" />
<path d="M 120 72 L 118 68 L 126 66 Z" fill="#ff96d3" fill-opacity="0.501961" />
<path d="M 99 67 L 92 53 L 91 70 Z" fill="#ea4f1f" fill-opacity="0.501961" />
<path d="M 68 177 L 75 188 L 79 174 Z" fill="#fff9dc" fill-opacity="0.501961" />
<path d="M 80 248 L 56 249 L 68 238 Z" fill="#7e8083" fill-opacity="0.501961" />
<path d="M 88 93 L 90 98 L 90 91 Z" fill="#47cfff" fill-opacity="0.501961" />
<path d="M 95 209 L 108 223 L 102 208 Z" fill="#74879a" fill-opacity="0.501961" />
<path d="M 127 159 L 123 163 L 126 152 Z" fill="#827f77" fill-opacity="0.501961" />
<path d="M 27 179 L -16 146 L 37 143 Z" fill="#ffffff" fill-opacity="0.501961" />
<path d="M 87 228 L 90 204 L 83 205 Z" fill="#75573a" fill-opacity="0.501961" />
<path d="M 38 153 L 28 191 L 48 188 Z" fill="#ff6130" fill-opacity="0.501961" />
<path d="M 61 145 L 48 161 L 59 172 Z" fill="#faf5d5" fill-opacity="0.501961" />
<path d="M 50 163 L 46 167 L 60 163 Z" fill="#83837b" fill-opacity="0.501961" />
<path d="M 121 106 L 126 106 L 127 123 Z" fill="#ec5f34" fill-opacity="0.501961" />
<path d="M 94 11 L 88 21 L 90 11 Z" fill="#8b5671" fill-opacity="0.501961" />
<path d="M 68 245 L 85 209 L 87 240 Z" fill="#bb7a3e" fill-opacity="0.501961" />
<path d="M 29 232 L 30 245 L 36 248 Z" fill="#989e94" fill-opacity="0.501961" />
<path d="M 30 193 L 45 197 L 30 208 Z" fill="#fff8dc" fill-opacity="0.501961" />
<path d="M 51 204 L 69 204 L 59 230 Z" fill="#fffddc" fill-opacity="0.501961" />
<path d="M 69 139 L 75 138 L 81 145 Z" fill="#7d5215" fill-opacity="0.501961" />
<path d="M 112 154 L 104 150 L 90 154 Z" fill="#a19e9d" fill-opacity="0.501961" />
<path d="M 118 240 L 112 244 L 109 238 Z" fill="#ffffe6" fill-opacity="0.501961" />
<path d="M 55 139 L 53 131 L 50 137 Z" fill="#255342" fill-opacity="0.501961" />
<path d="M 107 154 L 96 189 L 93 157 Z" fill="#fff9db" fill-opacity="0.501961" />
<path d="M 119 158 L 125 146 L 126 160 Z" fill="#ffffe9" fill-opacity="0.501961" />
<path d="M 28 192 L 25 271 L -16 244 Z" fill="#ffffff" fill-opacity="0.501961" />
<path d="M 143 206 L 146 217 L 148 210 Z" fill="#703f18" fill-opacity="0.501961" />
<path d="M 49 205 L 51 215 L 48 214 Z" fill="#7e7d77" fill-opacity="0.501961" />
<path d="M 86 143 L 111 133 L 63 132 Z" fill="#fffadd" fill-opacity="0.501961" />
<path d="M 123 74 L 190 147 L 148 136 Z" fill="#ffffff" fill-opacity="0.501961" />
<path d="M 34 222 L 39 217 L 44 223 Z" fill="#746b67" fill-opacity="0.501961" />
<path d="M 104 245 L 76 245 L 84 251 Z" fill="#b5c4d7" fill-opacity="0.501961" />
<path d="M 31 225 L 30 242 L 48 245 Z" fill="#fffde1" fill-opacity="0.501961" />
<path d="M 51 107 L 43 117 L 47 106 Z" fill="#a94a2e" fill-opacity="0.501961" />
<path d="M 114 173 L 128 179 L 115 189 Z" fill="#ffffff" fill-opacity="0.501961" />
<path d="M 129 201 L 130 222 L 139 196 Z" fill="#fffade" fill-opacity="0.501961" />
<path d="M 45 198 L 50 191 L 52 193 Z" fill="#657e8b" fill-opacity="0.501961" />
<path d="M 145 192 L 139 191 L 135 193 Z" fill="#5f6054" fill-opacity="0.501961" />
<path d="M 29 213 L 32 210 L 29 208 Z" fill="#6b350e" fill-opacity="0.501961" />
<path d="M 106 230 L 121 209 L 118 228 Z" fill="#fffbde" fill-opacity="0.501961" />
<path d="M 93 101 L 85 101 L 86 95 Z" fill="#68777e" fill-opacity="0.501961" />
<path d="M 148 194 L 190 165 L 152 264 Z" fill="#ffffff" fill-opacity="0.501961" />
<path d="M 116 131 L 103 116 L 66 130 Z" fill="#e9552a" fill-opacity="0.501961" />
<path d="M 97 115 L 99 70 L 128 34 Z" fill="#ffffff" fill-opacity="0.501961" />
<path d="M 83 98 L 88 89 L 84 90 Z" fill="#654c31" fill-opacity="0.501961" />
<path d="M 84 245 L 65 245 L 73 248 Z" fill="#cfd0d0" fill-opacity="0.501961" />
<path d="M 109 116 L 120 87 L 129 115 Z" fill="#ff602e" fill-opacity="0.501961" />
<path d="M 47 234 L 52 222 L 48 216 Z" fill="#adab97" fill-opacity="0.501961" />
<path d="M 112 249 L 104 225 L 104 249 Z" fill="#919dab" fill-opacity="0.501961" />
<path d="M 144 74 L 149 75 L 143 78 Z" fill="#5b4d59" fill-opacity="0.501961" />
<path d="M 146 200 L 148 196 L 147 191 Z" fill="#575449" fill-opacity="0.501961" />
<path d="M 91 14 L 88 12 L 97 7 Z" fill="#ffa4d8" fill-opacity="0.501961" />
<path d="M 49 214 L 59 250 L 49 237 Z" fill="#fff7e1" fill-opacity="0.501961" />
<path d="M 61 177 L 45 170 L 59 190 Z" fill="#ffffff" fill-opacity="0.501961" />
<path d="M 84 154 L 73 150 L 61 153 Z" fill="#9e9690" fill-opacity="0.501961" />
<path d="M 130 244 L 129 214 L 145 246 Z" fill="#fef6db" fill-opacity="0.501961" />
<path d="M 49 229 L 67 230 L 61 223 Z" fill="#fffae0" fill-opacity="0.501961" />
<path d="M 84 104 L 95 114 L 94 102 Z" fill="#fffcd7" fill-opacity="0.501961" />
<path d="M 58 246 L 47 243 L 69 243 Z" fill="#908d86" fill-opacity="0.501961" />
<path d="M 106 146 L 102 141 L 95 152 Z" fill="#63bdf1" fill-opacity="0.501961" />
<path d="M 72 200 L 78 201 L 79 199 Z" fill="#453837" fill-opacity="0.501961" />
<path d="M 82 70 L 64 66 L 78 74 Z" fill="#ffffff" fill-opacity="0.501961" />
<path d="M 62 191 L 119 191 L 91 199 Z" fill="#ff5e2e" fill-opacity="0.501961" />
<path d="M 115 129 L 78 117 L 58 130 Z" fill="#ff6332" fill-opacity="0.501961" />
<path d="M 128 146 L 128 117 L 145 117 Z" fill="#ffffff" fill-opacity="0.501961" />
<path d="M 88 83 L 91 71 L 95 91 Z" fill="#ffffda" fill-opacity="0.501961" />
<path d="M 38 133 L 40 137 L 37 136 Z" fill="#784c63" fill-opacity="0.501961" />
<path d="M 98 249 L 78 249 L 87 246 Z" fill="#696e73" fill-opacity="0.501961" />
<path d="M 69 146 L 76 149 L 75 145 Z" fill="#6bdcff" fill-opacity="0.501961" />
<path d="M 58 107 L 66 117 L 57 91 Z" fill="#b84c2c" fill-opacity="0.501961" />
<path d="M 180 12 L 91 23 L 179 98 Z" fill="#ffffff" fill-opacity="0.501961" />
<path d="M 82 78 L 82 67 L 85 78 Z" fill="#6e625c" fill-opacity="0.501961" />
<path d="M 93 169 L 91 176 L 94 180 Z" fill="#9d5517" fill-opacity="0.501961" />
<path d="M 84 164 L 79 134 L 114 184 Z" fill="#fef4da" fill-opacity="0.501961" />
<path d="M 94 271 L 169 250 L 15 249 Z" fill="#ffffff" fill-opacity="0.501961" />
<path d="M 42 155 L 47 163 L 46 145 Z" fill="#ffffff" fill-opacity="0.501961" />
<path d="M 62 170 L 73 176 L 79 167 Z" fill="#a39046" fill-opacity="0.501961" />
<path d="M 59 197 L 69 201 L 54 201 Z" fill="#774d3d" fill-opacity="0.501961" />
<path d="M 43 118 L 63 117 L 57 93 Z" fill="#ff6030" fill-opacity="0.501961" />
<path d="M 78 69 L 90 -16 L -16 46 Z" fill="#ffffff" fill-opacity="0.501961" />
<path d="M 106 133 L 111 139 L 112 148 Z" fill="#ffffee" fill-opacity="0.501961" />
<path d="M 51 213 L 50 244 L 62 244 Z" fill="#fef6db" fill-opacity="0.501961" />
<path d="M 49 126 L 53 136 L 49 134 Z" fill="#71cae3" fill-opacity="0.501961" />
<path d="M 57 139 L 59 134 L 53 128 Z" fill="#ffffe7" fill-opacity="0.501961" />
<path d="M 149 66 L 107 63 L 90 17 Z" fill="#ffffff" fill-opacity="0.501961" />
<path d="M 113 177 L 113 186 L 110 182 Z" fill="#a1a199" fill-opacity="0.501961" />
<path d="M 45 199 L 93 199 L 68 191 Z" fill="#ff6232" fill-opacity="0.501961" />
<path d="M 62 180 L 66 184 L 63 168 Z" fill="#fffeeb" fill-opacity="0.501961" />
<path d="M 130 239 L 128 232 L 127 246 Z" fill="#85837d" fill-opacity="0.501961" />
<path d="M 146 132 L 137 138 L 140 140 Z" fill="#ff9dd1" fill-opacity="0.501961" />
<path d="M 45 246 L 43 248 L 37 247 Z" fill="#797f7e" fill-opacity="0.501961" />
<path d="M 125 129 L 121 129 L 124 139 Z" fill="#6ec3eb" fill-opacity="0.501961" />
<path d="M 78 173 L 90 160 L 79 158 Z" fill="#fff9df" fill-opacity="0.501961" />
<path d="M 46 133 L 34 131 L 46 122 Z" fill="#ffffff" fill-opacity="0.501961" />
<path d="M 117 119 L 117 115 L 131 115 Z" fill="#a94521" fill-opacity="0.501961" />
<path d="M 46 143 L 43 139 L 44 138 Z" fill="#35423c" fill-opacity="0.501961" />
<path d="M 107 203 L 116 213 L 106 220 Z" fill="#fffadf" fill-opacity="0.501961" />
<path d="M 82 67 L 90 32 L 98 68 Z" fill="#ff6131" fill-opacity="0.501961" />
<path d="M 147 75 L 137 73 L 136 77 Z" fill="#975a7c" fill-opacity="0.501961" />
<path d="M 36 211 L 32 215 L 40 218 Z" fill="#66c9ff" fill-opacity="0.501961" />
<path d="M 138 163 L 138 151 L 129 175 Z" fill="#bd4b27" fill-opacity="0.501961" />
<path d="M 64 131 L 65 141 L 81 131 Z" fill="#e7f0dc" fill-opacity="0.501961" />
<path d="M 50 238 L 47 229 L 48 246 Z" fill="#9c9891" fill-opacity="0.501961" />
<path d="M 56 191 L 50 198 L 42 200 Z" fill="#a43210" fill-opacity="0.501961" />
<path d="M 93 270 L 54 246 L -7 254 Z" fill="#ffffff" fill-opacity="0.501961" />
<path d="M 147 201 L 146 192 L 130 192 Z" fill="#fbf6da" fill-opacity="0.501961" />
<path d="M 138 154 L 128 190 L 150 191 Z" fill="#ff6131" fill-opacity="0.501961" />
<path d="M 117 86 L 106 117 L 97 110 Z" fill="#fdffff" fill-opacity="0.501961" />
<path d="M 132 118 L 137 149 L 126 171 Z" fill="#ffffff" fill-opacity="0.501961" />
<path d="M 101 137 L 109 147 L 108 140 Z" fill="#6b5a3b" fill-opacity="0.501961" />
<path d="M 130 225 L 129 241 L 142 221 Z" fill="#fef8dd" fill-opacity="0.501961" />
<path d="M 146 233 L 148 232 L 147 226 Z" fill="#2a2c2a" fill-opacity="0.501961" />
<path d="M 136 221 L 132 219 L 138 213 Z" fill="#766d66" fill-opacity="0.501961" />
<path d="M 190 220 L 147 271 L 149 203 Z" fill="#ffffff" fill-opacity="0.501961" />
<path d="M 47 130 L 50 128 L 53 131 Z" fill="#4c2700" fill-opacity="0.501961" />
<path d="M 100 199 L 128 198 L 114 192 Z" fill="#ff6433" fill-opacity="0.501961" />
<path d="M 72 230 L 70 235 L 70 224 Z" fill="#58300c" fill-opacity="0.501961" />
<path d="M 119 131 L 110 123 L 112 118 Z" fill="#74959b" fill-opacity="0.501961" />
<path d="M 27 190 L 28 182 L 23 190 Z" fill="#92432d" fill-opacity="0.501961" />
<path d="M 118 128 L 121 122 L 106 119 Z" fill="#f6f6e1" fill-opacity="0.501961" />
<path d="M 52 71 L 61 65 L 70 76 Z" fill="#d882af" fill-opacity="0.501961" />
<path d="M 120 93 L 114 117 L 129 115 Z" fill="#ff6132" fill-opacity="0.501961" />
<path d="M 112 247 L 111 271 L 190 251 Z" fill="#ffffff" fill-opacity="0.501961" />
<path d="M 91 208 L 94 205 L 90 204 Z" fill="#ccd0d3" fill-opacity="0.501961" />
<path d="M 129 190 L 136 192 L 128 192 Z" fill="#48463a" fill-opacity="0.501961" />
<path d="M 91 96 L 84 97 L 90 98 Z" fill="#2b5364" fill-opacity="0.501961" />
<path d="M 60 78 L 79 115 L 82 78 Z" fill="#ffffff" fill-opacity="0.501961" />
<path d="M 112 185 L 85 163 L 111 154 Z" fill="#fef5da" fill-opacity="0.501961" />
<path d="M 127 240 L 125 230 L 122 242 Z" fill="#ffffeb" fill-opacity="0.501961" />
<path d="M 136 126 L 120 75 L 147 81 Z" fill="#ffffff" fill-opacity="0.501961" />
<path d="M 77 204 L 71 229 L 87 243 Z" fill="#b37a45" fill-opacity="0.501961" />
<path d="M 55 223 L 66 211 L 66 219 Z" fill="#fffbe1" fill-opacity="0.501961" />
<path d="M 118 171 L 112 175 L 116 170 Z" fill="#656662" fill-opacity="0.501961" />
<path d="M 127 129 L 119 128 L 123 127 Z" fill="#643e15" fill-opacity="0.501961" />
<path d="M 120 165 L 115 171 L 114 166 Z" fill="#ffffed" fill-opacity="0.501961" />
<path d="M 137 138 L 140 145 L 139 152 Z" fill="#46444d" fill-opacity="0.501961" />
<path d="M 114 243 L 103 236 L 111 236 Z" fill="#fdf5db" fill-opacity="0.501961" />
<path d="M 97 239 L 97 233 L 107 236 Z" fill="#8f633c" fill-opacity="0.501961" />
<path d="M 47 214 L 48 234 L 32 241 Z" fill="#fff9dd" fill-opacity="0.501961" />
<path d="M 91 95 L 87 91 L 88 97 Z" fill="#67d4ff" fill-opacity="0.501961" />
<path d="M 84 90 L 81 99 L 73 104 Z" fill="#f9fafa" fill-opacity="0.501961" />
<path d="M 37 153 L 33 164 L 40 154 Z" fill="#92533a" fill-opacity="0.501961" />
<path d="M 119 231 L 108 236 L 123 235 Z" fill="#8c7c31" fill-opacity="0.501961" />
<path d="M 132 200 L 116 189 L 124 199 Z" fill="#8b4933" fill-opacity="0.501961" />
<path d="M 3 -16 L 53 84 L 33 141 Z" fill="#ffffff" fill-opacity="0.501961" />
<path d="M 57 243 L 49 242 L 49 219 Z" fill="#fffbe2" fill-opacity="0.501961" />
<path d="M 90 72 L 84 78 L 84 87 Z" fill="#ffffd9" fill-opacity="0.501961" />
<path d="M 168 146 L 152 179 L 139 148 Z" fill="#ffffff" fill-opacity="0.501961" />
<path d="M -16 198 L 32 166 L 44 77 Z" fill="#ffffff" fill-opacity="0.501961" />
<path d="M 69 235 L 65 235 L 69 230 Z" fill="#aebdcb" fill-opacity="0.501961" />
<path d="M 118 71 L 117 84 L 121 82 Z" fill="#282d37" fill-opacity="0.501961" />
<path d="M 101 220 L 88 209 L 89 243 Z" fill="#bc7e45" fill-opacity="0.501961" />
<path d="M 158 76 L 130 79 L 190 166 Z" fill="#ffffff" fill-opacity="0.501961" />
<path d="M 124 95 L 129 82 L 120 72 Z" fill="#f4fbfb" fill-opacity="0.501961" />
<path d="M 131 75 L 138 75 L 129 72 Z" fill="#ffa0dc" fill-opacity="0.501961" />
<path d="M 66 117 L 51 115 L 51 120 Z" fill="#cd4b23" fill-opacity="0.501961" />
<path d="M 118 177 L 114 188 L 126 192 Z" fill="#fbffff" fill-opacity="0.501961" />
<path d="M 146 -16 L 190 12 L 75 5 Z" fill="#ffffff" fill-opacity="0.501961" />
<path d="M 84 172 L 91 180 L 89 172 Z" fill="#68d4ff" fill-opacity="0.501961" />
<path d="M 123 229 L 111 233 L 114 229 Z" fill="#817742" fill-opacity="0.501961" />
<path d="M 62 191 L 61 182 L 58 196 Z" fill="#a76652" fill-opacity="0.501961" />
<path d="M 38 154 L 26 190 L 43 180 Z" fill="#ff5e2f" fill-opacity="0.501961" />
<path d="M 112 124 L 106 125 L 103 117 Z" fill="#ba492a" fill-opacity="0.501961" />
<path d="M 83 69 L 79 66 L 82 60 Z" fill="#99452a" fill-opacity="0.501961" />
<path d="M 101 189 L 107 189 L 108 191 Z" fill="#587364" fill-opacity="0.501961" />
<path d="M 73 116 L 104 119 L 60 130 Z" fill="#ff5d2f" fill-opacity="0.501961" />
<path d="M 111 165 L 61 166 L 67 154 Z" fill="#fef4da" fill-opacity="0.501961" />
<path d="M 57 256 L -1 234 L -16 254 Z" fill="#ffffff" fill-opacity="0.501961" />
<path d="M 78 180 L 79 184 L 89 179 Z" fill="#717171" fill-opacity="0.501961" />
<path d="M 137 132 L 139 134 L 135 139 Z" fill="#735e68" fill-opacity="0.501961" />
<path d="M 134 77 L 118 66 L 116 72 Z" fill="#a7738d" fill-opacity="0.501961" />
<path d="M 76 149 L 77 140 L 80 150 Z" fill="#714e24" fill-opacity="0.501961" />
<path d="M 48 126 L 60 128 L 50 122 Z" fill="#ffffd8" fill-opacity="0.501961" />
<path d="M 82 106 L 68 117 L 60 97 Z" fill="#feffff" fill-opacity="0.501961" />
<path d="M 55 190 L 31 198 L 44 198 Z" fill="#f5f5e2" fill-opacity="0.501961" />
<path d="M 118 172 L 126 162 L 121 162 Z" fill="#96938e" fill-opacity="0.501961" />
<path d="M 115 190 L 130 199 L 105 197 Z" fill="#ff5d2e" fill-opacity="0.501961" />
<path d="M 41 118 L 62 117 L 59 102 Z" fill="#ff5f31" fill-opacity="0.501961" />
<path d="M 127 182 L 125 189 L 122 190 Z" fill="#4d494a" fill-opacity="0.501961" />
<path d="M 125 202 L 119 214 L 92 201 Z" fill="#fff8e0" fill-opacity="0.501961" />
<path d="M 145 247 L 149 240 L 148 231 Z" fill="#989895" fill-opacity="0.501961" />
<path d="M 30 223 L 46 223 L 34 245 Z" fill="#fff7dd" fill-opacity="0.501961" />
</g>
</svg>
