<svg version="1.1" width="128" height="128" xmlns="http://www.w3.org/2000/svg">
<rect x="0" y="0" width="128" height="128" fill="#4c635a" />
<g transform="scale(1, 1)">
<path d="M -16 66 L 143 68 L 66 -15 Z" fill="#dbffff" fill-opacity="0.501961" />
<path d="M 82.9571 133.059 L 71.1269 72.1984 L 129.043 60.9407 L 140.873 121.802 Z" fill="#000000" fill-opacity="0.501961" />
<path d="M -13.0316 41.336 L -0.503806 143 L 66.2561 143 L 40.9052 80.3994 Z" fill="#000000" fill-opacity="0.501961" />
<path d="M 46.6247 89.0867 C 55.3349 83.0347, 69.7658 82.5573, 78.8569 88.0203 C 87.9481 93.4834, 88.2569 102.818, 79.5467 108.87 C 70.8365 114.922, 56.4056 115.399, 47.3145 109.936 C 38.2233 104.473, 37.9145 95.1386, 46.6247 89.0867" fill="#ffff56" fill-opacity="0.501961" />
<path d="M 155.147 32.3348 L 140.986 50.4591 L 70.8534 -4.33481 L 85.0136 -22.4591 Z" fill="#000000" fill-opacity="0.501961" />
<path d="M -43.7656 65.0461 C -79.8419 82.7801, -85.9707 74.1869, -57.4547 45.8527 C -28.9386 17.5184, 23.4238 -19.8273, 59.5 -37.5613 C 95.5763 -55.2953, 101.705 -46.7021, 73.1891 -18.3678 C 44.6731 9.96639, -7.68934 47.3121, -43.7656 65.0461" fill="#000000" fill-opacity="0.501961" />
<path d="M 55 -16 L 20 69 L 143 57 Z" fill="#acffff" fill-opacity="0.501961" />
<path d="M 143 131.341 L 125.179 -16 L 121.487 57.006 L 63.3932 128.792 Z" fill="#000000" fill-opacity="0.501961" />
<path d="M 60 75 L -11 59 L 3 143 Z" fill="#000000" fill-opacity="0.501961" />
<path d="M 68.9497 88.2513 C 71.6834 101.92, 71.6834 124.08, 68.9497 137.749 C 66.2161 151.417, 61.7839 151.417, 59.0503 137.749 C 56.3166 124.08, 56.3166 101.92, 59.0503 88.2513 C 61.7839 74.5829, 66.2161 74.5829, 68.9497 88.2513" fill="#ffff33" fill-opacity="0.501961" />
<path d="M 5.63794 53.6575 L 17.9712 68.5219 L 74.0519 23.8792 L 10.8532 26.0923 Z" fill="#83f5ff" fill-opacity="0.501961" />
<path d="M 146.803 69.7574 C 196.399 72.1005, 196.399 75.8995, 146.803 78.2426 C 97.206 80.5858, 16.794 80.5858, -32.8026 78.2426 C -82.3991 75.8995, -82.3991 72.1005, -32.8026 69.7574 C 16.794 67.4142, 97.206 67.4142, 146.803 69.7574" fill="#000000" fill-opacity="0.501961" />
<path d="M 99.5478 -6.85916 C 111.263 -12.8511, 128.718 -10.6061, 138.536 -1.84472 C 148.354 6.91666, 146.815 18.8766, 135.1 24.8686 C 123.385 30.8606, 105.93 28.6156, 96.1121 19.8542 C 86.2945 11.0928, 87.8327 -0.867169, 99.5478 -6.85916" fill="#000000" fill-opacity="0.501961" />
<path d="M -16 124.702 L 75.7398 143 L 5.89902 66.8306 L 4.63193 -16 Z" fill="#000000" fill-opacity="0.501961" />
<path d="M -38.3476 32.8785 C -17.1246 12.6665, 22.1963 -12.3985, 49.4781 -23.1058 C 76.7598 -33.8132, 81.6714 -26.1081, 60.4483 -5.89622 C 39.2253 14.3157, -0.0956482 39.3807, -27.3774 50.0881 C -54.6591 60.7954, -59.5707 53.0904, -38.3476 32.8785" fill="#000000" fill-opacity="0.501961" />
<path d="M 54.7433 82.4786 L 64.7921 77.5705 L 88.9562 97.9856 L 84.5794 112.169 Z" fill="#ffff98" fill-opacity="0.501961" />
<path d="M 81.211 138.142 L 67.028 105.083 L 143 118.687 L 131.656 32.899 Z" fill="#000000" fill-opacity="0.501961" />
<path d="M 95.8437 54.2411 C 87.4837 52.29, 83.572 44.3663, 87.1066 36.5431 C 90.6413 28.7198, 100.284 23.9595, 108.644 25.9106 C 117.004 27.8617, 120.916 35.7854, 117.381 43.6086 C 113.846 51.4319, 104.204 56.1922, 95.8437 54.2411" fill="#cfffff" fill-opacity="0.501961" />
<path d="M 59.8909 109.125 L 34.8114 127.347 L 30.1091 120.875 L 55.1886 102.653 Z" fill="#000000" fill-opacity="0.501961" />
<path d="M 19 60 L 110 60 L 110 68 L 19 68 Z" fill="#b9ffff" fill-opacity="0.501961" />
<path d="M 52.5098 56.6877 C 47.3008 50.5562, 48.3202 41.7054, 54.7868 36.9187 C 61.2533 32.1321, 70.7183 33.2222, 75.9273 39.3537 C 81.1363 45.4852, 80.1168 54.336, 73.6502 59.1227 C 67.1837 63.9094, 57.7188 62.8192, 52.5098 56.6877" fill="#72e562" fill-opacity="0.501961" />
<path d="M 51.8994 91.0837 C 57.0036 89.7243, 59.8544 92.7064, 58.2667 97.7442 C 56.6791 102.782, 51.2542 107.968, 46.15 109.327 C 41.0458 110.687, 38.195 107.705, 39.7827 102.667 C 41.3704 97.629, 46.7952 92.443, 51.8994 91.0837" fill="#fffd8f" fill-opacity="0.501961" />
<path d="M 101 114 L 143 62 L 67 74 Z" fill="#000000" fill-opacity="0.501961" />
<path d="M 50.9973 28.9002 L 69.899 22.4345 L 63.154 14.5343 L 59.2119 26.1883 Z" fill="#412930" fill-opacity="0.501961" />
<path d="M 67 143 L 72 99 L 87 123 Z" fill="#000000" fill-opacity="0.501961" />
<path d="M 143.803 69.7574 C 193.399 72.1005, 193.399 75.8995, 143.803 78.2426 C 94.206 80.5858, 13.794 80.5858, -35.8026 78.2426 C -85.3991 75.8995, -85.3991 72.1005, -35.8026 69.7574 C 13.794 67.4142, 94.206 67.4142, 143.803 69.7574" fill="#000000" fill-opacity="0.501961" />
<path d="M 67.2426 97.8579 C 69.5858 105.668, 69.5858 118.332, 67.2426 126.142 C 64.8995 133.953, 61.1005 133.953, 58.7574 126.142 C 56.4142 118.332, 56.4142 105.668, 58.7574 97.8579 C 61.1005 90.0474, 64.8995 90.0474, 67.2426 97.8579" fill="#fff428" fill-opacity="0.501961" />
<path d="M -16 135 L -13 11 L 46 143 Z" fill="#000000" fill-opacity="0.501961" />
<path d="M 27.8995 36.1005 C 33.3668 41.5678, 33.3668 50.4322, 27.8995 55.8995 C 22.4322 61.3668, 13.5678 61.3668, 8.10051 55.8995 C 2.63316 50.4322, 2.63316 41.5678, 8.10051 36.1005 C 13.5678 30.6332, 22.4322 30.6332, 27.8995 36.1005" fill="#79e3fc" fill-opacity="0.501961" />
<path d="M 25 108 L 57 108 L 57 127 L 25 127 Z" fill="#000000" fill-opacity="0.501961" />
<path d="M 143 -16 L 50 -10 L 143 29 Z" fill="#000000" fill-opacity="0.501961" />
<path d="M 25 30 L 41 6 L 67 -2 Z" fill="#7cf0ff" fill-opacity="0.501961" />
<path d="M 20.5786 -0.678857 C 25.4668 -5.26677, 31.5709 -3.99107, 34.2126 2.17049 C 36.8543 8.33205, 35.0332 17.0462, 30.145 21.6341 C 25.2568 26.222, 19.1526 24.9463, 16.5109 18.7848 C 13.8692 12.6232, 15.6904 3.90906, 20.5786 -0.678857" fill="#000000" fill-opacity="0.501961" />
<path d="M 58 76 L -16 59 L 30 111 Z" fill="#000000" fill-opacity="0.501961" />
<path d="M 117.396 31.6416 C 122.91 37.635, 123.851 48.0731, 119.497 54.9557 C 115.143 61.8384, 107.144 62.5592, 101.63 56.5658 C 96.1156 50.5724, 95.175 40.1343, 99.5287 33.2516 C 103.883 26.369, 111.882 25.6481, 117.396 31.6416" fill="#bef2ff" fill-opacity="0.501961" />
<path d="M 59 139 L 132 49 L 142 129 Z" fill="#000000" fill-opacity="0.501961" />
<path d="M 69.8914 86.2312 L 49.7499 105.682 L 42.1086 97.7688 L 62.2501 78.3184 Z" fill="#ffff96" fill-opacity="0.501961" />
<path d="M 16.9216 -13.7121 C 31.2248 -27.6733, 37.2913 -23.7605, 30.4715 -4.97249 C 23.6517 13.8155, 6.52807 40.364, -7.77516 54.3253 C -22.0784 68.2865, -28.1449 64.3737, -21.3251 45.5857 C -14.5052 26.7977, 2.61837 0.249162, 16.9216 -13.7121" fill="#000000" fill-opacity="0.501961" />
<path d="M 81.6587 59.4988 C 77.1545 52.4803, 80.0678 45.1756, 88.1658 43.1833 C 96.2638 41.191, 106.48 45.2655, 110.984 52.2839 C 115.488 59.3024, 112.575 66.6071, 104.477 68.5994 C 96.379 70.5917, 86.1629 66.5172, 81.6587 59.4988" fill="#bff1ff" fill-opacity="0.501961" />
<path d="M 58.3736 106.839 C 57.5054 112.654, 53.3994 120.706, 49.2026 124.824 C 45.0059 128.942, 42.3076 127.566, 43.1758 121.751 C 44.0441 115.936, 48.1501 107.883, 52.3469 103.765 C 56.5436 99.6475, 59.2419 101.023, 58.3736 106.839" fill="#000000" fill-opacity="0.501961" />
<path d="M 60.6172 89.4241 L 82.3122 108.416 L 90.1332 100.588 L 61.9039 77.5563 Z" fill="#fffa86" fill-opacity="0.501961" />
<path d="M 143 36 L 104 143 L 86 92 Z" fill="#000000" fill-opacity="0.501961" />
<path d="M 47 15 L 49 15 L 49 21 L 47 21 Z" fill="#000000" fill-opacity="0.501961" />
<path d="M 142.249 43.1478 C 126.705 39.8601, 107.276 26.2731, 98.854 12.8004 C 90.4321 -0.672345, 96.2061 -8.929, 111.751 -5.64136 C 127.295 -2.35372, 146.724 11.2333, 155.146 24.706 C 163.568 38.1787, 157.794 46.4354, 142.249 43.1478" fill="#000000" fill-opacity="0.501961" />
<path d="M 94.5656 27.6346 C 92.9133 34.9471, 86.3092 37.839, 79.8149 34.0938 C 73.3206 30.3486, 69.3953 21.3845, 71.0476 14.0721 C 72.6999 6.75957, 79.304 3.8677, 85.7983 7.6129 C 92.2926 11.3581, 96.2178 20.3221, 94.5656 27.6346" fill="#bfecfd" fill-opacity="0.501961" />
<path d="M 69.5518 49.4931 L 72.4148 45.5473 L 53.3337 46.4545 L 60.519 55.1358 Z" fill="#ffffde" fill-opacity="0.501961" />
<path d="M 32.6066 41.3934 C 38.4645 47.2513, 38.4645 56.7487, 32.6066 62.6066 C 26.7487 68.4645, 17.2513 68.4645, 11.3934 62.6066 C 5.53553 56.7487, 5.53553 47.2513, 11.3934 41.3934 C 17.2513 35.5355, 26.7487 35.5355, 32.6066 41.3934" fill="#79d6e9" fill-opacity="0.501961" />
<path d="M 83 19 L 78 10 L 79 22 Z" fill="#413f3e" fill-opacity="0.501961" />
<path d="M -11 -3 L 22 13 L 70 -7 Z" fill="#000000" fill-opacity="0.501961" />
<path d="M 128.828 -50.8026 C 130.391 -1.20598, 130.391 79.206, 128.828 128.803 C 127.266 178.399, 124.734 178.399, 123.172 128.803 C 121.609 79.206, 121.609 -1.20598, 123.172 -50.8026 C 124.734 -100.399, 127.266 -100.399, 128.828 -50.8026" fill="#000000" fill-opacity="0.501961" />
<path d="M 53 4 L 83 4 L 83 14 L 53 14 Z" fill="#c5f6ff" fill-opacity="0.501961" />
<path d="M 34.4017 87.9529 L 76.1014 75.9206 L -16 66.7806 L 54.7708 143 Z" fill="#000000" fill-opacity="0.501961" />
<path d="M 58 103 L 69 103 L 69 123 L 58 123 Z" fill="#fff04c" fill-opacity="0.501961" />
<path d="M 32.2788 28.8052 C 27.6954 33.5107, 18.7796 38.4718, 12.3648 39.8861 C 5.95002 41.3003, 4.4654 38.6322, 9.04882 33.9267 C 13.6322 29.2212, 22.5481 24.2601, 28.9628 22.8458 C 35.3776 21.4316, 36.8623 24.0997, 32.2788 28.8052" fill="#82e3f9" fill-opacity="0.501961" />
<path d="M 72 -16 L 99 22 L 142 29 Z" fill="#000000" fill-opacity="0.501961" />
<path d="M 39.5721 54.953 L 38.3186 59.9215 L 61.7527 21.9657 L 43.3144 23.8503 Z" fill="#ceecf8" fill-opacity="0.501961" />
<path d="M 65.5796 16.7891 C 67.8742 18.2024, 69.3147 21.492, 68.7969 24.1368 C 68.2791 26.7815, 65.9992 27.7798, 63.7046 26.3666 C 61.4099 24.9533, 59.9695 21.6637, 60.4872 19.0189 C 61.005 16.3742, 63.2849 15.3759, 65.5796 16.7891" fill="#4e484b" fill-opacity="0.501961" />
<path d="M 66.2954 10.3337 L 113.003 50.8142 L 56.9414 28.8982 L 68.7781 22.6394 Z" fill="#bbeef7" fill-opacity="0.501961" />
<path d="M 110.349 28.7617 C 117.455 30.8628, 123.188 38.5728, 123.155 45.9823 C 123.121 53.3919, 117.334 57.6952, 110.228 55.5941 C 103.123 53.493, 97.3899 45.783, 97.4233 38.3735 C 97.4567 30.9639, 103.244 26.6606, 110.349 28.7617" fill="#b4e8f2" fill-opacity="0.501961" />
<path d="M 95 106 L 69 75 L 119 65 Z" fill="#000000" fill-opacity="0.501961" />
<path d="M 86.2426 97.7574 C 88.5858 100.101, 88.5858 103.899, 86.2426 106.243 C 83.8995 108.586, 80.1005 108.586, 77.7574 106.243 C 75.4142 103.899, 75.4142 100.101, 77.7574 97.7574 C 80.1005 95.4142, 83.8995 95.4142, 86.2426 97.7574" fill="#ffff89" fill-opacity="0.501961" />
<path d="M 45 107 L 41 99 L 60 79 Z" fill="#ffff85" fill-opacity="0.501961" />
<path d="M 143 127.906 L 143 130.763 L 71.4739 104.432 L 70.3036 130.087 Z" fill="#000000" fill-opacity="0.501961" />
<path d="M 115.164 49.9603 C 120.437 55.1537, 119.425 62.2009, 112.904 65.7008 C 106.382 69.2007, 96.8207 67.8279, 91.5474 62.6345 C 86.274 57.4412, 87.2858 50.394, 93.8073 46.8941 C 100.329 43.3942, 109.89 44.767, 115.164 49.9603" fill="#b5e9f2" fill-opacity="0.501961" />
<path d="M 143 2.97252 L 43.7885 -16 L 86.2577 7.31114 L 98.41 20.1293 Z" fill="#000000" fill-opacity="0.501961" />
<path d="M 77.5205 36.2875 L 61.4711 30.2021 L 50.9711 40.7025 L 60.5714 48.3588 Z" fill="#68d87f" fill-opacity="0.501961" />
<path d="M 4.74049 46.7331 L 15.1745 -16 L -16 12.6818 L 15.0499 106.226 Z" fill="#000000" fill-opacity="0.501961" />
<path d="M -16 49.2361 L 2.4102 143 L 29.4055 108.525 L 53.6743 85.4609 Z" fill="#000000" fill-opacity="0.501961" />
<path d="M 67.2426 96.7574 C 69.5858 99.1005, 69.5858 102.899, 67.2426 105.243 C 64.8995 107.586, 61.1005 107.586, 58.7574 105.243 C 56.4142 102.899, 56.4142 99.1005, 58.7574 96.7574 C 61.1005 94.4142, 64.8995 94.4142, 67.2426 96.7574" fill="#d7b300" fill-opacity="0.501961" />
<path d="M 22 57 L 35 57 L 35 68 L 22 68 Z" fill="#6fd4e9" fill-opacity="0.501961" />
<path d="M 28 21 L 11 18 L 46 2 Z" fill="#000000" fill-opacity="0.501961" />
<path d="M -16 42.9824 L 60.9256 127.22 L 143 126.162 L -2.22067 143 Z" fill="#000000" fill-opacity="0.501961" />
<path d="M 118.811 69.4645 C 152.396 71.4171, 152.396 74.5829, 118.811 76.5355 C 85.2261 78.4882, 30.7739 78.4882, -2.81118 76.5355 C -36.3963 74.5829, -36.3963 71.4171, -2.81118 69.4645 C 30.7739 67.5118, 85.2261 67.5118, 118.811 69.4645" fill="#000000" fill-opacity="0.501961" />
<path d="M 42 68 L 48 68 L 48 44 L 42 44 Z" fill="#c3f2ff" fill-opacity="0.501961" />
<path d="M 73.6807 68.1565 L 81.9508 34.6285 L 95.2211 21.2839 L 104.976 68.6244 Z" fill="#b7ebf6" fill-opacity="0.501961" />
<path d="M -16 41 L 0 -16 L 32 18 Z" fill="#000000" fill-opacity="0.501961" />
<path d="M 47 6 L 7 47 L 35 63 Z" fill="#7dd7e8" fill-opacity="0.501961" />
<path d="M 56.1549 99.491 L 57.1535 99.5433 L 55.8451 124.509 L 54.8465 124.457 Z" fill="#000000" fill-opacity="0.501961" />
<path d="M 90.7869 12.1838 C 95.6579 17.3118, 99.6479 27.2023, 99.6986 34.2749 C 99.7494 41.3475, 95.8418 42.9238, 90.9707 37.7958 C 86.0997 32.6678, 82.1097 22.7773, 82.059 15.7047 C 82.0082 8.63219, 85.9158 7.05582, 90.7869 12.1838" fill="#b6ebf4" fill-opacity="0.501961" />
<path d="M 32.3137 31.6863 C 38.5621 37.9347, 38.5621 48.0653, 32.3137 54.3137 C 26.0653 60.5621, 15.9347 60.5621, 9.68629 54.3137 C 3.4379 48.0653, 3.4379 37.9347, 9.68629 31.6863 C 15.9347 25.4379, 26.0653 25.4379, 32.3137 31.6863" fill="#84dbe8" fill-opacity="0.501961" />
<path d="M 70.7329 43.0707 C 73.9519 41.1655, 74.5614 41.9003, 72.0942 44.7118 C 69.6271 47.5233, 65.0176 51.3469, 61.7986 53.252 C 58.5797 55.1571, 57.9702 54.4223, 60.4373 51.6108 C 62.9044 48.7993, 67.5139 44.9758, 70.7329 43.0707" fill="#fffddd" fill-opacity="0.501961" />
<path d="M 59.9416 80.4964 L 66.7291 78.9468 L 83.0169 94.2703 L 44.7194 95.9777 Z" fill="#ffed7c" fill-opacity="0.501961" />
<path d="M 15.0427 65.6768 C 9.27197 61.4156, 4.6654 52.1463, 4.75367 44.9734 C 4.84194 37.8004, 9.59163 35.4399, 15.3624 39.7011 C 21.1332 43.9623, 25.7398 53.2315, 25.6515 60.4045 C 25.5632 67.5775, 20.8135 69.938, 15.0427 65.6768" fill="#7fd5e3" fill-opacity="0.501961" />
<path d="M 39 62 L 98 62 L 98 68 L 39 68 Z" fill="#baeaf7" fill-opacity="0.501961" />
<path d="M 30.7106 86.7859 L 59.2894 70.2859 L 63.2894 77.2141 L 34.7106 93.7141 Z" fill="#000000" fill-opacity="0.501961" />
<path d="M 80.7308 110.519 L 70.6019 100.166 L 72.2517 143 L 143 117.772 Z" fill="#000000" fill-opacity="0.501961" />
<path d="M -16 -2 L 10 16 L 73 -8 Z" fill="#000000" fill-opacity="0.501961" />
<path d="M 134 143 L 64 72 L 118 67 Z" fill="#000000" fill-opacity="0.501961" />
<path d="M 122 94 L 143 52 L 123 34 Z" fill="#000000" fill-opacity="0.501961" />
<path d="M 111.899 28.1005 C 117.367 33.5678, 117.367 42.4322, 111.899 47.8995 C 106.432 53.3668, 97.5678 53.3668, 92.1005 47.8995 C 86.6332 42.4322, 86.6332 33.5678, 92.1005 28.1005 C 97.5678 22.6332, 106.432 22.6332, 111.899 28.1005" fill="#b4e8f1" fill-opacity="0.501961" />
<path d="M 68.2426 107.515 C 70.5858 112.201, 70.5858 119.799, 68.2426 124.485 C 65.8995 129.172, 62.1005 129.172, 59.7574 124.485 C 57.4142 119.799, 57.4142 112.201, 59.7574 107.515 C 62.1005 102.828, 65.8995 102.828, 68.2426 107.515" fill="#ffee5b" fill-opacity="0.501961" />
<path d="M 70.3158 88.1276 L 67.7985 85.019 L 71.6842 81.8724 L 74.2015 84.981 Z" fill="#ffff82" fill-opacity="0.501961" />
<path d="M 108.487 31.1533 L 48.8966 32.0227 L 50.6389 9.19701 L 65.791 29.1391 Z" fill="#bceaf5" fill-opacity="0.501961" />
<path d="M 117 22 L 131 23 L 135 72 Z" fill="#000000" fill-opacity="0.501961" />
<path d="M 40 9 L 38 66 L 10 47 Z" fill="#7fd9e8" fill-opacity="0.501961" />
<path d="M 118.773 37.501 C 123.18 41.3475, 124.576 48.6786, 121.891 53.8755 C 119.207 59.0723, 113.459 60.167, 109.052 56.3205 C 104.646 52.4739, 103.25 45.1428, 105.934 39.946 C 108.618 34.7491, 114.367 33.6545, 118.773 37.501" fill="#b5e8f0" fill-opacity="0.501961" />
<path d="M 66.1213 15.8787 C 67.2929 17.0503, 67.2929 18.9497, 66.1213 20.1213 C 64.9497 21.2929, 63.0503 21.2929, 61.8787 20.1213 C 60.7071 18.9497, 60.7071 17.0503, 61.8787 15.8787 C 63.0503 14.7071, 64.9497 14.7071, 66.1213 15.8787" fill="#2b2221" fill-opacity="0.501961" />
<path d="M 80 15 L 79 15 L 79 19 L 80 19 Z" fill="#120000" fill-opacity="0.501961" />
<path d="M 67.3665 -0.729401 L 143 20.0321 L 139.939 -6.28523 L 99.6465 -0.816439 Z" fill="#000000" fill-opacity="0.501961" />
<path d="M 10.2398 73.2775 C -1.09061 42.5511, 4.11334 25.8949, 25.8517 23.3089" fill="none" stroke="#000002" stroke-opacity="0.501961" stroke-width="1" stroke-linecap="round" />
<path d="M 48.5355 97.4645 C 50.4882 99.4171, 50.4882 102.583, 48.5355 104.536 C 46.5829 106.488, 43.4171 106.488, 41.4645 104.536 C 39.5118 102.583, 39.5118 99.4171, 41.4645 97.4645 C 43.4171 95.5118, 46.5829 95.5118, 48.5355 97.4645" fill="#fff786" fill-opacity="0.501961" />
<path d="M 50.2217 51.4384 C 48.7724 47.9098, 50.4784 46.1734, 54.0321 47.56 C 57.5858 48.9467, 61.6416 52.9313, 63.0909 56.46 C 64.5402 59.9886, 62.8342 61.725, 59.2805 60.3383 C 55.7268 58.9517, 51.6711 54.967, 50.2217 51.4384" fill="#6ed987" fill-opacity="0.501961" />
<path d="M 52.4011 6.95879 L 64.2876 -1.99719 L 80.9049 4.30694 L 88.657 17.4786 Z" fill="#b4e6f1" fill-opacity="0.501961" />
<path d="M 70.9352 104.239 C 70.4227 107.315, 67.9989 108.274, 65.5214 106.379 C 63.044 104.485, 61.4511 100.456, 61.9636 97.3793 C 62.4761 94.303, 64.8999 93.3448, 67.3774 95.2391 C 69.8548 97.1334, 71.4477 101.163, 70.9352 104.239" fill="#dcc300" fill-opacity="0.501961" />
<path d="M 45.1049 142.321 L 70.6232 124.626 L 122.665 64.6235 L 142.711 127.898 Z" fill="#000000" fill-opacity="0.501961" />
<path d="M 72.3817 45.0121 C 65.4336 52.4215, 60.0078 53.5272, 56.1044 48.329" fill="none" stroke="#ffffee" stroke-opacity="0.501961" stroke-width="1" stroke-linecap="round" />
<path d="M 68.2151 61.998 L 66.4281 59.1155 L 76.9348 40.1904 L 78.6582 50.5235 Z" fill="#60d67f" fill-opacity="0.501961" />
<path d="M 41 117 L 58 99 L 51 130 Z" fill="#000000" fill-opacity="0.501961" />
<path d="M 79.9149 107.921 L 63.8557 90.086 L 66.0851 88.0786 L 82.1443 105.914 Z" fill="#fff385" fill-opacity="0.501961" />
<path d="M -14 33 L -13 60 L 13 64 Z" fill="#000000" fill-opacity="0.501961" />
<path d="M 101.899 25.1005 C 107.367 30.5678, 107.367 39.4322, 101.899 44.8995 C 96.4322 50.3668, 87.5678 50.3668, 82.1005 44.8995 C 76.6332 39.4322, 76.6332 30.5678, 82.1005 25.1005 C 87.5678 19.6332, 96.4322 19.6332, 101.899 25.1005" fill="#b6eaf2" fill-opacity="0.501961" />
<path d="M 53 34 L 70 32 L 48 47 Z" fill="#6fd886" fill-opacity="0.501961" />
<path d="M 101.106 15.0888 C 106.783 13.2871, 115.683 14.0285, 120.983 16.7447 C 126.284 19.4609, 125.979 23.1233, 120.302 24.925 C 114.625 26.7266, 105.725 25.9853, 100.424 23.2691 C 95.1233 20.5529, 95.4284 16.8904, 101.106 15.0888" fill="#000000" fill-opacity="0.501961" />
<path d="M 89 44 L 64 27 L 72 17 Z" fill="#baedf7" fill-opacity="0.501961" />
<path d="M 108.192 61.1716 C 113.269 62.7337, 113.269 65.2663, 108.192 66.8284 C 103.116 68.3905, 94.8844 68.3905, 89.8076 66.8284 C 84.7308 65.2663, 84.7308 62.7337, 89.8076 61.1716 C 94.8844 59.6095, 103.116 59.6095, 108.192 61.1716" fill="#b6ecf3" fill-opacity="0.501961" />
<path d="M 65.8284 41.1716 C 67.3905 42.7337, 67.3905 45.2663, 65.8284 46.8284 C 64.2663 48.3905, 61.7337 48.3905, 60.1716 46.8284 C 58.6095 45.2663, 58.6095 42.7337, 60.1716 41.1716 C 61.7337 39.6095, 64.2663 39.6095, 65.8284 41.1716" fill="#61d582" fill-opacity="0.501961" />
<path d="M 20.364 41.5147 C 23.8787 46.201, 23.8787 53.799, 20.364 58.4853 C 16.8492 63.1716, 11.1508 63.1716, 7.63604 58.4853 C 4.12132 53.799, 4.12132 46.201, 7.63604 41.5147 C 11.1508 36.8284, 16.8492 36.8284, 20.364 41.5147" fill="#83dbe9" fill-opacity="0.501961" />
<path d="M 42 99 L 50 99 L 50 106 L 42 106 Z" fill="#fff282" fill-opacity="0.501961" />
<path d="M 35.3137 28.3934 C 41.5621 34.2513, 41.5621 43.7487, 35.3137 49.6066 C 29.0653 55.4645, 18.9347 55.4645, 12.6863 49.6066 C 6.4379 43.7487, 6.4379 34.2513, 12.6863 28.3934 C 18.9347 22.5355, 29.0653 22.5355, 35.3137 28.3934" fill="#82d9e7" fill-opacity="0.501961" />
<path d="M 46.1791 37.1 C 29.2777 25.6876, 30.236 14.5378, 49.054 3.65066" fill="none" stroke="#87d2e1" stroke-opacity="0.501961" stroke-width="1" stroke-linecap="round" />
<path d="M 70 69 L -8 135 L 5 68 Z" fill="#000000" fill-opacity="0.501961" />
<path d="M 115.972 62.9616 C 109.211 68.3467, 99.8186 66.8991, 94.9931 59.7283 C 90.1677 52.5574, 91.7365 42.3787, 98.4971 36.9936 C 105.258 31.6084, 114.65 33.056, 119.476 40.2269 C 124.301 47.3978, 122.732 57.5764, 115.972 62.9616" fill="#b4e8f0" fill-opacity="0.501961" />
<path d="M 141 54 L 90 126 L 87 76 Z" fill="#000000" fill-opacity="0.501961" />
</g>
</svg>
