<svg version="1.1" width="500" height="500" xmlns="http://www.w3.org/2000/svg">
<rect x="0" y="0" width="500" height="500" fill="#905fb8" />
<g transform="scale(1.95312, 1.95312)">
<path d="M 75 234 L 182 233 L 120 29 Z" fill="#ffdb00" fill-opacity="0.501961" />
<path d="M 178 25 L 61 47 L 221 192 Z" fill="#423f00" fill-opacity="0.501961" />
<path d="M 177.447 78.2513 C 207.518 91.9196, 207.518 114.08, 177.447 127.749 C 147.377 141.417, 98.6231 141.417, 68.5528 127.749 C 38.4824 114.08, 38.4824 91.9196, 68.5528 78.2513 C 98.6231 64.5829, 147.377 64.5829, 177.447 78.2513" fill="#e8c66b" fill-opacity="0.501961" />
<path d="M 77.7626 164.601 C 72.6425 176.276, 61.6232 178.019, 53.1503 168.493 C 44.6773 158.967, 41.9594 141.78, 47.0795 130.104 C 52.1996 118.429, 63.219 116.686, 71.6919 126.212 C 80.1648 135.738, 82.8828 152.925, 77.7626 164.601" fill="#000000" fill-opacity="0.501961" />
<path d="M 47 -16 L 46 271 L -16 125 Z" fill="#8745ff" fill-opacity="0.501961" />
<path d="M 145.021 127.426 C 134.922 134.126, 118.944 133.572, 109.333 126.188 C 99.7224 118.805, 100.119 107.388, 110.218 100.688 C 120.317 93.9881, 136.295 94.5425, 145.906 101.926 C 155.517 109.31, 155.121 120.727, 145.021 127.426" fill="#ffffff" fill-opacity="0.501961" />
<path d="M 271 251 L 252 -16 L 163 271 Z" fill="#8342ff" fill-opacity="0.501961" />
<path d="M 160.237 66.735 C 142.238 74.7256, 113.117 74.5875, 95.1939 66.4264 C 77.271 58.2654, 77.3331 45.1719, 95.3326 37.1813 C 113.332 29.1907, 142.453 29.3288, 160.376 37.4898 C 178.299 45.6508, 178.237 58.7443, 160.237 66.735" fill="#000000" fill-opacity="0.501961" />
<path d="M 67 -16 L 271 104 L 263 -16 Z" fill="#8b49ff" fill-opacity="0.501961" />
<path d="M 215 122 L 199 182 L 165 144 Z" fill="#000000" fill-opacity="0.501961" />
<path d="M 102 271 L -16 268 L -10 32 Z" fill="#8a4cff" fill-opacity="0.501961" />
<path d="M 93.2781 225.51 C 74.1873 211.662, 74.7513 190.032, 94.5377 177.197 C 114.324 164.363, 145.84 165.185, 164.931 179.033 C 184.022 192.88, 183.458 214.511, 163.672 227.345 C 143.885 240.179, 112.369 239.357, 93.2781 225.51" fill="#ffb400" fill-opacity="0.501961" />
<path d="M 161 -2 L -16 106 L -7 -15 Z" fill="#8a4aff" fill-opacity="0.501961" />
<path d="M 95.8822 54.5263 C 92.6624 64.6905, 82.5868 77.2861, 73.3778 82.6594 C 64.1687 88.0327, 59.3135 84.1489, 62.5334 73.9847 C 65.7532 63.8205, 75.8288 51.2249, 85.0378 45.8516 C 94.2469 40.4783, 99.1021 44.3621, 95.8822 54.5263" fill="#000000" fill-opacity="0.501961" />
<path d="M 235 271 L 271 205 L 139 149 Z" fill="#8c50ff" fill-opacity="0.501961" />
<path d="M 87 149 L 119 159 L 22 218 Z" fill="#7e3bff" fill-opacity="0.501961" />
<path d="M 145 -2 L 271 189 L 271 0 Z" fill="#8c52ff" fill-opacity="0.501961" />
<path d="M 80.435 133.979 C 87.855 140.618, 87.855 151.382, 80.435 158.021 C 73.0151 164.66, 60.9849 164.66, 53.565 158.021 C 46.145 151.382, 46.145 140.618, 53.565 133.979 C 60.9849 127.34, 73.0151 127.34, 80.435 133.979" fill="#151a00" fill-opacity="0.501961" />
<path d="M 91 153 L 47 96 L 111 65 Z" fill="#c1932e" fill-opacity="0.501961" />
<path d="M 192.905 72.9942 C 197.858 83.2103, 193.504 87.6633, 183.18 82.9402 C 172.855 78.2172, 160.47 66.1066, 155.517 55.8906 C 150.564 45.6745, 154.918 41.2216, 165.243 45.9446 C 175.567 50.6676, 187.952 62.7782, 192.905 72.9942" fill="#000000" fill-opacity="0.501961" />
<path d="M 121 -16 L 10 146 L -16 0 Z" fill="#8c52ff" fill-opacity="0.501961" />
<path d="M 83 235 L 122 271 L 257 232 Z" fill="#8c4cff" fill-opacity="0.501961" />
<path d="M 144.799 107.515 C 155.734 112.201, 155.734 119.799, 144.799 124.485 C 133.864 129.172, 116.136 129.172, 105.201 124.485 C 94.2663 119.799, 94.2663 112.201, 105.201 107.515 C 116.136 102.828, 133.864 102.828, 144.799 107.515" fill="#fdffff" fill-opacity="0.501961" />
<path d="M 145.141 166.965 C 138.492 162.624, 139.125 156.836, 146.555 154.036 C 153.986 151.236, 165.399 152.485, 172.048 156.825 C 178.697 161.165, 178.063 166.954, 170.633 169.754 C 163.203 172.554, 151.79 171.305, 145.141 166.965" fill="#7e3fff" fill-opacity="0.501961" />
<path d="M 152 156 L 187 129 L 75 135 Z" fill="#b18646" fill-opacity="0.501961" />
<path d="M 185.588 124.718 C 188.129 115.049, 195.603 113.242, 202.282 120.68 C 208.96 128.119, 212.315 141.988, 209.774 151.657 C 207.233 161.325, 199.759 163.133, 193.08 155.694 C 186.402 148.255, 183.047 134.387, 185.588 124.718" fill="#0d0f00" fill-opacity="0.501961" />
<path d="M 93.5277 70.8528 L 111.001 82.2 L 150.756 104.963 L 104.078 103.14 Z" fill="#8c5935" fill-opacity="0.501961" />
<path d="M 237.132 255.921 C 234.73 313.324, 226.326 313.733, 218.361 256.835 C 210.396 199.937, 205.887 107.277, 208.289 49.8742 C 210.691 -7.52871, 219.095 -7.93771, 227.06 48.9607 C 235.025 105.859, 239.534 198.519, 237.132 255.921" fill="#8d53ff" fill-opacity="0.501961" />
<path d="M 117.992 183.298 C 113.006 175.635, 113.659 163.688, 119.451 156.614 C 125.243 149.54, 133.981 150.018, 138.967 157.681 C 143.954 165.344, 143.301 177.291, 137.509 184.365 C 131.717 191.438, 122.979 190.961, 117.992 183.298" fill="#81625c" fill-opacity="0.501961" />
<path d="M 155.243 80.0503 C 157.586 82.7839, 157.586 87.2161, 155.243 89.9497 C 152.899 92.6834, 149.101 92.6834, 146.757 89.9497 C 144.414 87.2161, 144.414 82.7839, 146.757 80.0503 C 149.101 77.3166, 152.899 77.3166, 155.243 80.0503" fill="#000000" fill-opacity="0.501961" />
<path d="M -1 45 L 93 260 L 2 271 Z" fill="#8c52ff" fill-opacity="0.501961" />
<path d="M 108.728 209.393 C 115.757 215.251, 115.757 224.749, 108.728 230.607 C 101.698 236.464, 90.3015 236.464, 83.2721 230.607 C 76.2426 224.749, 76.2426 215.251, 83.2721 209.393 C 90.3015 203.536, 101.698 203.536, 108.728 209.393" fill="#ffc700" fill-opacity="0.501961" />
<path d="M 42 210 L 87 147 L 115 160 Z" fill="#894dff" fill-opacity="0.501961" />
<path d="M 58 85 L 156 37 L 96 35 Z" fill="#161401" fill-opacity="0.501961" />
<path d="M -16 62 L 250 -2 L 2 -16 Z" fill="#8b51ff" fill-opacity="0.501961" />
<path d="M 150 155 L 212 102 L 193 81 Z" fill="#b2853e" fill-opacity="0.501961" />
<path d="M 44.0095 146.581 L 56.2544 109.973 L 86.4101 149.221 L 54.764 181.185 Z" fill="#1c1705" fill-opacity="0.501961" />
<path d="M 99 80 L 109 80 L 109 87 L 99 87 Z" fill="#000000" fill-opacity="0.501961" />
<path d="M 270 49 L 203 165 L 255 271 Z" fill="#8d53ff" fill-opacity="0.501961" />
<path d="M 79 161 L 81 271 L -16 234 Z" fill="#8c52ff" fill-opacity="0.501961" />
<path d="M 186.95 179.645 C 189.683 199.171, 189.683 230.829, 186.95 250.355 C 184.216 269.882, 179.784 269.882, 177.05 250.355 C 174.317 230.829, 174.317 199.171, 177.05 179.645 C 179.784 160.118, 184.216 160.118, 186.95 179.645" fill="#894eff" fill-opacity="0.501961" />
<path d="M 80.1143 200.107 L 124.273 231.378 L 175.64 237.638 L 168.761 177.896 Z" fill="#ebad00" fill-opacity="0.501961" />
<path d="M 271 234 L 149 271 L 11 234 Z" fill="#8b51ff" fill-opacity="0.501961" />
<path d="M 212 142 L 171 150 L 197 177 Z" fill="#151500" fill-opacity="0.501961" />
<path d="M 0.994992 100.517 L 25.5084 79.9473 L 57.005 117.483 L 32.4916 138.053 Z" fill="#8b51ff" fill-opacity="0.501961" />
<path d="M 85 68 L 163 68 L 163 79 L 85 79 Z" fill="#c08d56" fill-opacity="0.501961" />
<path d="M 138.435 109.101 C 145.855 114.568, 145.855 123.432, 138.435 128.899 C 131.015 134.367, 118.985 134.367, 111.565 128.899 C 104.145 123.432, 104.145 114.568, 111.565 109.101 C 118.985 103.633, 131.015 103.633, 138.435 109.101" fill="#f7ffff" fill-opacity="0.501961" />
<path d="M 268 66 L 271 -8 L -2 -11 Z" fill="#8c52ff" fill-opacity="0.501961" />
<path d="M 115.192 171.808 C 120.269 176.884, 120.269 185.116, 115.192 190.192 C 110.116 195.269, 101.884 195.269, 96.8076 190.192 C 91.7308 185.116, 91.7308 176.884, 96.8076 171.808 C 101.884 166.731, 110.116 166.731, 115.192 171.808" fill="#ffc100" fill-opacity="0.501961" />
<path d="M 96.5119 109.154 L 135.992 162.551 L 78.2038 140.829 L 52.9357 102.005 Z" fill="#bf9158" fill-opacity="0.501961" />
<path d="M 136.481 156.471 L 213.247 180.904 L 271 271 L 211.291 216.683 Z" fill="#8d53ff" fill-opacity="0.501961" />
<path d="M 271 198.485 L 171.024 -16 L 208.682 102.445 L 198.378 117.324 Z" fill="#8b51ff" fill-opacity="0.501961" />
<path d="M 140.891 47.5989 C 132.22 51.1985, 118.324 50.832, 109.855 46.7801 C 101.385 42.7283, 101.549 36.5255, 110.22 32.9259 C 118.892 29.3263, 132.787 29.6929, 141.257 33.7447 C 149.726 37.7965, 149.563 43.9993, 140.891 47.5989" fill="#1b170f" fill-opacity="0.501961" />
<path d="M 183.009 74.0555 C 173.274 68.2343, 160.678 55.6147, 154.875 45.8688 C 149.072 36.1229, 152.259 32.9413, 161.994 38.7625 C 171.729 44.5837, 184.325 57.2033, 190.128 66.9492 C 195.931 76.6951, 192.744 79.8767, 183.009 74.0555" fill="#191708" fill-opacity="0.501961" />
<path d="M 86.5355 206.979 C 88.4882 213.618, 88.4882 224.382, 86.5355 231.021 C 84.5829 237.66, 81.4171 237.66, 79.4645 231.021 C 77.5118 224.382, 77.5118 213.618, 79.4645 206.979 C 81.4171 200.34, 84.5829 200.34, 86.5355 206.979" fill="#ffbe00" fill-opacity="0.501961" />
<path d="M 114 104 L 180 102 L 106 69 Z" fill="#bb8956" fill-opacity="0.501961" />
<path d="M -16 186 L 94 171 L 34 271 Z" fill="#8c52ff" fill-opacity="0.501961" />
<path d="M 169.941 53.636 C 188.686 57.1508, 188.686 62.8492, 169.941 66.364 C 151.196 69.8787, 120.804 69.8787, 102.059 66.364 C 83.3137 62.8492, 83.3137 57.1508, 102.059 53.636 C 120.804 50.1213, 151.196 50.1213, 169.941 53.636" fill="#19140f" fill-opacity="0.501961" />
<path d="M 100 105 L 156 105 L 156 113 L 100 113 Z" fill="#fafeff" fill-opacity="0.501961" />
<path d="M 12 161 L -16 2 L 110 -16 Z" fill="#8c52ff" fill-opacity="0.501961" />
<path d="M 128.385 190.615 C 138.538 200.769, 138.538 217.231, 128.385 227.385 C 118.231 237.538, 101.769 237.538, 91.6152 227.385 C 81.4616 217.231, 81.4616 200.769, 91.6152 190.615 C 101.769 180.462, 118.231 180.462, 128.385 190.615" fill="#ffbb0d" fill-opacity="0.501961" />
<path d="M 164.671 136.12 C 161.331 145.722, 150.644 155.568, 140.802 158.112 C 130.959 160.656, 125.688 154.935, 129.029 145.334 C 132.369 135.732, 143.056 125.886, 152.899 123.342 C 162.741 120.798, 168.012 126.519, 164.671 136.12" fill="#a17a4e" fill-opacity="0.501961" />
<path d="M 135.477 177.248 C 131.676 170.099, 135.139 164.805, 143.212 165.423 C 151.285 166.041, 160.911 172.337, 164.712 179.486 C 168.513 186.635, 165.05 191.929, 156.977 191.311 C 148.904 190.693, 139.278 184.397, 135.477 177.248" fill="#d09b0e" fill-opacity="0.501961" />
<path d="M 201.607 184.423 C 207.464 199.653, 207.464 224.347, 201.607 239.577 C 195.749 254.808, 186.251 254.808, 180.393 239.577 C 174.536 224.347, 174.536 199.653, 180.393 184.423 C 186.251 169.192, 195.749 169.192, 201.607 184.423" fill="#8c53ff" fill-opacity="0.501961" />
<path d="M 157 31 L 267 124 L 249 -16 Z" fill="#8c53ff" fill-opacity="0.501961" />
<path d="M 106 66 L 64 71 L 80 48 Z" fill="#211b0b" fill-opacity="0.501961" />
<path d="M 180 208 L 157 151 L 181 164 Z" fill="#8b50ff" fill-opacity="0.501961" />
<path d="M 208.95 129.979 C 211.683 136.618, 211.683 147.382, 208.95 154.021 C 206.216 160.66, 201.784 160.66, 199.05 154.021 C 196.317 147.382, 196.317 136.618, 199.05 129.979 C 201.784 123.34, 206.216 123.34, 208.95 129.979" fill="#231d0e" fill-opacity="0.501961" />
<path d="M 135.485 164.393 C 140.172 170.251, 140.172 179.749, 135.485 185.607 C 130.799 191.464, 123.201 191.464, 118.515 185.607 C 113.828 179.749, 113.828 170.251, 118.515 164.393 C 123.201 158.536, 130.799 158.536, 135.485 164.393" fill="#99775e" fill-opacity="0.501961" />
<path d="M -5 261 L -10 199 L 118 155 Z" fill="#8c52ff" fill-opacity="0.501961" />
<path d="M 48 92 L 97 71 L 103 136 Z" fill="#c5985e" fill-opacity="0.501961" />
<path d="M 45 132 L 54 132 L 54 148 L 45 148 Z" fill="#1b1900" fill-opacity="0.501961" />
<path d="M 165.986 71.9115 L 206.727 97.3257 L 173.955 143.599 L 144.48 156.189 Z" fill="#ae844e" fill-opacity="0.501961" />
<path d="M 51 175 L 61 175 L 65 157 Z" fill="#121300" fill-opacity="0.501961" />
<path d="M 123.895 50.6123 C 115.716 41.0207, 119.248 32.1748, 131.784 30.8543 C 144.32 29.5339, 161.112 36.2389, 169.291 45.8305 C 177.47 55.422, 173.938 64.268, 161.402 65.5884 C 148.866 66.9089, 132.073 60.2038, 123.895 50.6123" fill="#231c16" fill-opacity="0.501961" />
<path d="M 53.7602 171.377 L 53.6956 166.567 L -6.66241 70.0033 L -16 219.649 Z" fill="#8c53ff" fill-opacity="0.501961" />
<path d="M 271 235 L 5 234 L 141 271 Z" fill="#8c52ff" fill-opacity="0.501961" />
<path d="M 59.5592 116.506 L 9.42281 74.2059 L -16 174.749 L 62.667 113.668 Z" fill="#8c52ff" fill-opacity="0.501961" />
<path d="M 167 147 L 139 160 L 209 197 Z" fill="#8a50ff" fill-opacity="0.501961" />
<path d="M 173 192 L 177 230 L 116 203 Z" fill="#daa30b" fill-opacity="0.501961" />
<path d="M 83 154 L 62 114 L 47 129 Z" fill="#1e180c" fill-opacity="0.501961" />
<path d="M 109.836 86.7852 L 104.32 91.0949 L 98.1637 83.2148 L 103.68 78.9051 Z" fill="#000010" fill-opacity="0.501961" />
<path d="M 211 143 L 198 119 L 168 146 Z" fill="#1c160e" fill-opacity="0.501961" />
<path d="M 156.87 69.1716 C 171.71 70.7337, 171.71 73.2663, 156.87 74.8284 C 142.03 76.3905, 117.97 76.3905, 103.13 74.8284 C 88.29 73.2663, 88.29 70.7337, 103.13 69.1716 C 117.97 67.6095, 142.03 67.6095, 156.87 69.1716" fill="#bf925b" fill-opacity="0.501961" />
<path d="M 94 102 L 125 70 L 127 104 Z" fill="#ca9b61" fill-opacity="0.501961" />
<path d="M 130 191 L 173 191 L 173 234 L 130 234 Z" fill="#dba40f" fill-opacity="0.501961" />
<path d="M 127.854 231.176 L 79.9764 234.982 L 81.1556 192.849 L 102.461 168.092 Z" fill="#ffb910" fill-opacity="0.501961" />
<path d="M 87.8727 41.6637 L 68.7548 69.0096 L 156.848 68.9572 L 119.741 30.4262 Z" fill="#271f1a" fill-opacity="0.501961" />
<path d="M 199.819 84.9384 L 153.789 89.2055 L 162.219 151.613 L 208.844 99.2227 Z" fill="#ad8555" fill-opacity="0.501961" />
<path d="M 255 192 L 199 114 L 271 44 Z" fill="#8c52ff" fill-opacity="0.501961" />
<path d="M 156.347 86.7676 L 148.878 89.6346 L 145.653 81.2324 L 153.122 78.3654 Z" fill="#000000" fill-opacity="0.501961" />
<path d="M 98.7782 152.515 C 103.074 157.201, 103.074 164.799, 98.7782 169.485 C 94.4824 174.172, 87.5176 174.172, 83.2218 169.485 C 78.9261 164.799, 78.9261 157.201, 83.2218 152.515 C 87.5176 147.828, 94.4824 147.828, 98.7782 152.515" fill="#8a50ff" fill-opacity="0.501961" />
<path d="M 208.883 61.198 C 216.717 62.0294, 222.518 69.0657, 221.841 76.9141 C 221.163 84.7624, 214.264 90.4507, 206.43 89.6193 C 198.597 88.7878, 192.796 81.7515, 193.473 73.9032 C 194.15 66.0549, 201.05 60.3666, 208.883 61.198" fill="#8a50ff" fill-opacity="0.501961" />
<path d="M 126.152 22.7581 L -16 -16 L 25.1737 108.714 L 82.917 44.7282 Z" fill="#8c52ff" fill-opacity="0.501961" />
<path d="M 271 258 L 145 271 L 244 154 Z" fill="#8c53ff" fill-opacity="0.501961" />
<path d="M 86.364 94.636 C 89.8787 98.1508, 89.8787 103.849, 86.364 107.364 C 82.8492 110.879, 77.1508 110.879, 73.636 107.364 C 70.1213 103.849, 70.1213 98.1508, 73.636 94.636 C 77.1508 91.1213, 82.8492 91.1213, 86.364 94.636" fill="#d3b18b" fill-opacity="0.501961" />
<path d="M 143.778 72.9792 C 148.074 79.6181, 148.074 90.3819, 143.778 97.0208 C 139.482 103.66, 132.518 103.66, 128.222 97.0208 C 123.926 90.3819, 123.926 79.6181, 128.222 72.9792 C 132.518 66.3403, 139.482 66.3403, 143.778 72.9792" fill="#a47b4e" fill-opacity="0.501961" />
<path d="M 192 115 L 181 151 L 206 124 Z" fill="#1c1712" fill-opacity="0.501961" />
<path d="M 208 173 L 195 173 L 195 175 L 208 175 Z" fill="#111400" fill-opacity="0.501961" />
<path d="M 303.312 5.3934 C 402.896 11.2513, 402.896 20.7487, 303.312 26.6066 C 203.729 32.4645, 42.2715 32.4645, -57.3122 26.6066 C -156.896 20.7487, -156.896 11.2513, -57.3122 5.3934 C 42.2715 -0.464466, 203.729 -0.464466, 303.312 5.3934" fill="#8c52ff" fill-opacity="0.501961" />
<path d="M 142.471 110.743 C 149.482 110.933, 152.536 116.129, 149.293 122.347 C 146.05 128.565, 137.738 133.451, 130.728 133.26 C 123.717 133.07, 120.663 127.875, 123.906 121.656 C 127.149 115.438, 135.461 110.552, 142.471 110.743" fill="#e2e3ec" fill-opacity="0.501961" />
<path d="M 60 271 L 87 170 L 20 188 Z" fill="#8c52ff" fill-opacity="0.501961" />
<path d="M 235.435 156.565 C 242.855 163.985, 242.855 176.015, 235.435 183.435 C 228.015 190.855, 215.985 190.855, 208.565 183.435 C 201.145 176.015, 201.145 163.985, 208.565 156.565 C 215.985 149.145, 228.015 149.145, 235.435 156.565" fill="#8c52ff" fill-opacity="0.501961" />
<path d="M 57.9036 116.809 L 88.5801 149.346 L 63.01 175.695 L 49.1027 157.069 Z" fill="#29201c" fill-opacity="0.501961" />
<path d="M 177.657 96.3431 C 180.781 99.4673, 180.781 104.533, 177.657 107.657 C 174.533 110.781, 169.467 110.781, 166.343 107.657 C 163.219 104.533, 163.219 99.4673, 166.343 96.3431 C 169.467 93.219, 174.533 93.219, 177.657 96.3431" fill="#bfa482" fill-opacity="0.501961" />
<path d="M 100 153 L 73 97 L 70 129 Z" fill="#c5975a" fill-opacity="0.501961" />
<path d="M 0 177 L 79 177 L 79 255 L 0 255 Z" fill="#8c52ff" fill-opacity="0.501961" />
<path d="M 114 154 L 151 147 L 121 174 Z" fill="#b2884e" fill-opacity="0.501961" />
<path d="M 172 76 L 197 82 L 148 35 Z" fill="#1e190f" fill-opacity="0.501961" />
<path d="M 116 164 L 110 187 L 103 168 Z" fill="#ffbc05" fill-opacity="0.501961" />
<path d="M 133.262 119.309 L 126.901 135.224 L 97.8044 104.894 L 113.616 106.254 Z" fill="#ffffff" fill-opacity="0.501961" />
<path d="M 180.378 42.8138 C 190.826 50.0256, 189.835 51.8204, 178.165 46.8224 C 166.495 41.8245, 148.565 31.9265, 138.117 24.7147 C 127.668 17.5028, 128.659 15.7081, 140.329 20.706 C 152 25.704, 169.93 35.602, 180.378 42.8138" fill="#8d53ff" fill-opacity="0.501961" />
<path d="M 58.7771 114.479 L 49.7664 108.17 L 57.2229 97.5208 L 66.2336 103.83 Z" fill="#c59554" fill-opacity="0.501961" />
<path d="M 195 76 L 271 73 L 149 -16 Z" fill="#8c52ff" fill-opacity="0.501961" />
<path d="M 64.6975 86.8266 L 125.995 42.4406 L 75.654 55.1291 L 64.4123 67.1503 Z" fill="#271f16" fill-opacity="0.501961" />
<path d="M 157.663 179.193 C 163.382 179.455, 169.754 183.971, 171.895 189.281 C 174.036 194.591, 171.135 198.683, 165.416 198.421 C 159.697 198.159, 153.325 193.643, 151.184 188.333 C 149.044 183.023, 151.944 178.931, 157.663 179.193" fill="#e0a811" fill-opacity="0.501961" />
<path d="M 80.4054 25.4521 L 62.8286 75.7403 L 57.0582 86.6268 L -16 110.643 Z" fill="#8b52ff" fill-opacity="0.501961" />
<path d="M 127.629 95.4593 L 74.8757 81.5481 L 54.7912 85.955 L 48.3387 95.446 Z" fill="#bd905a" fill-opacity="0.501961" />
<path d="M 217.95 71.4228 C 220.683 86.6533, 220.683 111.347, 217.95 126.577 C 215.216 141.808, 210.784 141.808, 208.05 126.577 C 205.317 111.347, 205.317 86.6533, 208.05 71.4228 C 210.784 56.1924, 215.216 56.1924, 217.95 71.4228" fill="#8c52ff" fill-opacity="0.501961" />
<path d="M 128 158 L 139 158 L 139 185 L 128 185 Z" fill="#916f49" fill-opacity="0.501961" />
<path d="M 100.902 153.808 L 112.795 157.724 L 117.614 165.319 L 76.6683 169.075 Z" fill="#8c52ff" fill-opacity="0.501961" />
<path d="M 85 143 L 132 161 L 100 114 Z" fill="#be905b" fill-opacity="0.501961" />
<path d="M 45.6597 173.841 L 52.5311 175.177 L 52.3403 176.159 L 45.4689 174.823 Z" fill="#0d1000" fill-opacity="0.501961" />
<path d="M 126.046 135.514 L 124.378 105.244 L 100.015 106.162 L 105.704 123.012 Z" fill="#ffffff" fill-opacity="0.501961" />
<path d="M 197.087 106.944 L 206.39 89.3053 L 132.961 136.531 L 185.83 129.786 Z" fill="#a88051" fill-opacity="0.501961" />
<path d="M 79 202 L 121 202 L 121 234 L 79 234 Z" fill="#f8b614" fill-opacity="0.501961" />
<path d="M 196.461 271 L 169.575 180.387 L 162.834 175.063 L 257.558 179.476 Z" fill="#8c52ff" fill-opacity="0.501961" />
<path d="M 194.93 176.26 L 210.113 133.317 L 176.891 160.937 L 186.684 168.854 Z" fill="#251c1c" fill-opacity="0.501961" />
<path d="M 149.936 158.951 L 168.793 147.62 L 178.064 163.049 L 159.207 174.38 Z" fill="#8c52ff" fill-opacity="0.501961" />
<path d="M 190.635 75.9032 L 176.363 47.9601 L 151.758 36.6437 L 114.508 58.2449 Z" fill="#231c16" fill-opacity="0.501961" />
<path d="M 44.6066 79.4228 C 50.4645 94.6533, 50.4645 119.347, 44.6066 134.577 C 38.7487 149.808, 29.2513 149.808, 23.3934 134.577 C 17.5355 119.347, 17.5355 94.6533, 23.3934 79.4228 C 29.2513 64.1924, 38.7487 64.1924, 44.6066 79.4228" fill="#8c52ff" fill-opacity="0.501961" />
<path d="M 88 70 L 122 70 L 122 69 L 88 69 Z" fill="#d5a462" fill-opacity="0.501961" />
<path d="M 129 107 L 154 107 L 154 115 L 129 115 Z" fill="#e2e4e5" fill-opacity="0.501961" />
<path d="M 124 132 L 171 145 L 137 159 Z" fill="#a78053" fill-opacity="0.501961" />
<path d="M 93.7176 153.931 L 83.6429 187.088 L 65.4889 260.767 L 48.5692 182.856 Z" fill="#8c53ff" fill-opacity="0.501961" />
<path d="M 151.917 168.985 C 157.649 172.336, 165.327 179.497, 169.069 184.981 C 172.81 190.465, 171.197 192.194, 165.466 188.844 C 159.734 185.494, 152.056 178.333, 148.314 172.849 C 144.573 167.365, 146.186 165.635, 151.917 168.985" fill="#e3a90c" fill-opacity="0.501961" />
<path d="M 206.848 98.3855 C 208.603 103.001, 206.747 109.04, 202.702 111.873 C 198.657 114.706, 193.954 113.261, 192.199 108.645 C 190.443 104.029, 192.299 97.99, 196.344 95.1571 C 200.389 92.3241, 205.092 93.7695, 206.848 98.3855" fill="#ac8551" fill-opacity="0.501961" />
<path d="M 207.884 174.033 L 202.586 176.85 L 202.116 175.967 L 207.414 173.15 Z" fill="#000900" fill-opacity="0.501961" />
<path d="M 230.067 -16 L 214.418 140.427 L 201.206 171.563 L 271 197.536 Z" fill="#8c52ff" fill-opacity="0.501961" />
<path d="M 132 234 L 175 234 L 175 200 L 132 200 Z" fill="#dfa612" fill-opacity="0.501961" />
<path d="M 98 90 L 160 90 L 160 104 L 98 104 Z" fill="#b48a54" fill-opacity="0.501961" />
<path d="M 90.5355 152.101 C 92.4882 157.568, 92.4882 166.432, 90.5355 171.899 C 88.5829 177.367, 85.4171 177.367, 83.4645 171.899 C 81.5118 166.432, 81.5118 157.568, 83.4645 152.101 C 85.4171 146.633, 88.5829 146.633, 90.5355 152.101" fill="#8d53ff" fill-opacity="0.501961" />
<path d="M 121.962 30.5279 L 133.804 30.1809 L 165.698 42.539 L 90.5577 39.6916 Z" fill="#251d18" fill-opacity="0.501961" />
<path d="M 193.882 80.3698 C 197.147 85.1886, 195.696 86.7543, 190.642 83.8668 C 185.589 80.9794, 178.845 74.7323, 175.581 69.9135 C 172.316 65.0947, 173.767 63.529, 178.82 66.4164 C 183.874 69.3039, 190.617 75.551, 193.882 80.3698" fill="#221b14" fill-opacity="0.501961" />
<path d="M 127 105 L 153 105 L 153 116 L 127 116 Z" fill="#e6e5e4" fill-opacity="0.501961" />
<path d="M 101.958 34.5768 L 72.869 56.2903 L 181.04 71.3448 L 121.066 30.4808 Z" fill="#261e19" fill-opacity="0.501961" />
<path d="M 158.147 83.9151 L 150.353 88.4151 L 147.853 84.0849 L 155.647 79.5849 Z" fill="#13060d" fill-opacity="0.501961" />
<path d="M 91.3783 68.1524 L 97.7941 119.456 L 142.908 146.62 L 105.252 136.369 Z" fill="#bc8f5d" fill-opacity="0.501961" />
<path d="M 209.003 184.779 L 183.797 192.573 L 140.325 158.528 L 157.762 153.96 Z" fill="#8c53ff" fill-opacity="0.501961" />
<path d="M -15.8598 217.84 L 26.6738 87.014 L 50.5938 165.948 L 13.6185 271 Z" fill="#8c52ff" fill-opacity="0.501961" />
<path d="M 63.8284 116.172 C 65.3905 117.734, 65.3905 120.266, 63.8284 121.828 C 62.2663 123.391, 59.7337 123.391, 58.1716 121.828 C 56.6095 120.266, 56.6095 117.734, 58.1716 116.172 C 59.7337 114.609, 62.2663 114.609, 63.8284 116.172" fill="#1a1317" fill-opacity="0.501961" />
<path d="M 58.8847 79.9826 L 60.3182 83.717 L 49.1153 88.0174 L 47.6818 84.283 Z" fill="#8c4fff" fill-opacity="0.501961" />
<path d="M 343.312 238.929 C 442.896 242.834, 442.896 249.166, 343.312 253.071 C 243.729 256.976, 82.2715 256.976, -17.3122 253.071 C -116.896 249.166, -116.896 242.834, -17.3122 238.929 C 82.2715 235.024, 243.729 235.024, 343.312 238.929" fill="#8c52ff" fill-opacity="0.501961" />
<path d="M 176.518 238.414 L 252.768 271 L 266.065 143.386 L 177.173 193.328 Z" fill="#8c52ff" fill-opacity="0.501961" />
<path d="M 62.8623 75.2506 C 67.7175 66.27, 77.278 52.9189, 84.2163 45.43 C 91.1546 37.9411, 92.8433 39.1503, 87.9881 48.1309 C 83.1329 57.1114, 73.5723 70.4626, 66.634 77.9514 C 59.6957 85.4403, 58.0071 84.2311, 62.8623 75.2506" fill="#271e1b" fill-opacity="0.501961" />
<path d="M 100.243 79.19 L 107.234 78.8237 L 107.757 88.81 L 100.766 89.1763 Z" fill="#191214" fill-opacity="0.501961" />
<path d="M 103 167 L 95 155 L 66 192 Z" fill="#8b51ff" fill-opacity="0.501961" />
<path d="M 215.485 114.586 C 220.172 115.367, 220.172 116.633, 215.485 117.414 C 210.799 118.195, 203.201 118.195, 198.515 117.414 C 193.828 116.633, 193.828 115.367, 198.515 114.586 C 203.201 113.805, 210.799 113.805, 215.485 114.586" fill="#894eff" fill-opacity="0.501961" />
<path d="M 161 175 L 143 165 L 127 230 Z" fill="#dfa60e" fill-opacity="0.501961" />
<path d="M 78.1001 139.824 L 87.9299 146.707 L 79.8999 158.176 L 70.0701 151.293 Z" fill="#221b13" fill-opacity="0.501961" />
<path d="M 62.7782 130.272 C 67.0739 137.302, 67.0739 148.698, 62.7782 155.728 C 58.4824 162.757, 51.5176 162.757, 47.2218 155.728 C 42.9261 148.698, 42.9261 137.302, 47.2218 130.272 C 51.5176 123.243, 58.4824 123.243, 62.7782 130.272" fill="#251e16" fill-opacity="0.501961" />
<path d="M 49.101 105.075 C 46.6897 99.2045, 49.8647 94.8391, 56.1926 95.3247 C 62.5205 95.8104, 69.6052 100.963, 72.0165 106.834 C 74.4279 112.704, 71.2529 117.07, 64.925 116.584 C 58.597 116.098, 51.5124 110.946, 49.101 105.075" fill="#bf915b" fill-opacity="0.501961" />
<path d="M 71.7349 52.2129 C 62.2779 57.2405, 61.6761 56.2687, 70.3906 50.0423 C 79.1052 43.816, 93.8362 34.6929, 103.293 29.6654 C 112.75 24.6378, 113.352 25.6096, 104.637 31.836 C 95.9229 38.0623, 81.1919 47.1854, 71.7349 52.2129" fill="#8951ff" fill-opacity="0.501961" />
<path d="M 147.994 74.0421 L 153.999 68.443 L 176.825 79.3364 L 172.686 93.5388 Z" fill="#a47b49" fill-opacity="0.501961" />
<path d="M 206.314 131.515 C 212.562 136.201, 212.562 143.799, 206.314 148.485 C 200.065 153.172, 189.935 153.172, 183.686 148.485 C 177.438 143.799, 177.438 136.201, 183.686 131.515 C 189.935 126.828, 200.065 126.828, 206.314 131.515" fill="#241d18" fill-opacity="0.501961" />
<path d="M 0 209 L 79 209 L 79 227 L 0 227 Z" fill="#8c52ff" fill-opacity="0.501961" />
<path d="M 226 104 L 169 38 L 246 -16 Z" fill="#8b52ff" fill-opacity="0.501961" />
<path d="M 108.889 134.213 C 111.986 145.289, 105.478 151.903, 94.3538 148.987 C 83.2297 146.07, 71.7016 134.728, 68.6051 123.653 C 65.5087 112.577, 72.0164 105.963, 83.1405 108.879 C 94.2646 111.796, 105.793 123.138, 108.889 134.213" fill="#bf925b" fill-opacity="0.501961" />
<path d="M 201.373 171.948 C 204.469 177.357, 202.922 178.73, 197.918 175.016 C 192.914 171.301, 186.348 163.905, 183.251 158.496 C 180.155 153.088, 181.702 151.715, 186.706 155.429 C 191.71 159.144, 198.277 166.54, 201.373 171.948" fill="#201b0f" fill-opacity="0.501961" />
<path d="M 192 123 L 171 148 L 191 172 Z" fill="#201a13" fill-opacity="0.501961" />
<path d="M 66.5899 88.3 L 66.0164 87.4809 L 91.4101 69.7 L 91.9836 70.5191 Z" fill="#c49648" fill-opacity="0.501961" />
<path d="M 151.046 35.3502 L 169.228 44.0912 L 184.629 57.5024 L 191.581 73.8551 Z" fill="#231c19" fill-opacity="0.501961" />
<path d="M 114 25 L 195 -16 L 176 36 Z" fill="#8c52ff" fill-opacity="0.501961" />
<path d="M 216.896 149.103 C 213.777 153.686, 211.098 152.909, 210.912 147.37 C 210.726 141.83, 213.103 133.625, 216.222 129.042 C 219.34 124.46, 222.019 125.236, 222.206 130.776 C 222.392 136.316, 220.015 144.521, 216.896 149.103" fill="#8a52fe" fill-opacity="0.501961" />
<path d="M 125.95 157.272 C 128.683 164.302, 128.683 175.698, 125.95 182.728 C 123.216 189.757, 118.784 189.757, 116.05 182.728 C 113.317 175.698, 113.317 164.302, 116.05 157.272 C 118.784 150.243, 123.216 150.243, 125.95 157.272" fill="#b98d57" fill-opacity="0.501961" />
<path d="M -16 39 L 113 -16 L 43 103 Z" fill="#8c52ff" fill-opacity="0.501961" />
<path d="M 99.4188 82.9782 C 100.221 84.0259, 100.928 85.9436, 100.998 87.2615 C 101.067 88.5794, 100.473 88.7984, 99.6707 87.7506 C 98.8683 86.7029, 98.1614 84.7852, 98.0918 83.4673 C 98.0223 82.1495, 98.6164 81.9305, 99.4188 82.9782" fill="#201a19" fill-opacity="0.501961" />
<path d="M 51.2426 163.757 C 53.5858 166.101, 53.5858 169.899, 51.2426 172.243 C 48.8995 174.586, 45.1005 174.586, 42.7574 172.243 C 40.4142 169.899, 40.4142 166.101, 42.7574 163.757 C 45.1005 161.414, 48.8995 161.414, 51.2426 163.757" fill="#8d53ff" fill-opacity="0.501961" />
<path d="M 201.314 87.3934 C 207.562 93.2513, 207.562 102.749, 201.314 108.607 C 195.065 114.464, 184.935 114.464, 178.686 108.607 C 172.438 102.749, 172.438 93.2513, 178.686 87.3934 C 184.935 81.5355, 195.065 81.5355, 201.314 87.3934" fill="#ac8552" fill-opacity="0.501961" />
<path d="M 81 196 L 127 196 L 127 233 L 81 233 Z" fill="#fbb811" fill-opacity="0.501961" />
<path d="M 152.75 134.935 C 149.371 128.748, 152.216 122.516, 159.105 121.016 C 165.993 119.516, 174.317 123.316, 177.696 129.503 C 181.075 135.691, 178.23 141.922, 171.342 143.422 C 164.453 144.922, 156.13 141.122, 152.75 134.935" fill="#ac8452" fill-opacity="0.501961" />
<path d="M 164 160 L 190 232 L 224 188 Z" fill="#8c52ff" fill-opacity="0.501961" />
<path d="M 252.561 271 L 193.368 219.14 L 161.55 174.204 L 264.968 182.528 Z" fill="#8c52ff" fill-opacity="0.501961" />
<path d="M 66.4524 84.4365 L 87.743 71.7181 L 75.9137 53.2449 L 64.1166 82.6032 Z" fill="#261f14" fill-opacity="0.501961" />
<path d="M 109.071 173.929 C 112.976 177.834, 112.976 184.166, 109.071 188.071 C 105.166 191.976, 98.8342 191.976, 94.9289 188.071 C 91.0237 184.166, 91.0237 177.834, 94.9289 173.929 C 98.8342 170.024, 105.166 170.024, 109.071 173.929" fill="#f9b612" fill-opacity="0.501961" />
<path d="M 75.5471 164.242 L 47.931 176.293 L 53.8428 176.171 L 53.6825 118.189 Z" fill="#261e19" fill-opacity="0.501961" />
<path d="M 60 186 L 114 162 L 87 149 Z" fill="#8c52ff" fill-opacity="0.501961" />
<path d="M 48.3137 106.101 C 54.5621 111.568, 54.5621 120.432, 48.3137 125.899 C 42.0653 131.367, 31.9347 131.367, 25.6863 125.899 C 19.4379 120.432, 19.4379 111.568, 25.6863 106.101 C 31.9347 100.633, 42.0653 100.633, 48.3137 106.101" fill="#8b52ff" fill-opacity="0.501961" />
<path d="M 143 81 L 124 103 L 161 103 Z" fill="#a77f4f" fill-opacity="0.501961" />
<path d="M 50.6552 117.274 L 50.4815 116.289 L 59.3448 114.726 L 59.5185 115.711 Z" fill="#9251ff" fill-opacity="0.501961" />
<path d="M 158 69 L 165 69 L 165 112 L 158 112 Z" fill="#ac824f" fill-opacity="0.501961" />
<path d="M 109 73 L 126 73 L 126 100 L 109 100 Z" fill="#c4965f" fill-opacity="0.501961" />
<path d="M 155 106 L 128 105 L 128 133 Z" fill="#e4e4e2" fill-opacity="0.501961" />
<path d="M 205.994 144.592 C 210.306 150.212, 209.476 158.542, 204.139 163.2 C 198.803 167.857, 190.982 167.078, 186.67 161.458 C 182.359 155.839, 183.189 147.508, 188.525 142.851 C 193.862 138.193, 201.683 138.973, 205.994 144.592" fill="#251e1a" fill-opacity="0.501961" />
<path d="M 233.417 122.165 C 229.897 130.169, 220.945 133.046, 213.422 128.59 C 205.898 124.134, 202.652 114.033, 206.172 106.028 C 209.692 98.024, 218.644 95.1474, 226.167 99.6033 C 233.691 104.059, 236.936 114.16, 233.417 122.165" fill="#8c53ff" fill-opacity="0.501961" />
<path d="M 190.245 121.707 L 180.108 136.632 L 157.022 153.131 L 118.755 164.251 Z" fill="#aa8352" fill-opacity="0.501961" />
<path d="M 219 98 L 191 65 L 197 83 Z" fill="#8c51ff" fill-opacity="0.501961" />
<path d="M 87 71 L 120 71 L 120 78 L 87 78 Z" fill="#c3965f" fill-opacity="0.501961" />
<path d="M -16 188.452 L 53.0672 111.863 L 41.0292 147.026 L 54.6832 170.742 Z" fill="#8b52ff" fill-opacity="0.501961" />
<path d="M 50.109 190.592 C 55.4275 181.909, 67.9114 173.711, 77.9926 172.28 C 88.0738 170.849, 91.9348 176.728, 86.6163 185.411 C 81.2978 194.093, 68.8138 202.292, 58.7326 203.723 C 48.6514 205.154, 44.7905 199.275, 50.109 190.592" fill="#8c52ff" fill-opacity="0.501961" />
<path d="M 196.828 116.343 C 198.391 119.467, 198.391 124.533, 196.828 127.657 C 195.266 130.781, 192.734 130.781, 191.172 127.657 C 189.609 124.533, 189.609 119.467, 191.172 116.343 C 192.734 113.219, 195.266 113.219, 196.828 116.343" fill="#201a17" fill-opacity="0.501961" />
<path d="M 141 158 L 168 158 L 168 164 L 141 164 Z" fill="#8a50ff" fill-opacity="0.501961" />
<path d="M 187.95 70.0503 C 190.683 72.7839, 190.683 77.2161, 187.95 79.9497 C 185.216 82.6834, 180.784 82.6834, 178.05 79.9497 C 175.317 77.2161, 175.317 72.7839, 178.05 70.0503 C 180.784 67.3166, 185.216 67.3166, 187.95 70.0503" fill="#201914" fill-opacity="0.501961" />
<path d="M 67.5464 64.7543 C 70.4192 58.4258, 77.6358 50.4933, 83.6651 47.0365 C 89.6945 43.5797, 92.2534 45.9077, 89.3806 52.2361 C 86.5079 58.5646, 79.2913 66.4972, 73.2619 69.9539 C 67.2326 73.4107, 64.6736 71.0828, 67.5464 64.7543" fill="#281f1c" fill-opacity="0.501961" />
<path d="M 105.025 107.676 C 107.657 110.021, 109.813 114.781, 109.84 118.306 C 109.867 121.831, 107.755 122.788, 105.123 120.442 C 102.491 118.097, 100.335 113.338, 100.308 109.812 C 100.281 106.287, 102.393 105.33, 105.025 107.676" fill="#ffffff" fill-opacity="0.501961" />
<path d="M -16 128 L 60 -14 L 61 82 Z" fill="#8c52ff" fill-opacity="0.501961" />
<path d="M 98.3303 158.744 C 94.9127 162.77, 87.8617 166.082, 82.5813 166.143 C 77.3009 166.203, 75.7908 162.988, 79.2084 158.963 C 82.6259 154.937, 89.677 151.625, 94.9574 151.564 C 100.238 151.504, 101.748 154.718, 98.3303 158.744" fill="#8b52fe" fill-opacity="0.501961" />
<path d="M 150.057 81.1631 C 150.794 78.7542, 153.094 77.9299, 155.193 79.322 C 157.293 80.7141, 158.397 83.7955, 157.66 86.2044 C 156.923 88.6133, 154.624 89.4375, 152.524 88.0454 C 150.425 86.6533, 149.32 83.572, 150.057 81.1631" fill="#2d1e19" fill-opacity="0.501961" />
<path d="M 143 162 L 204 195 L 167 147 Z" fill="#8c52ff" fill-opacity="0.501961" />
<path d="M 4 109 L 16 48 L 50 164 Z" fill="#8c53ff" fill-opacity="0.501961" />
<path d="M 90.8284 150.686 C 92.3905 156.935, 92.3905 167.065, 90.8284 173.314 C 89.2663 179.562, 86.7337 179.562, 85.1716 173.314 C 83.6095 167.065, 83.6095 156.935, 85.1716 150.686 C 86.7337 144.438, 89.2663 144.438, 90.8284 150.686" fill="#8b52ff" fill-opacity="0.501961" />
<path d="M 90.9134 67.5762 L 76.6354 80.5874 L 61.5627 85.491 L 64.9808 119.997 Z" fill="#bb8f56" fill-opacity="0.501961" />
<path d="M 128 195 L 174 195 L 174 231 L 128 231 Z" fill="#dea513" fill-opacity="0.501961" />
<path d="M 102.819 42.5332 C 98.6769 46.4666, 90.7854 50.5989, 85.193 51.7629 C 79.6006 52.927, 78.4251 50.6821, 82.5673 46.7487 C 86.7096 42.8153, 94.6011 38.683, 100.194 37.519 C 105.786 36.3549, 106.961 38.5998, 102.819 42.5332" fill="#29201a" fill-opacity="0.501961" />
<path d="M 182 134 L 170 147 L 186 167 Z" fill="#211b13" fill-opacity="0.501961" />
<path d="M 173.048 143.497 L 148.821 152.617 L 158.424 93.7503 L 182.414 133.111 Z" fill="#aa8251" fill-opacity="0.501961" />
<path d="M 195 0 L 255 0 L 255 84 L 195 84 Z" fill="#8c52ff" fill-opacity="0.501961" />
<path d="M 124 137 L 151 154 L 205 105 Z" fill="#aa8253" fill-opacity="0.501961" />
<path d="M 85 186 L 120 186 L 120 233 L 85 233 Z" fill="#f9b712" fill-opacity="0.501961" />
<path d="M 143.477 8.80761 C 164.174 13.8844, 164.174 22.1156, 143.477 27.1924 C 122.779 32.2692, 89.2211 32.2692, 68.5233 27.1924 C 47.8256 22.1156, 47.8256 13.8844, 68.5233 8.80761 C 89.2211 3.7308, 122.779 3.7308, 143.477 8.80761" fill="#8c52ff" fill-opacity="0.501961" />
<path d="M 171 93 L 181 93 L 181 106 L 171 106 Z" fill="#b99871" fill-opacity="0.501961" />
<path d="M 60.3545 152.305 C 65.3468 152.876, 70.6684 157.209, 72.2406 161.981 C 73.8128 166.754, 71.0403 170.16, 66.0479 169.588 C 61.0556 169.017, 55.734 164.684, 54.1618 159.912 C 52.5896 155.139, 55.3622 151.733, 60.3545 152.305" fill="#261e18" fill-opacity="0.501961" />
<path d="M 219 136 L 271 185 L 202 170 Z" fill="#8c52ff" fill-opacity="0.501961" />
<path d="M 89.1663 145.778 L 54.6646 169.304 L 48.7942 158.481 L 44.8933 140.178 Z" fill="#271f19" fill-opacity="0.501961" />
<path d="M 51.3383 122.484 L 59.1098 116.191 L 66.6617 125.516 L 58.8902 131.809 Z" fill="#221c15" fill-opacity="0.501961" />
<path d="M 85.777 144.089 L 50.292 91.9315 L 58.6567 85.3654 L 69.21 84.1641 Z" fill="#c0935b" fill-opacity="0.501961" />
<path d="M 163.264 40.1219 L 195.994 80.6863 L 177.809 80.4578 L 173.437 76.9813 Z" fill="#251d18" fill-opacity="0.501961" />
<path d="M 187.552 169.017 L 171.132 150.504 L 186.909 127.989 L 204.309 177.597 Z" fill="#241d17" fill-opacity="0.501961" />
<path d="M 60.2602 82.1277 L 72.8652 59.3875 L 73.7398 59.8723 L 61.1348 82.6125 Z" fill="#1f1a0c" fill-opacity="0.501961" />
<path d="M 123 271 L 8 242 L 219 233 Z" fill="#8b52ff" fill-opacity="0.501961" />
<path d="M 123.15 188.737 L 93.0747 176.056 L 79.6842 204.206 L 126.098 235.335 Z" fill="#f9b712" fill-opacity="0.501961" />
<path d="M 114.09 164.793 L 115.896 167.189 L 107.91 173.207 L 106.104 170.811 Z" fill="#ffbb03" fill-opacity="0.501961" />
<path d="M 108 133 L 127 133 L 127 155 L 108 155 Z" fill="#c2945f" fill-opacity="0.501961" />
<path d="M 113 106 L 127 106 L 127 128 L 113 128 Z" fill="#ffffff" fill-opacity="0.501961" />
<path d="M 88.364 94.636 C 91.8787 98.1508, 91.8787 103.849, 88.364 107.364 C 84.8492 110.879, 79.1508 110.879, 75.636 107.364 C 72.1213 103.849, 72.1213 98.1508, 75.636 94.636 C 79.1508 91.1213, 84.8492 91.1213, 88.364 94.636" fill="#ceab7f" fill-opacity="0.501961" />
<path d="M 65.1542 149.536 C 63.5771 156.197, 57.7523 158.415, 52.1442 154.491 C 46.536 150.566, 43.2683 141.985, 44.8454 135.324 C 46.4225 128.663, 52.2473 126.445, 57.8554 130.37 C 63.4636 134.294, 66.7313 142.875, 65.1542 149.536" fill="#271f1c" fill-opacity="0.501961" />
<path d="M 87.3292 69.9416 C 84.5977 75.2828, 77.5843 80.4012, 71.6645 81.3737 C 65.7446 82.3462, 63.16 78.8046, 65.8915 73.4633 C 68.6231 68.122, 75.6364 63.0037, 81.5563 62.0312 C 87.4761 61.0587, 90.0607 64.6003, 87.3292 69.9416" fill="#292118" fill-opacity="0.501961" />
<path d="M 93.8637 37.7276 L 149.973 16.4849 L -16 -16 L 70.9862 55.2715 Z" fill="#8c52ff" fill-opacity="0.501961" />
<path d="M 125 87 L 83 115 L 97 90 Z" fill="#c2955c" fill-opacity="0.501961" />
<path d="M 130 68 L 133 92 L 156 73 Z" fill="#a78050" fill-opacity="0.501961" />
<path d="M 124.95 113.222 C 127.683 117.518, 127.683 124.482, 124.95 128.778 C 122.216 133.074, 117.784 133.074, 115.05 128.778 C 112.317 124.482, 112.317 117.518, 115.05 113.222 C 117.784 108.926, 122.216 108.926, 124.95 113.222" fill="#ffffff" fill-opacity="0.501961" />
<path d="M 116.556 234.293 C 125.148 234.683, 125.148 235.317, 116.556 235.707 C 107.965 236.098, 94.0352 236.098, 85.4437 235.707 C 76.8521 235.317, 76.8521 234.683, 85.4437 234.293 C 94.0352 233.902, 107.965 233.902, 116.556 234.293" fill="#a467cf" fill-opacity="0.501961" />
<path d="M 268 59 L 184 56 L 154 23 Z" fill="#8c52ff" fill-opacity="0.501961" />
<path d="M 206.414 173.586 C 207.195 174.367, 207.195 175.633, 206.414 176.414 C 205.633 177.195, 204.367 177.195, 203.586 176.414 C 202.805 175.633, 202.805 174.367, 203.586 173.586 C 204.367 172.805, 205.633 172.805, 206.414 173.586" fill="#302325" fill-opacity="0.501961" />
<path d="M 189 271 L 167 150 L 233 218 Z" fill="#8c52ff" fill-opacity="0.501961" />
<path d="M 205.421 125.885 L 211.513 141.756 L 210.579 142.115 L 204.487 126.244 Z" fill="#1f1b0b" fill-opacity="0.501961" />
<path d="M 165.84 69.5933 L 163.352 71.6411 L 156.19 88.6968 L 197.494 103.015 Z" fill="#a98150" fill-opacity="0.501961" />
<path d="M 193.434 115.351 L 207.768 119.715 L 207.987 52.1565 L 271 101.254 Z" fill="#8c52ff" fill-opacity="0.501961" />
<path d="M 57.1021 115.585 L 31.8682 142.645 L 20.8979 132.415 L 46.1318 105.355 Z" fill="#8c52ff" fill-opacity="0.501961" />
<path d="M 141 166 L 145 166 L 145 175 L 141 175 Z" fill="#e8ac07" fill-opacity="0.501961" />
<path d="M 168 59 L 195 84 L 189 64 Z" fill="#221c16" fill-opacity="0.501961" />
<path d="M 79.88 75.6405 L 99.8755 73.4899 L 129.845 100.929 L 126.587 70.2507 Z" fill="#be915b" fill-opacity="0.501961" />
<path d="M 175 230 L 176 230 L 176 234 L 175 234 Z" fill="#dea631" fill-opacity="0.501961" />
<path d="M 202.95 121.515 C 205.683 126.201, 205.683 133.799, 202.95 138.485 C 200.216 143.172, 195.784 143.172, 193.05 138.485 C 190.317 133.799, 190.317 126.201, 193.05 121.515 C 195.784 116.828, 200.216 116.828, 202.95 121.515" fill="#231c17" fill-opacity="0.501961" />
<path d="M 77.1351 161.542 L 68.1819 172.954 L 31.5125 184.075 L 88.468 180.735 Z" fill="#8b52fe" fill-opacity="0.501961" />
<path d="M 147.263 34.3934 C 156.246 40.2513, 156.246 49.7487, 147.263 55.6066 C 138.281 61.4645, 123.719 61.4645, 114.737 55.6066 C 105.754 49.7487, 105.754 40.2513, 114.737 34.3934 C 123.719 28.5355, 138.281 28.5355, 147.263 34.3934" fill="#231c16" fill-opacity="0.501961" />
<path d="M 149.694 179.012 C 149.214 172.848, 153.189 170.315, 158.573 173.355 C 163.957 176.395, 168.711 183.856, 169.191 190.02 C 169.672 196.185, 165.696 198.718, 160.312 195.678 C 154.928 192.638, 150.174 185.177, 149.694 179.012" fill="#dea514" fill-opacity="0.501961" />
<path d="M 155.032 34.8728 L 67.9563 12.4514 L 211.603 -16 L 190.669 54.4305 Z" fill="#8c52ff" fill-opacity="0.501961" />
<path d="M 101.058 152.528 L 72.9777 166.904 L -16 248.584 L 102.735 169.284 Z" fill="#8c53ff" fill-opacity="0.501961" />
<path d="M 175.328 267.009 C 177.266 261.062, 177.569 246.264, 176.236 222.616" fill="none" stroke="#955df0" stroke-opacity="0.501961" stroke-width="0.512" stroke-linecap="round" />
<path d="M 74.7982 111.454 C 70.5919 114.813, 62.997 116.3, 57.8346 114.774 C 52.6721 113.248, 51.897 109.288, 56.1033 105.928 C 60.3096 102.569, 67.9045 101.082, 73.0669 102.608 C 78.2294 104.134, 79.0045 108.094, 74.7982 111.454" fill="#c19360" fill-opacity="0.501961" />
<path d="M 211 44 L 255 44 L 255 255 L 211 255 Z" fill="#8c52ff" fill-opacity="0.501961" />
<path d="M 62 120 L 79 139 L 52 133 Z" fill="#261e17" fill-opacity="0.501961" />
<path d="M 167.314 183.686 C 173.562 189.935, 173.562 200.065, 167.314 206.314 C 161.065 212.562, 150.935 212.562, 144.686 206.314 C 138.438 200.065, 138.438 189.935, 144.686 183.686 C 150.935 177.438, 161.065 177.438, 167.314 183.686" fill="#dfa612" fill-opacity="0.501961" />
<path d="M 100.264 154.044 L 84.1278 140.764 L 53.6589 105.299 L 121.303 159.025 Z" fill="#be915d" fill-opacity="0.501961" />
<path d="M 197.502 115.025 C 193.826 116.487, 191.413 114.516, 192.114 110.622 C 192.815 106.727, 196.364 102.385, 200.04 100.922 C 203.717 99.46, 206.129 101.431, 205.428 105.326 C 204.728 109.22, 201.179 113.562, 197.502 115.025" fill="#ac8353" fill-opacity="0.501961" />
<path d="M 68.2806 128.159 L 68.7939 103.585 L 127.931 137.884 L 128.123 143.852 Z" fill="#bf925b" fill-opacity="0.501961" />
<path d="M 128 181 L 139 181 L 139 153 L 128 153 Z" fill="#9d784e" fill-opacity="0.501961" />
</g>
</svg>
