<svg version="1.1" width="128" height="128" xmlns="http://www.w3.org/2000/svg">
<rect x="0" y="0" width="128" height="128" fill="#a39b5d" />
<g transform="scale(0.5, 0.5)">
<path d="M 271 178 L 255 271 L -16 251 Z" fill="#100300" fill-opacity="0.501961" />
<path d="M 200.832 29.168 C 241.056 69.392, 241.056 134.608, 200.832 174.832 C 160.608 215.056, 95.392 215.056, 55.168 174.832 C 14.944 134.608, 14.944 69.392, 55.168 29.168 C 95.392 -11.056, 160.608 -11.056, 200.832 29.168" fill="#ffffcd" fill-opacity="0.501961" />
<path d="M 271 0 L 167 -14 L 263 86 Z" fill="#000000" fill-opacity="0.501961" />
<path d="M -37.1411 113.742 L -82.9886 66.2658 L 37.1411 -49.7422 L 82.9886 -2.26576 Z" fill="#000000" fill-opacity="0.501961" />
<path d="M 69.9979 259.041 L 22.0798 295.15 L -69.9979 172.959 L -22.0798 136.85 Z" fill="#000000" fill-opacity="0.501961" />
<path d="M 160 261 L 153 207 L 238 201 Z" fill="#ffff09" fill-opacity="0.501961" />
<path d="M 29 194 L 227 196 L 193 73 Z" fill="#bed7ff" fill-opacity="0.501961" />
<path d="M -16 121 L 29 213 L 45 25 Z" fill="#fff000" fill-opacity="0.501961" />
<path d="M 271 127 L 222 216 L 218 32 Z" fill="#fff600" fill-opacity="0.501961" />
<path d="M 2 83 L 128 -16 L 249 79 Z" fill="#ffff19" fill-opacity="0.501961" />
<path d="M 101 205 L 92 253 L 27 208 Z" fill="#ffff00" fill-opacity="0.501961" />
<path d="M 173 260 L 261 270 L 271 167 Z" fill="#000000" fill-opacity="0.501961" />
<path d="M -16 112 L -1 -16 L 63 -1 Z" fill="#000000" fill-opacity="0.501961" />
<path d="M 161.222 -4.21784 L 195.314 -51.1408 L 290.778 18.2178 L 256.686 65.1408 Z" fill="#000000" fill-opacity="0.501961" />
<path d="M 107 142 L 228 94 L 32 95 Z" fill="#ebffff" fill-opacity="0.501961" />
<path d="M 190.146 83.7574 C 236.618 86.1005, 236.618 89.8995, 190.146 92.2426 C 143.673 94.5858, 68.3267 94.5858, 21.8543 92.2426 C -24.6181 89.8995, -24.6181 86.1005, 21.8543 83.7574 C 68.3267 81.4142, 143.673 81.4142, 190.146 83.7574" fill="#00004d" fill-opacity="0.501961" />
<path d="M 92.6565 164.631 C 86.0387 174.602, 74.2142 175.447, 66.2458 166.518 C 58.2773 157.59, 57.1824 142.269, 63.8002 132.298 C 70.418 122.327, 82.2425 121.482, 90.211 130.41 C 98.1794 139.339, 99.2743 154.66, 92.6565 164.631" fill="#d19e00" fill-opacity="0.501961" />
<path d="M 121 160 L 186 160 L 186 169 L 121 169 Z" fill="#000000" fill-opacity="0.501961" />
<path d="M 93.5619 137.105 L 201.052 139.145 L 196.44 150.155 L 120 147.878 Z" fill="#000342" fill-opacity="0.501961" />
<path d="M 155.139 195.697 L 149.826 271 L 89.5328 196.655 L 147.682 196.167 Z" fill="#00147d" fill-opacity="0.501961" />
<path d="M 3 271 L 51 233 L -9 164 Z" fill="#000000" fill-opacity="0.501961" />
<path d="M 219.828 99.9878 C 221.391 122.638, 221.391 159.362, 219.828 182.012 C 218.266 204.663, 215.734 204.663, 214.172 182.012 C 212.609 159.362, 212.609 122.638, 214.172 99.9878 C 215.734 77.3374, 218.266 77.3374, 219.828 99.9878" fill="#000080" fill-opacity="0.501961" />
<path d="M 255.356 -16 L 201.932 -16 L 245.411 79.9694 L 271 156.203 Z" fill="#000000" fill-opacity="0.501961" />
<path d="M 42.7332 159.327 C 41.4268 176.706, 38.8648 176.747, 37.0109 159.418 C 35.157 142.089, 34.7132 113.952, 36.0196 96.5736 C 37.326 79.1947, 39.888 79.1543, 41.7419 96.4833 C 43.5958 113.812, 44.0397 141.948, 42.7332 159.327" fill="#000062" fill-opacity="0.501961" />
<path d="M 36 212 L -11 123 L 31 40 Z" fill="#ffdd00" fill-opacity="0.501961" />
<path d="M 247.854 237.088 C 235.926 264.196, 229.456 262.377, 233.403 233.025 C 237.35 203.673, 250.219 157.903, 262.146 130.795 C 274.074 103.687, 280.544 105.507, 276.597 134.858 C 272.65 164.21, 259.781 209.98, 247.854 237.088" fill="#000000" fill-opacity="0.501961" />
<path d="M 83 192 L 209 197 L 211 163 Z" fill="#ffffff" fill-opacity="0.501961" />
<path d="M 48.7492 108.32 C 53.9888 87.8821, 60.8404 88.2184, 64.0527 109.071 C 67.265 129.924, 65.6216 163.397, 60.3821 183.835 C 55.1425 204.273, 48.291 203.937, 45.0786 183.084 C 41.8663 162.231, 43.5097 128.758, 48.7492 108.32" fill="#d3ffff" fill-opacity="0.501961" />
<path d="M 94 271 L 258 218 L 271 270 Z" fill="#000000" fill-opacity="0.501961" />
<path d="M -31.0096 32.0715 C 24.64 6.21284, 117.381 -29.1086, 176.133 -46.8212 C 234.885 -64.5337, 237.4 -57.9301, 181.75 -32.0715 C 126.101 -6.21284, 33.3601 29.1086, -25.392 46.8212 C -84.144 64.5337, -86.6591 57.9301, -31.0096 32.0715" fill="#000000" fill-opacity="0.501961" />
<path d="M 158.142 221.273 C 168.342 211.183, 188.163 204.36, 202.412 206.034 C 216.662 207.708, 219.944 217.244, 209.744 227.334 C 199.544 237.424, 179.724 244.247, 165.474 242.573 C 151.225 240.9, 147.942 231.363, 158.142 221.273" fill="#fff00f" fill-opacity="0.501961" />
<path d="M 211.415 139.925 C 208.299 151.879, 199.64 153.651, 192.076 143.885 C 184.512 134.119, 180.906 116.511, 184.023 104.557 C 187.14 92.604, 195.798 90.831, 203.362 100.597 C 210.926 110.364, 214.532 127.971, 211.415 139.925" fill="#ffffff" fill-opacity="0.501961" />
<path d="M -15 266 L 134 271 L -8 202 Z" fill="#000000" fill-opacity="0.501961" />
<path d="M 88.435 211.565 C 95.855 218.985, 95.855 231.015, 88.435 238.435 C 81.0151 245.855, 68.9849 245.855, 61.565 238.435 C 54.145 231.015, 54.145 218.985, 61.565 211.565 C 68.9849 204.145, 81.0151 204.145, 88.435 211.565" fill="#ffe400" fill-opacity="0.501961" />
<path d="M 44.2027 199.867 L 43.5324 69.8329 L 34.0801 203.22 L 124.898 209.277 Z" fill="#1f2e6e" fill-opacity="0.501961" />
<path d="M 264.059 136.092 L 242.716 68.0382 L 206.287 23.95 L 111.143 -16 Z" fill="#ffea39" fill-opacity="0.501961" />
<path d="M 180 122 L 45 126 L 69 92 Z" fill="#d7ffff" fill-opacity="0.501961" />
<path d="M -9 -16 L 51 -6 L -16 131 Z" fill="#000000" fill-opacity="0.501961" />
<path d="M 207.234 196.464 C 225.589 198.417, 225.589 201.583, 207.234 203.536 C 188.879 205.488, 159.121 205.488, 140.766 203.536 C 122.411 201.583, 122.411 198.417, 140.766 196.464 C 159.121 194.512, 188.879 194.512, 207.234 196.464" fill="#324ab3" fill-opacity="0.501961" />
<path d="M 103.33 158.198 C 101.926 151.634, 102.305 141.088, 104.177 134.642 C 106.049 128.196, 108.705 128.292, 110.109 134.855 C 111.512 141.419, 111.133 151.966, 109.261 158.412 C 107.389 164.857, 104.733 164.762, 103.33 158.198" fill="#0045e1" fill-opacity="0.501961" />
<path d="M 261 -16 L 96 -16 L 256 32 Z" fill="#000000" fill-opacity="0.501961" />
<path d="M 35.0075 257.902 L -9.14679 271 L -1.44297 95.7251 L 2.29191 151.453 Z" fill="#000000" fill-opacity="0.501961" />
<path d="M 219 83 L 25 49 L 69 12 Z" fill="#fff24e" fill-opacity="0.501961" />
<path d="M 58.127 176.088 C 73.2801 169.45, 98.6425 167.037, 114.776 170.699 C 130.909 174.361, 131.703 182.711, 116.55 189.349 C 101.397 195.987, 76.0343 198.4, 59.9013 194.738 C 43.7683 191.076, 42.9739 182.727, 58.127 176.088" fill="#d6ffff" fill-opacity="0.501961" />
<path d="M 241.234 98.4586 C 250.143 112.467, 255.708 137.179, 253.663 153.654 C 251.618 170.13, 242.738 172.129, 233.828 158.121 C 224.918 144.112, 219.354 119.401, 221.399 102.925 C 223.444 86.4499, 232.324 84.4501, 241.234 98.4586" fill="#ffd000" fill-opacity="0.501961" />
<path d="M 94.9905 160.879 C 91.3844 171.146, 81.0751 174.645, 71.964 168.694 C 62.8529 162.743, 58.3902 149.595, 61.9963 139.328 C 65.6024 129.06, 75.9117 125.561, 85.0228 131.512 C 94.1339 137.463, 98.5966 150.611, 94.9905 160.879" fill="#c9a600" fill-opacity="0.501961" />
<path d="M 70 242 L 168 271 L 166 239 Z" fill="#364695" fill-opacity="0.501961" />
<path d="M 119 159 L 192 159 L 192 169 L 119 169 Z" fill="#000a4a" fill-opacity="0.501961" />
<path d="M 200.406 99.6863 C 217.198 105.935, 217.198 116.065, 200.406 122.314 C 183.613 128.562, 156.387 128.562, 139.594 122.314 C 122.802 116.065, 122.802 105.935, 139.594 99.6863 C 156.387 93.4379, 183.613 93.4379, 200.406 99.6863" fill="#ffffff" fill-opacity="0.501961" />
<path d="M 83.2913 230.988 C 82.239 225.812, 85.66 221.877, 90.9323 222.2 C 96.2046 222.523, 101.332 226.981, 102.384 232.158 C 103.436 237.334, 100.015 241.268, 94.7429 240.945 C 89.4706 240.622, 84.3435 236.164, 83.2913 230.988" fill="#fff214" fill-opacity="0.501961" />
<path d="M 22.1842 57.8893 C 31.4755 49.8453, 40.1955 53.216, 41.661 65.4179 C 43.1264 77.6198, 36.7823 94.0322, 27.491 102.076 C 18.1997 110.12, 9.47966 106.749, 8.01423 94.5476 C 6.5488 82.3457, 12.8929 65.9332, 22.1842 57.8893" fill="#ffe53f" fill-opacity="0.501961" />
<path d="M 233 84 L 246 180 L 215 221 Z" fill="#ffd903" fill-opacity="0.501961" />
<path d="M 193 95 L 211 95 L 211 185 L 193 185 Z" fill="#ffffff" fill-opacity="0.501961" />
<path d="M 185.213 125.464 C 196.929 127.417, 196.929 130.583, 185.213 132.536 C 173.497 134.488, 154.503 134.488, 142.787 132.536 C 131.071 130.583, 131.071 127.417, 142.787 125.464 C 154.503 123.512, 173.497 123.512, 185.213 125.464" fill="#3a3c67" fill-opacity="0.501961" />
<path d="M 38 197 L 135 197 L 135 204 L 38 204 Z" fill="#182670" fill-opacity="0.501961" />
<path d="M 221 88 L 200 80 L 221 110 Z" fill="#36437a" fill-opacity="0.501961" />
<path d="M 274.261 168.456 C 269.833 195.729, 254.123 236.674, 239.171 259.909 C 224.219 283.144, 215.687 279.871, 220.115 252.597 C 224.542 225.324, 240.253 184.379, 255.205 161.144 C 270.157 137.909, 278.689 141.183, 274.261 168.456" fill="#000000" fill-opacity="0.501961" />
<path d="M 109.5 172 L 109.5 94 L 118.5 94 L 118.5 172 Z" fill="#c4ffff" fill-opacity="0.501961" />
<path d="M 191.376 172.222 C 217.541 176.518, 217.541 183.482, 191.376 187.778 C 165.211 192.074, 122.789 192.074, 96.6238 187.778 C 70.4587 183.482, 70.4587 176.518, 96.6238 172.222 C 122.789 167.926, 165.211 167.926, 191.376 172.222" fill="#ffffff" fill-opacity="0.501961" />
<path d="M 197.941 150.464 C 216.686 152.417, 216.686 155.583, 197.941 157.536 C 179.196 159.488, 148.804 159.488, 130.059 157.536 C 111.314 155.583, 111.314 152.417, 130.059 150.464 C 148.804 148.512, 179.196 148.512, 197.941 150.464" fill="#ffffff" fill-opacity="0.501961" />
<path d="M 205.671 -12.8599 L 249.833 87.9519 L 255.806 116.748 L 271 4.26122 Z" fill="#000000" fill-opacity="0.501961" />
<path d="M 157.235 -14.2963 L 158.274 -9.4056 L 46.7654 14.2963 L 45.7258 9.4056 Z" fill="#000000" fill-opacity="0.501961" />
<path d="M 155 206 L 178 246 L 230 207 Z" fill="#ffd80e" fill-opacity="0.501961" />
<path d="M 75 -3 L -16 -16 L -16 92 Z" fill="#000000" fill-opacity="0.501961" />
<path d="M 91 239 L 10 181 L 39 221 Z" fill="#ffd900" fill-opacity="0.501961" />
<path d="M 53.2426 118.473 C 55.5858 136.437, 55.5858 165.563, 53.2426 183.527 C 50.8995 201.491, 47.1005 201.491, 44.7574 183.527 C 42.4142 165.563, 42.4142 136.437, 44.7574 118.473 C 47.1005 100.509, 50.8995 100.509, 53.2426 118.473" fill="#d0ffff" fill-opacity="0.501961" />
<path d="M 185.799 140.464 C 196.734 142.417, 196.734 145.583, 185.799 147.536 C 174.864 149.488, 157.136 149.488, 146.201 147.536 C 135.266 145.583, 135.266 142.417, 146.201 140.464 C 157.136 138.512, 174.864 138.512, 185.799 140.464" fill="#030e30" fill-opacity="0.501961" />
<path d="M 257 197 L 262 271 L 153 263 Z" fill="#000000" fill-opacity="0.501961" />
<path d="M 77.5917 138.292 C 82.7348 135.301, 88.1137 137.545, 89.606 143.304 C 91.0982 149.064, 88.1387 156.157, 82.9957 159.148 C 77.8526 162.138, 72.4737 159.894, 70.9814 154.135 C 69.4892 148.376, 72.4487 141.282, 77.5917 138.292" fill="#59643c" fill-opacity="0.501961" />
<path d="M 232 55 L 8 88 L 80 8 Z" fill="#ffea55" fill-opacity="0.501961" />
<path d="M 103 204 L 48 226 L 79 245 Z" fill="#ffd40e" fill-opacity="0.501961" />
<path d="M 102 271 L 102 202 L 147 207 Z" fill="#263564" fill-opacity="0.501961" />
<path d="M 1 108 L 16 39 L -5 -16 Z" fill="#000000" fill-opacity="0.501961" />
<path d="M 71.3414 94.396 L 31.4287 97.5096 L 43.5296 84.9212 L 203.434 83.8579 Z" fill="#2f4279" fill-opacity="0.501961" />
<path d="M 271 -16 L 122 -16 L 251 41 Z" fill="#000000" fill-opacity="0.501961" />
<path d="M -1.90231 260.54 L 104.513 271 L 25.868 209.836 L -16 124.013 Z" fill="#000000" fill-opacity="0.501961" />
<path d="M 211.385 83.0503 C 221.538 85.7839, 221.538 90.2161, 211.385 92.9497 C 201.231 95.6834, 184.769 95.6834, 174.615 92.9497 C 164.462 90.2161, 164.462 85.7839, 174.615 83.0503 C 184.769 80.3166, 201.231 80.3166, 211.385 83.0503" fill="#435286" fill-opacity="0.501961" />
<path d="M 181.828 253.282 C 183.042 261.217, 177.565 268.419, 169.594 269.368 C 161.622 270.316, 154.176 264.653, 152.962 256.718 C 151.748 248.783, 157.226 241.581, 165.197 240.632 C 173.168 239.684, 180.614 245.347, 181.828 253.282" fill="#080b3d" fill-opacity="0.501961" />
<path d="M 173.231 139.335 L 165.658 121.385 L 48.03 95.6749 L 176.53 94.4943 Z" fill="#f3ffff" fill-opacity="0.501961" />
<path d="M 44 97 L 62 97 L 62 157 L 44 157 Z" fill="#ccfcff" fill-opacity="0.501961" />
<path d="M 22 201 L 100 214 L 100 238 Z" fill="#ffd20b" fill-opacity="0.501961" />
<path d="M 121.406 148.693 L 141.605 150.732 L 176.623 140.068 L 122.749 138.35 Z" fill="#252f4f" fill-opacity="0.501961" />
<path d="M 213.504 175.314 L 211.956 105.122 L 222.79 197.769 L 211.05 208.029 Z" fill="#425083" fill-opacity="0.501961" />
<path d="M 100.828 106.594 C 102.391 123.387, 102.391 150.613, 100.828 167.406 C 99.2663 184.198, 96.7337 184.198, 95.1716 167.406 C 93.6095 150.613, 93.6095 123.387, 95.1716 106.594 C 96.7337 89.8019, 99.2663 89.8019, 100.828 106.594" fill="#d0ffff" fill-opacity="0.501961" />
<path d="M 271 159 L 271 266 L 172 271 Z" fill="#000000" fill-opacity="0.501961" />
<path d="M 31.6066 77.3934 C 37.4645 83.2513, 37.4645 92.7487, 31.6066 98.6066 C 25.7487 104.464, 16.2513 104.464, 10.3934 98.6066 C 4.53553 92.7487, 4.53553 83.2513, 10.3934 77.3934 C 16.2513 71.5355, 25.7487 71.5355, 31.6066 77.3934" fill="#ffce00" fill-opacity="0.501961" />
<path d="M 223.814 98.7809 L 237.326 59.4031 L 210.458 28.8143 L 175.464 8.74722 Z" fill="#ffed58" fill-opacity="0.501961" />
<path d="M 62 161 L 93 161 L 93 170 L 62 170 Z" fill="#ffe100" fill-opacity="0.501961" />
<path d="M 101.749 171.515 C 115.417 176.201, 115.417 183.799, 101.749 188.485 C 88.0804 193.172, 65.9196 193.172, 52.2513 188.485 C 38.5829 183.799, 38.5829 176.201, 52.2513 171.515 C 65.9196 166.828, 88.0804 166.828, 101.749 171.515" fill="#cbffff" fill-opacity="0.501961" />
<path d="M 129.555 -16 L 53.213 22.443 L -7.62523 81.6669 L -0.818582 -16 Z" fill="#000000" fill-opacity="0.501961" />
<path d="M 56 20 L 172 8 L 12 70 Z" fill="#ffed57" fill-opacity="0.501961" />
<path d="M 2 219 L 34 259 L 140 266 Z" fill="#000000" fill-opacity="0.501961" />
<path d="M 195.344 18.0982 L 99.0163 1.91688 L 61.4617 18.6105 L 22.5171 93.7424 Z" fill="#ffe953" fill-opacity="0.501961" />
<path d="M 270 271 L 236 248 L 258 129 Z" fill="#000000" fill-opacity="0.501961" />
<path d="M 212 88 L 219 88 L 219 199 L 212 199 Z" fill="#46578e" fill-opacity="0.501961" />
<path d="M 61 129 L 87 129 L 87 139 L 61 139 Z" fill="#ffd800" fill-opacity="0.501961" />
<path d="M 226.38 120.139 C 220.09 108.756, 219.367 89.9362, 224.764 78.1041 C 230.161 66.2719, 239.635 65.9077, 245.925 77.2906 C 252.215 88.6735, 252.938 107.493, 247.541 119.325 C 242.143 131.157, 232.669 131.522, 226.38 120.139" fill="#ffcb06" fill-opacity="0.501961" />
<path d="M 103 132 L 112 132 L 112 161 L 103 161 Z" fill="#0e7bdf" fill-opacity="0.501961" />
<path d="M 252 57 L 271 26 L 148 -15 Z" fill="#000000" fill-opacity="0.501961" />
<path d="M 111.5 108 L 118.5 108 L 118.5 194 L 111.5 194 Z" fill="#d2ffff" fill-opacity="0.501961" />
<path d="M 101 133 L 112 132 L 108 128 Z" fill="#ff1a00" fill-opacity="0.501961" />
<path d="M 129 171 L 210 171 L 210 195 L 129 195 Z" fill="#ffffff" fill-opacity="0.501961" />
<path d="M 223.023 214.383 C 213.528 225.465, 210.032 223.389, 215.214 209.747 C 220.395 196.105, 232.293 176.062, 241.788 164.981 C 251.282 153.899, 254.779 155.974, 249.597 169.616 C 244.415 183.259, 232.518 203.301, 223.023 214.383" fill="#ffcf0e" fill-opacity="0.501961" />
<path d="M 211.585 199.983 C 222.324 201.603, 222.302 204.075, 211.536 205.505 C 200.771 206.935, 183.337 206.782, 172.598 205.163 C 161.859 203.543, 161.881 201.071, 172.647 199.641 C 183.413 198.211, 200.846 198.364, 211.585 199.983" fill="#545fa1" fill-opacity="0.501961" />
<path d="M 29.7279 95.0589 C 36.7574 113.804, 36.7574 144.196, 29.7279 162.941 C 22.6985 181.686, 11.3015 181.686, 4.27208 162.941 C -2.75736 144.196, -2.75736 113.804, 4.27208 95.0589 C 11.3015 76.3137, 22.6985 76.3137, 29.7279 95.0589" fill="#ffce0b" fill-opacity="0.501961" />
<path d="M 190 15 L 234 82 L 25 80 Z" fill="#ffe956" fill-opacity="0.501961" />
<path d="M 49 95 L 128 95 L 128 126 L 49 126 Z" fill="#c6f8ff" fill-opacity="0.501961" />
<path d="M 117 149 L 207 149 L 207 158 L 117 158 Z" fill="#ffffff" fill-opacity="0.501961" />
<path d="M 267 114 L 221 113 L 221 215 Z" fill="#ffd00d" fill-opacity="0.501961" />
<path d="M 180.314 209.979 C 186.562 216.618, 186.562 227.382, 180.314 234.021 C 174.065 240.66, 163.935 240.66, 157.686 234.021 C 151.438 227.382, 151.438 216.618, 157.686 209.979 C 163.935 203.34, 174.065 203.34, 180.314 209.979" fill="#ffd513" fill-opacity="0.501961" />
<path d="M 86.0711 157.586 C 89.9763 158.367, 89.9763 159.633, 86.0711 160.414 C 82.1658 161.195, 75.8342 161.195, 71.9289 160.414 C 68.0237 159.633, 68.0237 158.367, 71.9289 157.586 C 75.8342 156.805, 82.1658 156.805, 86.0711 157.586" fill="#00206d" fill-opacity="0.501961" />
<path d="M 37.4142 99.8873 C 38.1953 117.07, 38.1953 144.93, 37.4142 162.113 C 36.6332 179.296, 35.3668 179.296, 34.5858 162.113 C 33.8047 144.93, 33.8047 117.07, 34.5858 99.8873 C 35.3668 82.7042, 36.6332 82.7042, 37.4142 99.8873" fill="#222f72" fill-opacity="0.501961" />
<path d="M 41 217 L 12 99 L 9 177 Z" fill="#ffd20f" fill-opacity="0.501961" />
<path d="M 193 97 L 211 97 L 211 192 L 193 192 Z" fill="#ffffff" fill-opacity="0.501961" />
<path d="M 40.7349 64.4851 C 25.3764 68.9376, 19.8305 61.5758, 28.3479 48.042 C 36.8653 34.5083, 56.2205 19.9275, 71.579 15.475 C 86.9375 11.0225, 92.4833 18.3843, 83.9659 31.918 C 75.4486 45.4518, 56.0934 60.0326, 40.7349 64.4851" fill="#ffe957" fill-opacity="0.501961" />
<path d="M 69 196 L 51 106 L 44 190 Z" fill="#d3faff" fill-opacity="0.501961" />
<path d="M 261 266 L 254 217 L 109 271 Z" fill="#000000" fill-opacity="0.501961" />
<path d="M 187.406 134.586 C 204.198 135.367, 204.198 136.633, 187.406 137.414 C 170.613 138.195, 143.387 138.195, 126.594 137.414 C 109.802 136.633, 109.802 135.367, 126.594 134.586 C 143.387 133.805, 170.613 133.805, 187.406 134.586" fill="#ffffff" fill-opacity="0.501961" />
<path d="M 149.314 208.423 C 155.562 223.653, 155.562 248.347, 149.314 263.577 C 143.065 278.808, 132.935 278.808, 126.686 263.577 C 120.438 248.347, 120.438 223.653, 126.686 208.423 C 132.935 193.192, 143.065 193.192, 149.314 208.423" fill="#414b62" fill-opacity="0.501961" />
<path d="M 262.452 117.784 L 252.449 -16 L 195.265 10.5367 L 238.038 59.0294 Z" fill="#000000" fill-opacity="0.501961" />
<path d="M 207.399 93.8292 L 126.555 100.644 L 134.147 141.143 L 138.705 125.137 Z" fill="#ffffff" fill-opacity="0.501961" />
<path d="M 80 240 L 174 242 L 132 264 Z" fill="#4d5578" fill-opacity="0.501961" />
<path d="M 59.9497 105.009 C 62.6834 121.02, 62.6834 146.98, 59.9497 162.991 C 57.2161 179.003, 52.7839 179.003, 50.0503 162.991 C 47.3166 146.98, 47.3166 121.02, 50.0503 105.009 C 52.7839 88.9971, 57.2161 88.9971, 59.9497 105.009" fill="#d0f6ff" fill-opacity="0.501961" />
<path d="M 41 196 L 123 196 L 123 205 L 41 205 Z" fill="#3e4a77" fill-opacity="0.501961" />
<path d="M 89 136 L 95 136 L 95 165 L 89 165 Z" fill="#ffd400" fill-opacity="0.501961" />
<path d="M 65 207 L 101 207 L 101 240 L 65 240 Z" fill="#ffd013" fill-opacity="0.501961" />
<path d="M 131 195 L 48 195 L 48 170 L 131 170 Z" fill="#cdf8ff" fill-opacity="0.501961" />
<path d="M 87.7782 139.586 C 92.0739 140.367, 92.0739 141.633, 87.7782 142.414 C 83.4824 143.195, 76.5176 143.195, 72.2218 142.414 C 67.9261 141.633, 67.9261 140.367, 72.2218 139.586 C 76.5176 138.805, 83.4824 138.805, 87.7782 139.586" fill="#002874" fill-opacity="0.501961" />
<path d="M 139.652 133.907 C 136.851 132.87, 135.85 129.968, 137.415 127.425 C 138.981 124.882, 142.521 123.66, 145.321 124.697 C 148.122 125.733, 149.124 128.635, 147.558 131.178 C 145.993 133.722, 142.453 134.943, 139.652 133.907" fill="#565976" fill-opacity="0.501961" />
<path d="M 190 -13 L 249 16 L 126 -3 Z" fill="#000000" fill-opacity="0.501961" />
<path d="M 67.1213 131.444 C 68.2929 140.035, 68.2929 153.965, 67.1213 162.556 C 65.9497 171.148, 64.0503 171.148, 62.8787 162.556 C 61.7071 153.965, 61.7071 140.035, 62.8787 131.444 C 64.0503 122.852, 65.9497 122.852, 67.1213 131.444" fill="#ffcd00" fill-opacity="0.501961" />
<path d="M 1.77338 147.817 L 8.72446 185.643 L 8.26439 271 L -13.9199 92.0839 Z" fill="#000000" fill-opacity="0.501961" />
<path d="M 168 138 L 193 138 L 193 143 L 168 143 Z" fill="#2c3555" fill-opacity="0.501961" />
<path d="M -3.29181 126.663 L 6.02713 87.8124 L 51.7517 -16 L -16 -3.80976 Z" fill="#000000" fill-opacity="0.501961" />
<path d="M 48 203 L 35 197 L 36 167 Z" fill="#333c68" fill-opacity="0.501961" />
<path d="M 46.0208 54.9792 C 52.6597 61.6181, 52.6597 72.3819, 46.0208 79.0208 C 39.3819 85.6597, 28.6181 85.6597, 21.9792 79.0208 C 15.3403 72.3819, 15.3403 61.6181, 21.9792 54.9792 C 28.6181 48.3403, 39.3819 48.3403, 46.0208 54.9792" fill="#ffe95a" fill-opacity="0.501961" />
<path d="M 190.627 102.101 C 203.124 107.568, 203.124 116.432, 190.627 121.899 C 178.131 127.367, 157.869 127.367, 145.373 121.899 C 132.876 116.432, 132.876 107.568, 145.373 102.101 C 157.869 96.6332, 178.131 96.6332, 190.627 102.101" fill="#ffffff" fill-opacity="0.501961" />
<path d="M 72 94 L 190 94 L 190 83 L 72 83 Z" fill="#495889" fill-opacity="0.501961" />
<path d="M 109 197 L 213 197 L 213 205 L 109 205 Z" fill="#4e5985" fill-opacity="0.501961" />
<path d="M 144 160 L 193 160 L 193 168 L 144 168 Z" fill="#2d3757" fill-opacity="0.501961" />
<path d="M 23 201 L 57 235 L 89 215 Z" fill="#ffd110" fill-opacity="0.501961" />
<path d="M 122 94 L 196 94 L 196 124 L 122 124 Z" fill="#ffffff" fill-opacity="0.501961" />
<path d="M 179.805 10.5629 L 154.134 1.87794 L 92.983 82.2689 L 244.658 74.4746 Z" fill="#ffe955" fill-opacity="0.501961" />
<path d="M 69 155 L 93 155 L 93 156 L 69 156 Z" fill="#ffec00" fill-opacity="0.501961" />
<path d="M 122.881 243.598 L 154.57 207.443 L 101.7 205.335 L 104.077 235.899 Z" fill="#2d3759" fill-opacity="0.501961" />
<path d="M -16 162 L 87 271 L -16 261 Z" fill="#000000" fill-opacity="0.501961" />
<path d="M 157.244 206.399 L 154.224 241.65 L 190.739 240.142 L 223.413 212.895 Z" fill="#ffcf13" fill-opacity="0.501961" />
<path d="M 101.828 122.594 C 103.391 139.387, 103.391 166.613, 101.828 183.406 C 100.266 200.198, 97.7337 200.198, 96.1716 183.406 C 94.6095 166.613, 94.6095 139.387, 96.1716 122.594 C 97.7337 105.802, 100.266 105.802, 101.828 122.594" fill="#d1feff" fill-opacity="0.501961" />
<path d="M 226.619 210.823 L 164.204 271 L 269.149 256.658 L 271 143.992 Z" fill="#000000" fill-opacity="0.501961" />
<path d="M 29.9982 211.215 L 81.3678 207.133 L 80.2712 247.807 L 51.9112 231.515 Z" fill="#ffcd11" fill-opacity="0.501961" />
<path d="M 100.785 266.785 L 150.138 252.538 L 190.06 250.405 L 149.503 271 Z" fill="#030200" fill-opacity="0.501961" />
<path d="M 189.638 124.455 L 191.191 130.251 L 186.362 131.545 L 184.809 125.749 Z" fill="#1b2647" fill-opacity="0.501961" />
<path d="M 151.542 149.239 L 116.533 149.764 L 135.303 138.627 L 162.065 149.299 Z" fill="#353f5f" fill-opacity="0.501961" />
<path d="M 36 122 L 49 84 L 37 93 Z" fill="#364167" fill-opacity="0.501961" />
<path d="M 64 143 L 94 143 L 94 144 L 64 144 Z" fill="#ffe400" fill-opacity="0.501961" />
<path d="M 123 -16 L -7 -3 L -15 58 Z" fill="#000000" fill-opacity="0.501961" />
<path d="M 221 89 L 249 89 L 249 167 L 221 167 Z" fill="#ffd012" fill-opacity="0.501961" />
<path d="M 210 125 L 202 189 L 192 128 Z" fill="#ffffff" fill-opacity="0.501961" />
<path d="M 44.7289 227.101 L 73.8726 244.612 L 53.2711 278.899 L 24.1274 261.388 Z" fill="#000000" fill-opacity="0.501961" />
<path d="M 88.4621 -16 L 197.737 21.2734 L 214.921 33.6096 L 244.541 73.3959 Z" fill="#ffea56" fill-opacity="0.501961" />
<path d="M 91.6038 140.186 L 80.9548 132.729 L 84.3962 127.814 L 95.0452 135.271 Z" fill="#ff9a00" fill-opacity="0.501961" />
<path d="M 64 160 L 94 160 L 94 168 L 64 168 Z" fill="#ffc000" fill-opacity="0.501961" />
<path d="M 135 83 L 217 83 L 217 93 L 135 93 Z" fill="#54608d" fill-opacity="0.501961" />
<path d="M 136.646 138.281 L 111.65 138.717 L 111.354 121.719 L 136.35 121.283 Z" fill="#e5ffff" fill-opacity="0.501961" />
<path d="M 120.82 103.101 C 138.393 108.568, 138.393 117.432, 120.82 122.899 C 103.246 128.367, 74.7538 128.367, 57.1802 122.899 C 39.6066 117.432, 39.6066 108.568, 57.1802 103.101 C 74.7538 97.6332, 103.246 97.6332, 120.82 103.101" fill="#d0f6ff" fill-opacity="0.501961" />
<path d="M 173 111 L 169 111 L 169 134 L 173 134 Z" fill="#ffffff" fill-opacity="0.501961" />
<path d="M 34 85 L 15 85 L 15 187 L 34 187 Z" fill="#ffd010" fill-opacity="0.501961" />
<path d="M 17.1109 63.8646 L 33.2678 88.5708 L -5.468 144.555 L 5.76024 87.2431 Z" fill="#fecb10" fill-opacity="0.501961" />
<path d="M 175.514 113.604 L 179.464 132.188 L 178.486 132.396 L 174.536 113.812 Z" fill="#ffffff" fill-opacity="0.501961" />
<path d="M 63.5447 151.206 L 63.4923 150.207 L 90.4553 148.794 L 90.5077 149.793 Z" fill="#ffed00" fill-opacity="0.501961" />
<path d="M 12.6934 48.2883 L 32.2495 -16 L 179.396 -7.68622 L 85.1668 4.49905 Z" fill="#000000" fill-opacity="0.501961" />
<path d="M 85.7782 145.586 C 90.0739 146.367, 90.0739 147.633, 85.7782 148.414 C 81.4824 149.195, 74.5176 149.195, 70.2218 148.414 C 65.9261 147.633, 65.9261 146.367, 70.2218 145.586 C 74.5176 144.805, 81.4824 144.805, 85.7782 145.586" fill="#002e71" fill-opacity="0.501961" />
<path d="M 44 100 L 61 100 L 61 193 L 44 193 Z" fill="#cff5ff" fill-opacity="0.501961" />
<path d="M 212.733 155.498 L 215.117 204.584 L 194.7 207.381 L 218.199 186.312 Z" fill="#596188" fill-opacity="0.501961" />
<path d="M 128 172 L 209 172 L 209 194 L 128 194 Z" fill="#ffffff" fill-opacity="0.501961" />
<path d="M 165.651 240.454 C 171.773 241.396, 172.667 245.103, 167.648 248.733 C 162.629 252.363, 153.597 254.541, 147.475 253.599 C 141.353 252.657, 140.459 248.95, 145.478 245.32 C 150.497 241.691, 159.529 239.512, 165.651 240.454" fill="#4b5376" fill-opacity="0.501961" />
<path d="M 87 240 L 153 240 L 153 250 L 87 250 Z" fill="#464e71" fill-opacity="0.501961" />
<path d="M 119 139 L 186 139 L 186 148 L 119 148 Z" fill="#2c3555" fill-opacity="0.501961" />
<path d="M 251 179 L 271 149 L 257 125 Z" fill="#000000" fill-opacity="0.501961" />
<path d="M 12.4706 184.166 L 54.6992 256.184 L -12.4007 261.42 L -16 109.746 Z" fill="#000000" fill-opacity="0.501961" />
<path d="M 135.777 257.659 L 99.9091 253.173 L 11.9397 225.346 L 79.6503 271 Z" fill="#000001" fill-opacity="0.501961" />
<path d="M 131.349 -2.53979 L 196.158 83.4823 L 67.7657 14.6164 L 81.8089 8.07094 Z" fill="#ffe854" fill-opacity="0.501961" />
<path d="M 77 152 L 87 152 L 87 153 L 77 153 Z" fill="#001881" fill-opacity="0.501961" />
<path d="M 105.293 168.445 C 104.594 166.256, 105.363 163.185, 107.012 161.584 C 108.66 159.984, 110.563 160.461, 111.262 162.649 C 111.961 164.838, 111.192 167.909, 109.543 169.51 C 107.895 171.11, 105.992 170.633, 105.293 168.445" fill="#ad7c78" fill-opacity="0.501961" />
<path d="M 84.1924 128.757 C 89.2692 131.101, 89.2692 134.899, 84.1924 137.243 C 79.1156 139.586, 70.8844 139.586, 65.8076 137.243 C 60.7308 134.899, 60.7308 131.101, 65.8076 128.757 C 70.8844 126.414, 79.1156 126.414, 84.1924 128.757" fill="#ffca00" fill-opacity="0.501961" />
<path d="M 68 151 L 89 151 L 89 154 L 68 154 Z" fill="#435b4e" fill-opacity="0.501961" />
<path d="M 145.536 132.293 C 147.488 132.683, 147.488 133.317, 145.536 133.707 C 143.583 134.098, 140.417 134.098, 138.464 133.707 C 136.512 133.317, 136.512 132.683, 138.464 132.293 C 140.417 131.902, 143.583 131.902, 145.536 132.293" fill="#111844" fill-opacity="0.501961" />
<path d="M 108.828 137.393 C 110.391 143.251, 110.391 152.749, 108.828 158.607 C 107.266 164.464, 104.734 164.464, 103.172 158.607 C 101.609 152.749, 101.609 143.251, 103.172 137.393 C 104.734 131.536, 107.266 131.536, 108.828 137.393" fill="#0082e3" fill-opacity="0.501961" />
<path d="M 255 0 L 255 0 L 255 117 L 255 117 Z" fill="#000000" fill-opacity="0.501961" />
<path d="M 235.775 65.4318 L 222.6 88.9634 L 214.159 84.0223 L 114.632 2.439 Z" fill="#ffe957" fill-opacity="0.501961" />
<path d="M 246 62 L 253 -16 L 188 6 Z" fill="#000000" fill-opacity="0.501961" />
<path d="M 214 223 L 168 229 L 219 202 Z" fill="#ffd212" fill-opacity="0.501961" />
<path d="M 136 83 L 46 83 L 46 93 L 136 93 Z" fill="#444b67" fill-opacity="0.501961" />
<path d="M 229.907 73.2696 L 261.381 124.664 L 233.239 201.768 L 219.495 217.022 Z" fill="#ffd112" fill-opacity="0.501961" />
<path d="M 91 95 L 125 95 L 125 129 L 91 129 Z" fill="#ccf5ff" fill-opacity="0.501961" />
<path d="M 232.237 62.8161 L 261.336 151.305 L 252.472 98.0128 L 244.697 74.7494 Z" fill="#ffcb0b" fill-opacity="0.501961" />
<path d="M 109.828 132.586 C 111.391 133.367, 111.391 134.633, 109.828 135.414 C 108.266 136.195, 105.734 136.195, 104.172 135.414 C 102.609 134.633, 102.609 133.367, 104.172 132.586 C 105.734 131.805, 108.266 131.805, 109.828 132.586" fill="#881500" fill-opacity="0.501961" />
<path d="M 176.197 1.50215 L 174.644 7.2977 L 141.803 -1.50215 L 143.356 -7.2977 Z" fill="#000000" fill-opacity="0.501961" />
<path d="M 7.20435 83.1411 L -3.30223 115.477 L -5.20435 114.859 L 5.30223 82.523 Z" fill="#000000" fill-opacity="0.501961" />
<path d="M 271 -16 L 255.146 105.77 L 245.497 72.5383 L 228.681 47.4782 Z" fill="#000000" fill-opacity="0.501961" />
<path d="M 39.4077 220.055 L 22.2293 200.302 L 13.6149 181.023 L 82.186 241.539 Z" fill="#ffd113" fill-opacity="0.501961" />
<path d="M 213 93 L 220 93 L 220 164 L 213 164 Z" fill="#525e88" fill-opacity="0.501961" />
<path d="M 123 150 L 202 150 L 202 158 L 123 158 Z" fill="#ffffff" fill-opacity="0.501961" />
<path d="M 211 224 L 176 245 L 153 206 Z" fill="#ffd112" fill-opacity="0.501961" />
</g>
</svg>
