<svg version="1.1" width="128" height="128" xmlns="http://www.w3.org/2000/svg">
<rect x="0" y="0" width="128" height="128" fill="#1c162a" />
<g transform="scale(0.5, 0.5)">
<path d="M 159.527 7.09693 C 177.491 51.2262, 177.491 122.774, 159.527 166.903 C 141.563 211.032, 112.437 211.032, 94.4731 166.903 C 76.509 122.774, 76.509 51.2262, 94.4731 7.09693 C 112.437 -37.0323, 141.563 -37.0323, 159.527 7.09693" fill="#a97df8" fill-opacity="0.501961" />
<path d="M 70.1127 -95.3122 C 87.2958 4.27147, 87.2958 165.729, 70.1127 265.312 C 52.9296 364.896, 25.0704 364.896, 7.8873 265.312 C -9.29577 165.729, -9.29577 4.27147, 7.8873 -95.3122 C 25.0704 -194.896, 52.9296 -194.896, 70.1127 -95.3122" fill="#000000" fill-opacity="0.501961" />
<path d="M 247.821 221.915 C 233.641 318.786, 206.828 319.442, 187.933 223.379 C 169.038 127.316, 165.216 -29.088, 179.396 -125.959 C 193.576 -222.83, 220.389 -223.485, 239.285 -127.423 C 258.18 -31.3597, 262.002 125.044, 247.821 221.915" fill="#000000" fill-opacity="0.501961" />
<path d="M 203 166 L 182 199 L 195 114 Z" fill="#778bb3" fill-opacity="0.501961" />
<path d="M -57.7378 225.31 C -38.8277 126.098, 17.435 -25.2395, 67.9285 -112.71 C 118.422 -200.181, 144.025 -190.663, 125.115 -91.45 C 106.205 7.76268, 49.9424 159.1, -0.551063 246.571 C -51.0445 334.042, -76.6479 324.523, -57.7378 225.31" fill="#000000" fill-opacity="0.501961" />
<path d="M 148.92 247.757 C 161.027 250.101, 161.027 253.899, 148.92 256.243 C 136.814 258.586, 117.186 258.586, 105.08 256.243 C 92.9734 253.899, 92.9734 250.101, 105.08 247.757 C 117.186 245.414, 136.814 245.414, 148.92 247.757" fill="#8ca7d3" fill-opacity="0.501961" />
<path d="M 55.6785 122.929 L 61.5885 120.941 L 73.8433 200.39 L 58.8338 174.499 Z" fill="#8499c6" fill-opacity="0.501961" />
<path d="M 176.269 132.926 L 138.015 100.979 L 142.149 195.694 L 167.098 177.178 Z" fill="#795cad" fill-opacity="0.501961" />
<path d="M 147.181 -16 L 243.863 261.175 L 260.191 255.588 L 255.854 -16 Z" fill="#000000" fill-opacity="0.501961" />
<path d="M 95 213 L 161 214 L 126 226 Z" fill="#809ac1" fill-opacity="0.501961" />
<path d="M 0 147 L 1 271 L 127 240 Z" fill="#000000" fill-opacity="0.501961" />
<path d="M 271 252 L 151 271 L 214 133 Z" fill="#000000" fill-opacity="0.501961" />
<path d="M 7.36035 6.32747 C -48.8335 3.58949, -48.8239 -0.643443, 7.38175 -3.12705 C 63.5874 -5.61065, 154.705 -5.40443, 210.899 -2.66645 C 267.093 0.0715263, 267.083 4.30446, 210.878 6.78806 C 154.672 9.27166, 63.5542 9.06545, 7.36035 6.32747" fill="#000000" fill-opacity="0.501961" />
<path d="M 181.233 201.762 L 195.967 167.942 L 174.972 194.779 L 135.99 229.548 Z" fill="#6e83a6" fill-opacity="0.501961" />
<path d="M 86 167 L 107 192 L 83 125 Z" fill="#8964d6" fill-opacity="0.501961" />
<path d="M 126 217 L 169 197 L 79 193 Z" fill="#000000" fill-opacity="0.501961" />
<path d="M 61.4124 173.882 L 62.0443 165.169 L 75.4692 204.76 L 109.449 223.058 Z" fill="#7388ae" fill-opacity="0.501961" />
<path d="M 271 254 L 129 244 L 271 127 Z" fill="#000000" fill-opacity="0.501961" />
<path d="M 124 216 L 132 216 L 132 251 L 124 251 Z" fill="#7387ae" fill-opacity="0.501961" />
<path d="M 172 59 L 95 -16 L 172 20 Z" fill="#6d52a3" fill-opacity="0.501961" />
<path d="M 112.14 25.2223 C 120.56 19.4157, 122.411 21.3417, 116.275 29.5242 C 110.139 37.7066, 98.3401 49.0469, 89.9209 54.8535 C 81.5017 60.6601, 79.6505 58.7341, 85.7863 50.5517 C 91.922 42.3692, 103.721 31.0289, 112.14 25.2223" fill="#ac8cc2" fill-opacity="0.501961" />
<path d="M 169.295 113.552 L 162.3 107.888 L 166.705 102.448 L 173.7 108.112 Z" fill="#fff9ff" fill-opacity="0.501961" />
<path d="M 116.828 50.1716 C 118.391 51.7337, 118.391 54.2663, 116.828 55.8284 C 115.266 57.3905, 112.734 57.3905, 111.172 55.8284 C 109.609 54.2663, 109.609 51.7337, 111.172 50.1716 C 112.734 48.6095, 115.266 48.6095, 116.828 50.1716" fill="#ffffff" fill-opacity="0.501961" />
<path d="M 155.889 62.9295 L 159.775 66.0761 L 154.111 73.0705 L 150.225 69.9239 Z" fill="#ffffff" fill-opacity="0.501961" />
<path d="M 116.828 158.172 C 118.391 159.734, 118.391 162.266, 116.828 163.828 C 115.266 165.391, 112.734 165.391, 111.172 163.828 C 109.609 162.266, 109.609 159.734, 111.172 158.172 C 112.734 156.609, 115.266 156.609, 116.828 158.172" fill="#ffffff" fill-opacity="0.501961" />
<path d="M 102.828 171.464 C 104.391 173.417, 104.391 176.583, 102.828 178.536 C 101.266 180.488, 98.7337 180.488, 97.1716 178.536 C 95.6095 176.583, 95.6095 173.417, 97.1716 171.464 C 98.7337 169.512, 101.266 169.512, 102.828 171.464" fill="#ffffff" fill-opacity="0.501961" />
<path d="M 110.937 112.344 L 110.101 104.388 L 117.063 103.656 L 117.899 111.612 Z" fill="#ffffff" fill-opacity="0.501961" />
<path d="M 171.536 50.4645 C 173.488 52.4171, 173.488 55.5829, 171.536 57.5355 C 169.583 59.4882, 166.417 59.4882, 164.464 57.5355 C 162.512 55.5829, 162.512 52.4171, 164.464 50.4645 C 166.417 48.5118, 169.583 48.5118, 171.536 50.4645" fill="#ffe5fe" fill-opacity="0.501961" />
<path d="M 139.169 23.9311 C 140.995 22.4419, 143.553 22.812, 144.882 24.7578 C 146.211 26.7037, 145.808 29.4884, 143.982 30.9776 C 142.156 32.4669, 139.598 32.0968, 138.269 30.1509 C 136.94 28.2051, 137.343 25.4204, 139.169 23.9311" fill="#fff6ff" fill-opacity="0.501961" />
<path d="M 96.6666 90.3638 L 104.636 89.6666 L 105.333 97.6362 L 97.3638 98.3334 Z" fill="#fffcff" fill-opacity="0.501961" />
<path d="M 111 184 L 117 184 L 117 191 L 111 191 Z" fill="#ffffff" fill-opacity="0.501961" />
<path d="M 125.187 43.5435 C 123.208 41.834, 123.238 39.0975, 125.254 37.4315 C 127.27 35.7655, 130.509 35.8007, 132.488 37.5103 C 134.467 39.2198, 134.438 41.9562, 132.422 43.6222 C 130.406 45.2883, 127.167 45.253, 125.187 43.5435" fill="#ffdbf8" fill-opacity="0.501961" />
<path d="M 130.828 62.4645 C 132.391 64.4171, 132.391 67.5829, 130.828 69.5355 C 129.266 71.4882, 126.734 71.4882, 125.172 69.5355 C 123.609 67.5829, 123.609 64.4171, 125.172 62.4645 C 126.734 60.5118, 129.266 60.5118, 130.828 62.4645" fill="#fffaff" fill-opacity="0.501961" />
<path d="M 82 50 L 88 18 L 148 -15 Z" fill="#462e8d" fill-opacity="0.501961" />
<path d="M 260 140 L 135 -16 L 271 29 Z" fill="#000000" fill-opacity="0.501961" />
<path d="M 70.4379 32.0146 L 116.515 -0.775768 L -16 -4.76198 L 36.296 271 Z" fill="#000000" fill-opacity="0.501961" />
<path d="M 110 132 L 118 132 L 118 138 L 110 138 Z" fill="#fff8ff" fill-opacity="0.501961" />
<path d="M 129.828 144.172 C 131.391 145.734, 131.391 148.266, 129.828 149.828 C 128.266 151.391, 125.734 151.391, 124.172 149.828 C 122.609 148.266, 122.609 145.734, 124.172 144.172 C 125.734 142.609, 128.266 142.609, 129.828 144.172" fill="#ffffff" fill-opacity="0.501961" />
<path d="M 103.828 117.172 C 105.391 118.734, 105.391 121.266, 103.828 122.828 C 102.266 124.391, 99.7337 124.391, 98.1716 122.828 C 96.6095 121.266, 96.6095 118.734, 98.1716 117.172 C 99.7337 115.609, 102.266 115.609, 103.828 117.172" fill="#ffffff" fill-opacity="0.501961" />
<path d="M 140.378 85.11 L 136.332 82.1711 L 141.622 74.89 L 145.668 77.8289 Z" fill="#fffbff" fill-opacity="0.501961" />
<path d="M 171.49 197.604 C 162.676 206.224, 157.039 203.332, 158.9 191.145 C 160.76 178.958, 169.413 162.092, 178.227 153.472 C 187.041 144.853, 192.677 147.744, 190.817 159.931 C 188.956 172.118, 180.303 188.985, 171.49 197.604" fill="#000000" fill-opacity="0.501961" />
<path d="M 129 125 L 132 114 L 123 122 Z" fill="#ffeeff" fill-opacity="0.501961" />
<path d="M 83.1801 110.832 L 88.6265 102.445 L 92.8199 105.168 L 87.3735 113.555 Z" fill="#ffffff" fill-opacity="0.501961" />
<path d="M 150.295 43.8113 L 150.714 35.8223 L 157.705 36.1887 L 157.286 44.1777 Z" fill="#ffffff" fill-opacity="0.501961" />
<path d="M 123.752 173.052 C 124.17 170.868, 126.008 170.098, 127.858 171.332 C 129.708 172.567, 130.87 175.338, 130.452 177.523 C 130.035 179.708, 128.196 180.478, 126.346 179.243 C 124.496 178.009, 123.335 175.237, 123.752 173.052" fill="#fff5ff" fill-opacity="0.501961" />
<path d="M 85 131 L 91 131 L 91 137 L 85 137 Z" fill="#ffffff" fill-opacity="0.501961" />
<path d="M 99.2182 64.0577 C 101.017 62.4755, 103.41 62.8952, 104.563 64.995 C 105.716 67.0948, 105.193 70.0797, 103.394 71.6619 C 101.595 73.244, 99.202 72.8244, 98.049 70.7245 C 96.896 68.6247, 97.4194 65.6398, 99.2182 64.0577" fill="#fff2ff" fill-opacity="0.501961" />
<path d="M 91.5355 76.4645 C 93.4882 78.4171, 93.4882 81.5829, 91.5355 83.5355 C 89.5829 85.4882, 86.4171 85.4882, 84.4645 83.5355 C 82.5118 81.5829, 82.5118 78.4171, 84.4645 76.4645 C 86.4171 74.5118, 89.5829 74.5118, 91.5355 76.4645" fill="#ffe0fb" fill-opacity="0.501961" />
<path d="M 103.828 144.172 C 105.391 145.734, 105.391 148.266, 103.828 149.828 C 102.266 151.391, 99.7337 151.391, 98.1716 149.828 C 96.6095 148.266, 96.6095 145.734, 98.1716 144.172 C 99.7337 142.609, 102.266 142.609, 103.828 144.172" fill="#ffffff" fill-opacity="0.501961" />
<path d="M 157.828 90.1716 C 159.391 91.7337, 159.391 94.2663, 157.828 95.8284 C 156.266 97.3905, 153.734 97.3905, 152.172 95.8284 C 150.609 94.2663, 150.609 91.7337, 152.172 90.1716 C 153.734 88.6095, 156.266 88.6095, 157.828 90.1716" fill="#ffffff" fill-opacity="0.501961" />
<path d="M 157.828 170.464 C 159.391 172.417, 159.391 175.583, 157.828 177.536 C 156.266 179.488, 153.734 179.488, 152.172 177.536 C 150.609 175.583, 150.609 172.417, 152.172 170.464 C 153.734 168.512, 156.266 168.512, 157.828 170.464" fill="#fffdff" fill-opacity="0.501961" />
<path d="M 170.171 139.869 C 168.194 140.777, 166.2 139.793, 165.718 137.672 C 165.235 135.551, 166.447 133.095, 168.424 132.187 C 170.401 131.28, 172.395 132.263, 172.877 134.385 C 173.36 136.506, 172.148 138.961, 170.171 139.869" fill="#ffe7ff" fill-opacity="0.501961" />
<path d="M 74.2841 163.943 C 83.913 170.861, 96.8827 184.576, 103.253 194.577 C 109.623 204.577, 106.981 207.075, 97.3518 200.157 C 87.7229 193.238, 74.7533 179.523, 68.3833 169.523 C 62.0134 159.522, 64.6553 157.024, 74.2841 163.943" fill="#000000" fill-opacity="0.501961" />
<path d="M 138 131 L 144 131 L 144 137 L 138 137 Z" fill="#ffffff" fill-opacity="0.501961" />
<path d="M 145.178 191.286 L 137.189 191.705 L 136.822 184.714 L 144.811 184.295 Z" fill="#ffffff" fill-opacity="0.501961" />
<path d="M 143.828 158.172 C 145.391 159.734, 145.391 162.266, 143.828 163.828 C 142.266 165.391, 139.734 165.391, 138.172 163.828 C 136.609 162.266, 136.609 159.734, 138.172 158.172 C 139.734 156.609, 142.266 156.609, 143.828 158.172" fill="#ffffff" fill-opacity="0.501961" />
<path d="M 121.478 79.0022 L 115.185 86.7737 L 110.522 82.9978 L 116.815 75.2263 Z" fill="#ffe0fc" fill-opacity="0.501961" />
<path d="M 129.902 8.48793 L 133.759 13.0842 L 126.098 19.5121 L 122.241 14.9158 Z" fill="#fff6ff" fill-opacity="0.501961" />
<path d="M 138 50 L 145 50 L 145 58 L 138 58 Z" fill="#ffebff" fill-opacity="0.501961" />
<path d="M 173 25 L 189 25 L 189 164 L 173 164 Z" fill="#000000" fill-opacity="0.501961" />
<path d="M 126.227 100.418 L 122.312 94.6147 L 129.773 89.582 L 133.688 95.3853 Z" fill="#fff6ff" fill-opacity="0.501961" />
<path d="M 174.376 80.5944 L 170.519 85.1907 L 163.624 79.4056 L 167.481 74.8093 Z" fill="#ffedff" fill-opacity="0.501961" />
<path d="M 173.677 109.164 L 174.174 124.066 L 121.966 174.378 L 88.647 193.577 Z" fill="#392677" fill-opacity="0.501961" />
<path d="M 240.713 182.651 L 152.966 220.141 L 129.299 227.927 L 189.102 271 Z" fill="#000000" fill-opacity="0.501961" />
<path d="M 144.828 103.464 C 146.391 105.417, 146.391 108.583, 144.828 110.536 C 143.266 112.488, 140.734 112.488, 139.172 110.536 C 137.609 108.583, 137.609 105.417, 139.172 103.464 C 140.734 101.512, 143.266 101.512, 144.828 103.464" fill="#fff1ff" fill-opacity="0.501961" />
<path d="M 130.394 170.891 L 172.23 171.407 L 80.5016 81.2677 L 148.439 164.256 Z" fill="#3c277d" fill-opacity="0.501961" />
<path d="M 84.7609 45.3416 L 84.6365 27.3787 L 83.5518 25.8334 L 172.546 133.303 Z" fill="#402b81" fill-opacity="0.501961" />
<path d="M 83 51 L 90 51 L 90 57 L 83 57 Z" fill="#fff0ff" fill-opacity="0.501961" />
<path d="M 94.9706 216.029 C 104.343 225.402, 104.343 240.598, 94.9706 249.971 C 85.598 259.343, 70.402 259.343, 61.0294 249.971 C 51.6569 240.598, 51.6569 225.402, 61.0294 216.029 C 70.402 206.657, 85.598 206.657, 94.9706 216.029" fill="#000000" fill-opacity="0.501961" />
<path d="M 107.371 91.3432 C 95.34 76.1336, 97.5235 74.0344, 112.248 86.6543 C 126.972 99.2742, 148.662 121.834, 160.692 137.044 C 172.723 152.253, 170.54 154.353, 155.815 141.733 C 141.091 129.113, 119.402 106.553, 107.371 91.3432" fill="#38247a" fill-opacity="0.501961" />
<path d="M 82.1792 177.035 C 92.004 181.247, 104.533 192.027, 110.162 201.114 C 115.792 210.201, 112.392 214.153, 102.567 209.941 C 92.7421 205.729, 80.2136 194.949, 74.5836 185.862 C 68.9537 176.775, 72.3544 172.823, 82.1792 177.035" fill="#000000" fill-opacity="0.501961" />
<path d="M 171.486 28.9838 L 161.761 39.0545 L 126.514 5.01625 L 136.239 -5.05451 Z" fill="#3c277e" fill-opacity="0.501961" />
<path d="M 155.597 152.088 C 153.302 152.388, 150.966 150.816, 150.381 148.576 C 149.796 146.337, 151.182 144.278, 153.477 143.978 C 155.772 143.678, 158.107 145.25, 158.692 147.49 C 159.278 149.729, 157.892 151.788, 155.597 152.088" fill="#fff5ff" fill-opacity="0.501961" />
<path d="M 200 115 L 255 115 L 255 255 L 200 255 Z" fill="#000000" fill-opacity="0.501961" />
<path d="M 197.793 136.612 C 195.53 139.668, 192.453 139.324, 190.92 135.845 C 189.387 132.365, 189.979 127.067, 192.242 124.011 C 194.505 120.955, 197.582 121.299, 199.115 124.779 C 200.648 128.259, 200.056 133.557, 197.793 136.612" fill="#6e7da5" fill-opacity="0.501961" />
<path d="M 75.1654 123.628 L 82.6074 130.747 L 84.6983 15.4169 L -16 107.122 Z" fill="#000000" fill-opacity="0.501961" />
<path d="M 156.828 116.464 C 158.391 118.417, 158.391 121.583, 156.828 123.536 C 155.266 125.488, 152.734 125.488, 151.172 123.536 C 149.609 121.583, 149.609 118.417, 151.172 116.464 C 152.734 114.512, 155.266 114.512, 156.828 116.464" fill="#fff5ff" fill-opacity="0.501961" />
<path d="M 63.5355 125.858 C 65.4882 133.668, 65.4882 146.332, 63.5355 154.142 C 61.5829 161.953, 58.4171 161.953, 56.4645 154.142 C 54.5118 146.332, 54.5118 133.668, 56.4645 125.858 C 58.4171 118.047, 61.5829 118.047, 63.5355 125.858" fill="#647398" fill-opacity="0.501961" />
<path d="M 139 214 L 178 192 L 95 201 Z" fill="#000000" fill-opacity="0.501961" />
<path d="M 0 223 L 122 223 L 122 240 L 0 240 Z" fill="#000000" fill-opacity="0.501961" />
<path d="M 86.1866 210.886 C 81.9198 206.695, 83.2804 203.825, 89.2256 204.476 C 95.1707 205.126, 103.449 209.051, 107.716 213.241 C 111.983 217.432, 110.622 220.302, 104.677 219.652 C 98.7318 219.001, 90.4533 215.077, 86.1866 210.886" fill="#5d6c8c" fill-opacity="0.501961" />
<path d="M 174.171 207.622 C 165.726 212.269, 151.314 217.989, 141.981 220.398 C 132.647 222.807, 131.927 220.992, 140.372 216.345 C 148.817 211.698, 163.229 205.978, 172.563 203.569 C 181.896 201.16, 182.616 202.975, 174.171 207.622" fill="#606f91" fill-opacity="0.501961" />
<path d="M 85.5694 30.573 L 88.174 23.0088 L 118.431 33.427 L 115.826 40.9912 Z" fill="#3d287f" fill-opacity="0.501961" />
<path d="M 147.292 201.501 L 81.4868 156.055 L 114.508 114.737 L 95.7698 150.143 Z" fill="#3c287b" fill-opacity="0.501961" />
<path d="M 172.294 153.382 C 173.055 160.451, 170.336 170.882, 166.223 176.68 C 162.11 182.479, 158.159 181.449, 157.399 174.381 C 156.639 167.312, 159.357 156.881, 163.47 151.083 C 167.583 145.284, 171.534 146.314, 172.294 153.382" fill="#543999" fill-opacity="0.501961" />
<path d="M 173.159 42.8191 L 168.372 33.433 L 103.164 97.9771 L 85.6108 129.455 Z" fill="#402a81" fill-opacity="0.501961" />
<path d="M 93 75 L 88 100 L 134 55 Z" fill="#422c81" fill-opacity="0.501961" />
<path d="M 118.516 23.1074 L 116.303 30.8397 L 112.603 32.5446 L 108.965 23.8328 Z" fill="#f6ceee" fill-opacity="0.501961" />
<path d="M 65 165 L 82 165 L 82 0 L 65 0 Z" fill="#000000" fill-opacity="0.501961" />
<path d="M 126.572 141.807 L 160.779 110.175 L 134.724 91.8565 L 175.952 53.766 Z" fill="#442e81" fill-opacity="0.501961" />
<path d="M 133 31 L 147 31 L 147 49 L 133 49 Z" fill="#3a257d" fill-opacity="0.501961" />
<path d="M 151 92 L 152 96 L 161 98 Z" fill="#ffdafa" fill-opacity="0.501961" />
<path d="M 107 -16 L 271 8 L 271 65 Z" fill="#000000" fill-opacity="0.501961" />
<path d="M 98 35 L 103 35 L 103 44 L 98 44 Z" fill="#ffd7f4" fill-opacity="0.501961" />
<path d="M 186 151 L 172 196 L 136 214 Z" fill="#000000" fill-opacity="0.501961" />
<path d="M 83.0305 107.541 L 88.3735 129.651 L 163.889 197.996 L 140.937 168.604 Z" fill="#412b7e" fill-opacity="0.501961" />
<path d="M 116.905 -10.0037 L -16 8.71351 L 58.8111 271 L 53.7246 62.4201 Z" fill="#000000" fill-opacity="0.501961" />
<path d="M 133.863 148.226 L 126.315 153.128 L 124.137 149.774 L 131.685 144.872 Z" fill="#fec8f0" fill-opacity="0.501961" />
<path d="M 174.326 106.002 L 131.314 65.0595 L 93.8017 27.5818 L 140.999 57.7078 Z" fill="#432d81" fill-opacity="0.501961" />
<path d="M 137.843 242.601 C 131.269 239.513, 130.027 232.772, 135.069 227.544 C 140.11 222.317, 149.526 220.582, 156.1 223.67 C 162.674 226.757, 163.915 233.498, 158.874 238.726 C 153.832 243.954, 144.416 245.688, 137.843 242.601" fill="#000000" fill-opacity="0.501961" />
<path d="M 165 130 L 171 130 L 171 136 L 165 136 Z" fill="#ffd9f9" fill-opacity="0.501961" />
<path d="M 69 171 L 64 108 L 99 202 Z" fill="#000000" fill-opacity="0.501961" />
<path d="M 187.507 184.049 L 189.479 191.709 L 199.501 164.65 L 197.04 119.208 Z" fill="#5e698d" fill-opacity="0.501961" />
<path d="M 109 15 L 134 38 L 139 20 Z" fill="#3f2a7f" fill-opacity="0.501961" />
<path d="M 139 78 L 144 78 L 144 84 L 139 84 Z" fill="#ffd4f8" fill-opacity="0.501961" />
<path d="M 173 12 L 216 12 L 216 120 L 173 120 Z" fill="#000000" fill-opacity="0.501961" />
<path d="M -6.52785 271 L 118.166 243.494 L 71.5831 197.784 L -16 59.7912 Z" fill="#000000" fill-opacity="0.501961" />
<path d="M 85.0196 210.581 L 66.7266 190.399 L 53.4898 150.959 L 65.2729 164.436 Z" fill="#586486" fill-opacity="0.501961" />
<path d="M 175.833 271 L 271 102.879 L 204.64 -16 L 199.808 158.237 Z" fill="#000000" fill-opacity="0.501961" />
<path d="M 109.409 81.4054 L 113.814 75.9653 L 114.591 76.5946 L 110.186 82.0347 Z" fill="#ffe8ff" fill-opacity="0.501961" />
<path d="M 103 247 L 158 247 L 158 255 L 103 255 Z" fill="#556180" fill-opacity="0.501961" />
<path d="M 110.041 195.511 L 89.1803 175.366 L 91.9589 172.489 L 112.82 192.634 Z" fill="#543998" fill-opacity="0.501961" />
<path d="M 131 117 L 125 117 L 125 122 L 131 122 Z" fill="#ffd1f3" fill-opacity="0.501961" />
<path d="M 126 215 L 162 205 L 187 159 Z" fill="#000000" fill-opacity="0.501961" />
<path d="M 130.121 170.879 C 131.293 172.05, 131.293 173.95, 130.121 175.121 C 128.95 176.293, 127.05 176.293, 125.879 175.121 C 124.707 173.95, 124.707 172.05, 125.879 170.879 C 127.05 169.707, 128.95 169.707, 130.121 170.879" fill="#ffdffe" fill-opacity="0.501961" />
<path d="M 101 123 L 97 123 L 97 118 L 101 118 Z" fill="#ffd1f7" fill-opacity="0.501961" />
<path d="M 144.173 103.508 L 173.612 99.9173 L 129.752 67.7848 L 174.043 90.7731 Z" fill="#483183" fill-opacity="0.501961" />
<path d="M 168.969 211.814 C 163.328 215.173, 161.098 213.117, 163.987 207.221 C 166.877 201.326, 173.793 193.824, 179.434 190.465 C 185.075 187.106, 187.306 189.163, 184.416 195.058 C 181.526 200.953, 174.611 208.455, 168.969 211.814" fill="#566281" fill-opacity="0.501961" />
<path d="M 126.426 71.6819 L 122.54 68.5353 L 127.574 62.3181 L 131.46 65.4647 Z" fill="#ffcdf4" fill-opacity="0.501961" />
<path d="M 146.807 -28.3125 L 169.986 -37.6777 L 211.193 64.3125 L 188.014 73.6777 Z" fill="#000000" fill-opacity="0.501961" />
<path d="M 173 60 L 145 50 L 171 75 Z" fill="#412c82" fill-opacity="0.501961" />
<path d="M 127.425 215.8 L 149.029 211.901 L 87.4921 181.557 L 97.9479 208.114 Z" fill="#000000" fill-opacity="0.501961" />
<path d="M 151.335 179.879 C 164.222 181.05, 164.222 182.95, 151.335 184.121 C 138.447 185.293, 117.553 185.293, 104.665 184.121 C 91.7782 182.95, 91.7782 181.05, 104.665 179.879 C 117.553 178.707, 138.447 178.707, 151.335 179.879" fill="#452f85" fill-opacity="0.501961" />
<path d="M 83 50 L 130 4 L 87 27 Z" fill="#513a89" fill-opacity="0.501961" />
<path d="M 168.69 24.2593 L 168.627 26.4026 L 133.987 49.3813 L 157.557 10.633 Z" fill="#4b3484" fill-opacity="0.501961" />
<path d="M 83 132 L 91 132 L 91 137 L 83 137 Z" fill="#f9c1e9" fill-opacity="0.501961" />
<path d="M 163 35 L 159 35 L 159 168 L 163 168 Z" fill="#463081" fill-opacity="0.501961" />
<path d="M 169.828 78.1716 C 171.391 79.7337, 171.391 82.2663, 169.828 83.8284 C 168.266 85.3905, 165.734 85.3905, 164.172 83.8284 C 162.609 82.2663, 162.609 79.7337, 164.172 78.1716 C 165.734 76.6095, 168.266 76.6095, 169.828 78.1716" fill="#ffcff1" fill-opacity="0.501961" />
<path d="M 105.243 150.23 L 102.949 153.506 L 94.7571 147.77 L 97.0514 144.494 Z" fill="#f4c1eb" fill-opacity="0.501961" />
<path d="M 173 111 L 190 111 L 190 154 L 173 154 Z" fill="#000000" fill-opacity="0.501961" />
<path d="M 97.1461 84.9783 L 157.232 142.008 L 81.0254 51.5926 L 88.3441 75.3769 Z" fill="#4b3485" fill-opacity="0.501961" />
<path d="M 93.7782 247.222 C 98.0739 251.518, 98.0739 258.482, 93.7782 262.778 C 89.4824 267.074, 82.5176 267.074, 78.2218 262.778 C 73.9261 258.482, 73.9261 251.518, 78.2218 247.222 C 82.5176 242.926, 89.4824 242.926, 93.7782 247.222" fill="#000000" fill-opacity="0.501961" />
<path d="M 81.4618 160.124 L 126.23 99.7661 L 155.341 80.6825 L 150.531 91.1157 Z" fill="#483284" fill-opacity="0.501961" />
<path d="M 173.875 87.4082 L 131.774 139.464 L 86.3317 180.103 L 121.324 132.961 Z" fill="#463082" fill-opacity="0.501961" />
<path d="M 123.253 241.198 C 122.931 236.495, 124.583 229.372, 126.943 225.29 C 129.303 221.208, 131.477 221.713, 131.799 226.417 C 132.12 231.121, 130.468 238.243, 128.108 242.325 C 125.748 246.407, 123.574 245.902, 123.253 241.198" fill="#5d6a8c" fill-opacity="0.501961" />
<path d="M 99 119 L 103 119 L 103 125 L 99 125 Z" fill="#f6c4ea" fill-opacity="0.501961" />
<path d="M 84 104 L 90 104 L 90 110 L 84 110 Z" fill="#ffcff7" fill-opacity="0.501961" />
<path d="M 69.6365 20.8742 L 67.2922 15.3512 L 124.363 -8.87418 L 126.708 -3.35115 Z" fill="#000000" fill-opacity="0.501961" />
<path d="M 162.785 213.908 L 130.605 221.776 L 188.319 192.31 L 200.711 156.288 Z" fill="#556080" fill-opacity="0.501961" />
<path d="M 116.828 52.1716 C 118.391 53.7337, 118.391 56.2663, 116.828 57.8284 C 115.266 59.3905, 112.734 59.3905, 111.172 57.8284 C 109.609 56.2663, 109.609 53.7337, 111.172 52.1716 C 112.734 50.6095, 115.266 50.6095, 116.828 52.1716" fill="#f6c0eb" fill-opacity="0.501961" />
<path d="M 102.828 63.1716 C 104.391 64.7337, 104.391 67.2663, 102.828 68.8284 C 101.266 70.3905, 98.7337 70.3905, 97.1716 68.8284 C 95.6095 67.2663, 95.6095 64.7337, 97.1716 63.1716 C 98.7337 61.6095, 101.266 61.6095, 102.828 63.1716" fill="#ffcbf0" fill-opacity="0.501961" />
<path d="M 111.958 258.647 C 113.321 262.906, 111.19 264.725, 107.198 262.711 C 103.206 260.696, 98.8648 255.611, 97.5013 251.353 C 96.1379 247.094, 98.2687 245.275, 102.261 247.289 C 106.253 249.304, 110.594 254.389, 111.958 258.647" fill="#556180" fill-opacity="0.501961" />
<path d="M 150 65 L 158 65 L 158 70 L 150 70 Z" fill="#f5beea" fill-opacity="0.501961" />
<path d="M 177.07 137.252 L 115.551 193.673 L 136.343 196.513 L 135.684 190.592 Z" fill="#442f80" fill-opacity="0.501961" />
<path d="M 166.893 173.617 L 160.598 185.017 L 154.492 189.038 L 135.776 198.114 Z" fill="#4b3485" fill-opacity="0.501961" />
<path d="M 107 120 L 85 165 L 83 145 Z" fill="#4c3589" fill-opacity="0.501961" />
<path d="M 191 123 L 199 123 L 199 155 L 191 155 Z" fill="#596586" fill-opacity="0.501961" />
<path d="M 138 184 L 143 184 L 143 192 L 138 192 Z" fill="#fac2eb" fill-opacity="0.501961" />
<path d="M 114.787 1.89695 L 158.842 61.0296 L 102.51 9.04617 L 104.444 7.72209 Z" fill="#4e3788" fill-opacity="0.501961" />
<path d="M 127.399 62.968 L 83.9211 62.3646 L 125.71 41.6012 L 83.9475 45.9753 Z" fill="#463083" fill-opacity="0.501961" />
<path d="M 89.3474 71.5289 L 132.206 16.634 L 132.679 -0.386843 L 153.661 7.57664 Z" fill="#4a3385" fill-opacity="0.501961" />
<path d="M 109.987 159.93 L 116.881 161.146 L 116.013 166.07 L 109.119 164.854 Z" fill="#fcc5ee" fill-opacity="0.501961" />
<path d="M 111 187 L 118 187 L 118 192 L 111 192 Z" fill="#f7c0eb" fill-opacity="0.501961" />
<path d="M 155.828 90.1716 C 157.391 91.7337, 157.391 94.2663, 155.828 95.8284 C 154.266 97.3905, 151.734 97.3905, 150.172 95.8284 C 148.609 94.2663, 148.609 91.7337, 150.172 90.1716 C 151.734 88.6095, 154.266 88.6095, 155.828 90.1716" fill="#f0bde6" fill-opacity="0.501961" />
<path d="M 113.86 128.345 L 110.916 134.298 L 115.14 138.756 L 119.455 133.609 Z" fill="#e8b4e2" fill-opacity="0.501961" />
<path d="M 80 224 L 121 224 L 121 245 L 80 245 Z" fill="#000000" fill-opacity="0.501961" />
<path d="M 90.3375 90.7708 L 111.32 113.176 L 128.646 137.972 L 107.812 126.364 Z" fill="#4b3486" fill-opacity="0.501961" />
<path d="M 108 221 L 91 206 L 132 219 Z" fill="#586485" fill-opacity="0.501961" />
<path d="M 157.536 173.172 C 159.488 174.734, 159.488 177.266, 157.536 178.828 C 155.583 180.391, 152.417 180.391, 150.464 178.828 C 148.512 177.266, 148.512 174.734, 150.464 173.172 C 152.417 171.609, 155.583 171.609, 157.536 173.172" fill="#e6b3e1" fill-opacity="0.501961" />
<path d="M 241.888 195.638 L 152.721 258.348 L 232.168 267.234 L 133.768 225.822 Z" fill="#000000" fill-opacity="0.501961" />
<path d="M 120.483 24.4406 L 117.861 30.9309 L 109.517 27.5594 L 112.139 21.0691 Z" fill="#e9c1e5" fill-opacity="0.501961" />
<path d="M 94 72 L 171 72 L 171 76 L 94 76 Z" fill="#4a3385" fill-opacity="0.501961" />
<path d="M 131.121 173.879 C 132.293 175.05, 132.293 176.95, 131.121 178.121 C 129.95 179.293, 128.05 179.293, 126.879 178.121 C 125.707 176.95, 125.707 175.05, 126.879 173.879 C 128.05 172.707, 129.95 172.707, 131.121 173.879" fill="#fccaee" fill-opacity="0.501961" />
<path d="M 87 112 L 169 112 L 169 116 L 87 116 Z" fill="#483284" fill-opacity="0.501961" />
<path d="M 142.828 23.1716 C 144.391 24.7337, 144.391 27.2663, 142.828 28.8284 C 141.266 30.3905, 138.734 30.3905, 137.172 28.8284 C 135.609 27.2663, 135.609 24.7337, 137.172 23.1716 C 138.734 21.6095, 141.266 21.6095, 142.828 23.1716" fill="#ffc8ec" fill-opacity="0.501961" />
<path d="M 143.834 222.424 L 165.759 212.662 L 166.166 213.576 L 144.241 223.338 Z" fill="#525f7b" fill-opacity="0.501961" />
<path d="M 151.662 41.0396 C 152.339 39.0495, 154.589 37.5304, 156.688 37.6465 C 158.787 37.7627, 159.94 39.4702, 159.263 41.4603 C 158.585 43.4504, 156.335 44.9696, 154.236 44.8534 C 152.137 44.7372, 150.984 43.0297, 151.662 41.0396" fill="#efb9e3" fill-opacity="0.501961" />
<path d="M 129.828 90.1716 C 131.391 91.7337, 131.391 94.2663, 129.828 95.8284 C 128.266 97.3905, 125.734 97.3905, 124.172 95.8284 C 122.609 94.2663, 122.609 91.7337, 124.172 90.1716 C 125.734 88.6095, 128.266 88.6095, 129.828 90.1716" fill="#ffcaf1" fill-opacity="0.501961" />
<path d="M 139 132 L 145 132 L 145 138 L 139 138 Z" fill="#f5bee6" fill-opacity="0.501961" />
<path d="M 132 227 L 206 227 L 206 246 L 132 246 Z" fill="#000000" fill-opacity="0.501961" />
<path d="M 136 104 L 142 104 L 140 111 Z" fill="#f6c6e8" fill-opacity="0.501961" />
<path d="M 144.536 158.172 C 146.488 159.734, 146.488 162.266, 144.536 163.828 C 142.583 165.391, 139.417 165.391, 137.464 163.828 C 135.512 162.266, 135.512 159.734, 137.464 158.172 C 139.417 156.609, 142.583 156.609, 144.536 158.172" fill="#f6bee8" fill-opacity="0.501961" />
<path d="M 64.4142 123.464 C 65.1953 125.417, 65.1953 128.583, 64.4142 130.536 C 63.6332 132.488, 62.3668 132.488, 61.5858 130.536 C 60.8047 128.583, 60.8047 125.417, 61.5858 123.464 C 62.3668 121.512, 63.6332 121.512, 64.4142 123.464" fill="#67769b" fill-opacity="0.501961" />
<path d="M 97.0508 12.3928 L 121.677 43.9132 L 116.949 47.6072 L 92.3227 16.0868 Z" fill="#483283" fill-opacity="0.501961" />
<path d="M 150.121 174.222 C 151.293 178.518, 151.293 185.482, 150.121 189.778 C 148.95 194.074, 147.05 194.074, 145.879 189.778 C 144.707 185.482, 144.707 178.518, 145.879 174.222 C 147.05 169.926, 148.95 169.926, 150.121 174.222" fill="#432d80" fill-opacity="0.501961" />
<path d="M 125.673 202.861 C 113.272 204.412, 112.961 202.888, 124.978 199.456 C 136.995 196.025, 156.789 191.987, 169.189 190.436 C 181.589 188.885, 181.9 190.41, 169.883 193.841 C 157.867 197.272, 138.073 201.31, 125.673 202.861" fill="#000000" fill-opacity="0.501961" />
<path d="M 132 3 L 136 3 L 136 162 L 132 162 Z" fill="#4c3586" fill-opacity="0.501961" />
<path d="M 87.0728 84.4423 L 82.4099 80.6663 L 84.9272 77.5577 L 89.5901 81.3337 Z" fill="#ffd4f2" fill-opacity="0.501961" />
<path d="M 118.121 104.879 C 119.293 106.05, 119.293 107.95, 118.121 109.121 C 116.95 110.293, 115.05 110.293, 113.879 109.121 C 112.707 107.95, 112.707 106.05, 113.879 104.879 C 115.05 103.707, 116.95 103.707, 118.121 104.879" fill="#fdc4ee" fill-opacity="0.501961" />
<path d="M 66.472 152.666 C 67.9412 146.674, 71.1753 146.381, 73.6954 152.012 C 76.2156 157.644, 77.0676 167.066, 75.5984 173.059 C 74.1291 179.051, 70.8951 179.343, 68.3749 173.712 C 65.8548 168.08, 65.0028 158.658, 66.472 152.666" fill="#000100" fill-opacity="0.501961" />
<path d="M 104.654 173.02 C 106.743 173.896, 106.939 175.667, 105.091 176.977 C 103.242 178.287, 100.05 178.639, 97.9609 177.764 C 95.8715 176.888, 95.676 175.117, 97.5242 173.807 C 99.3724 172.497, 102.565 172.145, 104.654 173.02" fill="#eeb7e3" fill-opacity="0.501961" />
<path d="M 97 115 L 88 94 L 110 102 Z" fill="#483284" fill-opacity="0.501961" />
<path d="M 135.167 52.5061 L 141.8 48.0326 L 146.833 55.4939 L 140.2 59.9674 Z" fill="#ecbce3" fill-opacity="0.501961" />
<path d="M 269.229 60.0496 L 271 -13.2476 L 59.0982 -11.032 L 141.214 1.69983 Z" fill="#000000" fill-opacity="0.501961" />
<path d="M 63.0144 156.498 C 65.8245 161.014, 67.7701 168.972, 67.3601 174.275 C 66.9501 179.577, 64.3398 180.215, 61.5297 175.7 C 58.7196 171.185, 56.7739 163.226, 57.1839 157.924 C 57.5939 152.621, 60.2043 151.983, 63.0144 156.498" fill="#586384" fill-opacity="0.501961" />
<path d="M 151 119 L 159 119 L 159 122 L 151 122 Z" fill="#f8c3e7" fill-opacity="0.501961" />
<path d="M 163.335 57.5858 C 176.222 58.3668, 176.222 59.6332, 163.335 60.4142 C 150.447 61.1953, 129.553 61.1953, 116.665 60.4142 C 103.778 59.6332, 103.778 58.3668, 116.665 57.5858 C 129.553 56.8047, 150.447 56.8047, 163.335 57.5858" fill="#493283" fill-opacity="0.501961" />
<path d="M 95.8284 137.615 C 97.3905 147.769, 97.3905 164.231, 95.8284 174.385 C 94.2663 184.538, 91.7337 184.538, 90.1716 174.385 C 88.6095 164.231, 88.6095 147.769, 90.1716 137.615 C 91.7337 127.462, 94.2663 127.462, 95.8284 137.615" fill="#4b3485" fill-opacity="0.501961" />
<path d="M 179.718 77.828 L 103.898 151.981 L 82.986 154.113 L 88.8981 175.948 Z" fill="#4a3484" fill-opacity="0.501961" />
<path d="M 170.828 50.1716 C 172.391 51.7337, 172.391 54.2663, 170.828 55.8284 C 169.266 57.3905, 166.734 57.3905, 165.172 55.8284 C 163.609 54.2663, 163.609 51.7337, 165.172 50.1716 C 166.734 48.6095, 169.266 48.6095, 170.828 50.1716" fill="#ffd0ef" fill-opacity="0.501961" />
<path d="M 57 163 L 89 204 L 67 190 Z" fill="#5a6687" fill-opacity="0.501961" />
<path d="M 82.9851 53.0771 L 84.2873 49.295 L 89.0149 50.9229 L 87.7127 54.705 Z" fill="#f9c5f1" fill-opacity="0.501961" />
<path d="M 162 139 L 171 139 L 171 162 L 162 162 Z" fill="#4b338a" fill-opacity="0.501961" />
<path d="M 83 38 L 109 33 L 106 5 Z" fill="#4d3686" fill-opacity="0.501961" />
<path d="M 116.828 76.1716 C 118.391 77.7337, 118.391 80.2663, 116.828 81.8284 C 115.266 83.3905, 112.734 83.3905, 111.172 81.8284 C 109.609 80.2663, 109.609 77.7337, 111.172 76.1716 C 112.734 74.6095, 115.266 74.6095, 116.828 76.1716" fill="#efc1e5" fill-opacity="0.501961" />
<path d="M 129.793 226.684 L 92.2794 210.263 L 128.714 216.894 L 154.23 211.005 Z" fill="#515b79" fill-opacity="0.501961" />
<path d="M 171.4 99.6215 L 139.915 130.38 L 152.964 85.1372 L 117.981 104.684 Z" fill="#4f3887" fill-opacity="0.501961" />
<path d="M 97 38 L 104 38 L 104 43 L 97 43 Z" fill="#f6cded" fill-opacity="0.501961" />
<path d="M 128.581 9.30664 C 130.723 10.1361, 132.36 12.6677, 132.239 14.9611 C 132.117 17.2545, 130.282 18.4412, 128.141 17.6117 C 125.999 16.7822, 124.362 14.2506, 124.483 11.9572 C 124.605 9.66384, 126.44 8.47714, 128.581 9.30664" fill="#ecb8e0" fill-opacity="0.501961" />
<path d="M 82 192 L 102 191 L 73 158 Z" fill="#000000" fill-opacity="0.501961" />
<path d="M 170.039 59.9681 L 151.249 54.0211 L 149.384 154.405 L 145.004 42.3357 Z" fill="#4d3686" fill-opacity="0.501961" />
<path d="M 172.259 35.4052 L 168.862 25.7402 L 156.06 8.68549 L 163.546 55.2981 Z" fill="#4e3786" fill-opacity="0.501961" />
<path d="M 81.0988 41.5852 L 129.462 85.0519 L 92.9818 36.7359 L 100.067 9.21273 Z" fill="#4f3786" fill-opacity="0.501961" />
<path d="M 158.121 144.464 C 159.293 146.417, 159.293 149.583, 158.121 151.536 C 156.95 153.488, 155.05 153.488, 153.879 151.536 C 152.707 149.583, 152.707 146.417, 153.879 144.464 C 155.05 142.512, 156.95 142.512, 158.121 144.464" fill="#efbce2" fill-opacity="0.501961" />
<path d="M 129 43 L 129 35 L 123 40 Z" fill="#f7ccec" fill-opacity="0.501961" />
<path d="M 130.6 167.561 L 144.533 176.342 L 119.513 186.08 L 159.657 182.446 Z" fill="#4e3788" fill-opacity="0.501961" />
<path d="M 159 130 L 172 130 L 172 113 L 159 113 Z" fill="#4f378a" fill-opacity="0.501961" />
<path d="M 84.5391 84.6041 L 110.264 109.461 L 90.2721 104.875 L 82.9738 102.789 Z" fill="#4b3484" fill-opacity="0.501961" />
<path d="M 131.536 224.373 C 133.488 236.869, 133.488 257.131, 131.536 269.627 C 129.583 282.124, 126.417 282.124, 124.464 269.627 C 122.512 257.131, 122.512 236.869, 124.464 224.373 C 126.417 211.876, 129.583 211.876, 131.536 224.373" fill="#556080" fill-opacity="0.501961" />
<path d="M 128.433 30.864 C 128.975 36.4005, 126.501 37.4456, 122.909 33.1985 C 119.316 28.9513, 115.965 21.0201, 115.423 15.4836 C 114.881 9.94716, 117.354 8.902, 120.947 13.1492 C 124.54 17.3964, 127.891 25.3276, 128.433 30.864" fill="#4c3585" fill-opacity="0.501961" />
<path d="M 103.5 91.5 L 103.5 98.5 L 96.5 98.5 L 96.5 91.5 Z" fill="#f2bae7" fill-opacity="0.501961" />
<path d="M 139.262 244.121 L 131.473 224.022 L 144.154 222.99 L 227.254 194.73 Z" fill="#000100" fill-opacity="0.501961" />
<path d="M 119 23 L 123 23 L 123 168 L 119 168 Z" fill="#4b3486" fill-opacity="0.501961" />
<path d="M 156.975 16.3495 L 92.78 85.9326 L 131.903 60.3958 L 159.927 22.4041 Z" fill="#4e3787" fill-opacity="0.501961" />
<path d="M 172.062 36.8584 L 222.114 196.694 L 271 -1.8581 L 164.916 10.9198 Z" fill="#000000" fill-opacity="0.501961" />
<path d="M -16 259.261 L 106.71 271 L 62.6999 184.628 L 43.8981 123.204 Z" fill="#000000" fill-opacity="0.501961" />
<path d="M 191.019 124.135 L 271 63.4877 L 172.546 25.3356 L 174.399 196.496 Z" fill="#000000" fill-opacity="0.501961" />
<path d="M 0 0 L 55 0 L 55 217 L 0 217 Z" fill="#000000" fill-opacity="0.501961" />
<path d="M 89.8284 51.1716 C 91.3905 52.7337, 91.3905 55.2663, 89.8284 56.8284 C 88.2663 58.3905, 85.7337 58.3905, 84.1716 56.8284 C 82.6095 55.2663, 82.6095 52.7337, 84.1716 51.1716 C 85.7337 49.6095, 88.2663 49.6095, 89.8284 51.1716" fill="#efbee5" fill-opacity="0.501961" />
<path d="M 106.728 220.757 C 113.757 223.101, 113.757 226.899, 106.728 229.243 C 99.6985 231.586, 88.3015 231.586, 81.2721 229.243 C 74.2426 226.899, 74.2426 223.101, 81.2721 220.757 C 88.3015 218.414, 99.6985 218.414, 106.728 220.757" fill="#000000" fill-opacity="0.501961" />
<path d="M 124.475 23.4734 L 84.4011 77.1585 L 101.974 75.7855 L 82.8319 65.8126 Z" fill="#493385" fill-opacity="0.501961" />
<path d="M 115.815 48.2263 L 120.478 52.0022 L 114.185 59.7737 L 109.522 55.9978 Z" fill="#ddb2dc" fill-opacity="0.501961" />
<path d="M 80.9081 36.6814 L 105.856 -4.4727 L 88.0393 -16 L 78.949 85.8617 Z" fill="#000000" fill-opacity="0.501961" />
<path d="M 113 197 L 128 197 L 128 214 L 113 214 Z" fill="#000000" fill-opacity="0.501961" />
<path d="M 191 190 L 160 219 L 230 201 Z" fill="#000000" fill-opacity="0.501961" />
<path d="M 117.37 196.15 C 112.659 195.408, 112.695 194.505, 117.449 194.135 C 122.203 193.765, 129.876 194.067, 134.586 194.809 C 139.296 195.552, 139.261 196.454, 134.507 196.825 C 129.753 197.195, 122.08 196.893, 117.37 196.15" fill="#4b338f" fill-opacity="0.501961" />
<path d="M 83 113 L 83 113 L 83 153 L 83 153 Z" fill="#433076" fill-opacity="0.501961" />
<path d="M 159.054 198.758 L 184.814 126.547 L 190.395 164.821 L 183.018 184.49 Z" fill="#000000" fill-opacity="0.501961" />
<path d="M 182.928 199.76 L 196.829 174.69 L 196.054 155.8 L 177.768 194.082 Z" fill="#556080" fill-opacity="0.501961" />
<path d="M 117 247 L 156 247 L 156 255 L 117 255 Z" fill="#555f7f" fill-opacity="0.501961" />
<path d="M 146 153 L 170 153 L 170 166 L 146 166 Z" fill="#4c3684" fill-opacity="0.501961" />
<path d="M 137 79 L 145 79 L 145 82 L 137 82 Z" fill="#ebbbe3" fill-opacity="0.501961" />
<path d="M 128.926 101.144 L 89.8471 63.5644 L 130.286 117.318 L 169.753 157.02 Z" fill="#523b89" fill-opacity="0.501961" />
</g>
</svg>
