<svg version="1.1" width="128" height="128" xmlns="http://www.w3.org/2000/svg">
<rect x="0" y="0" width="128" height="128" fill="#1c162a" />
<g transform="scale(0.5, 0.5)">
<path d="M 181 17 L 130 271 L 73 24 Z" fill="#9a75e2" fill-opacity="0.501961" />
<path d="M -16 -4 L 12 271 L 101 -5 Z" fill="#000000" fill-opacity="0.501961" />
<path d="M 160.234 113.766 C 178.589 132.121, 178.589 161.879, 160.234 180.234 C 141.879 198.589, 112.121 198.589, 93.766 180.234 C 75.4113 161.879, 75.4113 132.121, 93.766 113.766 C 112.121 95.4113, 141.879 95.4113, 160.234 113.766" fill="#8261be" fill-opacity="0.501961" />
<path d="M 148.92 4.68629 C 161.027 10.9347, 161.027 21.0653, 148.92 27.3137 C 136.814 33.5621, 117.186 33.5621, 105.08 27.3137 C 92.9734 21.0653, 92.9734 10.9347, 105.08 4.68629 C 117.186 -1.5621, 136.814 -1.5621, 148.92 4.68629" fill="#8a65d6" fill-opacity="0.501961" />
<path d="M -12.0065 246.991 C -111.982 240.81, -112.789 223.339, -13.8088 207.969 C 85.1711 192.599, 246.456 185.149, 346.432 191.33 C 446.407 197.511, 447.214 214.982, 348.234 230.352 C 249.254 245.722, 87.9688 253.172, -12.0065 246.991" fill="#000000" fill-opacity="0.501961" />
<path d="M 244 271 L 271 -3 L 152 -16 Z" fill="#000000" fill-opacity="0.501961" />
<path d="M 253 271 L 271 -11 L 155 -16 Z" fill="#000000" fill-opacity="0.501961" />
<path d="M 84 157 L 83 21 L 177 108 Z" fill="#7457a5" fill-opacity="0.501961" />
<path d="M 179 206 L 196 176 L 138 224 Z" fill="#849ac6" fill-opacity="0.501961" />
<path d="M 66 190 L 131 224 L 95 220 Z" fill="#7d94bd" fill-opacity="0.501961" />
<path d="M 64.5355 128.494 C 66.4882 139.819, 66.4882 158.181, 64.5355 169.506 C 62.5829 180.831, 59.4171 180.831, 57.4645 169.506 C 55.5118 158.181, 55.5118 139.819, 57.4645 128.494 C 59.4171 117.169, 62.5829 117.169, 64.5355 128.494" fill="#809ac2" fill-opacity="0.501961" />
<path d="M 79.7754 158.189 L 86.7911 -9.60215 L -16 1.6154 L 1.5436 271 Z" fill="#000000" fill-opacity="0.501961" />
<path d="M 155 271 L 155 246 L 90 246 Z" fill="#7d9abd" fill-opacity="0.501961" />
<path d="M 191 122 L 199 122 L 199 177 L 191 177 Z" fill="#7a93b8" fill-opacity="0.501961" />
<path d="M 163.109 138.298 L 173.284 142.273 L 170.744 45.3275 L 165.693 83.1779 Z" fill="#a781d8" fill-opacity="0.501961" />
<path d="M 219.466 277.56 L 174.644 267.212 L 220.534 68.4404 L 265.356 78.7881 Z" fill="#000000" fill-opacity="0.501961" />
<path d="M 61.2492 157.478 L 79.1456 197.674 L 72.7508 200.522 L 54.8544 160.326 Z" fill="#798eb7" fill-opacity="0.501961" />
<path d="M 106 243 L 50 167 L 8 271 Z" fill="#000000" fill-opacity="0.501961" />
<path d="M 144.385 199.636 C 154.538 203.151, 154.538 208.849, 144.385 212.364 C 134.231 215.879, 117.769 215.879, 107.615 212.364 C 97.4616 208.849, 97.4616 203.151, 107.615 199.636 C 117.769 196.121, 134.231 196.121, 144.385 199.636" fill="#000000" fill-opacity="0.501961" />
<path d="M 84 50 L 91 50 L 91 139 L 84 139 Z" fill="#9c7ac1" fill-opacity="0.501961" />
<path d="M 186.364 45.3101 C 189.879 77.7237, 189.879 130.276, 186.364 162.69 C 182.849 195.103, 177.151 195.103, 173.636 162.69 C 170.121 130.276, 170.121 77.7237, 173.636 45.3101 C 177.151 12.8966, 182.849 12.8966, 186.364 45.3101" fill="#000000" fill-opacity="0.501961" />
<path d="M 147.808 144.993 L 160.76 174.031 L 90.8427 106 L 80.827 85.0376 Z" fill="#362274" fill-opacity="0.501961" />
<path d="M 159.406 13.5944 C 176.198 30.387, 176.198 57.613, 159.406 74.4056 C 142.613 91.1981, 115.387 91.1981, 98.5944 74.4056 C 81.8019 57.613, 81.8019 30.387, 98.5944 13.5944 C 115.387 -3.19814, 142.613 -3.19814, 159.406 13.5944" fill="#694e9d" fill-opacity="0.501961" />
<path d="M 151 172 L 158 172 L 158 179 L 151 179 Z" fill="#ffffff" fill-opacity="0.501961" />
<path d="M 131.267 271 L 121.435 218.185 L 176.186 206.073 L 131.827 226.451 Z" fill="#6b84a3" fill-opacity="0.501961" />
<path d="M 167.002 88.9271 L 174.073 95.9982 L 96.9982 173.073 L 89.9271 166.002 Z" fill="#382378" fill-opacity="0.501961" />
<path d="M 65.2426 127.444 C 67.5858 136.035, 67.5858 149.965, 65.2426 158.556 C 62.8995 167.148, 59.1005 167.148, 56.7574 158.556 C 54.4142 149.965, 54.4142 136.035, 56.7574 127.444 C 59.1005 118.852, 62.8995 118.852, 65.2426 127.444" fill="#6a78a0" fill-opacity="0.501961" />
<path d="M 102.428 180.216 L 95.6356 174.312 L 99.572 169.784 L 106.364 175.688 Z" fill="#ffffff" fill-opacity="0.501961" />
<path d="M 158.576 44.7986 C 157.173 47.1981, 154.502 47.494, 152.608 45.4596 C 150.715 43.4251, 150.317 39.8307, 151.719 37.4312 C 153.121 35.0317, 155.793 34.7358, 157.686 36.7702 C 159.58 38.8047, 159.978 42.3991, 158.576 44.7986" fill="#f3caec" fill-opacity="0.501961" />
<path d="M 65.0964 129.268 C 67.787 114.947, 74.6242 114.194, 80.3678 127.586 C 86.1113 140.978, 88.5863 163.445, 85.8957 177.766 C 83.2051 192.088, 76.3678 192.841, 70.6243 179.449 C 64.8807 166.056, 62.4058 143.59, 65.0964 129.268" fill="#000000" fill-opacity="0.501961" />
<path d="M 125 37 L 130 37 L 130 44 L 125 44 Z" fill="#ffffff" fill-opacity="0.501961" />
<path d="M 165 77 L 172 77 L 172 85 L 165 85 Z" fill="#ffe5ff" fill-opacity="0.501961" />
<path d="M 132.536 9.46447 C 134.488 11.4171, 134.488 14.5829, 132.536 16.5355 C 130.583 18.4882, 127.417 18.4882, 125.464 16.5355 C 123.512 14.5829, 123.512 11.4171, 125.464 9.46447 C 127.417 7.51184, 130.583 7.51184, 132.536 9.46447" fill="#ffdaf7" fill-opacity="0.501961" />
<path d="M 131 222 L 271 244 L 183 271 Z" fill="#000000" fill-opacity="0.501961" />
<path d="M 155.832 154.312 L 150.712 149.538 L 156.168 143.688 L 161.288 148.462 Z" fill="#fff0ff" fill-opacity="0.501961" />
<path d="M 105.849 94.8583 L 103.612 98.1744 L 96.1509 93.1417 L 98.3877 89.8256 Z" fill="#ffffff" fill-opacity="0.501961" />
<path d="M 151.825 70.1717 C 149.804 68.5129, 149.312 65.3852, 150.726 63.1858 C 152.141 60.9864, 154.927 60.5482, 156.949 62.207 C 158.971 63.8657, 159.463 66.9934, 158.048 69.1928 C 156.633 71.3923, 153.847 71.8305, 151.825 70.1717" fill="#f7ceef" fill-opacity="0.501961" />
<path d="M -3.15217 178.69 L 122.498 226.274 L 124.362 243.378 L 0.662331 271 Z" fill="#000000" fill-opacity="0.501961" />
<path d="M 114.977 47.9458 L 118.808 51.1598 L 113.023 58.0542 L 109.192 54.8402 Z" fill="#fffeff" fill-opacity="0.501961" />
<path d="M 129.828 63.4645 C 131.391 65.4171, 131.391 68.5829, 129.828 70.5355 C 128.266 72.4882, 125.734 72.4882, 124.172 70.5355 C 122.609 68.5829, 122.609 65.4171, 124.172 63.4645 C 125.734 61.5118, 128.266 61.5118, 129.828 63.4645" fill="#ffffff" fill-opacity="0.501961" />
<path d="M 152.099 178.436 L 154.712 194.879 L 96.955 139.033 L 80.6389 108.086 Z" fill="#372374" fill-opacity="0.501961" />
<path d="M 142.815 60.7737 L 136.522 53.0022 L 141.185 49.2263 L 147.478 56.9978 Z" fill="#ffeaff" fill-opacity="0.501961" />
<path d="M 96 -6 L -16 -1 L 9 271 Z" fill="#000000" fill-opacity="0.501961" />
<path d="M 151 90 L 157 90 L 157 98 L 151 98 Z" fill="#fff8ff" fill-opacity="0.501961" />
<path d="M 148.04 79.3374 L 140.128 86.9786 L 135.96 82.6626 L 143.872 75.0214 Z" fill="#ffdcf5" fill-opacity="0.501961" />
<path d="M 100.916 142.241 L 105.512 146.098 L 99.0842 153.759 L 94.4879 149.902 Z" fill="#ffecff" fill-opacity="0.501961" />
<path d="M 194.391 177.086 L 174.115 206.727 L 174.866 197.114 L 192.403 164.45 Z" fill="#647597" fill-opacity="0.501961" />
<path d="M 111 185 L 117 185 L 117 192 L 111 192 Z" fill="#ffffff" fill-opacity="0.501961" />
<path d="M 147.176 122.169 C 159.651 138.285, 156.903 140.98, 141.037 128.188 C 125.171 115.396, 102.195 91.9623, 89.7199 75.8466 C 77.2444 59.7308, 79.993 57.0361, 95.859 69.8276 C 111.725 82.6192, 134.7 106.053, 147.176 122.169" fill="#3b2677" fill-opacity="0.501961" />
<path d="M 98.4151 35.72 L 105.833 38.7169 L 103.585 44.28 L 96.1674 41.2831 Z" fill="#ffffff" fill-opacity="0.501961" />
<path d="M 180.175 198.867 L 154.497 229.01 L 167.204 271 L 271 257.2 Z" fill="#000000" fill-opacity="0.501961" />
<path d="M 102 211 L 188 175 L 166 203 Z" fill="#000000" fill-opacity="0.501961" />
<path d="M 103.828 63.4645 C 105.391 65.4171, 105.391 68.5829, 103.828 70.5355 C 102.266 72.4882, 99.7337 72.4882, 98.1716 70.5355 C 96.6095 68.5829, 96.6095 65.4171, 98.1716 63.4645 C 99.7337 61.5118, 102.266 61.5118, 103.828 63.4645" fill="#ffffff" fill-opacity="0.501961" />
<path d="M 130.828 92.1716 C 132.391 93.7337, 132.391 96.2663, 130.828 97.8284 C 129.266 99.3905, 126.734 99.3905, 125.172 97.8284 C 123.609 96.2663, 123.609 93.7337, 125.172 92.1716 C 126.734 90.6095, 129.266 90.6095, 130.828 92.1716" fill="#ffffff" fill-opacity="0.501961" />
<path d="M 116.828 77.1716 C 118.391 78.7337, 118.391 81.2663, 116.828 82.8284 C 115.266 84.3905, 112.734 84.3905, 111.172 82.8284 C 109.609 81.2663, 109.609 78.7337, 111.172 77.1716 C 112.734 75.6095, 115.266 75.6095, 116.828 77.1716" fill="#ffffff" fill-opacity="0.501961" />
<path d="M 137 158 L 145 158 L 145 165 L 137 165 Z" fill="#ffe9f9" fill-opacity="0.501961" />
<path d="M 156.828 118.172 C 158.391 119.734, 158.391 122.266, 156.828 123.828 C 155.266 125.391, 152.734 125.391, 151.172 123.828 C 149.609 122.266, 149.609 119.734, 151.172 118.172 C 152.734 116.609, 155.266 116.609, 156.828 118.172" fill="#ffffff" fill-opacity="0.501961" />
<path d="M 130.828 118.172 C 132.391 119.734, 132.391 122.266, 130.828 123.828 C 129.266 125.391, 126.734 125.391, 125.172 123.828 C 123.609 122.266, 123.609 119.734, 125.172 118.172 C 126.734 116.609, 129.266 116.609, 130.828 118.172" fill="#ffffff" fill-opacity="0.501961" />
<path d="M 97 118 L 104 118 L 104 123 L 97 123 Z" fill="#ffffff" fill-opacity="0.501961" />
<path d="M 143.828 131.172 C 145.391 132.734, 145.391 135.266, 143.828 136.828 C 142.266 138.391, 139.734 138.391, 138.172 136.828 C 136.609 135.266, 136.609 132.734, 138.172 131.172 C 139.734 129.609, 142.266 129.609, 143.828 131.172" fill="#ffffff" fill-opacity="0.501961" />
<path d="M 165 48 L 172 48 L 172 57 L 165 57 Z" fill="#ffd5f1" fill-opacity="0.501961" />
<path d="M 97.7496 45.0046 C 115.856 58.6494, 142.603 83.5725, 157.491 100.672 C 172.379 117.771, 169.769 120.572, 151.662 106.927 C 133.556 93.2823, 106.809 68.3592, 91.921 51.2598 C 77.0334 34.1604, 79.6429 31.3599, 97.7496 45.0046" fill="#412b7e" fill-opacity="0.501961" />
<path d="M 90.623 104.351 C 92.9076 105.947, 93.5041 109.119, 91.9552 111.436 C 90.4064 113.753, 87.2988 114.338, 85.0142 112.741 C 82.7296 111.145, 82.1332 107.973, 83.682 105.656 C 85.2308 103.339, 88.3384 102.755, 90.623 104.351" fill="#dbb5e0" fill-opacity="0.501961" />
<path d="M 140 183 L 144 183 L 144 191 L 140 191 Z" fill="#ffecfb" fill-opacity="0.501961" />
<path d="M 146.77 29.9154 L 142.529 32.565 L 137.23 24.0846 L 141.471 21.435 Z" fill="#fff6fd" fill-opacity="0.501961" />
<path d="M 132.731 174.383 L 130.877 180.089 L 123.269 177.617 L 125.123 171.911 Z" fill="#ffffff" fill-opacity="0.501961" />
<path d="M 108 157 L 119 161 L 115 166 Z" fill="#ffeaf9" fill-opacity="0.501961" />
<path d="M 185 129 L 271 42 L 164 -16 Z" fill="#000000" fill-opacity="0.501961" />
<path d="M 116.696 31.1512 L 109.849 29.6958 L 111.304 22.8488 L 118.151 24.3042 Z" fill="#ffffff" fill-opacity="0.501961" />
<path d="M 139.213 192.142 L 132.142 199.213 L 96.7868 163.858 L 103.858 156.787 Z" fill="#3a2679" fill-opacity="0.501961" />
<path d="M 116.828 104.172 C 118.391 105.734, 118.391 108.266, 116.828 109.828 C 115.266 111.391, 112.734 111.391, 111.172 109.828 C 109.609 108.266, 109.609 105.734, 111.172 104.172 C 112.734 102.609, 115.266 102.609, 116.828 104.172" fill="#ffffff" fill-opacity="0.501961" />
<path d="M 172.899 132.172 L 170.828 139.899 L 163.101 137.828 L 165.172 130.101 Z" fill="#fffaff" fill-opacity="0.501961" />
<path d="M 97 248 L 158 248 L 158 255 L 97 255 Z" fill="#5c698a" fill-opacity="0.501961" />
<path d="M 178.031 57.7183 L 152.696 7.48807 L 80.7751 76.6514 L 134.146 14.4941 Z" fill="#382575" fill-opacity="0.501961" />
<path d="M 76.0978 185.114 C 72.4177 176.239, 76.4937 172.335, 85.2017 176.395 C 93.9097 180.455, 103.952 190.941, 107.632 199.816 C 111.312 208.692, 107.236 212.595, 98.5283 208.535 C 89.8203 204.475, 79.7778 193.989, 76.0978 185.114" fill="#000000" fill-opacity="0.501961" />
<path d="M 169.828 106.172 C 171.391 107.734, 171.391 110.266, 169.828 111.828 C 168.266 113.391, 165.734 113.391, 164.172 111.828 C 162.609 110.266, 162.609 107.734, 164.172 106.172 C 165.734 104.609, 168.266 104.609, 169.828 106.172" fill="#ffe1fc" fill-opacity="0.501961" />
<path d="M 190.281 167.979 L 192.263 88.7745 L 178.087 33.383 L 170.05 192.038 Z" fill="#000000" fill-opacity="0.501961" />
<path d="M 129.828 145.172 C 131.391 146.734, 131.391 149.266, 129.828 150.828 C 128.266 152.391, 125.734 152.391, 124.172 150.828 C 122.609 149.266, 122.609 146.734, 124.172 145.172 C 125.734 143.609, 128.266 143.609, 129.828 145.172" fill="#ffffff" fill-opacity="0.501961" />
<path d="M 111 130 L 118 130 L 118 137 L 111 137 Z" fill="#ffeffc" fill-opacity="0.501961" />
<path d="M 84 52 L 90 52 L 90 57 L 84 57 Z" fill="#ffffff" fill-opacity="0.501961" />
<path d="M 142.828 105.172 C 144.391 106.734, 144.391 109.266, 142.828 110.828 C 141.266 112.391, 138.734 112.391, 137.172 110.828 C 135.609 109.266, 135.609 106.734, 137.172 105.172 C 138.734 103.609, 141.266 103.609, 142.828 105.172" fill="#ffffff" fill-opacity="0.501961" />
<path d="M 176 228 L 246 47 L 271 271 Z" fill="#000000" fill-opacity="0.501961" />
<path d="M 157.217 101.94 L 161.303 119.781 L 93.9154 199.83 L 176.518 122.064 Z" fill="#3d2879" fill-opacity="0.501961" />
<path d="M 150.696 222.714 L 221.585 177.938 L 135.016 249.647 L 131.695 224.828 Z" fill="#000000" fill-opacity="0.501961" />
<path d="M 90.8284 77.1716 C 92.3905 78.7337, 92.3905 81.2663, 90.8284 82.8284 C 89.2663 84.3905, 86.7337 84.3905, 85.1716 82.8284 C 83.6095 81.2663, 83.6095 78.7337, 85.1716 77.1716 C 86.7337 75.6095, 89.2663 75.6095, 90.8284 77.1716" fill="#fff7ff" fill-opacity="0.501961" />
<path d="M 104 221 L -11 156 L 91 271 Z" fill="#000000" fill-opacity="0.501961" />
<path d="M 90.8284 132.172 C 92.3905 133.734, 92.3905 136.266, 90.8284 137.828 C 89.2663 139.391, 86.7337 139.391, 85.1716 137.828 C 83.6095 136.266, 83.6095 133.734, 85.1716 132.172 C 86.7337 130.609, 89.2663 130.609, 90.8284 132.172" fill="#fff4ff" fill-opacity="0.501961" />
<path d="M 147 181 L 114 195 L 166 141 Z" fill="#432c80" fill-opacity="0.501961" />
<path d="M 151.402 89.3337 L 150.065 61.7604 L 86.8026 30.2778 L 98.2689 9.27637 Z" fill="#432c83" fill-opacity="0.501961" />
<path d="M 147.799 215.172 C 158.734 216.734, 158.734 219.266, 147.799 220.828 C 136.864 222.391, 119.136 222.391, 108.201 220.828 C 97.2663 219.266, 97.2663 216.734, 108.201 215.172 C 119.136 213.609, 136.864 213.609, 147.799 215.172" fill="#606f91" fill-opacity="0.501961" />
<path d="M 76.43 191.809 C 81.4753 194.067, 87.369 199.999, 89.594 205.059 C 91.8189 210.119, 89.5326 212.391, 84.4873 210.133 C 79.4419 207.875, 73.5482 201.942, 71.3233 196.883 C 69.0983 191.823, 71.3847 189.551, 76.43 191.809" fill="#556180" fill-opacity="0.501961" />
<path d="M 109 197 L 148 197 L 148 212 L 109 212 Z" fill="#000000" fill-opacity="0.501961" />
<path d="M 105.236 9.25998 L 174.623 82.2571 L 173.172 66.8374 L 113.269 3.11817 Z" fill="#3f2a7c" fill-opacity="0.501961" />
<path d="M 100.53 73.5657 L 169.194 19.5193 L 84.1727 104.907 L 82.618 93.1167 Z" fill="#3f2a7d" fill-opacity="0.501961" />
<path d="M 81.2502 160.437 L 91.5258 136.709 L 177.281 53.9067 L 143.055 100.788 Z" fill="#3f2a7c" fill-opacity="0.501961" />
<path d="M 82 -12 L 83 145 L -16 18 Z" fill="#000000" fill-opacity="0.501961" />
<path d="M 65 37 L -16 -4 L 116 -4 Z" fill="#000000" fill-opacity="0.501961" />
<path d="M 110 -16 L 254 -10 L 267 65 Z" fill="#000000" fill-opacity="0.501961" />
</g>
</svg>
