<svg version="1.1" width="277" height="340" xmlns="http://www.w3.org/2000/svg">
<rect x="0" y="0" width="277" height="340" fill="#6b7e57" />
<g transform="scale(1.33173, 1.32812)">
<path d="M -10 193 L 111 -16 L 215 196 Z" fill="#e6ffb5" fill-opacity="0.501961" />
<path d="M -16 -6 L -3 196 L 70 0 Z" fill="#000000" fill-opacity="0.501961" />
<path d="M 214 -13 L 145 0 L 219 222 Z" fill="#000000" fill-opacity="0.501961" />
<path d="M 45 188 L 56 271 L -16 236 Z" fill="#000000" fill-opacity="0.501961" />
<path d="M 223 245 L 171 179 L 157 271 Z" fill="#000000" fill-opacity="0.501961" />
<path d="M 58 254 L 31 77 L 211 187 Z" fill="#a3dd8e" fill-opacity="0.501961" />
<path d="M -1 192 L 59 0 L -2 -16 Z" fill="#000000" fill-opacity="0.501961" />
<path d="M 223 -12 L 211 174 L 140 -3 Z" fill="#000000" fill-opacity="0.501961" />
<path d="M 108 -11 L 39 54 L 179 52 Z" fill="#c7fdb6" fill-opacity="0.501961" />
<path d="M 63 260 L -16 257 L 4 187 Z" fill="#000000" fill-opacity="0.501961" />
<path d="M 164 202 L 223 195 L 184 271 Z" fill="#000000" fill-opacity="0.501961" />
<path d="M 67 75 L 147 85 L 111 124 Z" fill="#ff3757" fill-opacity="0.501961" />
<path d="M 93 228 L 102 271 L 124 228 Z" fill="#000000" fill-opacity="0.501961" />
<path d="M 154 271 L 167 197 L 87 195 Z" fill="#c0f2a0" fill-opacity="0.501961" />
<path d="M 11 178 L 29 85 L 93 32 Z" fill="#c0f2aa" fill-opacity="0.501961" />
<path d="M 101 -2 L -16 69 L -8 -12 Z" fill="#000000" fill-opacity="0.501961" />
<path d="M 35 36 L 188 116 L 147 39 Z" fill="#bedea8" fill-opacity="0.501961" />
<path d="M 158 64 L 223 127 L 213 -16 Z" fill="#000000" fill-opacity="0.501961" />
<path d="M 48 191 L 52 271 L -16 213 Z" fill="#000000" fill-opacity="0.501961" />
<path d="M 159 271 L 169 193 L 223 249 Z" fill="#000000" fill-opacity="0.501961" />
<path d="M -3 22 L -8 136 L 55 56 Z" fill="#000000" fill-opacity="0.501961" />
<path d="M 178 34 L 138 39 L 141 74 Z" fill="#dfffcc" fill-opacity="0.501961" />
<path d="M 223 -16 L 219 44 L 78 -16 Z" fill="#000000" fill-opacity="0.501961" />
<path d="M 47 184 L 97 240 L 56 271 Z" fill="#bbea9a" fill-opacity="0.501961" />
<path d="M 169 51 L 215 225 L 216 -16 Z" fill="#000000" fill-opacity="0.501961" />
<path d="M 124 262 L 84 264 L 109 228 Z" fill="#000000" fill-opacity="0.501961" />
<path d="M 79 54 L 78 88 L 33 29 Z" fill="#d6f3c3" fill-opacity="0.501961" />
<path d="M 18 203 L 190 137 L 174 78 Z" fill="#99ca84" fill-opacity="0.501961" />
<path d="M 134 72 L 138 57 L 130 60 Z" fill="#000000" fill-opacity="0.501961" />
<path d="M 88 72 L 75 63 L 88 58 Z" fill="#000000" fill-opacity="0.501961" />
<path d="M 223 248 L 144 271 L 199 192 Z" fill="#000000" fill-opacity="0.501961" />
<path d="M -10 -15 L -16 36 L 160 -16 Z" fill="#000000" fill-opacity="0.501961" />
<path d="M 142 105 L 79 106 L 74 74 Z" fill="#ff6163" fill-opacity="0.501961" />
<path d="M 24 99 L 189 182 L 78 238 Z" fill="#96bb7d" fill-opacity="0.501961" />
<path d="M 52 207 L -16 194 L 7 271 Z" fill="#000000" fill-opacity="0.501961" />
<path d="M -3 193 L 61 68 L 33 202 Z" fill="#9cd285" fill-opacity="0.501961" />
<path d="M 61 30 L 93 -16 L 1 35 Z" fill="#000000" fill-opacity="0.501961" />
<path d="M 119 234 L 164 210 L 125 271 Z" fill="#b3e796" fill-opacity="0.501961" />
<path d="M 168 45 L 45 50 L 87 4 Z" fill="#a7d28c" fill-opacity="0.501961" />
<path d="M -14 223 L 38 67 L -2 -16 Z" fill="#000000" fill-opacity="0.501961" />
<path d="M 132 116 L 71 94 L 138 75 Z" fill="#ff6b6a" fill-opacity="0.501961" />
<path d="M 117 257 L 96 232 L 117 227 Z" fill="#000000" fill-opacity="0.501961" />
<path d="M 139 -16 L 223 16 L 154 37 Z" fill="#000000" fill-opacity="0.501961" />
<path d="M 223 24 L 158 56 L 205 129 Z" fill="#000000" fill-opacity="0.501961" />
<path d="M -6 81 L 57 64 L 17 20 Z" fill="#000000" fill-opacity="0.501961" />
<path d="M 176 91 L 75 131 L 189 131 Z" fill="#acdc94" fill-opacity="0.501961" />
<path d="M 134 44 L 152 57 L 122 55 Z" fill="#ffffff" fill-opacity="0.501961" />
<path d="M 155 32 L 137 7 L 68 20 Z" fill="#b0db96" fill-opacity="0.501961" />
<path d="M 16 148 L -6 200 L -16 162 Z" fill="#000000" fill-opacity="0.501961" />
<path d="M 193 151 L 203 95 L 216 206 Z" fill="#000000" fill-opacity="0.501961" />
<path d="M 127 256 L 97 230 L 94 255 Z" fill="#000000" fill-opacity="0.501961" />
<path d="M 57 39 L 76 2 L -16 -1 Z" fill="#000000" fill-opacity="0.501961" />
<path d="M 168 174 L 176 202 L 223 187 Z" fill="#abda8f" fill-opacity="0.501961" />
<path d="M 93 53 L 59 58 L 82 44 Z" fill="#ffffff" fill-opacity="0.501961" />
<path d="M 176 31 L 168 49 L 150 42 Z" fill="#c2f8a4" fill-opacity="0.501961" />
<path d="M 223 191 L 167 207 L 158 271 Z" fill="#000000" fill-opacity="0.501961" />
<path d="M 121 90 L 121 76 L 113 79 Z" fill="#ffffff" fill-opacity="0.501961" />
<path d="M 83 107 L 41 73 L 19 126 Z" fill="#a8d48c" fill-opacity="0.501961" />
<path d="M 49 54 L 104 39 L 38 37 Z" fill="#aedc93" fill-opacity="0.501961" />
<path d="M 172 17 L 60 -16 L 223 -16 Z" fill="#000000" fill-opacity="0.501961" />
<path d="M 94 103 L 94 115 L 85 103 Z" fill="#ffffff" fill-opacity="0.501961" />
<path d="M -9 266 L 59 271 L 39 191 Z" fill="#000000" fill-opacity="0.501961" />
<path d="M 95 253 L 62 252 L 94 200 Z" fill="#abd88f" fill-opacity="0.501961" />
<path d="M 77 70 L 90 65 L 83 57 Z" fill="#000a00" fill-opacity="0.501961" />
<path d="M 165 271 L 166 198 L 223 221 Z" fill="#000000" fill-opacity="0.501961" />
<path d="M 126 72 L 140 66 L 134 56 Z" fill="#071a00" fill-opacity="0.501961" />
<path d="M 41 72 L 59 111 L 82 63 Z" fill="#a9d694" fill-opacity="0.501961" />
<path d="M 51 271 L 112 255 L 35 254 Z" fill="#000000" fill-opacity="0.501961" />
<path d="M 73 51 L 66 63 L 73 71 Z" fill="#ffffff" fill-opacity="0.501961" />
<path d="M 186 105 L 142 96 L 163 67 Z" fill="#a6d789" fill-opacity="0.501961" />
<path d="M 157 64 L 183 31 L 203 96 Z" fill="#000000" fill-opacity="0.501961" />
<path d="M 2 271 L 46 208 L -3 195 Z" fill="#000000" fill-opacity="0.501961" />
<path d="M 132 6 L 43 45 L 165 50 Z" fill="#a9d190" fill-opacity="0.501961" />
<path d="M 161 237 L 50 214 L 41 80 Z" fill="#9cc282" fill-opacity="0.501961" />
<path d="M 62 30 L 83 7 L 150 88 Z" fill="#a9d492" fill-opacity="0.501961" />
<path d="M 44 193 L 72 32 L 19 127 Z" fill="#a3ce87" fill-opacity="0.501961" />
<path d="M 175 18 L 191 147 L 223 123 Z" fill="#000000" fill-opacity="0.501961" />
<path d="M 188 201 L 206 186 L 179 119 Z" fill="#9dd286" fill-opacity="0.501961" />
<path d="M 24 198 L -16 256 L 55 256 Z" fill="#000000" fill-opacity="0.501961" />
<path d="M 10 166 L 48 -16 L -16 108 Z" fill="#000000" fill-opacity="0.501961" />
<path d="M 123 115 L 93 113 L 131 75 Z" fill="#ff6562" fill-opacity="0.501961" />
<path d="M 54 53 L 56 66 L 35 66 Z" fill="#000000" fill-opacity="0.501961" />
<path d="M 145 69 L 148 57 L 133 45 Z" fill="#ffffff" fill-opacity="0.501961" />
<path d="M 118 247 L 178 133 L 153 264 Z" fill="#a3d089" fill-opacity="0.501961" />
<path d="M 153 214 L 39 191 L 153 119 Z" fill="#96bb7d" fill-opacity="0.501961" />
<path d="M -16 -4 L 47 15 L 116 -3 Z" fill="#000000" fill-opacity="0.501961" />
<path d="M 123 74 L 114 -2 L 85 73 Z" fill="#a4cf8c" fill-opacity="0.501961" />
<path d="M 171 191 L 166 199 L 176 219 Z" fill="#000000" fill-opacity="0.501961" />
<path d="M 129 60 L 121 64 L 127 50 Z" fill="#ffffff" fill-opacity="0.501961" />
<path d="M 74 51 L 83 46 L 94 58 Z" fill="#ffffff" fill-opacity="0.501961" />
<path d="M 126 113 L 134 77 L 141 94 Z" fill="#ff5b5d" fill-opacity="0.501961" />
<path d="M 159 37 L 132 -6 L 174 30 Z" fill="#000000" fill-opacity="0.501961" />
<path d="M 215 242 L 223 271 L 140 257 Z" fill="#000000" fill-opacity="0.501961" />
<path d="M 191 142 L 161 207 L 148 43 Z" fill="#a1cf87" fill-opacity="0.501961" />
<path d="M 50 218 L 35 190 L 48 203 Z" fill="#000000" fill-opacity="0.501961" />
<path d="M 62 105 L 143 125 L 73 129 Z" fill="#adda99" fill-opacity="0.501961" />
<path d="M 32 93 L 69 186 L 2 196 Z" fill="#a2ce87" fill-opacity="0.501961" />
<path d="M 113 78 L 73 87 L 86 107 Z" fill="#ff6764" fill-opacity="0.501961" />
<path d="M 124 4 L 85 75 L 148 17 Z" fill="#aed695" fill-opacity="0.501961" />
<path d="M 96 2 L 66 24 L 128 2 Z" fill="#acd592" fill-opacity="0.501961" />
<path d="M 168 271 L 98 243 L 90 263 Z" fill="#000000" fill-opacity="0.501961" />
<path d="M 40 33 L 71 46 L 55 56 Z" fill="#b1dd98" fill-opacity="0.501961" />
<path d="M 116 271 L 96 235 L 116 228 Z" fill="#000000" fill-opacity="0.501961" />
<path d="M 39 76 L 66 105 L 21 115 Z" fill="#a4cf88" fill-opacity="0.501961" />
<path d="M 73 58 L 81 68 L 79 58 Z" fill="#ffefff" fill-opacity="0.501961" />
<path d="M 189 137 L 223 149 L 210 192 Z" fill="#000000" fill-opacity="0.501961" />
<path d="M -16 222 L 46 271 L 11 193 Z" fill="#000000" fill-opacity="0.501961" />
</g>
</svg>
