<svg version="1.1" width="340" height="340" xmlns="http://www.w3.org/2000/svg">
<rect x="0" y="0" width="340" height="340" fill="#383f50" />
<g transform="scale(1.32812, 1.32812)">
<path d="M 112.506 15.4939 C 123.831 26.8191, 123.831 45.1809, 112.506 56.5061 C 101.181 67.8313, 82.8191 67.8313, 71.4939 56.5061 C 60.1687 45.1809, 60.1687 26.8191, 71.4939 15.4939 C 82.8191 4.1687, 101.181 4.1687, 112.506 15.4939" fill="#ffffff" fill-opacity="0.501961" />
<path d="M 28 24 L 9 40 L 63 41 Z" fill="#ffffff" fill-opacity="0.501961" />
<path d="M 112.506 14.201 C 123.831 25.1357, 123.831 42.8643, 112.506 53.799 C 101.181 64.7337, 82.8191 64.7337, 71.4939 53.799 C 60.1687 42.8643, 60.1687 25.1357, 71.4939 14.201 C 82.8191 3.26633, 101.181 3.26633, 112.506 14.201" fill="#ffffff" fill-opacity="0.501961" />
<path d="M 165.607 65.0503 C 171.464 67.7839, 171.464 72.2161, 165.607 74.9497 C 159.749 77.6834, 150.251 77.6834, 144.393 74.9497 C 138.536 72.2161, 138.536 67.7839, 144.393 65.0503 C 150.251 62.3166, 159.749 62.3166, 165.607 65.0503" fill="#ffffff" fill-opacity="0.501961" />
<path d="M 81.7279 104.757 C 88.7574 107.101, 88.7574 110.899, 81.7279 113.243 C 74.6985 115.586, 63.3015 115.586, 56.2721 113.243 C 49.2426 110.899, 49.2426 107.101, 56.2721 104.757 C 63.3015 102.414, 74.6985 102.414, 81.7279 104.757" fill="#ffffff" fill-opacity="0.501961" />
<path d="M 235.745 18.073 C 225.966 19.1092, 210.127 18.9828, 200.366 17.7906 C 190.606 16.5985, 190.62 14.7921, 200.399 13.7559 C 210.177 12.7196, 226.016 12.846, 235.777 14.0382 C 245.538 15.2303, 245.523 17.0368, 235.745 18.073" fill="#ffffff" fill-opacity="0.501961" />
<path d="M 194 149 L 214 149 L 214 156 L 194 156 Z" fill="#ffffff" fill-opacity="0.501961" />
<path d="M 19.0623 43.3258 C 12.8499 42.3086, 11.1435 37.6167, 15.2509 32.8462 C 19.3583 28.0757, 27.7241 25.0332, 33.9365 26.0505 C 40.1488 27.0678, 41.8552 31.7596, 37.7478 36.5301 C 33.6404 41.3006, 25.2746 44.3431, 19.0623 43.3258" fill="#ffffff" fill-opacity="0.501961" />
<path d="M 119.644 24.461 C 125.159 34.8937, 120.074 43.7827, 108.285 44.3152 C 96.496 44.8476, 82.4683 36.8219, 76.9531 26.3892 C 71.4379 15.9565, 76.5236 7.06752, 88.3124 6.53504 C 100.101 6.00257, 114.129 14.0283, 119.644 24.461" fill="#ffffff" fill-opacity="0.501961" />
<path d="M 173.225 133.775 C 207.592 168.141, 207.592 223.859, 173.225 258.225 C 138.859 292.592, 83.1407 292.592, 48.7746 258.225 C 14.4085 223.859, 14.4085 168.141, 48.7746 133.775 C 83.1407 99.4085, 138.859 99.4085, 173.225 133.775" fill="#22293c" fill-opacity="0.501961" />
<path d="M 179 74 L 149 73 L 146 57 Z" fill="#ffffff" fill-opacity="0.501961" />
<path d="M 208.278 17.9966 L 208.749 9.00898 L 227.722 10.0034 L 227.251 18.991 Z" fill="#ffffff" fill-opacity="0.501961" />
<path d="M 47 194 L 59 194 L 59 198 L 47 198 Z" fill="#ffffff" fill-opacity="0.501961" />
<path d="M 174 55 L 270 -6 L 249 271 Z" fill="#21283b" fill-opacity="0.501961" />
<path d="M 73.9332 105.75 L 81.6306 103.246 L 48.6525 111.267 L 91.3626 115.309 Z" fill="#ffffff" fill-opacity="0.501961" />
<path d="M -16 40 L 56 41 L 153 157 Z" fill="#22293c" fill-opacity="0.501961" />
<path d="M 111.214 56.2699 C 106.559 64.0107, 96.0413 67.4359, 87.7212 63.9205 C 79.4012 60.4051, 76.4295 51.2803, 81.0839 43.5395 C 85.7382 35.7988, 96.2561 32.3735, 104.576 35.8889 C 112.896 39.4043, 115.868 48.5292, 111.214 56.2699" fill="#fbfcfa" fill-opacity="0.501961" />
<path d="M 34.8769 41.5438 C 29.9942 42.4584, 24.4872 39.4825, 22.5767 34.8968 C 20.6662 30.3112, 23.0757 25.8524, 27.9585 24.9378 C 32.8412 24.0232, 38.3483 26.9992, 40.2587 31.5848 C 42.1692 36.1704, 39.7597 40.6292, 34.8769 41.5438" fill="#ffffff" fill-opacity="0.501961" />
<path d="M 165.274 46.6256 L 130.626 81.2739 L 120.726 71.3744 L 155.374 36.7261 Z" fill="#1b2236" fill-opacity="0.501961" />
<path d="M 59 124 L 4 271 L -12 -1 Z" fill="#232a3d" fill-opacity="0.501961" />
<path d="M 85.4853 19.7365 C 90.1716 28.7186, 90.1716 43.2814, 85.4853 52.2635 C 80.799 61.2455, 73.201 61.2455, 68.5147 52.2635 C 63.8284 43.2814, 63.8284 28.7186, 68.5147 19.7365 C 73.201 10.7545, 80.799 10.7545, 85.4853 19.7365" fill="#ffffff" fill-opacity="0.501961" />
<path d="M 162 22 L 206 22 L 206 68 L 162 68 Z" fill="#232a3d" fill-opacity="0.501961" />
<path d="M 64 40 L 17 39 L 27 28 Z" fill="#ffffff" fill-opacity="0.501961" />
<path d="M 51 92 L 65 92 L 65 108 L 51 108 Z" fill="#161e31" fill-opacity="0.501961" />
<path d="M 197 13 L 222 13 L 222 17 L 197 17 Z" fill="#ffffff" fill-opacity="0.501961" />
<path d="M 139 70 L 164 70 L 164 74 L 139 74 Z" fill="#ffffff" fill-opacity="0.501961" />
<path d="M 86 75 L 195 75 L 195 150 L 86 150 Z" fill="#293042" fill-opacity="0.501961" />
<path d="M 90 37 L 111 37 L 111 38 L 90 38 Z" fill="#161727" fill-opacity="0.501961" />
<path d="M 167.522 182.371 C 180.597 152.808, 210.033 147.061, 233.268 169.535 C 256.503 192.008, 264.739 234.193, 251.664 263.756 C 238.589 293.319, 209.153 299.066, 185.918 276.592 C 162.683 254.118, 154.447 211.934, 167.522 182.371" fill="#272e41" fill-opacity="0.501961" />
<path d="M 191 151 L 207 151 L 207 155 L 191 155 Z" fill="#ffffff" fill-opacity="0.501961" />
<path d="M 234 -16 L 91 92 L 146 5 Z" fill="#242b3d" fill-opacity="0.501961" />
<path d="M 256.827 18.7565 C 243.626 20.7372, 224.701 15.3092, 214.556 6.63272 C 204.412 -2.04371, 206.89 -10.683, 220.091 -12.6636 C 233.292 -14.6443, 252.217 -9.21624, 262.361 -0.539802 C 272.506 8.13663, 270.028 16.7759, 256.827 18.7565" fill="#232a3d" fill-opacity="0.501961" />
<path d="M 75 37 L 92 37 L 92 38 L 75 38 Z" fill="#161826" fill-opacity="0.501961" />
<path d="M 76 22 L 82 22 L 82 28 L 76 28 Z" fill="#737883" fill-opacity="0.501961" />
<path d="M -16 38.5893 L 18.8054 34.9583 L 34.7497 -3.13062 L -5.22059 -16 Z" fill="#252c3e" fill-opacity="0.501961" />
<path d="M 89.1431 32.5439 C 82.9854 31.0981, 79.1216 24.924, 80.5133 18.7537 C 81.9049 12.5834, 88.0249 8.75353, 94.1827 10.1994 C 100.34 11.6453, 104.204 17.8194, 102.813 23.9896 C 101.421 30.1599, 95.3009 33.9898, 89.1431 32.5439" fill="#ffffff" fill-opacity="0.501961" />
<path d="M 209 9 L 219 9 L 219 17 L 209 17 Z" fill="#ffffff" fill-opacity="0.501961" />
<path d="M 104 26 L 108 26 L 108 24 L 104 24 Z" fill="#000000" fill-opacity="0.501961" />
<path d="M 158.885 61.5487 L 161.732 67.9435 L 147.115 74.4513 L 144.268 68.0565 Z" fill="#ffffff" fill-opacity="0.501961" />
<path d="M 91.1786 52.1002 C 98.0755 53.6973, 104.883 48.7934, 111.602 37.3886" fill="none" stroke="#3c404f" stroke-opacity="0.501961" stroke-width="0.752941" stroke-linecap="round" />
<path d="M 91.437 54.7764 L 78.0183 46.0622 L 78.563 45.2236 L 91.9817 53.9378 Z" fill="#2d3142" fill-opacity="0.501961" />
<path d="M 155.414 26.8787 C 156.195 28.0503, 156.195 29.9497, 155.414 31.1213 C 154.633 32.2929, 153.367 32.2929, 152.586 31.1213 C 151.805 29.9497, 151.805 28.0503, 152.586 26.8787 C 153.367 25.7071, 154.633 25.7071, 155.414 26.8787" fill="#ffffff" fill-opacity="0.501961" />
<path d="M 47.3842 -4.30196 L 64.3759 16.681 L 42.6158 34.302 L 25.6241 13.319 Z" fill="#1f2639" fill-opacity="0.501961" />
<path d="M 108.225 22.652 L 111.223 51.3349 L 116.927 55.4984 L 118.846 25.0278 Z" fill="#ffffff" fill-opacity="0.501961" />
<path d="M 201 154 L 215 154 L 215 155 L 201 155 Z" fill="#ffffff" fill-opacity="0.501961" />
<path d="M 99 115 L 37 87 L 194 89 Z" fill="#2a3143" fill-opacity="0.501961" />
<path d="M 140 72 L 176 72 L 176 74 L 140 74 Z" fill="#ffffff" fill-opacity="0.501961" />
<path d="M 238.361 154.932 C 247.426 161.473, 245.921 164.845, 234.999 162.465 C 224.076 160.084, 207.873 152.852, 198.808 146.311 C 189.743 139.77, 191.248 136.397, 202.17 138.778 C 213.092 141.158, 229.296 148.391, 238.361 154.932" fill="#293042" fill-opacity="0.501961" />
<path d="M 47 193 L 57 193 L 57 197 L 47 197 Z" fill="#f4f4f4" fill-opacity="0.501961" />
<path d="M 67.7782 108.879 C 72.0739 110.05, 72.0739 111.95, 67.7782 113.121 C 63.4824 114.293, 56.5176 114.293, 52.2218 113.121 C 47.9261 111.95, 47.9261 110.05, 52.2218 108.879 C 56.5176 107.707, 63.4824 107.707, 67.7782 108.879" fill="#ffffff" fill-opacity="0.501961" />
<path d="M 178.229 114.757 C 251.257 117.101, 251.257 120.899, 178.229 123.243 C 105.201 125.586, -13.2009 125.586, -86.229 123.243 C -159.257 120.899, -159.257 117.101, -86.229 114.757 C -13.2009 112.414, 105.201 112.414, 178.229 114.757" fill="#2b3244" fill-opacity="0.501961" />
<path d="M 121.282 95.521 L 204.851 -5.63611 L 161.198 32.3827 L 101.246 63.6226 Z" fill="#2e3547" fill-opacity="0.501961" />
<path d="M 92.7535 52.0875 L 93.2245 61.0751 L 77.2465 61.9125 L 76.7755 52.9249 Z" fill="#ffffff" fill-opacity="0.501961" />
<path d="M -16 252 L 57 261 L 47 170 Z" fill="#293042" fill-opacity="0.501961" />
<path d="M 53.3137 35.8787 C 59.5621 37.0503, 59.5621 38.9497, 53.3137 40.1213 C 47.0653 41.2929, 36.9347 41.2929, 30.6863 40.1213 C 24.4379 38.9497, 24.4379 37.0503, 30.6863 35.8787 C 36.9347 34.7071, 47.0653 34.7071, 53.3137 35.8787" fill="#ffffff" fill-opacity="0.501961" />
<path d="M 182.312 271 L 190.518 159.541 L 217.217 114.354 L 50.2181 50.9524 Z" fill="#2e3547" fill-opacity="0.501961" />
<path d="M 65 25 L 75 25 L 75 42 L 65 42 Z" fill="#ffffff" fill-opacity="0.501961" />
<path d="M 72.0872 104.067 L 73.6402 109.863 L 65.9128 111.933 L 64.3598 106.137 Z" fill="#ffffff" fill-opacity="0.501961" />
<path d="M 111.382 20.8324 L 104.385 24.5996 L 118.272 8.05874 L 62.4224 37.9573 Z" fill="#fffffe" fill-opacity="0.501961" />
<path d="M 170 69 L 271 8 L 131 45 Z" fill="#2b3244" fill-opacity="0.501961" />
<path d="M 116.49 12.0067 L 153.545 54.5064 L 127.279 -16 L 71.0398 -1.51475 Z" fill="#232a3d" fill-opacity="0.501961" />
<path d="M 130.534 83.947 L 127.536 84.0517 L 127.466 82.053 L 130.464 81.9483 Z" fill="#ffffff" fill-opacity="0.501961" />
<path d="M 75.4494 24.2906 L 73.1624 13.531 L 100.551 7.70942 L 102.838 18.469 Z" fill="#ffffff" fill-opacity="0.501961" />
<path d="M 65.5835 109.587 L 86.5036 111.417 L 86.4165 112.413 L 65.4964 110.583 Z" fill="#ffffff" fill-opacity="0.501961" />
<path d="M 80.9307 179.322 C 81.8306 178.894, 83.3162 178.832, 84.2488 179.184 C 85.1813 179.536, 85.2078 180.168, 84.3078 180.597 C 83.4079 181.025, 81.9223 181.087, 80.9897 180.735 C 80.0572 180.383, 80.0307 179.751, 80.9307 179.322" fill="#ffffff" fill-opacity="0.501961" />
<path d="M 47 91 L 49 91 L 49 97 L 47 97 Z" fill="#b6b7be" fill-opacity="0.501961" />
<path d="M 114.414 109.586 C 115.195 110.367, 115.195 111.633, 114.414 112.414 C 113.633 113.195, 112.367 113.195, 111.586 112.414 C 110.805 111.633, 110.805 110.367, 111.586 109.586 C 112.367 108.805, 113.633 108.805, 114.414 109.586" fill="#ffffff" fill-opacity="0.501961" />
<path d="M 17 15 L 21 15 L 21 18 L 17 18 Z" fill="#b9bbc0" fill-opacity="0.501961" />
<path d="M 106.506 53.6559 C 113.357 55.0396, 113.667 58.3083, 107.199 60.9568 C 100.731 63.6053, 89.9332 64.6306, 83.0821 63.2469 C 76.231 61.8631, 75.9206 58.5944, 82.3888 55.9459 C 88.857 53.2974, 99.6544 52.2721, 106.506 53.6559" fill="#ffffff" fill-opacity="0.501961" />
<path d="M 196.484 146.632 L 210.794 153.993 L 188.486 154.832 L 199.367 155.066 Z" fill="#fbfcfb" fill-opacity="0.501961" />
<path d="M 111 114 L 61 40 L 37 90 Z" fill="#2b3244" fill-opacity="0.501961" />
<path d="M 178 122 L 181 127 L 176 127 Z" fill="#b2b4b9" fill-opacity="0.501961" />
<path d="M 62.7447 -16 L 58.2018 44.7264 L 85.9529 67.5587 L 63.2654 67.6106 Z" fill="#2a3143" fill-opacity="0.501961" />
<path d="M 64.2426 185.757 C 66.5858 188.101, 66.5858 191.899, 64.2426 194.243 C 61.8995 196.586, 58.1005 196.586, 55.7574 194.243 C 53.4142 191.899, 53.4142 188.101, 55.7574 185.757 C 58.1005 183.414, 61.8995 183.414, 64.2426 185.757" fill="#242b3e" fill-opacity="0.501961" />
<path d="M 119.243 26.1005 C 121.586 31.5678, 121.586 40.4322, 119.243 45.8995 C 116.899 51.3668, 113.101 51.3668, 110.757 45.8995 C 108.414 40.4322, 108.414 31.5678, 110.757 26.1005 C 113.101 20.6332, 116.899 20.6332, 119.243 26.1005" fill="#ffffff" fill-opacity="0.501961" />
<path d="M 195 17 L 236 17 L 236 16 L 195 16 Z" fill="#ffffff" fill-opacity="0.501961" />
<path d="M 137.872 107.608 L 141.866 107.399 L 142.128 112.392 L 138.134 112.601 Z" fill="#c0c2c7" fill-opacity="0.501961" />
<path d="M 33.7614 182.527 L 32.7832 182.32 L 34.2386 175.473 L 35.2168 175.68 Z" fill="#bec1c6" fill-opacity="0.501961" />
<path d="M 17 50 L 19 53 L 15 51 Z" fill="#ffffff" fill-opacity="0.501961" />
<path d="M 188 113 L 187 113 L 187 115 L 188 115 Z" fill="#ffffff" fill-opacity="0.501961" />
<path d="M 254.648 20.8076 C 273.784 25.8844, 273.784 34.1156, 254.648 39.1924 C 235.513 44.2692, 204.487 44.2692, 185.352 39.1924 C 166.216 34.1156, 166.216 25.8844, 185.352 20.8076 C 204.487 15.7308, 235.513 15.7308, 254.648 20.8076" fill="#2b3244" fill-opacity="0.501961" />
<path d="M 152.199 61.9864 L 144.587 73.8514 L 165.479 75.5406 L 176.778 75.3004 Z" fill="#ffffff" fill-opacity="0.501961" />
<path d="M 133.414 116.586 C 134.195 117.367, 134.195 118.633, 133.414 119.414 C 132.633 120.195, 131.367 120.195, 130.586 119.414 C 129.805 118.633, 129.805 117.367, 130.586 116.586 C 131.367 115.805, 132.633 115.805, 133.414 116.586" fill="#d8d9dc" fill-opacity="0.501961" />
<path d="M 32 146 L 38 146 L 38 149 L 32 149 Z" fill="#93969f" fill-opacity="0.501961" />
<path d="M 144.996 82.5272 C 144.241 82.9267, 143.01 82.9413, 142.246 82.5598 C 141.482 82.1784, 141.474 81.5452, 142.229 81.1457 C 142.984 80.7462, 144.215 80.7316, 144.979 81.1131 C 145.743 81.4946, 145.75 82.1277, 144.996 82.5272" fill="#e9e9e9" fill-opacity="0.501961" />
<path d="M 236 51 L 238 51 L 238 52 L 236 52 Z" fill="#ffffff" fill-opacity="0.501961" />
<path d="M 32.7025 79.1052 L 36.6957 76.0961 L 37.2975 76.8948 L 33.3043 79.9039 Z" fill="#ffffff" fill-opacity="0.501961" />
<path d="M -0.42618 185.097 L -16 125.924 L 53.0918 98.5749 L 48.7724 133.409 Z" fill="#2b3244" fill-opacity="0.501961" />
<path d="M 145.269 68.649 L 96.2763 63.7365 L 40.4651 105.282 L 58.7566 108.372 Z" fill="#2d3446" fill-opacity="0.501961" />
<path d="M 210.192 0.0502525 C 215.269 2.78392, 215.269 7.21608, 210.192 9.94975 C 205.116 12.6834, 196.884 12.6834, 191.808 9.94975 C 186.731 7.21608, 186.731 2.78392, 191.808 0.0502525 C 196.884 -2.68342, 205.116 -2.68342, 210.192 0.0502525" fill="#262d40" fill-opacity="0.501961" />
<path d="M 23 106 L 24 106 L 24 109 L 23 109 Z" fill="#fbfbfb" fill-opacity="0.501961" />
<path d="M 91 51 L 99 51 L 99 52 L 91 52 Z" fill="#424554" fill-opacity="0.501961" />
<path d="M 230.962 168.242 L 193.369 4.50367 L 251.878 16.1729 L 131.045 -16 Z" fill="#2d3446" fill-opacity="0.501961" />
<path d="M 111.607 80.4195 C 112.56 81.1271, 113.176 82.6499, 112.982 83.8209 C 112.788 84.9918, 111.858 85.3675, 110.905 84.6599 C 109.952 83.9523, 109.337 82.4295, 109.531 81.2585 C 109.725 80.0875, 110.654 79.7119, 111.607 80.4195" fill="#c1c1c6" fill-opacity="0.501961" />
<path d="M 76.6459 38.4542 L 76.2228 44.8188 L 83.508 49.9127 L 76.705 38.5966 Z" fill="#787b85" fill-opacity="0.501961" />
<path d="M 39.9896 25.6967 L 40.6967 24.9896 L 52.0104 36.3033 L 51.3033 37.0104 Z" fill="#262d3f" fill-opacity="0.501961" />
<path d="M 121.646 35.6675 L 115.128 55.2056 L 93.0975 65.1388 L 117.239 34.1153 Z" fill="#ffffff" fill-opacity="0.501961" />
<path d="M 122 32 L 220 32 L 220 61 L 122 61 Z" fill="#2c3345" fill-opacity="0.501961" />
<path d="M 44.3137 32.8787 C 50.5621 34.0503, 50.5621 35.9497, 44.3137 37.1213 C 38.0653 38.2929, 27.9347 38.2929, 21.6863 37.1213 C 15.4379 35.9497, 15.4379 34.0503, 21.6863 32.8787 C 27.9347 31.7071, 38.0653 31.7071, 44.3137 32.8787" fill="#ffffff" fill-opacity="0.501961" />
<path d="M 106.414 24.5858 C 107.195 25.3668, 107.195 26.6332, 106.414 27.4142 C 105.633 28.1953, 104.367 28.1953, 103.586 27.4142 C 102.805 26.6332, 102.805 25.3668, 103.586 24.5858 C 104.367 23.8047, 105.633 23.8047, 106.414 24.5858" fill="#000003" fill-opacity="0.501961" />
<path d="M 108.385 28.1716 C 118.538 29.7337, 118.538 32.2663, 108.385 33.8284 C 98.2311 35.3905, 81.7689 35.3905, 71.6152 33.8284 C 61.4616 32.2663, 61.4616 29.7337, 71.6152 28.1716 C 81.7689 26.6095, 98.2311 26.6095, 108.385 28.1716" fill="#ffffff" fill-opacity="0.501961" />
<path d="M 66 109 L 64 109 L 64 115 L 66 115 Z" fill="#ffffff" fill-opacity="0.501961" />
<path d="M 206.793 196.813 L 202.648 194.017 L 203.207 193.187 L 207.352 195.983 Z" fill="#ffffff" fill-opacity="0.501961" />
<path d="M 46.7782 181.222 C 51.0739 185.518, 51.0739 192.482, 46.7782 196.778 C 42.4824 201.074, 35.5176 201.074, 31.2218 196.778 C 26.9261 192.482, 26.9261 185.518, 31.2218 181.222 C 35.5176 176.926, 42.4824 176.926, 46.7782 181.222" fill="#2b3245" fill-opacity="0.501961" />
<path d="M 109.067 38.6878 L 109.933 39.1878 L 102.933 51.3122 L 102.067 50.8122 Z" fill="#474a59" fill-opacity="0.501961" />
<path d="M 122.445 172.52 L 124.333 174.851 L 123.555 175.48 L 121.667 173.149 Z" fill="#ffffff" fill-opacity="0.501961" />
<path d="M 99.9988 62.077 L 65.9367 38.1902 L 67.3084 51.2176 L 77.029 59.2758 Z" fill="#ffffff" fill-opacity="0.501961" />
<path d="M 230.414 106.586 C 231.195 107.367, 231.195 108.633, 230.414 109.414 C 229.633 110.195, 228.367 110.195, 227.586 109.414 C 226.805 108.633, 226.805 107.367, 227.586 106.586 C 228.367 105.805, 229.633 105.805, 230.414 106.586" fill="#dcdde0" fill-opacity="0.501961" />
<path d="M 81 74 L 83 74 L 83 76 L 81 76 Z" fill="#e8e8ea" fill-opacity="0.501961" />
<path d="M 190.292 50.575 L 162.109 71.1335 L 173.175 -16 L 115.929 -10.2561 Z" fill="#2b3244" fill-opacity="0.501961" />
<path d="M 96.2426 41.7574 C 98.5858 44.1005, 98.5858 47.8995, 96.2426 50.2426 C 93.8995 52.5858, 90.1005 52.5858, 87.7574 50.2426 C 85.4142 47.8995, 85.4142 44.1005, 87.7574 41.7574 C 90.1005 39.4142, 93.8995 39.4142, 96.2426 41.7574" fill="#ffffff" fill-opacity="0.501961" />
<path d="M 146.024 59.2098 L 68.1724 93.2512 L 119.049 51.2226 L 145.624 71.0579 Z" fill="#2b3244" fill-opacity="0.501961" />
<path d="M 112.898 25.9327 C 108.079 23.9052, 102.258 18.4811, 99.8947 13.8175 C 97.5319 9.1539, 99.5229 7.0169, 104.342 9.04435 C 109.161 11.0718, 114.983 16.496, 117.345 21.1595 C 119.708 25.8231, 117.717 27.9601, 112.898 25.9327" fill="#ffffff" fill-opacity="0.501961" />
<path d="M 71.6784 15.3549 L 115.952 -16 L -7.36588 8.65593 L 60.1346 26.2458 Z" fill="#2b3144" fill-opacity="0.501961" />
<path d="M 213.647 148.049 L 205.853 152.549 L 204.353 149.951 L 212.147 145.451 Z" fill="#192134" fill-opacity="0.501961" />
<path d="M 26.8016 20.537 L 48.1411 39.6399 L 10.623 40.9383 L 30.7146 23.6025 Z" fill="#ffffff" fill-opacity="0.501961" />
<path d="M 141.244 11.8338 C 141.453 12.5101, 141.136 13.3631, 140.537 13.739 C 139.937 14.115, 139.281 13.8715, 139.071 13.1952 C 138.862 12.5189, 139.179 11.6659, 139.779 11.29 C 140.378 10.914, 141.034 11.1575, 141.244 11.8338" fill="#ffffff" fill-opacity="0.501961" />
<path d="M 198.707 134.525 L 204.845 141.107 L 187.293 157.475 L 181.155 150.893 Z" fill="#252c3f" fill-opacity="0.501961" />
<path d="M 81 179 L 82 179 L 82 181 L 81 181 Z" fill="#ffffff" fill-opacity="0.501961" />
<path d="M 167.183 190.951 L 165.683 193.549 L 164.817 193.049 L 166.317 190.451 Z" fill="#ffffff" fill-opacity="0.501961" />
<path d="M 80.4142 22.8787 C 81.1953 24.0503, 81.1953 25.9497, 80.4142 27.1213 C 79.6332 28.2929, 78.3668 28.2929, 77.5858 27.1213 C 76.8047 25.9497, 76.8047 24.0503, 77.5858 22.8787 C 78.3668 21.7071, 79.6332 21.7071, 80.4142 22.8787" fill="#000007" fill-opacity="0.501961" />
<path d="M 201.121 147.907 L 203.369 153.47 L 196.879 156.093 L 194.631 150.53 Z" fill="#ffffff" fill-opacity="0.501961" />
<path d="M 61.4645 114.485 L 67.1983 104.939 L 90.6342 113.489 L 50.5568 110.58 Z" fill="#ffffff" fill-opacity="0.501961" />
<path d="M 119.778 23.4365 L 73.0276 14.8278 L 64.3892 35.6768 L 80.567 23.3885 Z" fill="#ffffff" fill-opacity="0.501961" />
<path d="M 209.021 155.293 C 215.66 155.683, 215.66 156.317, 209.021 156.707 C 202.382 157.098, 191.618 157.098, 184.979 156.707 C 178.34 156.317, 178.34 155.683, 184.979 155.293 C 191.618 154.902, 202.382 154.902, 209.021 155.293" fill="#121a2e" fill-opacity="0.501961" />
<path d="M 161.657 75.2929 C 164.781 75.6834, 164.781 76.3166, 161.657 76.7071 C 158.533 77.0976, 153.467 77.0976, 150.343 76.7071 C 147.219 76.3166, 147.219 75.6834, 150.343 75.2929 C 153.467 74.9024, 158.533 74.9024, 161.657 75.2929" fill="#000012" fill-opacity="0.501961" />
<path d="M 137.902 159.578 L 136.974 159.203 L 138.098 156.422 L 139.026 156.797 Z" fill="#cfd1d5" fill-opacity="0.501961" />
<path d="M 101.963 148.279 L 98.0072 112.951 L 70.5406 114.901 L 4.08235 233.206 Z" fill="#2c3345" fill-opacity="0.501961" />
<path d="M 171.591 172.405 L 170.814 173.035 L 166.409 167.595 L 167.186 166.965 Z" fill="#9da0a8" fill-opacity="0.501961" />
<path d="M -13.2278 47.498 L 20.2672 17.1811 L 35.6347 -2.8899 L 17.9553 34.0836 Z" fill="#2a3143" fill-opacity="0.501961" />
<path d="M 102 49 L 100 49 L 100 50 L 102 50 Z" fill="#25293b" fill-opacity="0.501961" />
<path d="M 160.843 64.7398 L 169.702 70.5668 L 249.149 78.7758 L 174.56 -7.52794 Z" fill="#2c3345" fill-opacity="0.501961" />
<path d="M 205.186 195.99 L 175.589 140.747 L 165.366 189.182 L 204.926 271 Z" fill="#2c3345" fill-opacity="0.501961" />
<path d="M 17 41 L 63 41 L 63 77 L 17 77 Z" fill="#2c3345" fill-opacity="0.501961" />
<path d="M 166.414 109.586 C 167.195 110.367, 167.195 111.633, 166.414 112.414 C 165.633 113.195, 164.367 113.195, 163.586 112.414 C 162.805 111.633, 162.805 110.367, 163.586 109.586 C 164.367 108.805, 165.633 108.805, 166.414 109.586" fill="#d2d3d7" fill-opacity="0.501961" />
<path d="M 75.7216 37.427 L 81.1694 48.119 L 80.2784 48.573 L 74.8306 37.881 Z" fill="#3a3e4d" fill-opacity="0.501961" />
<path d="M 244.414 89.5858 C 245.195 90.3668, 245.195 91.6332, 244.414 92.4142 C 243.633 93.1953, 242.367 93.1953, 241.586 92.4142 C 240.805 91.6332, 240.805 90.3668, 241.586 89.5858 C 242.367 88.8047, 243.633 88.8047, 244.414 89.5858" fill="#adb0b7" fill-opacity="0.501961" />
<path d="M 240.414 189.586 C 241.195 190.367, 241.195 191.633, 240.414 192.414 C 239.633 193.195, 238.367 193.195, 237.586 192.414 C 236.805 191.633, 236.805 190.367, 237.586 189.586 C 238.367 188.805, 239.633 188.805, 240.414 189.586" fill="#999da5" fill-opacity="0.501961" />
<path d="M 187.523 9.50742 L 186.714 8.91963 L 188.477 6.49258 L 189.286 7.08037 Z" fill="#ffffff" fill-opacity="0.501961" />
<path d="M 59.9497 196.293 C 62.6834 196.683, 62.6834 197.317, 59.9497 197.707 C 57.2161 198.098, 52.7839 198.098, 50.0503 197.707 C 47.3166 197.317, 47.3166 196.683, 50.0503 196.293 C 52.7839 195.902, 57.2161 195.902, 59.9497 196.293" fill="#ffffff" fill-opacity="0.501961" />
<path d="M 218.828 9.17157 C 220.391 10.7337, 220.391 13.2663, 218.828 14.8284 C 217.266 16.3905, 214.734 16.3905, 213.172 14.8284 C 211.609 13.2663, 211.609 10.7337, 213.172 9.17157 C 214.734 7.60948, 217.266 7.60948, 218.828 9.17157" fill="#ffffff" fill-opacity="0.501961" />
<path d="M 205 15 L 229 15 L 229 17 L 205 17 Z" fill="#ffffff" fill-opacity="0.501961" />
<path d="M 271 147.073 L 169.444 118.55 L 213.25 148.572 L 221.44 214.943 Z" fill="#2d3446" fill-opacity="0.501961" />
<path d="M 243 114 L 245 114 L 245 118 L 243 118 Z" fill="#a4a8af" fill-opacity="0.501961" />
<path d="M 43.2146 28.2117 L 44.0533 28.7563 L 40.7854 33.7883 L 39.9467 33.2437 Z" fill="#171f32" fill-opacity="0.501961" />
<path d="M 210 61 L 120 102 L 160 113 Z" fill="#2a3143" fill-opacity="0.501961" />
<path d="M 35.4142 175.586 C 36.1953 176.367, 36.1953 177.633, 35.4142 178.414 C 34.6332 179.195, 33.3668 179.195, 32.5858 178.414 C 31.8047 177.633, 31.8047 176.367, 32.5858 175.586 C 33.3668 174.805, 34.6332 174.805, 35.4142 175.586" fill="#f3f3f5" fill-opacity="0.501961" />
<path d="M 246.859 141.6 L 247.716 142.115 L 245.141 146.4 L 244.284 145.885 Z" fill="#bbbdc3" fill-opacity="0.501961" />
<path d="M 99.7782 8.05025 C 104.074 10.7839, 104.074 15.2161, 99.7782 17.9497 C 95.4824 20.6834, 88.5176 20.6834, 84.2218 17.9497 C 79.9261 15.2161, 79.9261 10.7839, 84.2218 8.05025 C 88.5176 5.31658, 95.4824 5.31658, 99.7782 8.05025" fill="#ffffff" fill-opacity="0.501961" />
<path d="M 84.6748 49.9343 L 77.6842 43.3792 L 79.5057 38.9495 L 112.128 43.2424 Z" fill="#ffffff" fill-opacity="0.501961" />
<path d="M 199.558 -16 L 270.975 7.49224 L 243.31 18.0447 L 219.987 11.5062 Z" fill="#2c3345" fill-opacity="0.501961" />
<path d="M 64.2198 9.37527 L 63.5507 8.63212 L 65.7802 6.62473 L 66.4493 7.36788 Z" fill="#ffffff" fill-opacity="0.501961" />
<path d="M 191.146 112.91 L 189.737 115.559 L 188.854 115.09 L 190.263 112.441 Z" fill="#dfe1e3" fill-opacity="0.501961" />
<path d="M 11.9497 92.6699 L 11.405 93.5086 L 8.05034 91.3301 L 8.59498 90.4914 Z" fill="#f3f3f4" fill-opacity="0.501961" />
<path d="M 112.26 54.7871 L 117.831 36.5624 L 88.8258 61.9894 L 98.6065 59.5245 Z" fill="#ffffff" fill-opacity="0.501961" />
<path d="M 119 22 L 174 49 L 137 68 Z" fill="#2b3244" fill-opacity="0.501961" />
<path d="M 64.0286 39.5807 C 62.3942 36.6797, 63.3976 32.9622, 66.2697 31.2776 C 69.1418 29.5929, 72.7951 30.579, 74.4294 33.48 C 76.0638 36.3811, 75.0604 40.0985, 72.1882 41.7832 C 69.3161 43.4678, 65.6629 42.4817, 64.0286 39.5807" fill="#ffffff" fill-opacity="0.501961" />
<path d="M 67 114 L 83 114 L 83 114 L 67 114 Z" fill="#000015" fill-opacity="0.501961" />
<path d="M 74 59 L 92 66 L 77 76 Z" fill="#282f41" fill-opacity="0.501961" />
<path d="M 88.4154 102.155 L 76.0541 108.728 L 75.5846 107.845 L 87.9459 101.272 Z" fill="#1e2639" fill-opacity="0.501961" />
<path d="M 52.8936 93.1934 L 53.4954 93.9921 L 47.1064 98.8066 L 46.5046 98.0079 Z" fill="#b9bcc1" fill-opacity="0.501961" />
<path d="M 58.6029 109.704 L 39.6029 76.7955 L 47.3971 72.2955 L 66.3971 105.204 Z" fill="#293043" fill-opacity="0.501961" />
<path d="M 223 105 L 251 120 L 258 158 Z" fill="#2b3244" fill-opacity="0.501961" />
<path d="M 27.8284 26.1716 C 29.3905 27.7337, 29.3905 30.2663, 27.8284 31.8284 C 26.2663 33.3905, 23.7337 33.3905, 22.1716 31.8284 C 20.6095 30.2663, 20.6095 27.7337, 22.1716 26.1716 C 23.7337 24.6095, 26.2663 24.6095, 27.8284 26.1716" fill="#ffffff" fill-opacity="0.501961" />
<path d="M 110.168 11.7916 C 133.273 35.2336, 157.821 49.7421, 183.811 55.3173" fill="none" stroke="#2c3345" stroke-opacity="0.501961" stroke-width="0.752941" stroke-linecap="round" />
<path d="M 106 42 L 107 42 L 107 44 L 106 44 Z" fill="#404353" fill-opacity="0.501961" />
<path d="M 198 14 L 222 14 L 222 17 L 198 17 Z" fill="#ffffff" fill-opacity="0.501961" />
<path d="M 139.328 72.5707 L 149.597 68.6286 L 150.672 71.4293 L 140.403 75.3714 Z" fill="#ffffff" fill-opacity="0.501961" />
<path d="M 54.8284 192.879 C 56.3905 194.05, 56.3905 195.95, 54.8284 197.121 C 53.2663 198.293, 50.7337 198.293, 49.1716 197.121 C 47.6095 195.95, 47.6095 194.05, 49.1716 192.879 C 50.7337 191.707, 53.2663 191.707, 54.8284 192.879" fill="#ffffff" fill-opacity="0.501961" />
<path d="M 211.243 152.586 C 213.586 153.367, 213.586 154.633, 211.243 155.414 C 208.899 156.195, 205.101 156.195, 202.757 155.414 C 200.414 154.633, 200.414 153.367, 202.757 152.586 C 205.101 151.805, 208.899 151.805, 211.243 152.586" fill="#fdfdfd" fill-opacity="0.501961" />
<path d="M 325.312 209.059 C 424.896 227.804, 424.896 258.196, 325.312 276.941 C 225.729 295.686, 64.2715 295.686, -35.3122 276.941 C -134.896 258.196, -134.896 227.804, -35.3122 209.059 C 64.2715 190.314, 225.729 190.314, 325.312 209.059" fill="#2b3244" fill-opacity="0.501961" />
<path d="M 46.0562 29.9118 L 60.4369 22.8979 L 63.9438 30.0882 L 49.5631 37.1021 Z" fill="#232a3d" fill-opacity="0.501961" />
<path d="M 132.096 128.199 L 133.927 107.278 L 139.904 107.801 L 138.073 128.722 Z" fill="#282f42" fill-opacity="0.501961" />
<path d="M 48.364 182.636 C 51.8787 186.151, 51.8787 191.849, 48.364 195.364 C 44.8492 198.879, 39.1508 198.879, 35.636 195.364 C 32.1213 191.849, 32.1213 186.151, 35.636 182.636 C 39.1508 179.121, 44.8492 179.121, 48.364 182.636" fill="#2b3345" fill-opacity="0.501961" />
<path d="M 127.979 33.5089 L 145.211 32.0806 L 159.332 25.8891 L 111.166 4.76974 Z" fill="#2b3245" fill-opacity="0.501961" />
<path d="M 94.3107 76.1263 L 7.33935 93.8412 L 54.9029 120.437 L 34.606 76.0345 Z" fill="#2b3244" fill-opacity="0.501961" />
<path d="M 20 37 L 56 37 L 56 39 L 20 39 Z" fill="#ffffff" fill-opacity="0.501961" />
<path d="M 77 82 L 48 113 L 62 40 Z" fill="#2c3345" fill-opacity="0.501961" />
<path d="M 189.414 111.586 C 190.195 112.367, 190.195 113.633, 189.414 114.414 C 188.633 115.195, 187.367 115.195, 186.586 114.414 C 185.805 113.633, 185.805 112.367, 186.586 111.586 C 187.367 110.805, 188.633 110.805, 189.414 111.586" fill="#f5f4f6" fill-opacity="0.501961" />
<path d="M 157.034 63.4814 L 168.396 76.3429 L 149.025 66.3963 L 152.347 62.2324 Z" fill="#ffffff" fill-opacity="0.501961" />
<path d="M 32.5355 16.4645 C 34.4882 18.4171, 34.4882 21.5829, 32.5355 23.5355 C 30.5829 25.4882, 27.4171 25.4882, 25.4645 23.5355 C 23.5118 21.5829, 23.5118 18.4171, 25.4645 16.4645 C 27.4171 14.5118, 30.5829 14.5118, 32.5355 16.4645" fill="#232a3d" fill-opacity="0.501961" />
<path d="M 84.3632 63.8745 L 98.9976 63.8195 L 75.2703 46.9313 L 64.3358 43.8263 Z" fill="#ffffff" fill-opacity="0.501961" />
<path d="M 232 13 L 233 13 L 233 21 L 232 21 Z" fill="#2c3445" fill-opacity="0.501961" />
<path d="M 195.457 144.341 L 180.941 60.3769 L 232.777 90.0447 L 217.621 155.908 Z" fill="#2c3345" fill-opacity="0.501961" />
<path d="M 55 114 L 63 114 L 63 118 L 55 118 Z" fill="#1f2639" fill-opacity="0.501961" />
<path d="M 119.393 48.6661 L 129.89 60.7415 L 124.607 65.3339 L 114.11 53.2585 Z" fill="#2a3143" fill-opacity="0.501961" />
<path d="M 51 109 L 75 109 L 75 112 L 51 112 Z" fill="#ffffff" fill-opacity="0.501961" />
<path d="M 115.414 108.586 C 116.195 109.367, 116.195 110.633, 115.414 111.414 C 114.633 112.195, 113.367 112.195, 112.586 111.414 C 111.805 110.633, 111.805 109.367, 112.586 108.586 C 113.367 107.805, 114.633 107.805, 115.414 108.586" fill="#d3d4d7" fill-opacity="0.501961" />
<path d="M 128.396 81.2413 L 129.471 84.042 L 127.604 84.7587 L 126.529 81.958 Z" fill="#e9e9eb" fill-opacity="0.501961" />
<path d="M 36 128 L 8 112 L 58 102 Z" fill="#2c3345" fill-opacity="0.501961" />
<path d="M 195.4 152.116 L 184.235 113.544 L 156.16 194.839 L 84.7615 196.587 Z" fill="#2b3244" fill-opacity="0.501961" />
<path d="M 130.87 86.1005 C 145.71 91.5678, 145.71 100.432, 130.87 105.899 C 116.03 111.367, 91.9699 111.367, 77.1299 105.899 C 62.29 100.432, 62.29 91.5678, 77.1299 86.1005 C 91.9699 80.6332, 116.03 80.6332, 130.87 86.1005" fill="#2b3244" fill-opacity="0.501961" />
<path d="M 38.5386 186.189 L 142.534 180.503 L 57.5298 196.067 L 18.761 116.347 Z" fill="#2c3345" fill-opacity="0.501961" />
<path d="M 98.6066 10.4645 C 104.464 12.4171, 104.464 15.5829, 98.6066 17.5355 C 92.7487 19.4882, 83.2513 19.4882, 77.3934 17.5355 C 71.5355 15.5829, 71.5355 12.4171, 77.3934 10.4645 C 83.2513 8.51184, 92.7487 8.51184, 98.6066 10.4645" fill="#ffffff" fill-opacity="0.501961" />
<path d="M 119.798 102.624 L 84.6553 168.767 L 110.829 86.3701 L 115.27 164.501 Z" fill="#2d3446" fill-opacity="0.501961" />
<path d="M 70.3454 37.0101 L 83.3851 32.3398 L 81.1845 19.8362 L 122.148 36.2193 Z" fill="#ffffff" fill-opacity="0.501961" />
<path d="M 111.414 79.5858 C 112.195 80.3668, 112.195 81.6332, 111.414 82.4142 C 110.633 83.1953, 109.367 83.1953, 108.586 82.4142 C 107.805 81.6332, 107.805 80.3668, 108.586 79.5858 C 109.367 78.8047, 110.633 78.8047, 111.414 79.5858" fill="#d4d5d8" fill-opacity="0.501961" />
<path d="M 250 176 L 253 176 L 253 178 L 250 178 Z" fill="#898d97" fill-opacity="0.501961" />
<path d="M -16 72.0429 L 14.3353 65.5672 L 11.5143 33.8497 L -16 -6.01272 Z" fill="#2e3547" fill-opacity="0.501961" />
<path d="M 110.852 69.265 L 107.613 69.844 L 80.9072 62.6543 L 108.542 105.916 Z" fill="#2c3345" fill-opacity="0.501961" />
<path d="M -2 -16 L 143 -14 L 77 9 Z" fill="#272e40" fill-opacity="0.501961" />
<path d="M 70 17 L 83 17 L 83 23 L 70 23 Z" fill="#ffffff" fill-opacity="0.501961" />
<path d="M 216.828 9.17157 C 218.391 10.7337, 218.391 13.2663, 216.828 14.8284 C 215.266 16.3905, 212.734 16.3905, 211.172 14.8284 C 209.609 13.2663, 209.609 10.7337, 211.172 9.17157 C 212.734 7.60948, 215.266 7.60948, 216.828 9.17157" fill="#ffffff" fill-opacity="0.501961" />
<path d="M 162 170 L 225 170 L 225 191 L 162 191 Z" fill="#2b3244" fill-opacity="0.501961" />
<path d="M 107.676 43.5288 L 107.327 38.541 L 108.324 38.4712 L 108.673 43.459 Z" fill="#2b2e3f" fill-opacity="0.501961" />
<path d="M 205 107 L 206 107 L 206 108 L 205 108 Z" fill="#f1f2f2" fill-opacity="0.501961" />
<path d="M 247.685 -10.8642 L 207.428 12.6074 L 126.159 -16 L 268.479 23.0489 Z" fill="#2d3446" fill-opacity="0.501961" />
<path d="M 75.5355 19.2218 C 77.4882 23.5176, 77.4882 30.4824, 75.5355 34.7782 C 73.5829 39.0739, 70.4171 39.0739, 68.4645 34.7782 C 66.5118 30.4824, 66.5118 23.5176, 68.4645 19.2218 C 70.4171 14.9261, 73.5829 14.9261, 75.5355 19.2218" fill="#ffffff" fill-opacity="0.501961" />
<path d="M 204.682 151.575 L 197.431 154.956 L 195.318 150.425 L 202.569 147.044 Z" fill="#ffffff" fill-opacity="0.501961" />
<path d="M 57.6985 100.172 C 74.1005 101.734, 74.1005 104.266, 57.6985 105.828 C 41.2965 107.391, 14.7035 107.391, -1.69848 105.828 C -18.1005 104.266, -18.1005 101.734, -1.69848 100.172 C 14.7035 98.6095, 41.2965 98.6095, 57.6985 100.172" fill="#2a3244" fill-opacity="0.501961" />
<path d="M 108 12 L 109 12 L 109 36 L 108 36 Z" fill="#ffffff" fill-opacity="0.501961" />
<path d="M 142 72 L 161 67 L 148 64 Z" fill="#ffffff" fill-opacity="0.501961" />
<path d="M 137 157 L 238 94 L 195 150 Z" fill="#2b3245" fill-opacity="0.501961" />
<path d="M 172.13 66.7146 L 170.836 71.5442 L 169.87 71.2854 L 171.164 66.4558 Z" fill="#161e31" fill-opacity="0.501961" />
<path d="M 11.8269 37.3006 L 21.7038 35.7363 L 22.1731 38.6994 L 12.2962 40.2637 Z" fill="#ffffff" fill-opacity="0.501961" />
<path d="M 35.4142 76.5858 C 36.1953 77.3668, 36.1953 78.6332, 35.4142 79.4142 C 34.6332 80.1953, 33.3668 80.1953, 32.5858 79.4142 C 31.8047 78.6332, 31.8047 77.3668, 32.5858 76.5858 C 33.3668 75.8047, 34.6332 75.8047, 35.4142 76.5858" fill="#d5d6d9" fill-opacity="0.501961" />
<path d="M 145 79 L 164 79 L 164 118 L 145 118 Z" fill="#2b3244" fill-opacity="0.501961" />
<path d="M 195.428 158.474 C 218.854 172.72, 252.255 201.189, 270.031 222.064 C 287.807 242.938, 283.226 248.312, 259.8 234.066 C 236.374 219.821, 202.973 191.351, 185.197 170.477 C 167.421 149.603, 172.002 144.229, 195.428 158.474" fill="#2c3345" fill-opacity="0.501961" />
<path d="M 141.707 109.293 C 142.098 109.683, 142.098 110.317, 141.707 110.707 C 141.317 111.098, 140.683 111.098, 140.293 110.707 C 139.902 110.317, 139.902 109.683, 140.293 109.293 C 140.683 108.902, 141.317 108.902, 141.707 109.293" fill="#ffffff" fill-opacity="0.501961" />
<path d="M 77.4096 57.9455 C 72.9463 56.7025, 68.0587 52.1598, 66.4928 47.7993 C 64.927 43.4387, 67.2759 40.9114, 71.7392 42.1545 C 76.2025 43.3975, 81.0901 47.9402, 82.656 52.3008 C 84.2218 56.6613, 81.8729 59.1886, 77.4096 57.9455" fill="#ffffff" fill-opacity="0.501961" />
<path d="M 17 16 L 20 16 L 20 17 L 17 17 Z" fill="#edeeee" fill-opacity="0.501961" />
<path d="M 60 38 L 81 74 L 44 94 Z" fill="#2c3345" fill-opacity="0.501961" />
<path d="M 110.651 53.2258 C 106.328 56.0653, 98.6665 58.9155, 93.5389 59.592 C 88.4113 60.2685, 87.759 58.5151, 92.0819 55.6757 C 96.4048 52.8363, 104.066 49.986, 109.194 49.3095 C 114.321 48.633, 114.974 50.3864, 110.651 53.2258" fill="#ffffff" fill-opacity="0.501961" />
<path d="M 67 2 L 23 -7 L 42 33 Z" fill="#2c3345" fill-opacity="0.501961" />
<path d="M 15.7782 14.2218 C 20.0739 18.5176, 20.0739 25.4824, 15.7782 29.7782 C 11.4824 34.0739, 4.51759 34.0739, 0.221825 29.7782 C -4.07394 25.4824, -4.07394 18.5176, 0.221825 14.2218 C 4.51759 9.92606, 11.4824 9.92606, 15.7782 14.2218" fill="#2b3244" fill-opacity="0.501961" />
<path d="M 102.032 0.075975 L 112.632 15.8465 L 108.875 -16 L 236.645 35.2322 Z" fill="#2c3345" fill-opacity="0.501961" />
<path d="M 223.028 14.7282 L 222.536 14.5305 L 244.814 -16 L 206.449 -16 Z" fill="#2e3547" fill-opacity="0.501961" />
<path d="M 223 13 L 226 13 L 226 15 L 223 15 Z" fill="#ffffff" fill-opacity="0.501961" />
<path d="M 107.684 61.3222 C 113.254 60.3861, 115.025 63.2922, 111.638 67.8132 C 108.252 72.3341, 100.99 76.7579, 95.4195 77.694 C 89.8488 78.6301, 88.0783 75.724, 91.465 71.203 C 94.8517 66.682, 102.113 62.2582, 107.684 61.3222" fill="#2c3245" fill-opacity="0.501961" />
<path d="M 121.685 37.0669 C 120.714 44.1579, 119.236 48.4164, 117.251 49.8426" fill="none" stroke="#a6a9b1" stroke-opacity="0.501961" stroke-width="0.752941" stroke-linecap="round" />
<path d="M 124.414 172.586 C 125.195 173.367, 125.195 174.633, 124.414 175.414 C 123.633 176.195, 122.367 176.195, 121.586 175.414 C 120.805 174.633, 120.805 173.367, 121.586 172.586 C 122.367 171.805, 123.633 171.805, 124.414 172.586" fill="#abadb4" fill-opacity="0.501961" />
<path d="M 50.2091 98.2446 L 49.2528 98.5369 L 47.7909 93.7554 L 48.7472 93.4631 Z" fill="#e0e1e3" fill-opacity="0.501961" />
<path d="M 44 60 L 92 100 L 31 91 Z" fill="#2c3345" fill-opacity="0.501961" />
<path d="M -16 86.3863 L 15.0247 33.0629 L 19.8308 36.0555 L -2.07091 -16 Z" fill="#2d3446" fill-opacity="0.501961" />
<path d="M 121.899 150.979 C 127.367 157.618, 127.367 168.382, 121.899 175.021 C 116.432 181.66, 107.568 181.66, 102.101 175.021 C 96.6332 168.382, 96.6332 157.618, 102.101 150.979 C 107.568 144.34, 116.432 144.34, 121.899 150.979" fill="#2b3244" fill-opacity="0.501961" />
<path d="M 175.048 74.2548 L 161.057 74.7434 L 160.952 71.7452 L 174.943 71.2566 Z" fill="#ffffff" fill-opacity="0.501961" />
<path d="M 65.6569 11.3431 C 68.781 14.4673, 68.781 19.5327, 65.6569 22.6569 C 62.5327 25.781, 57.4673 25.781, 54.3431 22.6569 C 51.219 19.5327, 51.219 14.4673, 54.3431 11.3431 C 57.4673 8.21895, 62.5327 8.21895, 65.6569 11.3431" fill="#2a3143" fill-opacity="0.501961" />
<path d="M 166 63 L 213 100 L 253 86 Z" fill="#2c3345" fill-opacity="0.501961" />
<path d="M 177.707 125.293 C 178.098 125.683, 178.098 126.317, 177.707 126.707 C 177.317 127.098, 176.683 127.098, 176.293 126.707 C 175.902 126.317, 175.902 125.683, 176.293 125.293 C 176.683 124.902, 177.317 124.902, 177.707 125.293" fill="#ffffff" fill-opacity="0.501961" />
<path d="M 100.485 42.1716 C 105.172 43.7337, 105.172 46.2663, 100.485 47.8284 C 95.799 49.3905, 88.201 49.3905, 83.5147 47.8284 C 78.8284 46.2663, 78.8284 43.7337, 83.5147 42.1716 C 88.201 40.6095, 95.799 40.6095, 100.485 42.1716" fill="#ffffff" fill-opacity="0.501961" />
<path d="M 91.1271 43.0347 L 88.9299 26.5352 L 116.419 10.4554 L 89.2642 40.9142 Z" fill="#fafbfb" fill-opacity="0.501961" />
<path d="M 168.121 68.8787 C 169.293 70.0503, 169.293 71.9497, 168.121 73.1213 C 166.95 74.2929, 165.05 74.2929, 163.879 73.1213 C 162.707 71.9497, 162.707 70.0503, 163.879 68.8787 C 165.05 67.7071, 166.95 67.7071, 168.121 68.8787" fill="#ffffff" fill-opacity="0.501961" />
<path d="M 153.45 38.1243 L 144.238 71.3387 L 132.505 49.5533 L 115.26 16.6398 Z" fill="#2d3446" fill-opacity="0.501961" />
<path d="M 45.6261 114.92 L 63.4404 113.205 L 21.1787 175.106 L 160.684 171.638 Z" fill="#2c3345" fill-opacity="0.501961" />
<path d="M -16 247 L 53 190 L 7 163 Z" fill="#2c3345" fill-opacity="0.501961" />
<path d="M 192 152 L 195 152 L 195 155 L 192 155 Z" fill="#e6e7e9" fill-opacity="0.501961" />
<path d="M 131.707 118.293 C 132.098 118.683, 132.098 119.317, 131.707 119.707 C 131.317 120.098, 130.683 120.098, 130.293 119.707 C 129.902 119.317, 129.902 118.683, 130.293 118.293 C 130.683 117.902, 131.317 117.902, 131.707 118.293" fill="#e2e3e4" fill-opacity="0.501961" />
<path d="M 109.388 238.432 C 208.511 139.216, 255.229 86.8409, 249.543 81.308" fill="none" stroke="#2d3446" stroke-opacity="0.501961" stroke-width="0.752941" stroke-linecap="round" />
<path d="M 172.204 125.349 L 159.679 75.0184 L 210.051 80.1175 L 191.624 109.216 Z" fill="#2b3345" fill-opacity="0.501961" />
<path d="M 253.156 108.563 L 257.061 125.659 L 233.845 161.255 L 208.645 152.758 Z" fill="#2d3446" fill-opacity="0.501961" />
<path d="M 134 78 L 157 170 L 195 150 Z" fill="#2c3345" fill-opacity="0.501961" />
<path d="M 147.536 74.2929 C 149.488 74.6834, 149.488 75.3166, 147.536 75.7071 C 145.583 76.0976, 142.417 76.0976, 140.464 75.7071 C 138.512 75.3166, 138.512 74.6834, 140.464 74.2929 C 142.417 73.9024, 145.583 73.9024, 147.536 74.2929" fill="#81858e" fill-opacity="0.501961" />
<path d="M 253.147 173.455 L 253.843 178.406 L 252.853 178.545 L 252.157 173.594 Z" fill="#0c1429" fill-opacity="0.501961" />
<path d="M 35 146 L 36 146 L 36 149 L 35 149 Z" fill="#cdcdd1" fill-opacity="0.501961" />
<path d="M 205 15 L 230 15 L 230 17 L 205 17 Z" fill="#ffffff" fill-opacity="0.501961" />
<path d="M 26.7559 26.9768 C 29.4025 26.7914, 30.5015 28.52, 29.2107 30.8379 C 27.9199 33.1557, 24.728 35.185, 22.0814 35.3704 C 19.4349 35.5558, 18.3358 33.8272, 19.6267 31.5093 C 20.9175 29.1915, 24.1094 27.1622, 26.7559 26.9768" fill="#ffffff" fill-opacity="0.501961" />
<path d="M -5 209 L 40 138 L -16 54 Z" fill="#2c3345" fill-opacity="0.501961" />
<path d="M 172 67 L 156 60 L 164 68 Z" fill="#262e40" fill-opacity="0.501961" />
<path d="M 208 118 L 205 151 L 246 146 Z" fill="#2c3345" fill-opacity="0.501961" />
<path d="M 22.1717 9.87275 L 17.2743 27.7058 L 62.9723 15.9825 L 56.5162 -16 Z" fill="#2d3446" fill-opacity="0.501961" />
<path d="M 101.507 15.5401 L 94.5287 6.04828 L 79.0505 10.6526 L 105.83 37.2272 Z" fill="#ffffff" fill-opacity="0.501961" />
<path d="M 240.485 -10.6066 C 245.172 -4.74874, 245.172 4.74874, 240.485 10.6066 C 235.799 16.4645, 228.201 16.4645, 223.515 10.6066 C 218.828 4.74874, 218.828 -4.74874, 223.515 -10.6066 C 228.201 -16.4645, 235.799 -16.4645, 240.485 -10.6066" fill="#2a3143" fill-opacity="0.501961" />
<path d="M 133 117 L 214 117 L 214 124 L 133 124 Z" fill="#2c3344" fill-opacity="0.501961" />
<path d="M 211.078 153.723 C 194.773 137.953, 135.195 135.558, 32.3451 146.537" fill="none" stroke="#2e3547" stroke-opacity="0.501961" stroke-width="0.752941" stroke-linecap="round" />
<path d="M 47 195.5 L 57 195.5 L 57 196.5 L 47 196.5 Z" fill="#ffffff" fill-opacity="0.501961" />
<path d="M 64 111 L 87 111 L 87 112 L 64 112 Z" fill="#ffffff" fill-opacity="0.501961" />
<path d="M 149 63 L 158 63 L 158 72 L 149 72 Z" fill="#ffffff" fill-opacity="0.501961" />
<path d="M 82.7 182.077 L 82.3184 180.114 L 83.3 179.923 L 83.6816 181.886 Z" fill="#ffffff" fill-opacity="0.501961" />
<path d="M 129.088 118.771 L 132.324 116.42 L 132.912 117.229 L 129.676 119.58 Z" fill="#d5d7d9" fill-opacity="0.501961" />
<path d="M 143.897 78.698 L 144.499 79.4966 L 142.103 81.302 L 141.501 80.5034 Z" fill="#d4d3d5" fill-opacity="0.501961" />
<path d="M 46.7071 95.2929 C 47.0976 95.6834, 47.0976 96.3166, 46.7071 96.7071 C 46.3166 97.0976, 45.6834 97.0976, 45.2929 96.7071 C 44.9024 96.3166, 44.9024 95.6834, 45.2929 95.2929 C 45.6834 94.9024, 46.3166 94.9024, 46.7071 95.2929" fill="#dfdfe2" fill-opacity="0.501961" />
<path d="M 86 42 L 88 42 L 88 50 L 86 50 Z" fill="#ffffff" fill-opacity="0.501961" />
<path d="M 100.939 -0.024064 L 138.053 38.503 L 79.9769 -16 L 216.359 25.4314 Z" fill="#2d3446" fill-opacity="0.501961" />
<path d="M 137.484 110.549 L 138.058 109.73 L 140.516 111.451 L 139.942 112.27 Z" fill="#e2e3e6" fill-opacity="0.501961" />
<path d="M 204.862 107.906 L 175.122 104.171 L 184.492 31.3529 L 228.82 109.261 Z" fill="#2c3345" fill-opacity="0.501961" />
<path d="M 65.364 92.636 C 68.8787 96.1508, 68.8787 101.849, 65.364 105.364 C 61.8492 108.879, 56.1508 108.879, 52.636 105.364 C 49.1213 101.849, 49.1213 96.1508, 52.636 92.636 C 56.1508 89.1213, 61.8492 89.1213, 65.364 92.636" fill="#2a3143" fill-opacity="0.501961" />
<path d="M 51.9518 121.914 L 32.6967 42.8277 L 12.6169 41.4984 L 36.1726 78.4235 Z" fill="#2c3345" fill-opacity="0.501961" />
<path d="M 219.536 10.5858 C 221.488 11.3668, 221.488 12.6332, 219.536 13.4142 C 217.583 14.1953, 214.417 14.1953, 212.464 13.4142 C 210.512 12.6332, 210.512 11.3668, 212.464 10.5858 C 214.417 9.80474, 217.583 9.80474, 219.536 10.5858" fill="#ffffff" fill-opacity="0.501961" />
<path d="M 17.4142 50.5858 C 18.1953 51.3668, 18.1953 52.6332, 17.4142 53.4142 C 16.6332 54.1953, 15.3668 54.1953, 14.5858 53.4142 C 13.8047 52.6332, 13.8047 51.3668, 14.5858 50.5858 C 15.3668 49.8047, 16.6332 49.8047, 17.4142 50.5858" fill="#c5c7cc" fill-opacity="0.501961" />
<path d="M 135.059 105.894 C 145.044 121.362, 150.311 139.862, 150.86 161.395" fill="none" stroke="#2e3547" stroke-opacity="0.501961" stroke-width="0.752941" stroke-linecap="round" />
<path d="M 167.707 167.293 C 168.098 167.683, 168.098 168.317, 167.707 168.707 C 167.317 169.098, 166.683 169.098, 166.293 168.707 C 165.902 168.317, 165.902 167.683, 166.293 167.293 C 166.683 166.902, 167.317 166.902, 167.707 167.293" fill="#ffffff" fill-opacity="0.501961" />
<path d="M 79.623 109.777 L 79.4322 108.795 L 82.377 108.223 L 82.5678 109.205 Z" fill="#ffffff" fill-opacity="0.501961" />
<path d="M 115.871 17.6234 L 119.508 40.26 L 103.595 63.0287 L 112.448 28.7584 Z" fill="#ffffff" fill-opacity="0.501961" />
<path d="M 154 230 L 166 167 L 132 116 Z" fill="#2c3345" fill-opacity="0.501961" />
<path d="M 230.707 107.293 C 231.098 107.683, 231.098 108.317, 230.707 108.707 C 230.317 109.098, 229.683 109.098, 229.293 108.707 C 228.902 108.317, 228.902 107.683, 229.293 107.293 C 229.683 106.902, 230.317 106.902, 230.707 107.293" fill="#f7f7f7" fill-opacity="0.501961" />
<path d="M 45.4142 32.5858 C 46.1953 33.3668, 46.1953 34.6332, 45.4142 35.4142 C 44.6332 36.1953, 43.3668 36.1953, 42.5858 35.4142 C 41.8047 34.6332, 41.8047 33.3668, 42.5858 32.5858 C 43.3668 31.8047, 44.6332 31.8047, 45.4142 32.5858" fill="#ffffff" fill-opacity="0.501961" />
<path d="M 68.1213 107.879 C 69.2929 109.05, 69.2929 110.95, 68.1213 112.121 C 66.9497 113.293, 65.0503 113.293, 63.8787 112.121 C 62.7071 110.95, 62.7071 109.05, 63.8787 107.879 C 65.0503 106.707, 66.9497 106.707, 68.1213 107.879" fill="#ffffff" fill-opacity="0.501961" />
<path d="M 83 50 L 84 50 L 84 49 L 83 49 Z" fill="#1c2232" fill-opacity="0.501961" />
<path d="M 207 152 L 208 152 L 208 155 L 207 155 Z" fill="#fdfdfd" fill-opacity="0.501961" />
<path d="M 104.718 66.9145 L 115.107 53.996 L 168.61 43.0435 L 138.383 73.5735 Z" fill="#2c3345" fill-opacity="0.501961" />
<path d="M 10.5034 92.4989 L 8.69796 90.103 L 9.4966 89.5011 L 11.302 91.897 Z" fill="#dfe0e3" fill-opacity="0.501961" />
<path d="M 147.505 76.2757 L 143.189 80.4436 L 142.495 79.7243 L 146.811 75.5564 Z" fill="#21283a" fill-opacity="0.501961" />
<path d="M 271 144 L 232 106 L 224 140 Z" fill="#2c3345" fill-opacity="0.501961" />
<path d="M 65 52 L -9 72 L 28 44 Z" fill="#2c3345" fill-opacity="0.501961" />
<path d="M 188.324 154.049 L 183.938 139.705 L 189.676 137.951 L 194.062 152.295 Z" fill="#2b3244" fill-opacity="0.501961" />
<path d="M 84 43 L 106 43 L 106 39 L 84 39 Z" fill="#ffffff" fill-opacity="0.501961" />
<path d="M 209.995 12.1596 L 152.255 -6.60912 L 271 20.2907 L 209.978 -16 Z" fill="#2c3345" fill-opacity="0.501961" />
<path d="M 45 174 L 112 188 L 58 194 Z" fill="#2c3345" fill-opacity="0.501961" />
<path d="M 44.435 40.2929 C 51.855 40.6834, 51.855 41.3166, 44.435 41.7071 C 37.0151 42.0976, 24.9849 42.0976, 17.565 41.7071 C 10.145 41.3166, 10.145 40.6834, 17.565 40.2929 C 24.9849 39.9024, 37.0151 39.9024, 44.435 40.2929" fill="#6a6e7b" fill-opacity="0.501961" />
<path d="M 72.2449 104.351 L 72.6265 106.314 L 65.7551 107.649 L 65.3735 105.686 Z" fill="#ffffff" fill-opacity="0.501961" />
<path d="M 83.2426 51.4645 C 85.5858 53.4171, 85.5858 56.5829, 83.2426 58.5355 C 80.8995 60.4882, 77.1005 60.4882, 74.7574 58.5355 C 72.4142 56.5829, 72.4142 53.4171, 74.7574 51.4645 C 77.1005 49.5118, 80.8995 49.5118, 83.2426 51.4645" fill="#ffffff" fill-opacity="0.501961" />
<path d="M 60.8284 196.293 C 62.3905 196.683, 62.3905 197.317, 60.8284 197.707 C 59.2663 198.098, 56.7337 198.098, 55.1716 197.707 C 53.6095 197.317, 53.6095 196.683, 55.1716 196.293 C 56.7337 195.902, 59.2663 195.902, 60.8284 196.293" fill="#ffffff" fill-opacity="0.501961" />
<path d="M 219.71 -16 L 201.645 14.1159 L 204.575 14.0349 L 183.013 -12.9138 Z" fill="#343b4c" fill-opacity="0.501961" />
<path d="M 78.9593 108.518 C 64.341 92.2688, 38.0207 86.5881, -0.001391 91.4761" fill="none" stroke="#2d3446" stroke-opacity="0.501961" stroke-width="0.752941" stroke-linecap="round" />
<path d="M 106.414 22.8787 C 107.195 24.0503, 107.195 25.9497, 106.414 27.1213 C 105.633 28.2929, 104.367 28.2929, 103.586 27.1213 C 102.805 25.9497, 102.805 24.0503, 103.586 22.8787 C 104.367 21.7071, 105.633 21.7071, 106.414 22.8787" fill="#2b3752" fill-opacity="0.501961" />
<path d="M 94.8553 25.8801 L 94.6473 24.9019 L 117.145 20.1199 L 117.353 21.0981 Z" fill="#ffffff" fill-opacity="0.501961" />
<path d="M 88.4142 50.2929 C 89.1953 50.6834, 89.1953 51.3166, 88.4142 51.7071 C 87.6332 52.0976, 86.3668 52.0976, 85.5858 51.7071 C 84.8047 51.3166, 84.8047 50.6834, 85.5858 50.2929 C 86.3668 49.9024, 87.6332 49.9024, 88.4142 50.2929" fill="#1e2336" fill-opacity="0.501961" />
<path d="M 177.626 127.053 L 177.382 125.068 L 178.374 124.947 L 178.618 126.932 Z" fill="#fdfefd" fill-opacity="0.501961" />
<path d="M 66 34 L 67 22 L 85 35 Z" fill="#ffffff" fill-opacity="0.501961" />
<path d="M 247.457 145.459 L 244.028 143.399 L 244.543 142.541 L 247.972 144.601 Z" fill="#d8d9dd" fill-opacity="0.501961" />
<path d="M 1 131 L -16 -13 L 15 48 Z" fill="#2c3345" fill-opacity="0.501961" />
<path d="M 98.5537 63.1834 L 67.4264 48.174 L 98.8034 55.2699 L 114.781 54.4078 Z" fill="#ffffff" fill-opacity="0.501961" />
<path d="M 217.799 159.101 C 228.734 164.568, 228.734 173.432, 217.799 178.899 C 206.864 184.367, 189.136 184.367, 178.201 178.899 C 167.266 173.432, 167.266 164.568, 178.201 159.101 C 189.136 153.633, 206.864 153.633, 217.799 159.101" fill="#2c3345" fill-opacity="0.501961" />
<path d="M 71.8321 104.867 L 72.6412 104.279 L 76.1679 109.133 L 75.3588 109.721 Z" fill="#ffffff" fill-opacity="0.501961" />
<path d="M 21.0962 267.603 L 50.7939 95.9171 L 49.6963 195.348 L 22.2413 213.469 Z" fill="#2d3446" fill-opacity="0.501961" />
<path d="M 34.9695 35.8724 C 30.2655 38.2299, 22.1868 40.1231, 16.9252 40.101 C 11.6635 40.0789, 11.2115 38.1499, 15.9155 35.7924 C 20.6194 33.4349, 28.6982 31.5416, 33.9598 31.5637 C 39.2215 31.5858, 39.6735 33.5149, 34.9695 35.8724" fill="#ffffff" fill-opacity="0.501961" />
<path d="M 136.792 96.7752 L 77.19 65.8095 L 136.699 61.3664 L 30.6484 107.062 Z" fill="#2d3446" fill-opacity="0.501961" />
<path d="M 136.707 157.293 C 137.098 157.683, 137.098 158.317, 136.707 158.707 C 136.317 159.098, 135.683 159.098, 135.293 158.707 C 134.902 158.317, 134.902 157.683, 135.293 157.293 C 135.683 156.902, 136.317 156.902, 136.707 157.293" fill="#d0d1d4" fill-opacity="0.501961" />
<path d="M 134.227 158.089 L 135.217 157.95 L 135.773 161.911 L 134.783 162.05 Z" fill="#161e32" fill-opacity="0.501961" />
<path d="M 54.7071 107.293 C 55.0976 107.683, 55.0976 108.317, 54.7071 108.707 C 54.3166 109.098, 53.6834 109.098, 53.2929 108.707 C 52.9024 108.317, 52.9024 107.683, 53.2929 107.293 C 53.6834 106.902, 54.3166 106.902, 54.7071 107.293" fill="#c9ccd1" fill-opacity="0.501961" />
<path d="M 177.33 127.95 L 176.491 127.405 L 178.67 124.05 L 179.509 124.595 Z" fill="#e0e1e4" fill-opacity="0.501961" />
<path d="M 139.707 10.2929 C 140.098 10.6834, 140.098 11.3166, 139.707 11.7071 C 139.317 12.0976, 138.683 12.0976, 138.293 11.7071 C 137.902 11.3166, 137.902 10.6834, 138.293 10.2929 C 138.683 9.90237, 139.317 9.90237, 139.707 10.2929" fill="#ffffff" fill-opacity="0.501961" />
<path d="M 77 25 L 80 25 L 80 27 L 77 27 Z" fill="#101b35" fill-opacity="0.501961" />
<path d="M 24.7071 107.293 C 25.0976 107.683, 25.0976 108.317, 24.7071 108.707 C 24.3166 109.098, 23.6834 109.098, 23.2929 108.707 C 22.9024 108.317, 22.9024 107.683, 23.2929 107.293 C 23.6834 106.902, 24.3166 106.902, 24.7071 107.293" fill="#f1f0f2" fill-opacity="0.501961" />
<path d="M 106.865 58.3565 C 101.732 61.8053, 99.5022 59.975, 101.885 54.2683 C 104.267 48.5617, 110.36 41.1397, 115.493 37.6909 C 120.626 34.2421, 122.855 36.0724, 120.473 41.7791 C 118.09 47.4857, 111.998 54.9077, 106.865 58.3565" fill="#fdfdfd" fill-opacity="0.501961" />
<path d="M 179.342 115.89 L 271 79.0247 L 165.503 107.722 L 190.621 142.024 Z" fill="#2c3345" fill-opacity="0.501961" />
<path d="M 92.1213 108.879 C 93.2929 110.05, 93.2929 111.95, 92.1213 113.121 C 90.9497 114.293, 89.0503 114.293, 87.8787 113.121 C 86.7071 111.95, 86.7071 110.05, 87.8787 108.879 C 89.0503 107.707, 90.9497 107.707, 92.1213 108.879" fill="#293042" fill-opacity="0.501961" />
<path d="M 64 107 L 66 107 L 66 114 L 64 114 Z" fill="#ffffff" fill-opacity="0.501961" />
<path d="M 253 5 L 182 55 L 271 46 Z" fill="#2d3446" fill-opacity="0.501961" />
<path d="M 113.707 12.2929 C 114.098 12.6834, 114.098 13.3166, 113.707 13.7071 C 113.317 14.0976, 112.683 14.0976, 112.293 13.7071 C 111.902 13.3166, 111.902 12.6834, 112.293 12.2929 C 112.683 11.9024, 113.317 11.9024, 113.707 12.2929" fill="#a1a2a9" fill-opacity="0.501961" />
<path d="M 106.707 26.2929 C 107.098 26.6834, 107.098 27.3166, 106.707 27.7071 C 106.317 28.0976, 105.683 28.0976, 105.293 27.7071 C 104.902 27.3166, 104.902 26.6834, 105.293 26.2929 C 105.683 25.9024, 106.317 25.9024, 106.707 26.2929" fill="#131b2e" fill-opacity="0.501961" />
<path d="M 77 27 L 66 27 L 66 35 L 77 35 Z" fill="#ffffff" fill-opacity="0.501961" />
<path d="M 235.482 13.9914 L 235.517 15.9911 L 234.518 16.0086 L 234.483 14.0089 Z" fill="#dfe0e1" fill-opacity="0.501961" />
<path d="M 62.0463 198.032 L 61.5017 198.87 L 53.9537 193.968 L 54.4983 193.13 Z" fill="#d2d3d7" fill-opacity="0.501961" />
<path d="M 92.7071 51.2929 C 93.0976 51.6834, 93.0976 52.3166, 92.7071 52.7071 C 92.3166 53.0976, 91.6834 53.0976, 91.2929 52.7071 C 90.9024 52.3166, 90.9024 51.6834, 91.2929 51.2929 C 91.6834 50.9024, 92.3166 50.9024, 92.7071 51.2929" fill="#020216" fill-opacity="0.501961" />
<path d="M 261 198 L 246 271 L 222 186 Z" fill="#2d3446" fill-opacity="0.501961" />
<path d="M 206.739 196.476 L 205.229 197.788 L 203.261 195.524 L 204.771 194.212 Z" fill="#d1d1d4" fill-opacity="0.501961" />
<path d="M 147 271 L 271 244 L 203 195 Z" fill="#2c3345" fill-opacity="0.501961" />
<path d="M 36.2568 27.0748 L 41.9299 35.5519 L 17.9209 35.575 L 31.3207 24.9057 Z" fill="#fdfdfd" fill-opacity="0.501961" />
<path d="M 36.7071 146.293 C 37.0976 146.683, 37.0976 147.317, 36.7071 147.707 C 36.3166 148.098, 35.6834 148.098, 35.2929 147.707 C 34.9024 147.317, 34.9024 146.683, 35.2929 146.293 C 35.6834 145.902, 36.3166 145.902, 36.7071 146.293" fill="#fcfcfe" fill-opacity="0.501961" />
<path d="M 30.8483 29.2211 C 32.3125 39.6494, 40.6155 42.0884, 55.7574 36.5381" fill="none" stroke="#fdfdfe" stroke-opacity="0.501961" stroke-width="0.752941" stroke-linecap="round" />
<path d="M 123 58 L 164 61 L 209 -5 Z" fill="#2c3345" fill-opacity="0.501961" />
<path d="M 12.8699 160.215 C 13.2549 152.736, 18.7309 143.48, 25.1008 139.542 C 31.4708 135.603, 36.3225 138.474, 35.9375 145.953 C 35.5524 153.432, 30.0765 162.688, 23.7065 166.627 C 17.3366 170.565, 12.4849 167.695, 12.8699 160.215" fill="#2c3345" fill-opacity="0.501961" />
<path d="M 46.8891 2.11496 L 50.4158 6.96906 L 5.11088 39.885 L 1.58417 35.0309 Z" fill="#2b3244" fill-opacity="0.501961" />
<path d="M 105.192 37.2929 C 110.269 37.6834, 110.269 38.3166, 105.192 38.7071 C 100.116 39.0976, 91.8844 39.0976, 86.8076 38.7071 C 81.7308 38.3166, 81.7308 37.6834, 86.8076 37.2929 C 91.8844 36.9024, 100.116 36.9024, 105.192 37.2929" fill="#5d5e69" fill-opacity="0.501961" />
<path d="M 201 14 L 227 14 L 227 16 L 201 16 Z" fill="#ffffff" fill-opacity="0.501961" />
<path d="M 62.6888 22.4075 C 65.6263 22.7168, 66.5813 24.891, 64.8218 27.2635 C 63.0623 29.636, 59.2546 31.3085, 56.3171 30.9992 C 53.3795 30.6898, 52.4246 28.5157, 54.1841 26.1431 C 55.9436 23.7706, 59.7513 22.0981, 62.6888 22.4075" fill="#2e3547" fill-opacity="0.501961" />
<path d="M 104.728 9.63604 C 111.757 13.1508, 111.757 18.8492, 104.728 22.364 C 97.6985 25.8787, 86.3015 25.8787, 79.2721 22.364 C 72.2426 18.8492, 72.2426 13.1508, 79.2721 9.63604 C 86.3015 6.12132, 97.6985 6.12132, 104.728 9.63604" fill="#ffffff" fill-opacity="0.501961" />
<path d="M 194 162 L 247 145 L 194 205 Z" fill="#2c3345" fill-opacity="0.501961" />
<path d="M 105 131 L 127 85 L 158 95 Z" fill="#2c3345" fill-opacity="0.501961" />
<path d="M 89.9185 118.574 C 92.4953 122.172, 91.0681 125.802, 86.7307 126.681 C 82.3932 127.56, 76.7882 125.356, 74.2113 121.758 C 71.6345 118.16, 73.0618 114.53, 77.3992 113.651 C 81.7366 112.772, 87.3416 114.976, 89.9185 118.574" fill="#2e3647" fill-opacity="0.501961" />
<path d="M 153.279 28.9173 L 154.033 29.5733 L 152.721 31.0827 L 151.967 30.4267 Z" fill="#efeff1" fill-opacity="0.501961" />
<path d="M 139.707 109.293 C 140.098 109.683, 140.098 110.317, 139.707 110.707 C 139.317 111.098, 138.683 111.098, 138.293 110.707 C 137.902 110.317, 137.902 109.683, 138.293 109.293 C 138.683 108.902, 139.317 108.902, 139.707 109.293" fill="#fcfdfd" fill-opacity="0.501961" />
<path d="M 60.8284 178.929 C 62.3905 182.834, 62.3905 189.166, 60.8284 193.071 C 59.2663 196.976, 56.7337 196.976, 55.1716 193.071 C 53.6095 189.166, 53.6095 182.834, 55.1716 178.929 C 56.7337 175.024, 59.2663 175.024, 60.8284 178.929" fill="#2c3345" fill-opacity="0.501961" />
<path d="M 81 57 L 69 20 L 64 31 Z" fill="#ffffff" fill-opacity="0.501961" />
<path d="M 244.485 -2.07107 C 249.172 1.83418, 249.172 8.16582, 244.485 12.0711 C 239.799 15.9763, 232.201 15.9763, 227.515 12.0711 C 222.828 8.16582, 222.828 1.83418, 227.515 -2.07107 C 232.201 -5.97631, 239.799 -5.97631, 244.485 -2.07107" fill="#2c3345" fill-opacity="0.501961" />
<path d="M 238.707 50.2929 C 239.098 50.6834, 239.098 51.3166, 238.707 51.7071 C 238.317 52.0976, 237.683 52.0976, 237.293 51.7071 C 236.902 51.3166, 236.902 50.6834, 237.293 50.2929 C 237.683 49.9024, 238.317 49.9024, 238.707 50.2929" fill="#d8dade" fill-opacity="0.501961" />
<path d="M 109.531 -7.57882 L 115.381 -2.12284 L 104.469 9.57882 L 98.6186 4.12284 Z" fill="#2a3143" fill-opacity="0.501961" />
<path d="M 145.995 63.407 L 147.794 45.1553 L 165.622 -6.81573 L 157.85 0.206639 Z" fill="#2d3446" fill-opacity="0.501961" />
<path d="M 63.6916 41.4792 L 62.6923 41.5141 L 62.3084 30.5208 L 63.3077 30.4859 Z" fill="#6b6e7c" fill-opacity="0.501961" />
<path d="M 83.9676 49.6131 L 85.081 41.691 L 90.0324 42.3869 L 88.919 50.309 Z" fill="#ffffff" fill-opacity="0.501961" />
<path d="M 33 136 L 24 102 L 57 99 Z" fill="#2c3345" fill-opacity="0.501961" />
<path d="M 140.707 11.2929 C 141.098 11.6834, 141.098 12.3166, 140.707 12.7071 C 140.317 13.0976, 139.683 13.0976, 139.293 12.7071 C 138.902 12.3166, 138.902 11.6834, 139.293 11.2929 C 139.683 10.9024, 140.317 10.9024, 140.707 11.2929" fill="#ffffff" fill-opacity="0.501961" />
<path d="M 245 117 L 244 143 L 257 130 Z" fill="#2c3345" fill-opacity="0.501961" />
<path d="M 164.795 73.4109 L 147.28 67.7513 L 150.828 63.0779 L 177.158 75.8839 Z" fill="#fcfcfc" fill-opacity="0.501961" />
<path d="M 231.142 18.2929 C 238.953 18.6834, 238.953 19.3166, 231.142 19.7071 C 223.332 20.0976, 210.668 20.0976, 202.858 19.7071 C 195.047 19.3166, 195.047 18.6834, 202.858 18.2929 C 210.668 17.9024, 223.332 17.9024, 231.142 18.2929" fill="#1c2336" fill-opacity="0.501961" />
<path d="M 52 111 L 86 111 L 86 112 L 52 112 Z" fill="#ffffff" fill-opacity="0.501961" />
<path d="M 101.552 74.6037 C 130.175 79.3281, 142.423 92.7543, 138.296 114.882" fill="none" stroke="#31384a" stroke-opacity="0.501961" stroke-width="0.752941" stroke-linecap="round" />
<path d="M 97.9804 63.5789 L 117.603 48.588 L 120.586 39.7321 L 93.8243 55.5474 Z" fill="#ffffff" fill-opacity="0.501961" />
<path d="M 236.707 52.2929 C 237.098 52.6834, 237.098 53.3166, 236.707 53.7071 C 236.317 54.0976, 235.683 54.0976, 235.293 53.7071 C 234.902 53.3166, 234.902 52.6834, 235.293 52.2929 C 235.683 51.9024, 236.317 51.9024, 236.707 52.2929" fill="#8e919a" fill-opacity="0.501961" />
<path d="M 54.4142 193.586 C 55.1953 194.367, 55.1953 195.633, 54.4142 196.414 C 53.6332 197.195, 52.3668 197.195, 51.5858 196.414 C 50.8047 195.633, 50.8047 194.367, 51.5858 193.586 C 52.3668 192.805, 53.6332 192.805, 54.4142 193.586" fill="#ffffff" fill-opacity="0.501961" />
<path d="M 58.7661 40.6323 C 35.3924 37.1963, 20.818 36.0683, 15.0429 37.2482" fill="none" stroke="#ffffff" stroke-opacity="0.501961" stroke-width="0.752941" stroke-linecap="round" />
<path d="M 114.778 113.222 C 119.074 117.518, 119.074 124.482, 114.778 128.778 C 110.482 133.074, 103.518 133.074, 99.2218 128.778 C 94.9261 124.482, 94.9261 117.518, 99.2218 113.222 C 103.518 108.926, 110.482 108.926, 114.778 113.222" fill="#2c3345" fill-opacity="0.501961" />
<path d="M 56 35 L 72 13 L 35 22 Z" fill="#2b3244" fill-opacity="0.501961" />
<path d="M 80.4142 25.2929 C 81.1953 25.6834, 81.1953 26.3166, 80.4142 26.7071 C 79.6332 27.0976, 78.3668 27.0976, 77.5858 26.7071 C 76.8047 26.3166, 76.8047 25.6834, 77.5858 25.2929 C 78.3668 24.9024, 79.6332 24.9024, 80.4142 25.2929" fill="#242a3d" fill-opacity="0.501961" />
<path d="M 55.8413 22.7708 L 68.0258 54.5125 L 66.1587 55.2292 L 53.9742 23.4875 Z" fill="#293043" fill-opacity="0.501961" />
<path d="M 69.2916 43.9814 L 86.6994 62.9741 L 69.0375 29.3431 L 64.256 44.6263 Z" fill="#fefefe" fill-opacity="0.501961" />
<path d="M 115.234 20.9868 L 109.951 25.5792 L 100.766 15.0132 L 106.049 10.4208 Z" fill="#ffffff" fill-opacity="0.501961" />
<path d="M 153.464 74.8918 L 138.484 74.1068 L 138.536 73.1082 L 153.516 73.8932 Z" fill="#ffffff" fill-opacity="0.501961" />
<path d="M 143.841 78.27 C 144.549 85.4846, 163.963 100.765, 202.081 124.111" fill="none" stroke="#313749" stroke-opacity="0.501961" stroke-width="0.752941" stroke-linecap="round" />
<path d="M 105.885 36.008 L 74.0531 34.2308 L 90.7106 20.5299 L 111.867 33.5647 Z" fill="#ffffff" fill-opacity="0.501961" />
<path d="M 100.536 41.4645 C 102.488 43.4171, 102.488 46.5829, 100.536 48.5355 C 98.5829 50.4882, 95.4171 50.4882, 93.4645 48.5355 C 91.5118 46.5829, 91.5118 43.4171, 93.4645 41.4645 C 95.4171 39.5118, 98.5829 39.5118, 100.536 41.4645" fill="#ffffff" fill-opacity="0.501961" />
<path d="M 55.6116 195.697 C 54.7901 196.631, 53.1762 197.044, 52.0068 196.619 C 50.8374 196.193, 50.5553 195.091, 51.3768 194.156 C 52.1983 193.221, 53.8123 192.809, 54.9817 193.234 C 56.1511 193.659, 56.4331 194.762, 55.6116 195.697" fill="#f5f6f6" fill-opacity="0.501961" />
<path d="M 0 142 L 32 142 L 32 255 L 0 255 Z" fill="#2c3345" fill-opacity="0.501961" />
<path d="M 50.1375 199.119 C 54.8256 197.102, 61.1867 198.717, 64.3453 202.726 C 67.504 206.734, 66.2641 211.619, 61.5759 213.636 C 56.8878 215.652, 50.5268 214.038, 47.3681 210.029 C 44.2095 206.02, 45.4494 201.136, 50.1375 199.119" fill="#2d3446" fill-opacity="0.501961" />
<path d="M 116 118 L 79 106 L 95 79 Z" fill="#2c3345" fill-opacity="0.501961" />
<path d="M 46.964 136.794 L 45.7061 88.5546 L 50.649 97.2553 L 40.4029 47.9148 Z" fill="#2d3446" fill-opacity="0.501961" />
<path d="M 212.637 89.0531 L 121.877 45.0449 L 121.504 -16 L 155.123 42.0799 Z" fill="#2c3345" fill-opacity="0.501961" />
<path d="M 49.7071 35.8787 C 50.0976 37.0503, 50.0976 38.9497, 49.7071 40.1213 C 49.3166 41.2929, 48.6834 41.2929, 48.2929 40.1213 C 47.9024 38.9497, 47.9024 37.0503, 48.2929 35.8787 C 48.6834 34.7071, 49.3166 34.7071, 49.7071 35.8787" fill="#fefefe" fill-opacity="0.501961" />
<path d="M 169 68 L 225 45 L 262 74 Z" fill="#2c3345" fill-opacity="0.501961" />
<path d="M 121.725 23.3039 C 116.485 18.5354, 114.968 9.61707, 118.337 3.38421 C 121.707 -2.84865, 128.686 -4.03575, 133.926 0.732749 C 139.167 5.50125, 140.683 14.4196, 137.314 20.6525 C 133.945 26.8853, 126.966 28.0724, 121.725 23.3039" fill="#2c3345" fill-opacity="0.501961" />
<path d="M 244.707 114.293 C 245.098 114.683, 245.098 115.317, 244.707 115.707 C 244.317 116.098, 243.683 116.098, 243.293 115.707 C 242.902 115.317, 242.902 114.683, 243.293 114.293 C 243.683 113.902, 244.317 113.902, 244.707 114.293" fill="#ffffff" fill-opacity="0.501961" />
<path d="M 141.707 7.17157 C 142.098 8.73367, 142.098 11.2663, 141.707 12.8284 C 141.317 14.3905, 140.683 14.3905, 140.293 12.8284 C 139.902 11.2663, 139.902 8.73367, 140.293 7.17157 C 140.683 5.60948, 141.317 5.60948, 141.707 7.17157" fill="#707580" fill-opacity="0.501961" />
<path d="M 100 62 L 112 36 L 117 49 Z" fill="#ffffff" fill-opacity="0.501961" />
<path d="M 222.978 12.9206 L 231.38 16.1459 L 231.022 17.0794 L 222.62 13.8541 Z" fill="#fffffe" fill-opacity="0.501961" />
<path d="M 41 18 L 56 18 L 56 32 L 41 32 Z" fill="#2c3345" fill-opacity="0.501961" />
<path d="M 149.196 21.8449 L 108.763 82.6348 L 188.873 -16 L 139.638 7.71893 Z" fill="#2c3345" fill-opacity="0.501961" />
<path d="M 52.7071 112.293 C 53.0976 112.683, 53.0976 113.317, 52.7071 113.707 C 52.3166 114.098, 51.6834 114.098, 51.2929 113.707 C 50.9024 113.317, 50.9024 112.683, 51.2929 112.293 C 51.6834 111.902, 52.3166 111.902, 52.7071 112.293" fill="#bdc0c5" fill-opacity="0.501961" />
<path d="M -16 148 L 65 115 L 167 137 Z" fill="#2c3345" fill-opacity="0.501961" />
<path d="M 155.414 62.7574 C 156.195 65.1005, 156.195 68.8995, 155.414 71.2426 C 154.633 73.5858, 153.367 73.5858, 152.586 71.2426 C 151.805 68.8995, 151.805 65.1005, 152.586 62.7574 C 153.367 60.4142, 154.633 60.4142, 155.414 62.7574" fill="#ffffff" fill-opacity="0.501961" />
<path d="M 83.7322 177.558 L 84.6152 178.027 L 82.2678 182.442 L 81.3848 181.973 Z" fill="#cccdd0" fill-opacity="0.501961" />
<path d="M 87.1213 173.879 C 88.2929 175.05, 88.2929 176.95, 87.1213 178.121 C 85.9497 179.293, 84.0503 179.293, 82.8787 178.121 C 81.7071 176.95, 81.7071 175.05, 82.8787 173.879 C 84.0503 172.707, 85.9497 172.707, 87.1213 173.879" fill="#272e40" fill-opacity="0.501961" />
<path d="M 90.0561 182.903 C 97.4878 185.927, 101.931 194.687, 99.9797 202.469 C 98.0287 210.252, 90.4225 214.11, 82.9909 211.086 C 75.5592 208.062, 71.1163 199.301, 73.0673 191.519 C 75.0183 183.736, 82.6245 179.879, 90.0561 182.903" fill="#2c3345" fill-opacity="0.501961" />
<path d="M 156 28 L 195 17 L 139 -10 Z" fill="#2c3345" fill-opacity="0.501961" />
<path d="M 114.486 56.1839 L 137.223 14.8825 L 137.795 82.7121 L 94.1805 70.429 Z" fill="#2d3446" fill-opacity="0.501961" />
<path d="M 230.707 106.293 C 231.098 106.683, 231.098 107.317, 230.707 107.707 C 230.317 108.098, 229.683 108.098, 229.293 107.707 C 228.902 107.317, 228.902 106.683, 229.293 106.293 C 229.683 105.902, 230.317 105.902, 230.707 106.293" fill="#cccdd1" fill-opacity="0.501961" />
<path d="M 94.1574 62.1178 C 89.6194 62.1801, 89.2733 60.6719, 93.3843 58.7492 C 97.4953 56.8266, 104.507 55.2175, 109.045 55.1552 C 113.583 55.0929, 113.929 56.6011, 109.818 58.5238 C 105.707 60.4465, 98.6953 62.0556, 94.1574 62.1178" fill="#fefefe" fill-opacity="0.501961" />
<path d="M 191.979 153.975 L 192.066 152.979 L 204.021 154.025 L 203.934 155.021 Z" fill="#ffffff" fill-opacity="0.501961" />
<path d="M 14 42 L 27 42 L 27 50 L 14 50 Z" fill="#2b3144" fill-opacity="0.501961" />
<path d="M 78.7071 23.2929 C 79.0976 23.6834, 79.0976 24.3166, 78.7071 24.7071 C 78.3166 25.0976, 77.6834 25.0976, 77.2929 24.7071 C 76.9024 24.3166, 76.9024 23.6834, 77.2929 23.2929 C 77.6834 22.9024, 78.3166 22.9024, 78.7071 23.2929" fill="#192339" fill-opacity="0.501961" />
<path d="M 73.9552 34.565 C 79.0824 22.97, 79.3827 16.3033, 74.856 14.5648" fill="none" stroke="#f7f8f8" stroke-opacity="0.501961" stroke-width="0.752941" stroke-linecap="round" />
<path d="M 103.221 102.57 L 75.5597 58.9879 L 112.307 89.3442 L 106.675 76.4333 Z" fill="#2c3345" fill-opacity="0.501961" />
<path d="M 167.707 191.879 C 168.098 193.05, 168.098 194.95, 167.707 196.121 C 167.317 197.293, 166.683 197.293, 166.293 196.121 C 165.902 194.95, 165.902 193.05, 166.293 191.879 C 166.683 190.707, 167.317 190.707, 167.707 191.879" fill="#686d79" fill-opacity="0.501961" />
<path d="M 154.707 29.2929 C 155.098 29.6834, 155.098 30.3166, 154.707 30.7071 C 154.317 31.0976, 153.683 31.0976, 153.293 30.7071 C 152.902 30.3166, 152.902 29.6834, 153.293 29.2929 C 153.683 28.9024, 154.317 28.9024, 154.707 29.2929" fill="#ffffff" fill-opacity="0.501961" />
<path d="M 151.536 79.6863 C 153.488 85.9347, 153.488 96.0653, 151.536 102.314 C 149.583 108.562, 146.417 108.562, 144.464 102.314 C 142.512 96.0653, 142.512 85.9347, 144.464 79.6863 C 146.417 73.4379, 149.583 73.4379, 151.536 79.6863" fill="#2c3345" fill-opacity="0.501961" />
<path d="M 38.2918 86.8136 L 64.9197 61.3453 L 68.2631 103.614 L 66.2409 105.965 Z" fill="#2d3446" fill-opacity="0.501961" />
<path d="M 48.9611 96.2555 L 48.0156 96.5811 L 47.0389 93.7445 L 47.9844 93.4189 Z" fill="#ffffff" fill-opacity="0.501961" />
<path d="M 127.548 188.955 L 257.597 89.5426 L 205.335 153.262 L 208.503 142.559 Z" fill="#2d3446" fill-opacity="0.501961" />
<path d="M 105.121 39.8787 C 106.293 41.0503, 106.293 42.9497, 105.121 44.1213 C 103.95 45.2929, 102.05 45.2929, 100.879 44.1213 C 99.7071 42.9497, 99.7071 41.0503, 100.879 39.8787 C 102.05 38.7071, 103.95 38.7071, 105.121 39.8787" fill="#ffffff" fill-opacity="0.501961" />
<path d="M 124 178 L 168 114 L 191 156 Z" fill="#2c3345" fill-opacity="0.501961" />
<path d="M 112 109 L 114 109 L 114 111 L 112 111 Z" fill="#d9d9db" fill-opacity="0.501961" />
<path d="M 101.862 100.365 C 104.711 102.124, 108.937 105.473, 111.302 107.844 C 113.666 110.216, 113.273 110.712, 110.423 108.953 C 107.574 107.194, 103.348 103.845, 100.984 101.474 C 98.6194 99.1024, 99.0125 98.6061, 101.862 100.365" fill="#2b3244" fill-opacity="0.501961" />
<path d="M 118.542 112.049 L 111.833 107.692 L 119.458 95.9507 L 126.167 100.308 Z" fill="#2c3345" fill-opacity="0.501961" />
<path d="M 239 189 L 241 189 L 241 191 L 239 191 Z" fill="#a1a4ac" fill-opacity="0.501961" />
<path d="M 236.022 176.635 C 248.075 182.527, 240.863 213.982, 214.387 271" fill="none" stroke="#2c3345" stroke-opacity="0.501961" stroke-width="0.752941" stroke-linecap="round" />
<path d="M 247 189 L 220 189 L 217 154 Z" fill="#2d3446" fill-opacity="0.501961" />
<path d="M 33 127 L 54 190 L 85 114 Z" fill="#2c3345" fill-opacity="0.501961" />
<path d="M 54.0536 36.5067 C 51.7326 42.2374, 41.0486 39.6078, 22.0015 28.6177" fill="none" stroke="#ffffff" stroke-opacity="0.501961" stroke-width="0.752941" stroke-linecap="round" />
<path d="M 34.7071 176.293 C 35.0976 176.683, 35.0976 177.317, 34.7071 177.707 C 34.3166 178.098, 33.6834 178.098, 33.2929 177.707 C 32.9024 177.317, 32.9024 176.683, 33.2929 176.293 C 33.6834 175.902, 34.3166 175.902, 34.7071 176.293" fill="#ffffff" fill-opacity="0.501961" />
<path d="M -3 16 L 25 2 L 15 18 Z" fill="#2c3345" fill-opacity="0.501961" />
<path d="M 55.6569 40.2929 C 58.781 40.6834, 58.781 41.3166, 55.6569 41.7071 C 52.5327 42.0976, 47.4673 42.0976, 44.3431 41.7071 C 41.219 41.3166, 41.219 40.6834, 44.3431 40.2929 C 47.4673 39.9024, 52.5327 39.9024, 55.6569 40.2929" fill="#686d7a" fill-opacity="0.501961" />
<path d="M 201.938 109.001 L 202.18 108.031 L 206.062 108.999 L 205.82 109.969 Z" fill="#717682" fill-opacity="0.501961" />
<path d="M 201.146 104.716 L 204.556 108.372 L 192.854 119.284 L 189.444 115.628 Z" fill="#2a3143" fill-opacity="0.501961" />
<path d="M 136 157 L 137 157 L 137 159 L 136 159 Z" fill="#acaeb5" fill-opacity="0.501961" />
<path d="M 50.4142 195.586 C 51.1953 196.367, 51.1953 197.633, 50.4142 198.414 C 49.6332 199.195, 48.3668 199.195, 47.5858 198.414 C 46.8047 197.633, 46.8047 196.367, 47.5858 195.586 C 48.3668 194.805, 49.6332 194.805, 50.4142 195.586" fill="#e5e6e7" fill-opacity="0.501961" />
<path d="M 99.7071 50.2929 C 100.098 50.6834, 100.098 51.3166, 99.7071 51.7071 C 99.3166 52.0976, 98.6834 52.0976, 98.2929 51.7071 C 97.9024 51.3166, 97.9024 50.6834, 98.2929 50.2929 C 98.6834 49.9024, 99.3166 49.9024, 99.7071 50.2929" fill="#505561" fill-opacity="0.501961" />
<path d="M 127 80 L 110 111 L 77 105 Z" fill="#2c3345" fill-opacity="0.501961" />
<path d="M 91.55 51.6448 C 87.5499 51.6544, 82.6978 48.8471, 80.7125 45.3746 C 78.7271 41.902, 80.3603 39.0792, 84.3603 39.0696 C 88.3603 39.06, 93.2124 41.8673, 95.1978 45.3398 C 97.1832 48.8124, 95.55 51.6352, 91.55 51.6448" fill="#f9f9fa" fill-opacity="0.501961" />
<path d="M 244.183 115.103 L 243.008 113.485 L 243.817 112.897 L 244.992 114.515 Z" fill="#e7e8ea" fill-opacity="0.501961" />
<path d="M 59 271 L 51 197 L 7 197 Z" fill="#2d3446" fill-opacity="0.501961" />
<path d="M 265.231 114.254 C 251.924 108.813, 232.155 114.66, 205.922 131.794" fill="none" stroke="#2d3446" stroke-opacity="0.501961" stroke-width="0.752941" stroke-linecap="round" />
<path d="M 249 34 L 226 76 L 232 110 Z" fill="#2c3345" fill-opacity="0.501961" />
<path d="M 169.728 74.2929 C 176.757 74.6834, 176.757 75.3166, 169.728 75.7071 C 162.698 76.0976, 151.302 76.0976, 144.272 75.7071 C 137.243 75.3166, 137.243 74.6834, 144.272 74.2929 C 151.302 73.9024, 162.698 73.9024, 169.728 74.2929" fill="#6e737e" fill-opacity="0.501961" />
<path d="M 201.017 41.1303 L 189.833 -0.703754 L 204.011 14.852 L 189.16 -15.2688 Z" fill="#2d3446" fill-opacity="0.501961" />
<path d="M 78 40 L 103 40 L 103 42 L 78 42 Z" fill="#ffffff" fill-opacity="0.501961" />
<path d="M 154.707 28.2929 C 155.098 28.6834, 155.098 29.3166, 154.707 29.7071 C 154.317 30.0976, 153.683 30.0976, 153.293 29.7071 C 152.902 29.3166, 152.902 28.6834, 153.293 28.2929 C 153.683 27.9024, 154.317 27.9024, 154.707 28.2929" fill="#ffffff" fill-opacity="0.501961" />
<path d="M 30.9215 166.234 C 31.6279 170.173, 33.5834 174.201, 36.788 178.319" fill="none" stroke="#3e4455" stroke-opacity="0.501961" stroke-width="0.752941" stroke-linecap="round" />
<path d="M 173.485 73.2929 C 178.172 73.6834, 178.172 74.3166, 173.485 74.7071 C 168.799 75.0976, 161.201 75.0976, 156.515 74.7071 C 151.828 74.3166, 151.828 73.6834, 156.515 73.2929 C 161.201 72.9024, 168.799 72.9024, 173.485 73.2929" fill="#ffffff" fill-opacity="0.501961" />
<path d="M 107.828 63.2755 L 92.4477 67.6857 L 92.1721 66.7245 L 107.552 62.3143 Z" fill="#232a3d" fill-opacity="0.501961" />
<path d="M 120.368 110.49 L 140.88 102.067 L 129.791 82.2056 L 182.674 105.752 Z" fill="#2d3446" fill-opacity="0.501961" />
<path d="M 67.9735 108.807 L 74.2105 105.629 L 76.0265 109.193 L 69.7895 112.371 Z" fill="#ffffff" fill-opacity="0.501961" />
<path d="M -1.04951 29.9376 L 57.9943 -16 L 13.1957 -9.20626 L 19.1368 34.6623 Z" fill="#2d3446" fill-opacity="0.501961" />
<path d="M 63.2221 108.464 C 72.7483 94.5587, 70.1183 62.141, 55.332 11.2111" fill="none" stroke="#2c3446" stroke-opacity="0.501961" stroke-width="0.752941" stroke-linecap="round" />
<path d="M 80 37 L 96 37 L 96 38 L 80 38 Z" fill="#777780" fill-opacity="0.501961" />
<path d="M 50.744 92.6567 C 68.8488 113.671, 68.375 114.091, 49.6856 93.5948 C 30.9963 73.0988, 1.16871 39.4484, -16.9361 18.4343 C -35.041 -2.57969, -34.5672 -2.99968, -15.8778 17.4963 C 2.8115 37.9922, 32.6391 71.6427, 50.744 92.6567" fill="#2f3547" fill-opacity="0.501961" />
<path d="M 167 170 L 197 170 L 197 255 L 167 255 Z" fill="#2d3446" fill-opacity="0.501961" />
<path d="M 102.958 50.5368 L 104.412 53.1607 L 93.0422 59.4632 L 91.5878 56.8393 Z" fill="#ffffff" fill-opacity="0.501961" />
<path d="M 93.5784 63.8621 C 88.3291 62.6685, 80.146 59.7989, 75.3009 57.4526 C 70.4559 55.1063, 70.7835 54.1718, 76.0329 55.3654 C 81.2822 56.559, 89.4653 59.4286, 94.3104 61.7749 C 99.1554 64.1212, 98.8278 65.0556, 93.5784 63.8621" fill="#fdfdfd" fill-opacity="0.501961" />
<path d="M 88.137 108.08 C 84.4342 111.939, 81.7019 110.74, 82.0344 105.403 C 82.3668 100.065, 85.6381 92.6089, 89.3409 88.7498 C 93.0438 84.8907, 95.776 86.0895, 95.4436 91.4274 C 95.1111 96.7653, 91.8399 104.221, 88.137 108.08" fill="#2d3446" fill-opacity="0.501961" />
<path d="M 166.414 191.586 C 167.195 192.367, 167.195 193.633, 166.414 194.414 C 165.633 195.195, 164.367 195.195, 163.586 194.414 C 162.805 193.633, 162.805 192.367, 163.586 191.586 C 164.367 190.805, 165.633 190.805, 166.414 191.586" fill="#afb2b8" fill-opacity="0.501961" />
<path d="M 162 187 L 168 203 L 161 196 Z" fill="#293042" fill-opacity="0.501961" />
<path d="M 140.359 83.0136 L 141.986 79.3594 L 145.641 80.9864 L 144.014 84.6406 Z" fill="#a1a4ab" fill-opacity="0.501961" />
<path d="M 152 76 L 144 76 L 144 90 L 152 90 Z" fill="#2a3143" fill-opacity="0.501961" />
<path d="M 139.08 82.7371 L 161.425 85.1989 L 212.133 105.709 L 130.91 108.35 Z" fill="#2c3345" fill-opacity="0.501961" />
<path d="M 244.971 18.6891 L 222.418 18.708 L 160.501 23.6056 L 178.423 76.2161 Z" fill="#2c3345" fill-opacity="0.501961" />
<path d="M 151.278 19.6879 L 152.618 30.6059 L 138.722 32.3121 L 137.382 21.3941 Z" fill="#2c3345" fill-opacity="0.501961" />
<path d="M 6.24591 99.1714 L -16 109.378 L 31.2009 106.541 L 15.4436 88.3482 Z" fill="#2d3345" fill-opacity="0.501961" />
<path d="M 77.8043 43.8982 L 75.3971 40.7036 L 76.1957 40.1018 L 78.6029 43.2964 Z" fill="#4b4f5e" fill-opacity="0.501961" />
<path d="M 121.607 174.393 C 127.464 180.251, 127.464 189.749, 121.607 195.607 C 115.749 201.464, 106.251 201.464, 100.393 195.607 C 94.5355 189.749, 94.5355 180.251, 100.393 174.393 C 106.251 168.536, 115.749 168.536, 121.607 174.393" fill="#2c3345" fill-opacity="0.501961" />
<path d="M 22.7509 28.0422 C 25.2035 39.0677, 33.6765 41.0131, 48.17 33.8783" fill="none" stroke="#fbfbfb" stroke-opacity="0.501961" stroke-width="0.752941" stroke-linecap="round" />
<path d="M 95.7071 51.2929 C 96.0976 51.6834, 96.0976 52.3166, 95.7071 52.7071 C 95.3166 53.0976, 94.6834 53.0976, 94.2929 52.7071 C 93.9024 52.3166, 93.9024 51.6834, 94.2929 51.2929 C 94.6834 50.9024, 95.3166 50.9024, 95.7071 51.2929" fill="#2e313e" fill-opacity="0.501961" />
<path d="M 166.707 67.2929 C 167.098 67.6834, 167.098 68.3166, 166.707 68.7071 C 166.317 69.0976, 165.683 69.0976, 165.293 68.7071 C 164.902 68.3166, 164.902 67.6834, 165.293 67.2929 C 165.683 66.9024, 166.317 66.9024, 166.707 67.2929" fill="#838792" fill-opacity="0.501961" />
<path d="M 142.707 80.2929 C 143.098 80.6834, 143.098 81.3166, 142.707 81.7071 C 142.317 82.0976, 141.683 82.0976, 141.293 81.7071 C 140.902 81.3166, 140.902 80.6834, 141.293 80.2929 C 141.683 79.9024, 142.317 79.9024, 142.707 80.2929" fill="#ffffff" fill-opacity="0.501961" />
<path d="M 16.6122 78.9361 C 15.4207 85.9767, 9.07297 93.8161, 2.4342 96.4459 C -4.20457 99.0757, -8.62044 95.5001, -7.42892 88.4596 C -6.23741 81.419, 0.110285 73.5796, 6.74905 70.9498 C 13.3878 68.32, 17.8037 71.8956, 16.6122 78.9361" fill="#2c3345" fill-opacity="0.501961" />
<path d="M 77 104 L 87 104 L 87 107 L 77 107 Z" fill="#282f41" fill-opacity="0.501961" />
<path d="M 98.5015 -10.822 C 213.501 39.7076, 262.129 83.002, 244.387 119.061" fill="none" stroke="#2c3345" stroke-opacity="0.501961" stroke-width="0.752941" stroke-linecap="round" />
<path d="M 156.086 168.741 L 85.82 271 L 268.752 202.035 L 165.041 194.562 Z" fill="#2c3345" fill-opacity="0.501961" />
<path d="M 237.707 49.2929 C 238.098 49.6834, 238.098 50.3166, 237.707 50.7071 C 237.317 51.0976, 236.683 51.0976, 236.293 50.7071 C 235.902 50.3166, 235.902 49.6834, 236.293 49.2929 C 236.683 48.9024, 237.317 48.9024, 237.707 49.2929" fill="#606572" fill-opacity="0.501961" />
<path d="M 63.4779 33.7566 C 74.9813 30.2799, 81.2604 21.8832, 82.3151 8.56649" fill="none" stroke="#f6f7f7" stroke-opacity="0.501961" stroke-width="0.752941" stroke-linecap="round" />
<path d="M 61 196 L 29 158 L 127 84 Z" fill="#2c3345" fill-opacity="0.501961" />
<path d="M 15 38 L 48 38 L 48 35 L 15 35 Z" fill="#ffffff" fill-opacity="0.501961" />
<path d="M 96.9798 31.5827 C 92.6247 34.0241, 90.029 32.0653, 91.182 27.2076 C 92.335 22.3499, 96.8002 16.4327, 101.155 13.9913 C 105.51 11.5498, 108.106 13.5086, 106.953 18.3663 C 105.8 23.2241, 101.335 29.1412, 96.9798 31.5827" fill="#ffffff" fill-opacity="0.501961" />
<path d="M 58.9497 198.293 C 61.6834 198.683, 61.6834 199.317, 58.9497 199.707 C 56.2161 200.098, 51.7839 200.098, 49.0503 199.707 C 46.3166 199.317, 46.3166 198.683, 49.0503 198.293 C 51.7839 197.902, 56.2161 197.902, 58.9497 198.293" fill="#10172d" fill-opacity="0.501961" />
<path d="M 76.1768 13.5583 L 73.9557 48.0986 L 65.7544 47.2763 L 63.7083 34.2053 Z" fill="#fefefd" fill-opacity="0.501961" />
<path d="M 66.8424 49.211 L 72.6046 59.5217 L 58.1654 110.406 L 38.4873 67.8286 Z" fill="#2d3446" fill-opacity="0.501961" />
<path d="M 175.414 70.5858 C 176.195 71.3668, 176.195 72.6332, 175.414 73.4142 C 174.633 74.1953, 173.367 74.1953, 172.586 73.4142 C 171.805 72.6332, 171.805 71.3668, 172.586 70.5858 C 173.367 69.8047, 174.633 69.8047, 175.414 70.5858" fill="#edeeef" fill-opacity="0.501961" />
<path d="M 52.1421 39.2929 C 59.9526 39.6834, 59.9526 40.3166, 52.1421 40.7071 C 44.3316 41.0976, 31.6684 41.0976, 23.8579 40.7071 C 16.0474 40.3166, 16.0474 39.6834, 23.8579 39.2929 C 31.6684 38.9024, 44.3316 38.9024, 52.1421 39.2929" fill="#ebebed" fill-opacity="0.501961" />
<path d="M 180.258 67.8281 C 186.756 68.998, 196.05 73.4719, 201.017 77.8209 C 205.985 82.1698, 204.744 84.7469, 198.247 83.5771 C 191.749 82.4072, 182.455 77.9333, 177.488 73.5843 C 172.52 69.2354, 173.761 66.6583, 180.258 67.8281" fill="#2e3547" fill-opacity="0.501961" />
<path d="M 159 58 L 164 68 L 166 62 Z" fill="#282f41" fill-opacity="0.501961" />
<path d="M 60.3174 40.4498 C 53.683 92.2889, 71.0917 115.955, 112.543 111.448" fill="none" stroke="#2c3345" stroke-opacity="0.501961" stroke-width="0.752941" stroke-linecap="round" />
<path d="M 22.3202 184.857 L 161.844 131.087 L 114.39 181.474 L 137.58 159.363 Z" fill="#2c3345" fill-opacity="0.501961" />
<path d="M 197 14 L 226 14 L 226 17 L 197 17 Z" fill="#feffff" fill-opacity="0.501961" />
<path d="M 144 38 L 143 38 L 143 69 L 144 69 Z" fill="#2a3143" fill-opacity="0.501961" />
<path d="M 219 2 L 249 6 L 223 12 Z" fill="#2c3345" fill-opacity="0.501961" />
<path d="M 140.707 72.2929 C 141.098 72.6834, 141.098 73.3166, 140.707 73.7071 C 140.317 74.0976, 139.683 74.0976, 139.293 73.7071 C 138.902 73.3166, 138.902 72.6834, 139.293 72.2929 C 139.683 71.9024, 140.317 71.9024, 140.707 72.2929" fill="#ffffff" fill-opacity="0.501961" />
<path d="M 77 39 L 107 39 L 107 40 L 77 40 Z" fill="#f7f6f7" fill-opacity="0.501961" />
<path d="M 175.678 42.0028 C 183.454 39.8955, 190.479 44.6779, 191.37 52.6846 C 192.26 60.6913, 186.678 68.8904, 178.903 70.9977 C 171.127 73.105, 164.102 68.3226, 163.212 60.3159 C 162.321 52.3092, 167.903 44.1101, 175.678 42.0028" fill="#2d3446" fill-opacity="0.501961" />
<path d="M 205.381 13.657 C 220.317 17.1164, 229.39 18.1016, 232.601 16.6124" fill="none" stroke="#f8f9f9" stroke-opacity="0.501961" stroke-width="0.752941" stroke-linecap="round" />
</g>
</svg>
